<?xml version="1.0" encoding="UTF-8"?>
<svg width="48px" height="77px" viewBox="0 0 48 77" version="1.1" xmlns="http://www.w3.org/2000/svg" xmlns:xlink="http://www.w3.org/1999/xlink">
    <!-- Generator: Sketch 40 (33762) - http://www.bohemiancoding.com/sketch -->
    <title>css</title>
    <desc>Created with Sketch.</desc>
    <defs>
        <linearGradient x1="50.0006154%" y1="100.000619%" x2="50.0006154%" y2="0.000866325912%" id="linearGradient-1">
            <stop stop-color="#D1D3D4" stop-opacity="0" offset="38.7%"></stop>
            <stop stop-color="#D1D3D4" offset="100%"></stop>
        </linearGradient>
        <linearGradient x1="49.9997127%" y1="100.000833%" x2="49.9997127%" y2="0.000595316053%" id="linearGradient-2">
            <stop stop-color="#D1D3D4" stop-opacity="0" offset="38.7%"></stop>
            <stop stop-color="#D1D3D4" offset="100%"></stop>
        </linearGradient>
        <linearGradient x1="-5.15291268e-05%" y1="50.0003935%" x2="99.9996908%" y2="50.0003935%" id="linearGradient-3">
            <stop stop-color="#E8E7E5" offset="0%"></stop>
            <stop stop-color="#FFFFFF" offset="100%"></stop>
        </linearGradient>
        <linearGradient x1="9.49252938e-05%" y1="50%" x2="99.9998101%" y2="50%" id="linearGradient-4">
            <stop stop-color="#E8E7E5" offset="0%"></stop>
            <stop stop-color="#FFFFFF" offset="100%"></stop>
        </linearGradient>
    </defs>
    <g id="Maquette" stroke="none" stroke-width="1" fill="none" fill-rule="evenodd">
        <g id="nav-view-desktop-copy" transform="translate(-640.000000, -3178.000000)">
            <g id="Built-with" transform="translate(0.000000, 3137.000000)">
                <g id="css" transform="translate(628.000000, 41.000000)">
                    <g id="Layer_1" transform="translate(0.000000, 13.000000)">
                        <polygon id="Shape" points="0 0 67.9475176 0 67.9475176 67.9473915 0 67.9473915"></polygon>
                        <polygon id="Shape" fill="#2062AF" points="51.1576994 58.9737885 33.9735065 63.6008163 16.7890612 58.9737885 12.8236141 16.0133061 55.1236512 16.0133061"></polygon>
                        <polygon id="Shape" fill="#3C9CD7" points="33.9733803 19.493039 33.9733803 59.910397 34.0122375 59.9209944 47.918679 56.1763265 51.1285566 19.493039 33.9733803 19.493039"></polygon>
                        <path d="M24.2207421,9.7015436 L24.2207421,7.14454174 L27.9514063,7.14454174 L27.9514063,4.34657514 L21.4227755,4.34657514 L21.4227755,12.2547607 L27.9514063,12.2547607 L27.9514063,9.7015436 L24.2207421,9.7015436 L24.2207421,9.7015436 Z M34.6624638,7.14454174 L37.2706865,7.14454174 L37.2706865,4.34657514 L30.7414249,4.34657514 L30.7414249,7.14454174 C31.6149536,8.0180705 32.0705158,8.43616327 33.3338776,9.69952505 C32.5953395,9.69952505 30.7414249,9.7021744 30.7414249,9.70204824 L30.7414249,12.2547607 L37.2706865,12.2547607 L37.2706865,9.7015436 L34.6624638,7.14454174 L34.6624638,7.14454174 Z M43.9165195,7.14454174 L46.524616,7.14454174 L46.524616,4.34657514 L39.995102,4.34657514 L39.995102,7.14454174 C40.8686308,8.0180705 41.3244453,8.43616327 42.5878071,9.69952505 C41.8495213,9.69952505 39.995102,9.7021744 39.995102,9.70204824 L39.995102,12.2547607 L46.5247421,12.2547607 L46.5247421,9.7015436 L43.9165195,7.14454174 L43.9165195,7.14454174 Z" id="Shape" fill="#000000"></path>
                        <polygon id="Shape" fill="#FFFFFF" points="33.958115 30.2348942 21.65882 35.3572245 22.0666939 40.4287124 33.958115 35.3443562 46.6075028 29.9361484 47.1319481 24.7482152"></polygon>
                        <polygon id="Shape" fill="url(#linearGradient-1)" points="21.6586939 35.3572245 22.0665677 40.4287124 33.9579889 35.3443562 33.9579889 30.2348942"></polygon>
                        <polygon id="Shape" fill="url(#linearGradient-2)" points="47.1319481 24.7483414 33.958115 30.2348942 33.958115 35.3443562 46.6075028 29.9361484"></polygon>
                        <polygon id="Shape" fill="url(#linearGradient-3)" points="21.6776178 35.3572245 22.0856178 40.4287124 40.3314434 40.486872 39.9233173 47.2487718 33.919384 48.9390575 28.1478367 47.4817885 27.7981224 43.2847124 22.4353321 43.2847124 23.1348868 51.3873098 33.9776698 54.5932764 44.7616623 51.4454694 46.1607718 35.3572245 21.6776178 35.3572245"></polygon>
                        <g id="Group" opacity="0.05" transform="translate(21.573284, 35.324675)" fill="#000000">
                            <path d="M12.3848312,0.0325491651 L0.0855361781,0.0325491651 L0.493410019,5.10403711 L12.3848312,5.14201113 L12.3848312,0.0325491651 L12.3848312,0.0325491651 Z M12.3848312,13.5982338 L12.3265455,13.6145083 L6.5557551,12.1572393 L6.20604082,7.96016327 L0.843376623,7.96016327 L1.54280519,16.0627607 L12.3848312,19.2687273 L12.3848312,13.5982338 L12.3848312,13.5982338 Z" id="Shape"></path>
                        </g>
                        <polygon id="Shape" fill="url(#linearGradient-4)" points="20.5511391 24.7483414 47.1319481 24.7483414 46.6075028 29.9362746 21.192282 29.9362746"></polygon>
                        <polygon id="Shape" fill="#000000" opacity="0.05" points="33.958115 24.7483414 20.5511391 24.7483414 21.192282 29.9362746 33.958115 29.9362746"></polygon>
                    </g>
                    <rect id="Rectangle-19-Copy-3" fill-opacity="0.00897305254" fill="#EDEDED" transform="translate(59.500000, 38.500000) scale(-1, 1) translate(-59.500000, -38.500000) " x="59" y="0" width="1" height="77"></rect>
                </g>
            </g>
        </g>
    </g>
</svg>