<?xml version="1.0" encoding="UTF-8"?>
<svg width="43px" height="77px" viewBox="0 0 43 77" version="1.1" xmlns="http://www.w3.org/2000/svg" xmlns:xlink="http://www.w3.org/1999/xlink">
    <!-- Generator: Sketch 40 (33762) - http://www.bohemiancoding.com/sketch -->
    <title>es6</title>
    <desc>Created with Sketch.</desc>
    <defs></defs>
    <g id="Maquette" stroke="none" stroke-width="1" fill="none" fill-rule="evenodd">
        <g id="nav-view-desktop-copy" transform="translate(-1064.000000, -3178.000000)">
            <g id="Built-with" transform="translate(0.000000, 3137.000000)">
                <g id="es6" transform="translate(1064.000000, 41.000000)">
                    <g transform="translate(0.000000, 16.000000)" id="Icônes">
                        <g>
                            <g id="es6">
                                <polygon id="Path-23" fill="#D6BA32" points="0.0615896938 11.8804701 42.9888154 11.8804701 39.1868632 56.1168237 21.5624298 60.9722416 4.02446837 55.8479037"></polygon>
                                <polygon id="Path-24" fill="#E8C825" points="39.5184207 15.215227 21.7252562 15.215227 21.7252562 57.1124101 35.9471358 53.264439"></polygon>
                                <path d="M35.1251597,21.0747616 L34.5465398,26.250853 L13.9366017,26.250853 L14.3506825,31.9120405 L33.9389656,31.9120405 L32.5016055,48.3949066 L21.5532886,51.5969368 L10.4999701,48.5803771 L8.16449064,21.1436011 L35.1251597,21.0747616 L35.1251597,21.0747616 Z M28.1730747,37.3164416 L27.6161964,44.3202481 L21.5728065,45.9612546 L15.4659215,44.4222694 L15.0083622,37.3927099 L28.1730747,37.3164416 L28.1730747,37.3164416 Z" id="Combined-Shape" fill="#FFFFFF"></path>
                                <polygon id="Combined-Shape" fill="#EBEBEB" points="21.6448251 26.250853 13.9366017 26.250853 14.3506825 31.9120405 21.6448251 31.9120405 21.6448251 37.3542622 15.0083622 37.3927099 15.4659215 44.4222694 21.5728065 45.9612546 21.6448251 45.9416989 21.6448251 51.5701653 21.5532886 51.5969368 10.4999701 48.5803771 8.16449064 21.1436011 21.6448251 21.1091813"></polygon>
                                <rect id="Rectangle-18" fill="#000000" x="21.5" y="0.0063729087" width="6.99761446" height="2.74442644"></rect>
                                <rect id="Rectangle-18-Copy" fill="#000000" x="21.5" y="5.49522578" width="6.99761446" height="2.74442644"></rect>
                                <rect id="Rectangle-18-Copy-3" fill="#000000" x="12.3726768" y="5.80016206" width="6.99761446" height="2.43949017"></rect>
                                <rect id="Rectangle-18-Copy-4" fill="#000000" x="12.3726768" y="0.0063729087" width="6.99761446" height="2.43949017"></rect>
                                <rect id="Rectangle-18-Copy-6" fill="#000000" x="12.3726768" y="2.90326748" width="4.86790572" height="2.43949017"></rect>
                                <polyline id="Rectangle-18-Copy-5" fill="#000000" points="15.0905264 0.276144408 15.0905264 7.28967862 12.3523294 7.28967862 12.3523294 0.276144408 15.0905264 0.276144408"></polyline>
                                <polyline id="Rectangle-18-Copy-2" fill="#000000" points="23.5246418 0.920482388 28.495089 5.4916523 26.6327959 7.53655928 21.5 2.74787729 23.5246418 0.920482388"></polyline>
                            </g>
                        </g>
                    </g>
                    <rect id="Rectangle-19-Copy-7" fill-opacity="0.00897305254" fill="#EDEDED" transform="translate(0.500000, 38.500000) scale(-1, 1) translate(-0.500000, -38.500000) " x="0" y="0" width="1" height="77"></rect>
                </g>
            </g>
        </g>
    </g>
</svg>