<?xml version="1.0" encoding="UTF-8"?>
<svg width="95px" height="77px" viewBox="0 0 95 77" version="1.1" xmlns="http://www.w3.org/2000/svg" xmlns:xlink="http://www.w3.org/1999/xlink">
    <!-- Generator: Sketch 40 (33762) - http://www.bohemiancoding.com/sketch -->
    <title>gulp</title>
    <desc>Created with Sketch.</desc>
    <defs></defs>
    <g id="Maquette" stroke="none" stroke-width="1" fill="none" fill-rule="evenodd">
        <g id="nav-view-desktop-copy" transform="translate(-850.000000, -3178.000000)">
            <g id="Built-with" transform="translate(0.000000, 3137.000000)">
                <g id="gulp" transform="translate(850.000000, 41.000000)">
                    <g id="Group">
                        <path d="M23.725827,66.8909894 L24.3784987,55.8704947 L26.1914758,52.7496466 C26.1914758,52.7496466 22.0820611,54.4563604 15.1685751,54.4563604 C8.27926209,54.4563604 4.20610687,52.7862191 4.20610687,52.7862191 L6.23664122,56.1996466 L6.96183206,66.8909894 C6.96183206,68.0491166 10.7086514,68.9634276 15.3377863,68.9634276 C19.9548346,68.9634276 23.7137405,68.0491166 23.7137405,66.8909894 M21.6590331,15.4213781 L23.0368957,9.93551237 L30.6513995,1.84081272 L28.6450382,0.121908127 L20.5712468,8.72862191 L18.975827,15.2872792 C17.8155216,15.2507067 16.6068702,15.2263251 15.3498728,15.2263251 C6.88931298,15.2385159 0,16.2137809 0,17.3962898 C0,18.615371 6.88931298,19.590636 15.3861323,19.590636 C23.9071247,19.590636 30.7964377,18.615371 30.7964377,17.3962898 C30.7964377,16.5063604 27.0496183,15.75053 21.6952926,15.4091873" id="Shape" fill="#D34A47"></path>
                        <path d="M69.9204835,59.2756184 C70.0413486,58.6904594 70.2105598,58.1540636 70.403944,57.6908127 L71.4433842,54.9722615 L72.4103053,52.5340989 L76.8339695,41.269788 C77.0152672,40.8187279 77.2449109,40.5017668 77.5591603,40.3189046 C77.8371501,40.1238516 78.139313,40.0385159 78.4414758,40.0385159 C78.7315522,40.0385159 79.009542,40.1360424 79.2512723,40.3310954 C79.4930025,40.5261484 79.6138677,40.8431095 79.6138677,41.3063604 C79.6138677,41.5014134 79.5896947,41.7208481 79.4930025,41.9524735 C79.4204835,42.1719081 79.3117048,42.440106 79.1908397,42.6839223 L78.3206107,44.6954064 L77.2328244,47.2798587 L76.0604326,50.1812721 L74.8759542,53.1070671 C74.4891858,54.0823322 74.1507634,54.9722615 73.7881679,55.8256184 L72.942112,58.0443463 C72.8212468,58.3125442 72.7003817,58.6295053 72.6157761,58.9830389 C72.4949109,59.3487633 72.4586514,59.6535336 72.4586514,59.9339223 C72.4586514,60.1045936 72.4949109,60.2508834 72.543257,60.3484099 C72.6036896,60.4459364 72.7245547,60.4946996 72.8816794,60.4946996 C73.0871501,60.4946996 73.3409669,60.4215548 73.6552163,60.275265 C73.9573791,60.1289753 74.283715,59.9339223 74.6463104,59.7022968 C75.0089059,59.4584806 75.3715013,59.1902827 75.7340967,58.8855124 C76.1329517,58.5685512 76.5197201,58.2515901 76.894402,57.9102473 C77.2811705,57.5932862 77.6437659,57.2641343 77.9821883,56.9349823 C78.3447837,56.5936396 78.6348601,56.2888693 78.9128499,56.0084806 C78.9611959,55.9475265 79.033715,55.8865724 79.1304071,55.8621908 L79.5655216,54.3992933 L79.8918575,53.5215548 C80.0368957,53.1314488 80.1940204,52.7535336 80.3753181,52.3878092 C80.5445293,52.0220848 80.7379135,51.6929329 80.9554707,51.4125442 C81.197201,51.1443463 81.4147583,51.0102473 81.6806616,51.0102473 C82.043257,51.0102473 82.3333333,51.095583 82.5267176,51.2784452 C82.6838422,51.4613074 82.7684478,51.7295053 82.7684478,52.0708481 C82.7684478,52.1561837 82.7684478,52.2659011 82.7442748,52.4121908 C82.7442748,52.5706714 82.7080153,52.7291519 82.6717557,52.8998233 L82.5750636,53.3874558 L82.490458,53.704417 C82.8530534,53.314311 83.2398219,52.9242049 83.6507634,52.5340989 C84.0858779,52.1439929 84.5209924,51.8026502 84.9802799,51.4734982 C85.4153944,51.1687279 85.8625954,50.9127208 86.3339695,50.7176678 C86.81743,50.5226148 87.264631,50.4250883 87.7360051,50.4250883 C88.062341,50.4250883 88.3765903,50.4738516 88.7029262,50.5469965 C89.0050891,50.6689046 89.2830789,50.7908127 89.5489822,50.9736749 C89.7907125,51.1443463 89.9840967,51.3637809 90.1533079,51.6441696 C90.2983461,51.9123675 90.3708651,52.2293286 90.3708651,52.595053 C90.3708651,53.0826855 90.25,53.570318 90.0082697,54.1189046 C89.7665394,54.6553004 89.4764631,55.2160777 89.1259542,55.7402827 C88.7633588,56.3010601 88.3765903,56.8374558 87.9535623,57.34947 L86.7811705,58.7636042 C86.4185751,59.1902827 86.0922392,59.5560071 85.8505089,59.8607774 C85.6087786,60.1411661 85.4879135,60.3484099 85.4637405,60.4459364 C85.4637405,60.5922261 85.5120865,60.6897527 85.6087786,60.7872792 C85.6933842,60.8726148 85.8505089,60.9091873 86.0438931,60.9091873 C86.2131043,60.9091873 86.4548346,60.8238516 86.769084,60.6409894 C87.0954198,60.4581272 87.5426209,60.1289753 88.1227735,59.6657244 C88.7029262,59.2146643 89.4522901,58.5929329 90.3225191,57.8371025 L93.6221374,54.9113074 C93.7430025,54.8137809 93.8638677,54.740636 93.9847328,54.6674912 C94.105598,54.6187279 94.2264631,54.5943463 94.3473282,54.5943463 C94.5407125,54.5943463 94.7099237,54.6918728 94.8307888,54.874735 C94.9153944,55.0575972 94.975827,55.2892226 94.975827,55.5696113 C94.975827,55.8743816 94.9153944,56.1791519 94.7824427,56.4961131 C94.6615776,56.8130742 94.4561069,57.0690813 94.2022901,57.2763251 C93.1628499,58.2150177 92.2321883,59.0561837 91.4223919,59.8363958 C90.5763359,60.5922261 89.826972,61.25053 89.1017812,61.7869258 C88.3765903,62.359894 87.6513995,62.7865724 86.9745547,63.0791519 C86.2856234,63.3839223 85.5483461,63.5424028 84.7627226,63.5424028 C84.0375318,63.5424028 83.4573791,63.3839223 83.0706107,63.0547703 C82.6475827,62.7378092 82.466285,62.2867491 82.466285,61.7137809 L82.466285,61.5918728 L82.466285,61.445583 C82.5025445,61.0798587 82.6596692,60.6897527 82.913486,60.2265018 C83.1793893,59.7876325 83.4936387,59.3121908 83.8804071,58.8245583 C84.2430025,58.3369258 84.629771,57.8492933 85.0407125,57.3616608 L86.2131043,55.9231449 C86.5756997,55.4720848 86.8536896,55.069788 87.0954198,54.7040636 C87.3371501,54.3383392 87.4580153,54.0213781 87.4580153,53.7897527 C87.4580153,53.6434629 87.3854962,53.5459364 87.3008906,53.4606007 C87.1800254,53.375265 87.0349873,53.3386926 86.81743,53.3386926 C86.4185751,53.3386926 86.0197201,53.4362191 85.6087786,53.6434629 C85.1978372,53.8385159 84.7868957,54.1310954 84.4001272,54.4602473 C83.9770992,54.8015901 83.5903308,55.1916961 83.1914758,55.6305654 C82.8288804,56.0938163 82.466285,56.5448763 82.1278626,57.020318 C81.7894402,57.5079505 81.4751908,57.995583 81.2092875,58.4588339 C80.9312977,58.9464664 80.6895674,59.3853357 80.4840967,59.7998233 C80.4357506,59.9217314 80.3632316,60.1045936 80.2423664,60.3362191 L79.8918575,61.1042403 L79.480916,62.0063604 C79.3600509,62.3111307 79.2150127,62.6159011 79.0941476,62.8840989 L78.7798982,63.6155477 L78.586514,64.054417 L78.3447837,64.6639576 C78.2239186,64.9443463 78.1030534,65.2734982 77.9580153,65.6757951 L77.4987277,66.8948763 L77.0515267,68.1139576 L76.6889313,69.1257951 C76.5680662,69.4183746 76.4955471,69.6134276 76.471374,69.7353357 C76.3746819,70.0279152 76.2538168,70.3083039 76.1329517,70.5886926 C76.0120865,70.8325088 75.8428753,71.0763251 75.6736641,71.2835689 C75.4923664,71.4908127 75.3110687,71.6492933 75.0693384,71.7712014 C74.8638677,71.8931095 74.6100509,71.9540636 74.3441476,71.9540636 C73.9815522,71.9540636 73.7035623,71.8687279 73.4739186,71.7102473 C73.2321883,71.5273852 73.1354962,71.2226148 73.1354962,70.7349823 C73.1354962,70.4911661 73.1596692,70.2473498 73.2201018,70.0035336 C73.2805344,69.7597173 73.3409669,69.5402827 73.437659,69.2964664 L73.7035623,68.6015901 C73.8002545,68.3577739 73.8848601,68.1627208 73.9452926,67.9432862 L75.5648855,64.4689046 C76.1208651,63.2985866 76.6526718,62.1526502 77.1361323,60.994523 L77.4624682,60.2630742 L77.3416031,60.3849823 C76.7372774,60.994523 76.0966921,61.5309187 75.4681934,62.0063604 C74.8396947,62.4696113 74.2232824,62.8597173 73.6068702,63.1279152 C73.0025445,63.4083039 72.3982188,63.5424028 71.7938931,63.5424028 C71.3950382,63.5424028 71.0687023,63.469258 70.802799,63.3473498 C70.5368957,63.2254417 70.3193384,63.0425795 70.1622137,62.8231449 C69.9930025,62.6159011 69.8842239,62.3355124 69.7996183,62.0429329 C69.7996183,61.9454064 69.7754453,61.835689 69.7512723,61.7381625 L69.2315522,62.1282686 C68.6272265,62.554947 68.0229008,62.9084806 67.4548346,63.1644876 C66.8746819,63.4326855 66.3428753,63.5545936 65.8835878,63.5545936 C65.4001272,63.5545936 65.0375318,63.3839223 64.735369,63.0669611 C64.4452926,62.7621908 64.3002545,62.2136042 64.3002545,61.4821555 C64.3002545,60.9335689 64.360687,60.3118375 64.5178117,59.6047703 C64.2760814,60.0558304 63.9497455,60.5190813 63.5750636,60.9823322 C63.2124682,61.4333922 62.7652672,61.8600707 62.2697201,62.2379859 C61.7862595,62.6280919 61.2423664,62.9328622 60.6380407,63.1766784 C60.033715,63.4204947 59.3810433,63.5424028 58.6679389,63.5424028 C58.3536896,63.5424028 58.0394402,63.4936396 57.7372774,63.4204947 C57.447201,63.335159 57.1812977,63.1766784 56.9637405,62.9938163 C56.7220102,62.7987633 56.552799,62.5305654 56.4198473,62.2014134 C56.2989822,61.8722615 56.2143766,61.4699647 56.2143766,60.9579505 L56.2868957,60.4215548 C56.3231552,60.080212 56.4561069,59.5438163 56.6494911,58.8001767 C56.8670483,58.0687279 57.1933842,57.1178445 57.6164122,55.9475265 C58.0756997,54.7772085 58.7041985,53.3508834 59.4898219,51.680742 C59.6952926,51.229682 59.9370229,50.9127208 60.2150127,50.7298587 C60.456743,50.5348057 60.7589059,50.4372792 61.0610687,50.4372792 C61.2061069,50.4372792 61.351145,50.4616608 61.4961832,50.4982332 C61.6412214,50.5226148 61.774173,50.5957597 61.9071247,50.6810954 C62.0279898,50.7664311 62.148855,50.8761484 62.2092875,51.0102473 C62.2938931,51.1321555 62.3301527,51.290636 62.3301527,51.4734982 C62.3301527,51.5954064 62.3301527,51.6929329 62.2818066,51.8026502 C62.2455471,51.9977032 62.1609415,52.2537102 61.9796438,52.5828622 L61.4236641,53.6800353 C61.1819338,54.1067138 60.9643766,54.5333922 60.7226463,55.0210247 C60.480916,55.5086572 60.2633588,55.9962898 60.0699746,56.5083039 C59.8645038,57.020318 59.6832061,57.5323322 59.5381679,58.0687279 C59.3931298,58.5929329 59.2964377,59.104947 59.2964377,59.6047703 C59.2964377,59.8120141 59.3447837,60.0070671 59.4414758,60.1777385 C59.5381679,60.3606007 59.6832061,60.4459364 59.9249364,60.4459364 C60.5534351,60.4459364 61.1577608,60.2386926 61.7379135,59.8120141 C62.3059796,59.3975265 62.8256997,58.8733216 63.3091603,58.2637809 C63.7926209,57.6542403 64.2519084,56.9715548 64.6386768,56.2522968 C65.0375318,55.5452297 65.3638677,54.9113074 65.629771,54.3017668 C65.8110687,53.9116608 65.9681934,53.4849823 66.1132316,53.0339223 C66.2582697,52.5828622 66.4033079,52.1561837 66.5725191,51.7782686 C66.7417303,51.3881625 66.9351145,51.0712014 67.1405852,50.8030035 C67.3581425,50.5591873 67.6240458,50.4372792 67.9503817,50.4372792 C68.3129771,50.4372792 68.5788804,50.5591873 68.7722646,50.839576 C68.9777354,51.0833922 69.086514,51.424735 69.086514,51.7904594 C69.086514,51.9977032 69.0139949,52.2780919 68.8931298,52.6438163 C68.7722646,53.0095406 68.5909669,53.4362191 68.3854962,53.9116608 C68.192112,54.3992933 67.9745547,54.8869258 67.7449109,55.4233216 C67.5031807,55.9597173 67.2856234,56.4961131 67.0922392,57.0446996 C66.8746819,57.605477 66.7296438,58.1418728 66.5846056,58.6660777 C66.4637405,59.2024735 66.3912214,59.690106 66.3912214,60.1289753 C66.3912214,60.5678445 66.5966921,60.7750883 67.0318066,60.7750883 C67.3339695,60.7750883 67.7086514,60.6775618 68.1558524,60.470318 C68.6030534,60.2630742 69.0744275,59.9826855 69.557888,59.5925795 L69.9204835,59.3 L69.9204835,59.2756184 Z M54.0871501,55.5208481 C54.0388041,55.5696113 53.966285,55.7646643 53.8454198,56.0694346 L53.4828244,57.2275618 L52.9993639,58.7879859 L52.4917303,60.5434629 C52.3104326,61.1530035 52.1291349,61.7259717 51.9720102,62.3111307 L51.5248092,63.8471731 C51.403944,64.3348057 51.2830789,64.70053 51.1984733,65.0174912 L51.0413486,65.5782686 C50.9930025,65.7611307 50.9204835,65.9683746 50.7996183,66.1878092 C50.7029262,66.4316254 50.557888,66.6388693 50.4370229,66.8461131 C50.2798982,67.0533569 50.1227735,67.2118375 49.9535623,67.3337456 C49.7722646,67.4800353 49.5909669,67.5531802 49.4096692,67.5531802 C49.0954198,67.5531802 48.8657761,67.4312721 48.7207379,67.2362191 C48.5998728,67.0289753 48.5273537,66.6266784 48.5273537,66.0902827 L48.5273537,65.8464664 L48.5273537,65.5782686 C48.5515267,65.3954064 48.6240458,65.0418728 48.769084,64.5298587 C48.8899491,64.0178445 49.0591603,63.4326855 49.2525445,62.7987633 C49.4338422,62.1526502 49.639313,61.4821555 49.8568702,60.79947 L50.4611959,58.9342756 C49.9293893,59.5194346 49.3734097,60.0924028 48.769084,60.6775618 C48.1647583,61.25053 47.5604326,61.774735 46.9198473,62.2257951 C46.3155216,62.6768551 45.6628499,63.0547703 45.0222646,63.3473498 C44.3575064,63.664311 43.7531807,63.7862191 43.148855,63.7862191 C42.4599237,63.7862191 41.879771,63.6399293 41.3842239,63.3473498 C40.9007634,63.0425795 40.4898219,62.6402827 40.1755725,62.1526502 C39.8492366,61.6650177 39.6075064,61.1164311 39.4503817,60.4946996 C39.293257,59.885159 39.2086514,59.2756184 39.2086514,58.6660777 L39.2086514,58.4222615 C39.2086514,58.3491166 39.2086514,58.3003534 39.2328244,58.2150177 C39.293257,57.1178445 39.4503817,55.9597173 39.716285,54.7772085 C39.9580153,53.6190813 40.2964377,52.4609541 40.7194656,51.290636 C41.1304071,50.1325088 41.6138677,48.9743816 42.1698473,47.8772085 C42.7137405,46.7800353 43.3059796,45.7194346 43.9586514,44.7319788 C44.5992366,43.7567138 45.2881679,42.8424028 46.0133588,42.0012367 C46.7385496,41.1722615 47.5,40.4651943 48.2614504,39.8678445 C49.0349873,39.2583039 49.8085242,38.795053 50.5941476,38.4659011 C51.379771,38.1245583 52.1653944,37.9538869 52.9268448,37.9538869 C53.8091603,37.9538869 54.6673028,38.1977032 55.4891858,38.6853357 C56.3110687,39.1729682 57.0846056,39.965371 57.8097964,41.0625442 C57.9790076,41.3063604 58.0756997,41.5501767 58.1240458,41.7939929 C58.1603053,42.0378092 58.1844784,42.2816254 58.1844784,42.5010601 C58.1844784,43.025265 58.0636132,43.4397527 57.821883,43.744523 C57.5801527,44.0492933 57.2779898,44.195583 56.9395674,44.195583 C56.6253181,44.195583 56.3352417,44.0249117 56.0693384,43.7079505 C55.8034351,43.3666078 55.5012723,42.8911661 55.1749364,42.2816254 C54.860687,41.7208481 54.5101781,41.3063604 54.1354962,41.0625442 C53.7729008,40.8187279 53.3619593,40.6968198 52.9268448,40.6968198 C52.2379135,40.6968198 51.5127226,40.9772085 50.7512723,41.5501767 C49.9656489,42.1109541 49.2041985,42.8667845 48.4548346,43.805477 C47.6812977,44.7319788 46.9561069,45.8047703 46.2550891,47.0116608 C45.5661578,48.2063604 44.9497455,49.4498233 44.4179389,50.705477 C43.8740458,51.9611307 43.4510178,53.2045936 43.1367684,54.4358657 C42.8225191,55.654947 42.6533079,56.7521201 42.6533079,57.7273852 C42.6533079,58.0687279 42.6895674,58.3978799 42.725827,58.7392226 C42.774173,59.0805654 42.8466921,59.3975265 42.9675573,59.6779152 C43.0884224,59.9583039 43.2697201,60.1899293 43.4751908,60.3606007 C43.6806616,60.5434629 43.9586514,60.6287986 44.2729008,60.6287986 C44.6354962,60.6287986 45.0343511,60.5068905 45.4815522,60.2630742 C45.9650127,60.019258 46.4243003,59.7022968 46.9319338,59.3121908 C47.4153944,58.909894 47.898855,58.4588339 48.3823155,57.9712014 C48.9020356,57.4835689 49.3492366,56.959364 49.7843511,56.4473498 C50.2073791,55.9353357 50.5941476,55.4477032 50.9204835,54.9844523 C51.2589059,54.4968198 51.5006361,54.094523 51.6698473,53.765371 L53.0235369,49.6570671 C53.1927481,49.2181979 53.4103053,48.9012367 53.6762087,48.7061837 C53.942112,48.5233216 54.2201018,48.4379859 54.4980916,48.4379859 C54.6189567,48.4379859 54.7639949,48.4379859 54.9090331,48.4989399 C55.0298982,48.5477032 55.1507634,48.6208481 55.2716285,48.7183746 C55.3924936,48.8159011 55.4650127,48.9621908 55.5133588,49.1084806 C55.5858779,49.2669611 55.6342239,49.4498233 55.6342239,49.6570671 C55.6342239,50.2178445 55.5737913,50.7298587 55.4770992,51.2418728 C55.3924936,51.7295053 55.259542,52.1927562 55.1145038,52.6560071 C54.9573791,53.119258 54.8002545,53.5825088 54.6068702,54.0579505 C54.4255725,54.545583 54.2442748,55.0332155 54.0750636,55.5452297 L54.0871501,55.5208481 Z" id="Shape" fill="#000000"></path>
                        <path d="M20.8492366,18.4934629 C20.8492366,18.4934629 20.5591603,18.554417 19.6768448,18.5666078 C18.8066158,18.5666078 18.178117,18.5666078 17.9243003,18.3227915 C17.8638677,18.2618375 17.8276081,18.1399293 17.8276081,18.0789753 C17.8276081,17.9083039 17.9484733,17.8107774 18.0693384,17.7498233 L18.2143766,17.969258 C18.153944,17.969258 18.1176845,18.0058304 18.1176845,18.030212 C18.1176845,18.1521201 19,18.225265 19.6889313,18.2130742 C20.3778626,18.2130742 21.2118321,18.1521201 21.2118321,18.030212 C21.2118321,17.9936396 21.1513995,17.9570671 21.0426209,17.9326855 L21.163486,17.7254417 C21.3447837,17.7863958 21.5019084,17.8961131 21.5019084,18.0911661 C21.5019084,18.3959364 21.1030534,18.4568905 20.8371501,18.4812721" id="Shape" fill="#FFFFFF"></path>
                        <path d="M30.639313,1.85300353 C30.8326972,1.6335689 30.5426209,1.06060071 29.9866412,0.572968198 C29.4548346,0.085335689 28.8505089,-0.109717314 28.6571247,0.109717314 C28.4637405,0.316961131 28.7538168,0.889929329 29.3097964,1.37756184 C29.8536896,1.86519435 30.4580153,2.06024735 30.639313,1.84081272 M23.351145,39.9858657 C23.1819338,38.2181979 27.1583969,35.670318 26.1310433,35.5971731 C23.9312977,35.7190813 22.8435115,38.1938163 21.7315522,40.7904594 C21.3326972,41.7413428 19.9427481,45.7886926 19.024173,45.3010601 C18.1176845,44.7890459 20.2086514,41.4609541 20.8008906,39.4860424 C20.1361323,39.9736749 17.6583969,41.9242049 17.0178117,40.095583 C15.990458,40.9733216 13.7907125,41.4365724 14.0324427,39.1446996 C13.4885496,40.1199647 12.2678117,41.4609541 10.793257,40.9123675 C8.85941476,40.1809187 11.9173028,33.9636042 12.6666667,34.2683746 C13.428117,34.5853357 12.5216285,35.99947 12.2798982,36.5480565 C11.7480916,37.7427562 11.1437659,39.2666078 11.5547074,39.5713781 C12.2436387,40.1077739 14.1412214,37.559894 14.1774809,37.4989399 C14.5400763,37.035689 15.543257,33.9636042 16.3530534,34.304947 C17.1628499,34.6706714 14.3346056,38.730212 15.3861323,39.5469965 C15.6036896,39.6932862 16.4739186,39.4250883 17.0178117,38.8521201 C17.3562341,38.4620141 17.235369,37.6330389 18.3835878,34.8657244 C19.5318066,32.1106007 20.5591603,28.6484099 21.3447837,28.9287986 C22.1424936,29.1726148 21.4898219,30.9524735 21.1997455,31.6107774 C19.870229,34.7072438 17.5737913,39.8151943 18.6615776,39.4128975 C19.7493639,39.0471731 20.3053435,39.0106007 21.3689567,37.7671378 C22.43257,36.5236749 22.3842239,34.4756184 23.0852417,34.5121908 C23.7862595,34.5487633 23.6653944,35.219258 23.4961832,35.7312721 C24.1851145,34.9144876 26.783715,33.2199647 27.4122137,34.9022968 C28.1615776,36.8772085 23.6895674,39.7420495 24.8015267,39.5957597 C25.889313,39.44947 27.653944,38.3279152 28.4033079,37.3038869 L30.4580153,18.5787986 C30.4580153,18.5787986 28.4033079,20.309894 15.1685751,20.309894 C1.94592875,20.309894 0.084605598,18.6031802 0.084605598,18.6031802 L1.83715013,35.7068905 C2.7678117,33.0492933 4.97964377,27.6365724 8.48473282,27.8194346 C10.0559796,27.9047703 12.1952926,30.9890459 10.370229,31.0865724 C9.60877863,31.1475265 9.52417303,29.5627208 8.61768448,29.3310954 C7.96501272,29.160424 7.04643766,29.6968198 6.44211196,30.2819788 C5.2697201,31.4522968 2.73155216,36.0482332 3.05788804,38.3279152 C3.49300254,41.2537102 7.07061069,37.3160777 7.67493639,36.1335689 C8.09796438,35.3533569 8.3759542,32.9151943 9.30661578,33.1590106 C10.2372774,33.4028269 9.23409669,35.9141343 8.55725191,38.1572438 C7.79580153,40.6441696 7.39694656,43.2773852 6.45419847,42.9726148 C5.48727735,42.6678445 7.05852417,39.4372792 6.9980916,38.8765018 C6.09160305,39.6932862 4.45992366,41.8022968 2.34478372,40.7538869 L3.43256997,51.359894 C3.43256997,51.359894 6.33333333,53.6761484 15.0839695,53.6761484 C23.8104326,53.6761484 26.807888,51.4086572 26.807888,51.4086572 L28.1736641,39.0959364 C27.0858779,40.1931095 23.5566158,42.1436396 23.3390585,39.9492933" id="Shape" fill="#D34A47"></path>
                    </g>
                    <rect id="Rectangle-19-Copy-5" fill-opacity="0.00897305254" fill="#EDEDED" transform="translate(36.500000, 38.500000) scale(-1, 1) translate(-36.500000, -38.500000) " x="36" y="0" width="1" height="77"></rect>
                </g>
            </g>
        </g>
    </g>
</svg>