<?xml version="1.0" encoding="UTF-8"?>
<svg width="137px" height="77px" viewBox="0 0 137 77" version="1.1" xmlns="http://www.w3.org/2000/svg" xmlns:xlink="http://www.w3.org/1999/xlink">
    <!-- Generator: Sketch 40 (33762) - http://www.bohemiancoding.com/sketch -->
    <title>nodejs</title>
    <desc>Created with Sketch.</desc>
    <defs></defs>
    <g id="Maquette" stroke="none" stroke-width="1" fill="none" fill-rule="evenodd">
        <g id="nav-view-desktop-copy" transform="translate(-153.000000, -3178.000000)">
            <g id="Built-with" transform="translate(0.000000, 3137.000000)">
                <g id="nodejs" transform="translate(153.000000, 41.000000)">
                    <g id="Group" transform="translate(0.000000, 29.000000)">
                        <g transform="translate(114.470286, 13.688723)" id="Shape" fill="#83CD29">
                            <path d="M10.9281161,0.164015026 C10.5967517,0.164015026 10.2745885,0.233104736 9.98957933,0.395757927 L0.968124899,5.64858195 C0.384317053,5.98748213 0.029587328,6.62807983 0.029587328,7.30940293 L0.029587328,17.7957711 C0.029587328,18.476724 0.384317053,19.1165787 0.968124899,19.4565313 L3.32404555,20.8277041 C4.46867836,21.3964906 4.89083019,21.3877157 5.41181385,21.3877157 C7.10654478,21.3877157 8.07419551,20.3509314 8.07419551,18.5489028 L8.07419551,8.19774913 C8.07419551,8.05141096 7.94854603,7.94666306 7.8060413,7.94666306 L6.67596693,7.94666306 C6.53116217,7.94666306 6.40781139,8.05141096 6.40781139,8.19774913 L6.40781139,18.5489028 C6.40781139,19.3476417 5.58266541,20.1508928 4.2434297,19.4758718 L1.79174119,18.0275141 C1.70516486,17.9799307 1.63850827,17.8959463 1.63850827,17.7957711 L1.63850827,7.30940293 C1.63850827,7.20984649 1.70439934,7.10874547 1.79174119,7.05838015 L10.7940395,1.82483597 C10.8783156,1.77601518 10.9786811,1.77601518 11.0621935,1.82483597 L20.0644918,7.05838015 C20.1503019,7.11029004 20.2177221,7.20681833 20.2177221,7.30940293 L20.2177221,17.7957711 C20.2177221,17.8959463 20.1678922,17.998531 20.0836453,18.0467962 L11.0621935,23.2803406 C10.9848108,23.3266885 10.8783156,23.3266885 10.7940395,23.2803406 L8.47642548,21.8898854 C8.40747071,21.849099 8.3132355,21.8521882 8.24657889,21.8898854 C7.60684291,22.2555444 7.48655527,22.2980604 6.88665795,22.5078658 C6.73879139,22.5597755 6.51430664,22.6405467 6.96327454,22.8941032 L9.98957933,24.6900754 C10.2776525,24.8581636 10.5986703,24.941098 10.9281161,24.941098 C11.2621585,24.941098 11.5785806,24.8581636 11.8666537,24.6900754 L20.888106,19.4565313 C21.471916,19.1141693 21.8266436,18.476724 21.8266436,17.7957711 L21.8266436,7.30940293 C21.8266436,6.62807983 21.471916,5.98890487 20.888106,5.64858195 L11.8666537,0.395757927 C11.5839426,0.233104736 11.2594813,0.164015026 10.9281161,0.164015026 L10.9281161,0.164015026 L10.9281161,0.164015026 L10.9281161,0.164015026 Z"></path>
                            <path d="M13.341498,7.65713907 C10.7725858,7.65713907 9.24257886,8.7594296 9.24257886,10.5925413 C9.24257886,12.5811389 10.7610945,13.1274934 13.2265746,13.373449 C16.1762661,13.6645809 16.4061102,14.1012443 16.4061102,14.6866557 C16.4061102,15.7020577 15.6031813,16.1350134 13.7054212,16.1350134 C11.3211527,16.1350134 10.7971032,15.5348952 10.6216537,14.3390436 C10.6009949,14.2108111 10.5029006,14.1073006 10.3726562,14.1073006 L9.20427202,14.1073006 C9.06023544,14.1073006 8.93611861,14.2321933 8.93611861,14.3776667 C8.93611861,15.9084012 9.7620304,17.7186494 13.7054212,17.7186494 C16.5601089,17.7186494 18.2065709,16.5888594 18.2065709,14.6094097 C18.2065709,12.6470762 16.8765289,12.1203719 14.107652,11.7512534 C11.3096587,11.3779935 11.0430395,11.1953199 11.0430395,10.5346384 C11.0430395,9.98927055 11.2690545,9.25999389 13.341498,9.25999389 C15.1925235,9.25999389 15.876699,9.66248299 16.1571102,10.9208758 C16.1816279,11.0391566 16.2850595,11.1332731 16.4061102,11.1332731 L17.5744938,11.1332731 C17.6465123,11.1332731 17.7162328,11.088779 17.7660336,11.0366839 C17.8150665,10.9810662 17.8495438,10.9184031 17.8426478,10.8436274 C17.6618362,8.67643425 16.2283626,7.65713907 13.341498,7.65713907 L13.341498,7.65713907 L13.341498,7.65713907 L13.341498,7.65713907 Z"></path>
                        </g>
                        <g id="Shape">
                            <path d="M72.3614513,0.102696662 C72.2625141,0.103914746 72.1624407,0.127723416 72.0741445,0.179942677 C71.8978488,0.284300805 71.786835,0.475956578 71.786835,0.682051515 L71.786835,15.455593 C71.786835,15.6007545 71.7197945,15.7304683 71.595298,15.8032683 C71.4704873,15.876251 71.3181827,15.876251 71.1930675,15.8032683 L68.7988397,14.4128133 C68.4421192,14.2054198 68.0064091,14.2055441 67.6496092,14.4128133 L58.0918499,19.9746286 C57.7345154,20.1824557 57.5172335,20.5822869 57.5172335,20.9981261 L57.5172335,32.1217568 C57.5172335,32.5372845 57.7348221,32.9177746 58.0918499,33.125972 L67.6496092,38.6877875 C68.0069431,38.8956755 68.4415053,38.8956755 68.7988397,38.6877875 L78.3565988,33.125972 C78.713626,32.9177746 78.9312151,32.5372845 78.9312151,32.1217568 L78.9312151,4.38992844 C78.9312151,3.96807672 78.7029004,3.57218723 78.3374455,3.36639925 L72.6487582,0.160631173 C72.5594255,0.110390081 72.460389,0.101615003 72.3614513,0.102728332 L72.3614513,0.102696662 L72.3614513,0.102696662 L72.3614513,0.102696662 Z M10.8776627,13.987892 C10.6953965,13.9952979 10.5241582,14.0274407 10.3605091,14.1231042 L0.802747441,19.6849195 C0.446609227,19.8924981 0.228133454,20.2705792 0.228133454,20.6891372 L0.247245855,35.6171707 C0.247245855,35.8248125 0.353490029,36.0176206 0.534555267,36.1193404 C0.71202515,36.226437 0.932298598,36.226437 1.10916926,36.1193404 L6.77870249,32.8362631 C7.13783927,32.6211445 7.37246998,32.2469587 7.37246998,31.8320479 L7.37246998,24.8604975 C7.37246998,24.4446582 7.5894332,24.062996 7.9470864,23.8562798 L10.360468,22.4465474 C10.5405934,22.341551 10.7339717,22.2920505 10.935082,22.2920505 C11.1320654,22.2920505 11.3345554,22.3414901 11.5096984,22.4465474 L13.9230801,23.8562798 C14.2807212,24.062996 14.497694,24.4446582 14.497694,24.8604975 L14.497694,31.8320479 C14.497694,32.2469587 14.7346686,32.6235562 15.091464,32.8362631 L20.7609972,36.1193404 C20.9390518,36.226437 21.159016,36.226437 21.3356112,36.1193404 C21.5116,36.0176206 21.6229182,35.8248125 21.6229182,35.6171707 L21.6420306,20.6891372 C21.6420306,20.2705792 21.4259759,19.8924981 21.0674166,19.6849195 L11.5096767,14.1231042 C11.3480187,14.0274407 11.1760215,13.9954295 10.9925232,13.987892 L10.8775999,13.987892 L10.8776627,13.987892 L10.8776627,13.987892 L10.8776627,13.987892 Z M96.763429,14.1231042 C96.5637513,14.1228605 96.3680923,14.1737789 96.1888126,14.2775986 L86.6310533,19.839414 C86.2740258,20.0473019 86.0564391,20.4277924 86.0564391,20.8436317 L86.0564391,31.96726 C86.0564391,32.3855085 86.2901153,32.7647639 86.6502068,32.9714776 L96.1313517,38.4174215 C96.4814836,38.6190073 96.9089974,38.6340845 97.2614266,38.4365699 L103.007576,35.2114587 C103.18992,35.1094903 103.31327,34.9190308 103.314037,34.7093496 C103.315245,34.4996078 103.206775,34.3116187 103.02673,34.2072408 L93.4115077,28.6454256 C93.2314619,28.5419152 93.105047,28.3321734 93.105047,28.123976 L93.105047,24.647842 C93.105047,24.4400149 93.2329937,24.2495529 93.4115077,24.145794 L96.3995056,22.4076662 C96.5772532,22.3039682 96.795606,22.3039682 96.9741192,22.4076662 L99.9621174,24.145794 C100.140631,24.2495529 100.249425,24.4400149 100.249425,24.647842 L100.249425,27.3901874 C100.249425,27.5983215 100.358218,27.7884742 100.536732,27.8922331 C100.716011,27.9963012 100.932834,27.9967323 101.111348,27.8922331 L106.838342,24.5320314 C107.193837,24.3238341 107.412956,23.9423546 107.412956,23.5278162 L107.412956,20.8434367 C107.412956,20.4288326 107.194603,20.0474165 106.838342,19.8392191 L97.3380426,14.2774037 C97.1591426,14.1728434 96.9631061,14.1231577 96.763429,14.1229092 L96.763429,14.1231042 L96.763429,14.1231042 L96.763429,14.1231042 Z M68.1859158,22.4272042 C68.2357463,22.4272042 68.2944025,22.4395556 68.3391468,22.4655178 L71.6144515,24.3774225 C71.7033254,24.4293323 71.7676817,24.5249349 71.7676817,24.6284452 L71.7676817,28.4521934 C71.7676817,28.5560133 71.7039385,28.6516768 71.6144515,28.7032798 L68.3391468,30.6151209 C68.2499654,30.6664145 68.1410203,30.6664145 68.0518394,30.6151209 L64.7765341,28.7032798 C64.6873538,28.65137 64.6233042,28.5560133 64.6233042,28.4521934 L64.6233042,24.6284452 C64.6233042,24.5249349 64.6876602,24.4295808 64.7765341,24.3774225 L68.0518394,22.4658272 C68.0965832,22.4398723 68.1360789,22.4275136 68.1859158,22.4275136 L68.1859158,22.4272042 L68.1859158,22.4272042 L68.1859158,22.4272042 Z" fill="#404137"></path>
                            <path d="M39.5892498,14.0651379 C39.390087,14.0651379 39.1929974,14.1158127 39.0146359,14.2196324 L29.4568766,19.762168 C29.0995424,19.9698074 28.8822602,20.3701965 28.8822602,20.7856655 L28.8822602,31.9092939 C28.8822602,32.3252574 29.0997743,32.7054384 29.4568766,32.9135115 L39.0146359,38.4753267 C39.3719701,38.6833999 39.806532,38.6833999 40.1638662,38.4753267 L49.7216255,32.9135115 C50.0783461,32.7054384 50.2962419,32.3252574 50.2962419,31.9092939 L50.2962419,20.7856655 C50.2962419,20.3695801 50.0789599,19.9698074 49.7216255,19.762168 L40.1638662,14.2196324 C39.9855047,14.1158127 39.7884127,14.0651379 39.5892498,14.0651379 L39.5892498,14.0651379 L39.5892498,14.0651379 L39.5892498,14.0651379 Z" fill="#83CD29"></path>
                            <path d="M96.7442757,23.9916187 C96.7060892,23.9916187 96.6638292,23.9916187 96.6293523,24.010767 L94.7905842,25.0922307 C94.7216299,25.1317818 94.6756611,25.205381 94.6756611,25.2853482 L94.6756611,27.4096525 C94.6756611,27.4896199 94.7216299,27.5629117 94.7905842,27.6027725 L96.6293523,28.6648928 C96.6983044,28.7050604 96.7718569,28.7050604 96.8400426,28.6648928 L98.6788102,27.6027725 C98.7469986,27.5632214 98.7937333,27.4896199 98.7937333,27.4096525 L98.7937333,25.2853482 C98.7937333,25.205381 98.7470308,25.1320279 98.6788102,25.0922307 L96.8400426,24.010767 C96.8059643,23.9903763 96.7824907,23.9916187 96.7442757,23.9916187 L96.7442757,23.9916187 L96.7442757,23.9916187 L96.7442757,23.9916187 Z" fill="#83CD29"></path>
                        </g>
                    </g>
                    <rect id="Rectangle-19" fill-opacity="0.00897305254" fill="#EDEDED" transform="translate(81.500000, 38.500000) scale(-1, 1) translate(-81.500000, -38.500000) " x="81" y="0" width="1" height="77"></rect>
                </g>
            </g>
        </g>
    </g>
</svg>