<?xml version="1.0" encoding="UTF-8" standalone="no"?>
<svg width="723px" height="726px" viewBox="0 0 723 726" version="1.1" xmlns="http://www.w3.org/2000/svg" xmlns:xlink="http://www.w3.org/1999/xlink">
    <!-- Generator: Sketch 3.8.2 (29753) - http://www.bohemiancoding.com/sketch -->
    <title>logo</title>
    <desc>Created with Sketch.</desc>
    <defs>
        <linearGradient x1="50.6761253%" y1="4.56283711%" x2="50.6761256%" y2="81.8543595%" id="linearGradient-1">
            <stop stop-color="#6FBD2C" offset="0%"></stop>
            <stop stop-color="#539B1D" offset="100%"></stop>
        </linearGradient>
        <linearGradient x1="30.1110288%" y1="56.9871664%" x2="92.4776214%" y2="56.9871664%" id="linearGradient-2">
            <stop stop-color="#3C8515" offset="0%"></stop>
            <stop stop-color="#639B1A" offset="34.1999366%"></stop>
            <stop stop-color="#6DC33A" offset="56.5639293%"></stop>
            <stop stop-color="#53AA29" offset="100%"></stop>
        </linearGradient>
        <linearGradient x1="50%" y1="0%" x2="52.2206843%" y2="100%" id="linearGradient-3">
            <stop stop-color="#519803" offset="0%"></stop>
            <stop stop-color="#4DC626" offset="40.6321755%"></stop>
            <stop stop-color="#447D09" offset="100%"></stop>
        </linearGradient>
        <path d="M178.497769,364.315362 C220.428306,336.551652 258.25332,336.052208 258.25332,336.052208 C258.25332,336.052208 219.755326,334.954465 176.226436,363.598402 C132.697545,392.242338 112.370405,431.219534 112.370405,431.219534 C112.370405,431.219534 136.567233,392.079072 178.497769,364.315362 Z" id="path-4"></path>
        <filter x="-50%" y="-50%" width="200%" height="200%" filterUnits="objectBoundingBox" id="filter-5">
            <feOffset dx="0" dy="2" in="SourceAlpha" result="shadowOffsetOuter1"></feOffset>
            <feGaussianBlur stdDeviation="0.5" in="shadowOffsetOuter1" result="shadowBlurOuter1"></feGaussianBlur>
            <feColorMatrix values="0 0 0 0 0   0 0 0 0 0   0 0 0 0 0  0 0 0 0.0622735507 0" type="matrix" in="shadowBlurOuter1"></feColorMatrix>
        </filter>
        <linearGradient x1="51.6653478%" y1="0%" x2="51.7240047%" y2="100%" id="linearGradient-6">
            <stop stop-color="#6FBD2C" offset="0%"></stop>
            <stop stop-color="#65B127" offset="19.7953376%"></stop>
            <stop stop-color="#05710A" offset="48.7005248%"></stop>
            <stop stop-color="#5EA927" offset="49.9411931%"></stop>
            <stop stop-color="#3CA22A" offset="62.4907998%"></stop>
            <stop stop-color="#238A0D" offset="79.7554845%"></stop>
            <stop stop-color="#0178B2" offset="100%"></stop>
        </linearGradient>
        <linearGradient x1="50%" y1="50%" x2="50%" y2="100%" id="linearGradient-7">
            <stop stop-color="#007E03" offset="0%"></stop>
            <stop stop-color="#6FBD2C" offset="59.1963991%"></stop>
            <stop stop-color="#65B127" offset="100%"></stop>
        </linearGradient>
        <linearGradient x1="21.4961571%" y1="17.3846349%" x2="99.1009419%" y2="17.7062228%" id="linearGradient-8">
            <stop stop-color="#549720" offset="0%"></stop>
            <stop stop-color="#6DBC32" offset="43.8499983%"></stop>
            <stop stop-color="#559D1D" offset="100%"></stop>
        </linearGradient>
        <linearGradient x1="99.1061402%" y1="79.7317147%" x2="0%" y2="79.7317135%" id="linearGradient-9">
            <stop stop-color="#508E12" offset="0%"></stop>
            <stop stop-color="#58B61C" offset="100%"></stop>
        </linearGradient>
        <linearGradient x1="84.7607566%" y1="74.5389022%" x2="19.2731473%" y2="42.9971156%" id="linearGradient-10">
            <stop stop-color="#46860C" offset="0%"></stop>
            <stop stop-color="#74C01A" offset="100%"></stop>
        </linearGradient>
        <linearGradient x1="-3.11985256%" y1="30.4557719%" x2="100%" y2="30.4557711%" id="linearGradient-11">
            <stop stop-color="#40720D" offset="0%"></stop>
            <stop stop-color="#5AA60C" offset="52.2212673%"></stop>
            <stop stop-color="#40750D" offset="100%"></stop>
        </linearGradient>
        <path d="M330.234459,613.690777 C371.960214,587.223755 391,551 391,551 C391,551 368.285055,587.355176 328.06833,613.010268 C287.121361,638.665359 250.552728,638.927921 250.552728,638.927921 C250.552728,638.927921 287.726775,640.157799 330.234459,613.690777 Z" id="path-12"></path>
        <filter x="-50%" y="-50%" width="200%" height="200%" filterUnits="objectBoundingBox" id="filter-13">
            <feOffset dx="0" dy="-2" in="SourceAlpha" result="shadowOffsetOuter1"></feOffset>
            <feGaussianBlur stdDeviation="0.5" in="shadowOffsetOuter1" result="shadowBlurOuter1"></feGaussianBlur>
            <feColorMatrix values="0 0 0 0 0   0 0 0 0 0   0 0 0 0 0  0 0 0 0.0622735507 0" type="matrix" in="shadowBlurOuter1"></feColorMatrix>
        </filter>
        <path d="M157.257522,86.3278392 C157.257522,86.3278392 118.715701,89.1059644 74.943275,122.132266 C28.4119077,155.158568 3.6663146,196.182242 3.6663146,196.182242 C3.6663146,196.182242 32.5312262,154.605713 77.2784077,122.620556 C119.449624,90.6353982 157.257522,86.3278392 157.257522,86.3278392 Z" id="path-14"></path>
        <filter x="-50%" y="-50%" width="200%" height="200%" filterUnits="objectBoundingBox" id="filter-15">
            <feOffset dx="0" dy="2" in="SourceAlpha" result="shadowOffsetOuter1"></feOffset>
            <feGaussianBlur stdDeviation="0.5" in="shadowOffsetOuter1" result="shadowBlurOuter1"></feGaussianBlur>
            <feColorMatrix values="0 0 0 0 0   0 0 0 0 0   0 0 0 0 0  0 0 0 0.0622735507 0" type="matrix" in="shadowBlurOuter1"></feColorMatrix>
        </filter>
    </defs>
    <g id="Page-1" stroke="none" stroke-width="1" fill="none" fill-rule="evenodd">
        <g id="logo">
            <g id="B">
                <path d="M200.833,323 C311.75,323 401.666,413.079 401.666,524.196 C401.666,635.313 311.75,725.392 200.833,725.392 C89.916,725.392 0,635.313 0,524.196 C0,413.079 89.916,323 200.833,323 Z M321,524.718 C321,591.389 267.05,645.435 200.5,645.435 C133.949,645.435 80,591.388 80,524.718 C80,458.048 133.95,404 200.5,404 C267.05,404 321,458.047 321,524.718 Z" id="Combined-Shape" fill="url(#linearGradient-1)"></path>
                <path d="M80.0017077,525.367611 C80.0005696,525.578596 80,525.789394 80,526 C79.9999996,535.542908 3.41286203e-13,528.998694 3.41046466e-13,526 C3.41286224e-13,376.766435 146.565479,287.231692 271.794498,336.305611 C179.874496,333.562997 102.56369,417.344281 84.1578382,493.165297 C81.4464544,503.223224 80,513.801408 80,524.718 C80,524.934663 80.0005698,525.151192 80.0017079,525.367587 Z" id="Combined-Shape-Copy" fill="url(#linearGradient-2)"></path>
                <path d="M80,526 C80,725.392029 201,725.392029 201,725.392029 C201,725.392029 0,725.392029 0,526 L0,0 L80,0 L80,526 Z" id="Shape" fill="url(#linearGradient-3)"></path>
                <g id="Path-15">
                    <use fill="black" fill-opacity="1" filter="url(#filter-5)" xlink:href="#path-4"></use>
                    <use fill="#6FFF73" fill-rule="evenodd" xlink:href="#path-4"></use>
                </g>
            </g>
            <g id="S" transform="translate(321.000000, 1.000000)">
                <path d="M81.0011028,523.196 L0,523.196 C0,634.313 89.916,724.392 200.833,724.392 C311.75,724.392 401.666,634.313 401.666,523.196 C401.666,412.079 311.75,322 200.833,322 L200.293889,403.005922 C200.695459,403.001977 201.097499,403 201.5,403 C268.05,403 322,457.047 322,523.718 C322,590.389 268.05,644.435 201.5,644.435 C134.95,644.435 81,590.388 81,523.718 C81,523.543914 81.0003678,523.369913 81.0011028,523.196 Z" id="Combined-Shape" fill="url(#linearGradient-6)"></path>
                <path d="M321.999653,201.197 L401.666,201.197 C401.666,90.079 311.75,0.001 200.833,2.84217094e-14 C89.916,2.84217094e-14 0,90.079 0,201.196 C0,312.313 90.25,403.608 201,403 C201,397.439799 200.971302,361.811218 200.9377,321.998716 C134.646373,321.695847 81,267.862844 81,201.500499 C81,134.95062 134.95,81 201.5,81 C267.948806,81 321.835901,134.785678 321.999626,201.197 Z" id="Combined-Shape" fill="url(#linearGradient-7)"></path>
                <path d="M-20.4177821,102.472184 C-20.4177808,194.227591 66.8528474,222.153817 100.600655,222.153817 C273.373326,222.153816 301.889165,101.600664 301.889165,101.600664 C301.889165,197.913172 231.234196,302.110847 100.600655,302.110848 C-30.0328855,302.110849 -100.399348,189.969002 -100.399348,102.718819 C-100.399348,102.718819 -20.4177808,102.701366 -20.4177821,102.472184 Z" id="Path-12-Copy-2" fill="url(#linearGradient-8)" transform="translate(100.744908, 201.855756) rotate(90.000000) translate(-100.744908, -201.855756) "></path>
                <path d="M321.998896,201.197 L401.666,201.197 C401.666,90.079 311.75,0.001 200.833,1.13686838e-13 C89.916,1.13686838e-13 -1.10899297e-16,87.7075806 -1.11022302e-16,201.196 C-1.1102021e-16,201.277727 0.0581242167,201.356673 0.172395006,201.43291 C4.11115406,194.975933 75.4151915,81.0000007 201.000003,81 C267.594152,80.9999996 321.717245,134.765661 321.998896,201.197 Z" id="Combined-Shape-Copy-2" fill="url(#linearGradient-9)"></path>
                <path d="M180.535743,424.265506 C180.535743,438.074598 186.853707,472.210648 202.818394,494.245731 C234.293311,537.688638 288.193627,550.277747 347.781648,549.142086 C433.570115,547.507083 483.657336,503.80563 500.151208,455.554218 C483.921757,539.346756 421.970738,620.240496 302.554029,623.886718 C183.137319,627.532939 101.554025,511.744871 101.554025,424.494688 C101.554025,424.494688 180.535745,424.494688 180.535743,424.265506 Z" id="Path-12-Copy" fill="url(#linearGradient-10)" transform="translate(300.852616, 524.118122) rotate(-90.000000) translate(-300.852616, -524.118122) "></path>
                <path d="M201.000004,644.434998 C373.772675,644.434998 401.666016,525 401.666016,525 C401.666022,612.838364 331.633545,724.392029 201.000004,724.39203 C70.3664629,724.39203 -1.38777878e-17,612.250183 -1.38777878e-17,525 C-1.38777878e-17,525 28.2273333,644.434999 201.000004,644.434998 Z" id="Path-12" fill="url(#linearGradient-11)"></path>
                <g id="Path-15-Copy-2">
                    <use fill="black" fill-opacity="1" filter="url(#filter-13)" xlink:href="#path-12"></use>
                    <use fill="#81FF6F" fill-rule="evenodd" xlink:href="#path-12"></use>
                </g>
                <g id="Path-15-Copy">
                    <use fill="black" fill-opacity="1" filter="url(#filter-15)" xlink:href="#path-14"></use>
                    <use fill="#7DFF6F" fill-rule="evenodd" xlink:href="#path-14"></use>
                </g>
            </g>
        </g>
    </g>
</svg>