<?xml version="1.0" encoding="UTF-8"?>
<svg width="387px" height="659px" viewBox="0 0 387 659" version="1.1" xmlns="http://www.w3.org/2000/svg" xmlns:xlink="http://www.w3.org/1999/xlink">
    <!-- Generator: Sketch 40 (33762) - http://www.bohemiancoding.com/sketch -->
    <title>vector</title>
    <desc>Created with Sketch.</desc>
    <defs></defs>
    <g id="Icônes" stroke="none" stroke-width="1" fill="none" fill-rule="evenodd">
        <g id="laptop" transform="translate(-20.000000, -6.000000)" stroke="#979797">
            <g id="vector" transform="translate(20.856310, 6.511208)">
                <path d="M95.7864184,475.202423 C92.8256115,471.209349 91.1169853,466.251648 91.1169853,460.439064 L93.1634465,28.9504407 C93.1634465,12.2699814 100.671863,0.048519843 124.538371,0.048519843 C148.404878,0.048519843 386.055075,0.048519843 386.055075,0.048519843" id="Rectangle-20"></path>
                <path d="M96.568016,473.30151 C95.5167024,470.688332 94.5815274,465.35842 94.5815274,462.092245 L96.568016,28.2768384 C96.568016,12.1912124 110.579113,4.78349942 124.907087,4.78349942 C139.235061,4.78349942 385.930285,5.40359174 385.930285,5.40359174" id="Rectangle-20-Copy"></path>
                <polyline id="Path-27" points="384.886267 27.8179635 122.306406 28.5429459 119.079726 440.939423 385.391503 442.274471"></polyline>
                <polyline id="Path-28" points="385.649016 463.385096 185.638824 462.321124 183.290312 477.620099 385.199482 478.712305"></polyline>
                <path d="M385.14369,638.241781 L15.3208768,638.241781 C0.614090837,638.241781 -2.90279945,630.306855 2.77374781,619.075071 C8.45029507,607.843287 82.4689668,487.341208 86.5621258,480.912942 C90.6552848,474.484676 99.6337378,472.336116 108.806953,472.336116 L183.818559,472.336116 L181.840157,478.884504 L385.719609,478.898823" id="Path-29"></path>
                <path d="M0.274031331,630.119534 C0.274031331,630.119534 0.901713401,640.080177 2.73577535,644.43813 C4.5698373,648.796083 8.96361179,653.129318 18.7297069,654.560853 C27.4597069,655.840515 192.918478,656.548938 385.504888,657.115916" id="Path-30"></path>
                <path d="M385.347497,566.685959 L321.803516,566.896805 C320.700433,566.900465 319.621006,567.784534 319.396122,568.854425 L307.323752,626.288947 C306.982056,627.914573 308.051488,629.235939 309.711295,629.240296 L385.230321,629.438556" id="Path-31"></path>
                <path d="M128.96484,488.549992 C129.137427,488.205396 130.302074,487.918409 131.568715,487.909196 L169.8191,487.641852 C171.079779,487.632866 171.974699,487.905765 171.822417,488.250748 L169.180443,494.188883 C169.025117,494.533089 167.871377,494.820444 166.598221,494.829187 L127.969519,495.08967 C126.690371,495.098631 125.799893,494.824936 125.973151,494.481199 L128.96484,488.549992 Z M124.539167,497.315631 C124.713144,496.970725 125.890927,496.68488 127.17284,496.675978 L165.885138,496.41724 C167.161053,496.408554 168.067164,496.682101 167.913691,497.026808 L163.690298,506.419445 C163.535351,506.764469 162.363227,507.0505 161.068811,507.058778 L121.793633,507.30439 C120.495571,507.31282 119.586496,507.040417 119.761994,506.695243 L124.539167,497.315631 Z M98.3620071,547.792189 C98.5455898,547.448569 99.7980851,547.165709 101.168333,547.159255 L140.083519,546.98512 C141.447788,546.978807 142.42167,547.251555 142.259949,547.595782 L136.929243,558.802252 C136.766119,559.145433 135.510712,559.427813 134.124644,559.433366 L94.588119,559.58622 C93.1960234,559.591895 92.221406,559.318232 92.4038406,558.975761 L98.3620071,547.792189 Z M149.867617,547.56323 C150.025981,547.218892 151.259071,546.935465 152.619719,546.929852 L191.412149,546.758538 C192.774384,546.752932 193.760618,547.025799 193.621584,547.370773 L189.032702,558.602624 C188.892116,558.947247 187.658641,559.230203 186.274577,559.235069 L146.861072,559.385696 C145.481216,559.39051 144.489062,559.116762 144.646285,558.773505 L149.867617,547.56323 Z M201.212175,547.339406 C201.347962,546.993693 202.559021,546.710397 203.917804,546.704864 L242.582417,546.536587 C243.937775,546.531156 244.936142,546.805386 244.819787,547.151087 L240.9699,558.407661 C240.852077,558.752445 239.643058,559.035911 238.26584,559.041254 L198.980794,559.187551 C197.600115,559.192978 196.593184,558.918488 196.732727,558.574961 L201.212175,547.339406 Z M252.791608,547.116768 C252.904426,546.770956 254.093444,546.487179 255.447885,546.481147 L306.204953,546.266655 C307.552377,546.261437 308.571674,546.535198 308.483583,546.882407 L305.558052,558.168813 C305.465962,558.514598 304.284278,558.798726 302.912581,558.803928 L251.338122,558.992622 C249.961971,558.997309 248.942683,558.722042 249.056974,558.377136 L252.791608,547.116768 Z M173.109013,496.992195 C173.259901,496.648069 174.415986,496.360736 175.691124,496.352086 L214.269978,496.100128 C215.54148,496.091647 216.464984,496.365052 216.334253,496.710223 L212.731027,506.116241 C212.598872,506.461784 211.444035,506.748183 210.154041,506.756273 L171.014649,506.996796 C169.721011,507.005042 168.799567,506.731372 168.952073,506.386291 L173.109013,496.992195 Z M188.910815,509.528171 C189.056459,509.181639 190.22166,508.897427 191.51451,508.889394 L230.702355,508.654422 C231.993946,508.646494 232.940641,508.918361 232.815334,509.265995 L229.437355,518.667846 C229.313402,519.013292 228.151293,519.299075 226.841205,519.306561 L187.090393,519.52799 C185.779072,519.535569 184.834728,519.261522 184.979038,518.916594 L188.910815,509.528171 Z M238.079253,509.234373 C238.199637,508.887364 239.340549,508.602932 240.631361,508.595038 L279.690519,508.365086 C280.977687,508.357349 281.936672,508.631092 281.834388,508.977971 L279.074053,518.394398 C278.972838,518.741037 277.835172,519.027086 276.529569,519.033765 L236.910039,519.250613 C235.600821,519.257437 234.641355,518.984043 234.765272,518.638487 L238.079253,509.234373 Z M286.491937,508.951717 C286.589733,508.604207 287.713788,508.318798 289.000185,508.311725 L327.927501,508.086942 C329.207935,508.080079 330.183957,508.353684 330.106581,508.700997 L327.956256,518.131932 C327.875204,518.479155 326.756925,518.76491 325.458028,518.771996 L285.973042,518.982843 C284.668111,518.990125 283.69157,518.71619 283.790663,518.368866 L286.491937,508.951717 Z M334.746085,508.675488 C334.821292,508.32813 335.916603,508.042639 337.203388,508.035029 L375.994188,507.816892 C377.272628,507.809544 378.260945,508.084363 378.206096,508.43214 L376.670212,517.87633 C376.614085,518.224022 375.519904,518.51 374.220612,518.517001 L334.867598,518.722406 C333.564652,518.729559 332.580611,518.454904 332.657104,518.107678 L334.746085,508.675488 Z M195.560377,522.022941 C195.699395,521.679216 196.876401,521.393823 198.194854,521.386275 L238.012948,521.168099 C239.325328,521.160739 240.291523,521.435449 240.17279,521.7797 L236.8962,531.178075 C236.77591,531.523981 235.59762,531.808539 234.266734,531.815405 L193.8855,532.01779 C192.550956,532.02478 191.586517,531.751665 191.727088,531.406967 L195.560377,522.022941 Z M245.518898,521.751075 C245.635197,521.406762 246.792569,521.120982 248.101758,521.1137 L287.790814,520.901261 C289.098764,520.894073 290.077572,521.16817 289.979057,521.514304 L287.320377,530.929028 C287.222927,531.275562 286.071627,531.559142 284.745134,531.566483 L244.4954,531.764848 C243.16774,531.771639 242.186077,531.497293 242.306283,531.151903 L245.518898,521.751075 Z M294.711864,521.488778 C294.805767,521.143271 295.938918,520.857855 297.246142,520.850697 L336.803086,520.643519 C338.10427,520.636554 339.100139,520.911184 339.026538,521.257182 L336.980542,530.687471 C336.905651,531.034604 335.773575,531.319219 334.453938,531.325722 L294.336645,531.519322 C293.010966,531.525372 292.016951,531.251618 292.112187,530.905657 L294.711864,521.488778 Z M167.731758,534.844485 C167.882871,534.500177 169.093901,534.215682 170.431435,534.209408 L210.98458,534.007492 C212.318497,534.00134 213.294909,534.274098 213.161605,534.619684 L209.557383,544.00187 C209.425443,544.345878 208.220595,544.62876 206.867982,544.635611 L165.756216,544.81964 C164.400051,544.825969 163.423353,544.55235 163.575492,544.209619 L167.731758,534.844485 Z M218.600788,534.593953 C218.731544,534.248926 219.915477,533.964733 221.248721,533.957977 L261.667833,533.75997 C262.999808,533.753923 263.988514,534.028007 263.880515,534.374199 L260.899628,543.774207 C260.790461,544.118921 259.610027,544.402851 258.256996,544.409032 L217.279563,544.589041 C215.927839,544.59524 214.936146,544.321555 215.065545,543.9781 L218.600788,534.593953 Z M268.695539,534.350616 C268.803753,534.004947 269.970828,533.720264 271.30214,533.713611 L311.581347,533.520987 C312.909001,533.514462 313.917231,533.789713 313.83182,534.135898 L311.468947,543.554163 C311.379804,543.8996 310.216184,544.18406 308.870028,544.190058 L268.027753,544.365919 C266.675454,544.372077 265.669153,544.097088 265.776154,543.752307 L268.695539,534.350616 Z M318.638296,534.113993 C318.723991,533.767069 319.859557,533.482196 321.188919,533.475651 L361.34061,533.288304 C362.663881,533.281937 363.679518,533.557944 363.61905,533.904686 L361.864093,543.339573 C361.7999,543.68562 360.662985,543.971041 359.321204,543.976264 L318.60905,544.148572 C317.261153,544.154593 316.245067,543.879483 316.329594,543.533395 L318.638296,534.113993 Z M220.356196,496.684888 C220.487373,496.339629 221.61958,496.052144 222.892747,496.043643 L261.341568,495.797801 C262.608691,495.790155 263.544466,496.063494 263.435853,496.409732 L260.440049,505.828251 C260.330135,506.174282 259.201538,506.460826 257.915859,506.468729 L218.904511,506.703019 C217.612818,506.71113 216.676788,506.436899 216.807045,506.091314 L220.356196,496.684888 Z M267.069829,496.386751 C267.176657,496.041114 268.289846,495.753394 269.556337,495.745778 L307.876274,495.506112 C309.136882,495.498088 310.08932,495.77251 310.005067,496.119111 L307.606908,505.549006 C307.519044,505.895502 306.407087,506.181736 305.128005,506.190033 L266.245826,506.418605 C264.960785,506.426479 264.010291,506.151705 264.118489,505.805638 L267.069829,496.386751 Z M313.619916,496.096233 C313.704747,495.750184 314.8012,495.462831 316.061172,495.454838 L354.256883,495.221356 C355.515541,495.213491 356.480079,495.489085 356.415529,495.835499 L354.617006,505.276865 C354.551182,505.623808 353.462858,505.910833 352.185732,505.918351 L313.432665,506.141094 C312.154253,506.148729 311.1846,505.87352 311.270749,505.526989 L313.619916,496.096233 Z M118.091568,509.954506 C118.266896,509.611331 119.466513,509.325599 120.768083,509.317254 L181.26301,508.944923 C182.559037,508.936807 183.48794,509.210668 183.342637,509.554568 L179.340444,518.942525 C179.19342,519.288017 178.009409,519.572204 176.694876,519.579863 L115.33753,519.931002 C114.01501,519.938917 113.091739,519.667026 113.268964,519.322335 L118.091568,509.954506 Z M105.026999,535.154389 C105.206146,534.810934 106.441634,534.52766 107.789704,534.520486 L158.210455,534.264443 C159.551387,534.258091 160.509952,534.53021 160.355536,534.874419 L156.109502,544.23613 C155.953627,544.58064 154.725803,544.863648 153.366197,544.870051 L102.249881,545.104037 C100.885756,545.110566 99.9275579,544.837194 100.110536,544.494081 L105.026999,535.154389 Z M111.619021,522.51133 C111.796635,522.16675 113.012429,521.883807 114.338352,521.875985 L190.150783,521.449957 C191.464895,521.443114 192.41973,521.714664 192.278849,522.06024 L188.402301,531.443809 C188.257904,531.787882 187.060793,532.072637 185.728073,532.0796 L108.85191,532.475525 C107.509898,532.482761 106.568211,532.209549 106.746765,531.866605 L111.619021,522.51133 Z M176.957904,488.215492 C177.107896,487.869831 178.250372,487.5833 179.510274,487.574352 L217.625412,487.312963 C218.881683,487.304194 219.793702,487.578185 219.666466,487.923534 L217.416011,493.869118 C217.283395,494.213773 216.149376,494.501379 214.880632,494.509916 L176.385343,494.763548 C175.112964,494.772255 174.205007,494.498695 174.358046,494.153809 L176.957904,488.215492 Z M227.050637,487.873374 C227.17667,487.527912 228.296236,487.240584 229.551521,487.231865 L267.529531,486.978025 C268.781189,486.969487 269.708841,487.244002 269.603095,487.589816 L267.764872,493.542807 C267.658356,493.887862 266.545186,494.175075 265.281063,494.183391 L226.922859,494.431065 C225.657433,494.439504 224.736271,494.164703 224.860713,493.820082 L227.050637,487.873374 Z M274.699708,487.556433 C274.80302,487.210578 275.900587,486.923112 277.153769,486.914563 L314.998923,486.666858 C316.243889,486.658595 317.188722,486.934182 317.103422,487.27979 L315.654004,493.239619 C315.570164,493.585084 314.47895,493.873725 313.221574,493.881144 L274.998855,494.121678 C273.735445,494.130589 272.796922,493.855949 272.90101,493.510849 L274.699708,487.556433 Z M323.308551,487.239176 C323.388594,486.89357 324.465937,486.605931 325.712332,486.597029 L363.421415,486.357002 C364.666445,486.348873 365.622014,486.625047 365.562203,486.970972 L364.513038,492.937421 C364.452403,493.283287 363.386101,493.572026 362.128579,493.579319 L324.042031,493.813758 C322.783215,493.821182 321.829422,493.546022 321.910295,493.200504 L323.308551,487.239176 Z" id="Combined-Shape"></path>
                <path d="M385.506664,558.929188 C385.506664,558.929188 326.671682,559.253244 315.151696,558.929188 C313.880251,558.893422 313.689588,558.17477 313.699749,558.140393 L317.040929,546.850283 C317.144163,546.503554 318.31921,546.219211 319.668372,546.213978 L385.506664,546.213978" id="Path"></path>
                <path d="M385.14369,493.256681 L375.164436,493.256681 C373.933298,493.256681 374.049956,492.139533 374.06284,492.079337 C374.430039,490.363821 375.164436,486.932788 375.164436,486.932788 C375.237472,486.586818 376.303505,486.297855 377.548032,486.289772 L385.14369,486.289772" id="Path"></path>
                <path d="M385.14369,505.881498 L364.542693,505.881498 C362.907734,505.881498 362.598787,504.256691 362.625738,504.13951 C363.264723,501.361308 364.542693,495.804904 364.542693,495.804904 C364.621026,495.458448 365.704299,495.171041 366.962549,495.163214 L385.14369,495.163214" id="Path"></path>
                <path d="M385.14369,518.005763 C385.14369,518.005763 382.921705,517.881687 382.990788,517.542949 C383.563797,514.733257 384.671626,508.409615 384.671626,508.409615" id="Path"></path>
                <path d="M385.14369,530.988428 C385.14369,530.988428 344.857201,531.066824 344.329821,530.988428 C343.71723,530.897365 343.071853,530.734007 343.144064,530.453268 C343.818346,527.831792 345.555352,521.233601 345.555352,521.233601 C345.645377,520.887505 346.772601,520.601112 348.075749,520.594762 L385.35164,520.594762" id="Path"></path>
                <path d="M385.14369,543.620182 C385.14369,543.620182 372.203818,544.004554 367.857144,543.620182 C366.903525,543.535854 367.082514,542.471831 367.094831,542.417577 C367.74052,539.573493 369.031896,533.885326 369.031896,533.885326 C369.111555,533.538441 370.243876,533.253122 371.569196,533.246733 L385.14369,533.246733" id="Path"></path>
            </g>
        </g>
    </g>
</svg>