<?xml version="1.0" encoding="UTF-8"?>
<svg width="527px" height="75px" viewBox="0 0 527 75" version="1.1" xmlns="http://www.w3.org/2000/svg" xmlns:xlink="http://www.w3.org/1999/xlink">
    <!-- Generator: Sketch 40 (33762) - http://www.bohemiancoding.com/sketch -->
    <title>name</title>
    <desc>Created with Sketch.</desc>
    <defs></defs>
    <g id="Maquette" stroke="none" stroke-width="1" fill="none" fill-rule="evenodd" stroke-opacity="0.838711504" opacity="0.839144123">
        <g id="nav-view-desktop-copy" transform="translate(-456.000000, -201.000000)" stroke="#FFFFFF" stroke-width="2">
            <g id="Header" transform="translate(-46.000000, 1.000000)">
                <g id="name" transform="translate(503.000000, 201.000000)">
                    <path d="M511.8,1.60810523 L511.8,56.8081052 C511.8,58.9081052 509.8,62.5081052 506.2,62.5081052 C501.8,62.5081052 499.9,58.9081052 499.9,56.8081052 L499.9,1.60810523 L487.4,1.60810523 L487.4,56.9081052 C487.4,64.0081052 492.5,72.5081052 506.2,72.5081052 C518.7,72.5081052 524.3,64.0081052 524.3,56.9081052 L524.3,1.60810523 L511.8,1.60810523 Z" id="Path"></path>
                    <polygon id="Path" points="465.3 1.60810523 465.3 40.4081052 465.1 40.4081052 453.5 1.60810523 440.3 1.60810523 440.3 71.6081052 452.8 71.6081052 452.8 31.5081052 453 31.5081052 465.3 71.6081052 477.8 71.6081052 477.8 1.60810523"></polygon>
                    <path d="M420.5,71.6081052 L433,71.6081052 L418.6,1.60810523 L406.1,1.60810523 L391.7,71.6081052 L403.5,71.6081052 L405.9,55.3081052 L418,55.3081052 L420.5,71.6081052 Z M408,45.2081052 L411.9,20.1081052 L412.2,20.1081052 L416,45.2081052 L408,45.2081052 Z" id="Combined-Shape"></path>
                    <path d="M385.7,21.9081052 L385.7,16.4081052 C385.7,9.30810523 380,0.708105229 367.4,0.708105229 C353.6,0.708105229 348.4,9.30810523 348.4,16.4081052 L348.4,56.9081052 C348.4,63.9081052 353.6,72.5081052 367.4,72.5081052 C380,72.5081052 385.7,63.9081052 385.7,56.8081052 L385.7,51.3081052 L373.1,51.3081052 L373.1,56.8081052 C373.1,58.9081052 371,62.5081052 367.4,62.5081052 C363,62.5081052 361.1,58.9081052 361.1,56.8081052 L361.1,16.4081052 C361.1,14.3081052 363,10.7081052 367.4,10.7081052 C371,10.7081052 373.1,14.3081052 373.1,16.4081052 L373.1,21.9081052 L385.7,21.9081052 Z" id="Path"></path>
                    <path d="M340.2,21.2081052 L340.2,16.3081052 C340.2,7.00810523 332.7,0.708105229 322.1,0.708105229 C311.4,0.708105229 303.8,6.80810523 303.8,16.3081052 C303.8,25.9081052 306.6,28.1081052 313.2,35.9081052 L323.6,46.6081052 C326.2,49.6081052 327.7,52.4081052 327.7,56.1081052 C327.7,60.2081052 325.2,62.5081052 322.1,62.5081052 C318.9,62.5081052 316.5,60.4081052 316.5,56.1081052 L316.5,49.6081052 L303.9,49.6081052 L303.9,56.9081052 C303.9,66.9081052 312,72.6081052 322.1,72.6081052 C332.1,72.6081052 340.6,67.0081052 340.6,56.9081052 C340.6,48.6081052 337.5,44.8081052 332.5,39.1081052 L320,24.8081052 C317.1,21.5081052 316.5,19.2081052 316.5,16.2081052 C316.5,13.0081052 318.9,10.7081052 322.1,10.7081052 C325.1,10.7081052 327.7,13.4081052 327.7,18.3081052 L327.7,21.2081052 L340.2,21.2081052 Z" id="Path"></path>
                    <polygon id="Path" points="264.5 1.60810523 264.5 40.4081052 264.3 40.4081052 252.7 1.60810523 239.5 1.60810523 239.5 71.6081052 252 71.6081052 252 31.5081052 252.2 31.5081052 264.5 71.6081052 277 71.6081052 277 1.60810523"></polygon>
                    <polygon id="Path" points="230.8 11.6081052 230.8 1.60810523 200.6 1.60810523 200.6 71.6081052 232.2 71.6081052 232.2 61.6081052 213.1 61.6081052 213.1 38.8081052 225.8 38.8081052 225.8 28.8081052 213.1 28.8081052 213.1 11.6081052"></polygon>
                    <polygon id="Path" points="191 1.60810523 178.5 1.60810523 178.5 71.6081052 191 71.6081052"></polygon>
                    <polygon id="Path" points="171.2 1.60810523 133 1.60810523 133 11.5081052 145.8 11.5081052 145.8 71.6081052 158.3 71.6081052 158.3 11.5081052 171.2 11.5081052"></polygon>
                    <path d="M126.6,21.2081052 L126.6,16.3081052 C126.6,7.00810523 119.1,0.708105229 108.5,0.708105229 C97.8,0.708105229 90.2,6.80810523 90.2,16.3081052 C90.2,25.9081052 93,28.1081052 99.6,35.9081052 L110,46.6081052 C112.6,49.6081052 114.1,52.4081052 114.1,56.1081052 C114.1,60.2081052 111.6,62.5081052 108.5,62.5081052 C105.3,62.5081052 102.9,60.4081052 102.9,56.1081052 L102.9,49.6081052 L90.3,49.6081052 L90.3,56.9081052 C90.3,66.9081052 98.4,72.6081052 108.5,72.6081052 C118.5,72.6081052 127,67.0081052 127,56.9081052 C127,48.6081052 123.9,44.8081052 118.9,39.1081052 L106.4,24.8081052 C103.5,21.5081052 102.9,19.2081052 102.9,16.2081052 C102.9,13.0081052 105.3,10.7081052 108.5,10.7081052 C111.5,10.7081052 114.1,13.4081052 114.1,18.3081052 L114.1,21.2081052 L126.6,21.2081052 Z" id="Path"></path>
                    <path d="M59.2,45.2081052 L63.1,20.1081052 L63.4,20.1081052 L67.2,45.2081052 L59.2,45.2081052 Z M71.7,71.6081052 L84.2,71.6081052 L69.8,1.60810523 L57.3,1.60810523 L42.9,71.6081052 L54.7,71.6081052 L57.1,55.3081052 L69.2,55.3081052 L71.7,71.6081052 Z" id="Path"></path>
                    <path d="M35.1,19.2081052 C35.1,8.10810523 28.5,1.60810523 16.9,1.60810523 L0.7,1.60810523 L0.7,71.6081052 L19.3,71.6081052 C31.3,71.6081052 37.9,62.9081052 37.9,51.6081052 C37.9,41.9081052 33.7,36.6081052 27.2,33.8081052 C32.4,31.7081052 35.1,25.1081052 35.1,19.2081052 Z M13.2,11.6081052 L17.9,11.6081052 C22.3,11.6081052 24.2,14.6081052 24.2,19.6081052 C24.2,26.3081052 22.7,28.2081052 13.8,28.2081052 L13.2,28.2081052 L13.2,11.6081052 Z M13.2,61.6081052 L13.2,38.8081052 L15.7,38.8081052 C23.7,38.8081052 26,44.1081052 26,51.6081052 C26,57.2081052 22.4,61.6081052 17.4,61.6081052 L13.2,61.6081052 Z"></path>
                </g>
            </g>
        </g>
    </g>
</svg>