<?xml version="1.0" encoding="UTF-8"?>
<svg width="2462px" height="2462px" viewBox="0 0 2462 2462" version="1.1" xmlns="http://www.w3.org/2000/svg" xmlns:xlink="http://www.w3.org/1999/xlink">
    <!-- Generator: Sketch 40 (33762) - http://www.bohemiancoding.com/sketch -->
    <title>profilePic</title>
    <desc>Created with Sketch.</desc>
    <defs>
        <circle id="path-1" cx="1189" cy="1189" r="1189"></circle>
        <mask id="mask-3" maskContentUnits="userSpaceOnUse" maskUnits="objectBoundingBox" x="-42" y="-42" width="2462" height="2462">
            <rect x="-42" y="-42" width="2462" height="2462" fill="white"></rect>
            <use xlink:href="#path-1" fill="black"></use>
        </mask>
        <circle id="path-4" cx="1189" cy="1189" r="1189"></circle>
        <mask id="mask-6" maskContentUnits="userSpaceOnUse" maskUnits="objectBoundingBox" x="-42" y="-42" width="2462" height="2462">
            <rect x="-42" y="-42" width="2462" height="2462" fill="white"></rect>
            <use xlink:href="#path-4" fill="black"></use>
        </mask>
        <path d="M186.033963,510.392484 C120.779682,527.753787 64.82232,807.742922 2.93674538,1074.23383 L2742.14826,1074.23383 C2680.26269,807.742922 2537.07519,475.162095 2432.15332,390.97387 C2412.79253,375.425844 2382.43851,345.945872 2335.62072,308.265784 C2301.06963,280.458234 2292.05982,238.985129 2237.37661,204.549323 C2202.48232,182.57525 2128.53358,168.920258 2083.97497,145.783911 C1989.58846,96.7752235 1872.29233,63.5853866 1726.50791,5.03124432 C1681.31792,-13.119262 1618.75545,28.2057047 1568.24313,8.12461571 L1042.44316,5.03124432 C468.175532,233.309922 293.603136,481.773043 186.033963,510.392484 Z" id="path-7"></path>
        <path d="M981.872745,503.328466 C1026.25558,550.912392 1113.58866,705.315335 1191.87896,826.830603 C1248.97973,915.457339 1319.75215,990.361156 1319.75215,990.361156 C1319.75215,990.361156 1474.49745,755.838694 1551.10692,670.761237 C1551.10692,670.761237 1685.09915,469.758346 1672.40829,353.042048 C1659.73191,236.45888 1628.99828,2.31933517 1628.99828,2.31933517 C1330.86671,49.5266269 1141.74829,-7.77355738 966.539582,2.31933517 L971.985292,180.257208 C973.200733,219.971584 941.998003,276.957115 943.213444,316.671491 C945.293821,384.647534 981.872745,503.328466 981.872745,503.328466 Z" id="path-9"></path>
        <path d="M63.5618492,744.276387 C63.5618492,744.276387 96.1314218,733.077857 114.223238,721.296555 C137.571847,706.092055 170.75828,677.410681 201.488955,655.075247 C236.651507,629.51867 268.030735,611.127253 268.030735,611.127253 C268.030735,611.127253 138.044836,336.191759 120.134873,296.215253 C99.1849581,249.453324 83.5364154,195.590628 78.5482586,143.604372 C73.5601017,91.6181152 86.914342,98.0115217 86.914342,71.384113 C86.914342,44.7567043 86.914342,0.964871055 86.914342,0.964871055 C86.914342,0.964871055 13.7906173,95.3001501 2.60633605,172.168263 C-0.845895857,195.895005 -0.145590112,267.822657 8.46653529,344.459676 C20.0035147,447.124195 42.1768505,564.784455 53.5037512,648.957634 C61.1144085,705.51443 63.5618492,744.276387 63.5618492,744.276387 Z" id="path-11"></path>
        <path d="M407.503352,804.760239 C407.503352,804.760239 396.585638,770.746739 382.225129,753.985282 C356.502951,723.962585 278.433858,658.321837 278.433858,658.321837 C278.433858,658.321837 265.356735,607.066287 253.967745,580.454265 C228.488119,520.917436 167.82801,399.875283 167.82801,399.875283 C167.82801,399.875283 259.154022,535.822451 278.433858,580.454265 C297.713694,625.086078 327.717956,657.059647 327.717956,657.059647 C327.717956,657.059647 378.534528,701.463382 398.681918,724.774011 C437.848743,770.090219 472.298238,881.853664 472.298238,881.853664 L407.503352,804.760239 Z" id="path-13"></path>
        <path d="M63.5618492,744.276387 C63.5618492,744.276387 96.1314218,733.077857 114.223238,721.296555 C137.571847,706.092055 170.75828,677.410681 201.488955,655.075247 C236.651507,629.51867 268.030735,611.127253 268.030735,611.127253 C268.030735,611.127253 138.044836,336.191759 120.134873,296.215253 C99.1849581,249.453324 83.5364154,195.590628 78.5482586,143.604372 C73.5601017,91.6181152 86.914342,98.0115217 86.914342,71.384113 C86.914342,44.7567043 86.914342,0.964871055 86.914342,0.964871055 C86.914342,0.964871055 13.7906173,95.3001501 2.60633605,172.168263 C-0.845895857,195.895005 -0.145590112,267.822657 8.46653529,344.459676 C20.0035147,447.124195 42.1768505,564.784455 53.5037512,648.957634 C61.1144085,705.51443 63.5618492,744.276387 63.5618492,744.276387 Z" id="path-15"></path>
        <path d="M407.503352,804.760239 C407.503352,804.760239 396.585638,770.746739 382.225129,753.985282 C356.502951,723.962585 278.433858,658.321837 278.433858,658.321837 C278.433858,658.321837 265.356735,607.066287 253.967745,580.454265 C228.488119,520.917436 167.82801,399.875283 167.82801,399.875283 C167.82801,399.875283 259.154022,535.822451 278.433858,580.454265 C297.713694,625.086078 327.717956,657.059647 327.717956,657.059647 C327.717956,657.059647 376.495857,710.189613 391.299052,753.985282 C406.102248,797.780952 407.503352,804.760239 407.503352,804.760239 Z" id="path-17"></path>
        <path d="M160.659234,1139.67849 C182.948107,1176.91156 211.091717,1237.53194 248.905359,1280.23537 C306.134272,1344.86471 382.615857,1377.1917 471.524591,1385.91159 C531.09794,1391.75436 620.808127,1375.8467 683.020479,1318.91475 C775.003605,1234.73889 830.455391,1109.35652 852.066626,1046.42888 C888.294517,940.940433 1249.28156,1.92015209 471.524591,1.92015209 C-306.220251,1.92015209 109.864763,1054.82172 160.659234,1139.67849 Z" id="path-19"></path>
        <linearGradient x1="50%" y1="100%" x2="48.5121411%" y2="7.47101293%" id="linearGradient-21">
            <stop stop-color="#EAB7B6" offset="0%"></stop>
            <stop stop-color="#D68D8E" offset="100%"></stop>
        </linearGradient>
        <linearGradient x1="0%" y1="30.2262469%" x2="100%" y2="40.1249468%" id="linearGradient-22">
            <stop stop-color="#6F3434" offset="0%"></stop>
            <stop stop-color="#3D1C1C" offset="15.2889245%"></stop>
            <stop stop-color="#371919" offset="84.9285649%"></stop>
            <stop stop-color="#6F3434" offset="100%"></stop>
        </linearGradient>
        <path d="M17.1210824,62.4214568 C14.2101616,73.8875939 59.2759682,98.4612557 117.020001,109.140113 C127.095313,111.003385 178.72132,125.594953 219.337538,126.677647 C266.120007,127.924712 303.077392,120.247145 317.815768,116.951675 C365.853643,106.210507 424.702216,86.7385074 421.507792,79.635387 C418.216349,72.3165376 369.602082,49.4996246 336.825382,49.4996246 C304.048682,49.4996246 258.394643,55.9457063 228.426203,55.9457063 C207.38318,55.9457063 161.878612,44.0726236 117.020001,44.0726236 C91.0086914,44.0726236 74.2320982,51.7086699 49.7977599,55.9457063 C32.0931031,59.0157823 18.4945742,57.011263 17.1210824,62.4214568 Z" id="path-23"></path>
        <linearGradient x1="0%" y1="50%" x2="100%" y2="50%" id="linearGradient-25">
            <stop stop-color="#D7D7D7" offset="0%"></stop>
            <stop stop-color="#F6F6F6" offset="13.1078603%"></stop>
            <stop stop-color="#F1F1F1" offset="86.4397321%"></stop>
            <stop stop-color="#DADADA" offset="100%"></stop>
        </linearGradient>
        <path d="M247.456793,166.536414 C247.456793,174.24293 233.195874,172.437879 214.477666,175.732125 C196.333926,178.92527 176.416804,186.88972 157.118353,186.073873 C124.962329,184.71447 112.960289,174.299666 91.7589684,166.536414 C77.5617013,161.337825 134.163976,122.219066 160.91238,120.557804 C211.952875,117.387834 247.456793,158.338725 247.456793,166.536414 Z" id="path-26"></path>
        <path d="M243.813793,166.536414 C243.813793,170.699136 234.227443,168.797434 215.509235,172.091681 C197.365495,175.284825 176.384823,183.752311 157.086372,182.936465 C124.930349,181.577062 116.576964,174.299666 95.3756428,166.536414 C81.1783757,161.337825 132.690811,125.542913 162.336616,123.779806 C213.42757,120.741305 243.813793,158.338725 243.813793,166.536414 Z" id="path-28"></path>
        <radialGradient cx="50%" cy="0%" fx="50%" fy="0%" r="100%" id="radialGradient-30">
            <stop stop-color="#5B443B" offset="0%"></stop>
            <stop stop-color="#211612" offset="100%"></stop>
        </radialGradient>
        <path d="M48.9220536,176.842717 C48.9220536,184.692469 57.0778467,181.329329 69.79373,188.1271 C87.6870234,197.692656 110.125567,207.321245 122.985932,208.368153 C135.626614,209.397178 157.458637,204.677793 171.934412,198.694317 C187.672515,192.189066 210.043574,192.197165 210.043574,192.197165 C210.043574,192.197165 169.779661,145.17573 122.985932,145.17573 C76.1922035,145.17573 48.9220536,168.992965 48.9220536,176.842717 Z" id="path-31"></path>
        <path d="M50.8704698,177.419038 C50.8704698,177.419038 62.177114,181.37951 74.8929973,188.17728 C92.7862907,197.742836 116.033191,205.309801 128.893556,206.356709 C141.534238,207.385734 152.727508,202.413767 167.203284,196.430291 C182.941386,189.92504 206.916643,191.208025 206.916643,191.208025 C206.916643,191.208025 168.434913,148.492708 121.641184,148.492708 C74.8474557,148.492708 50.8704698,177.419038 50.8704698,177.419038 Z" id="path-33"></path>
        <circle id="path-35" cx="1189.5" cy="1189.5" r="1139.5"></circle>
        <mask id="mask-36" maskContentUnits="userSpaceOnUse" maskUnits="objectBoundingBox" x="-21" y="-21" width="2321" height="2321">
            <rect x="29" y="29" width="2321" height="2321" fill="white"></rect>
            <use xlink:href="#path-35" fill="black"></use>
        </mask>
        <mask id="mask-38" maskContentUnits="userSpaceOnUse" maskUnits="objectBoundingBox" x="-21" y="-21" width="2321" height="2321">
            <rect x="29" y="29" width="2321" height="2321" fill="white"></rect>
            <use xlink:href="#path-35" fill="black"></use>
        </mask>
    </defs>
    <g id="ProfilePic" stroke="none" stroke-width="1" fill="none" fill-rule="evenodd">
        <g id="Work" transform="translate(-77.000000, -104.000000)">
            <g id="profilePic" transform="translate(119.000000, 146.000000)">
                <g>
                    <mask id="mask-2" fill="white">
                        <use xlink:href="#path-1"></use>
                    </mask>
                    <g id="Oval">
                        <use fill="#E2DACF" fill-rule="evenodd" xlink:href="#path-1"></use>
                        <use stroke="#FFFFFF" mask="url(#mask-3)" stroke-width="84" xlink:href="#path-1"></use>
                    </g>
                    <g id="Group" mask="url(#mask-2)">
                        <mask id="mask-5" fill="white">
                            <use xlink:href="#path-4"></use>
                        </mask>
                        <g id="Oval-Copy-2">
                            <use fill="#E2DACF" fill-rule="evenodd" xlink:href="#path-4"></use>
                            <use stroke="#FFFFFF" mask="url(#mask-6)" stroke-width="84" xlink:href="#path-4"></use>
                        </g>
                        <g id="avatar" mask="url(#mask-5)">
                            <g transform="translate(-131.000000, -98.000000)">
                                <g transform="translate(0.000000, 4.227470)">
                                    <g id="Buste" transform="translate(0.000000, 1489.758089)">
                                        <g id="Group-2" transform="translate(0.000000, 291.762712)">
                                            <mask id="mask-8" fill="white">
                                                <use xlink:href="#path-7"></use>
                                            </mask>
                                            <use id="Fill-171" fill="#37659A" xlink:href="#path-7"></use>
                                            <polygon id="Path-40" fill="#244974" mask="url(#mask-8)" points="1363.64363 1097.52693 1348.20486 -102.057439 2805.56813 -104.475507 2813.5208 1126.49072"></polygon>
                                            <polygon id="Path-41" fill="#244974" mask="url(#mask-8)" points="988.129317 568.585196 1046.92603 707.793786 1326.55239 547.352863 1139.62231 454.479967"></polygon>
                                            <path d="M1352.03274,644.97705 C1352.03274,644.97705 1383.07299,623.7773 1480.37817,665.456388 C1577.68336,707.135475 1670.44691,781.364561 1670.44691,781.364561 C1670.44691,781.364561 1736.93548,543.137916 1749.92056,385.087783 C1762.90563,227.037651 1729.79501,58.9986068 1729.79501,58.9986068 L1463.09438,484.589154 L1352.03274,644.97705 Z" id="Path-2" fill="#1A3656" mask="url(#mask-8)"></path>
                                            <path d="M1725.34645,4.41629572 C1725.34645,4.41629572 1802.76016,113.08162 1831.47353,158.41359 C1860.1869,203.745561 1877.24911,218.872147 1882.55083,252.606775 C1890.09977,300.640395 1870.02551,403.718333 1870.02551,403.718333 C1870.02551,403.718333 1916.96201,373.500643 1933.23431,352.168972 C1948.27675,332.44954 1963.96972,280.565025 1963.96972,280.565025 C1963.96972,280.565025 2011.59113,331.134941 2011.85362,361.750988 C2012.19899,402.033866 1965.7933,493.2618 1965.7933,493.2618 L2062.11759,323.191723 L2110.52373,522.590133 L2269.72292,505.155831 C2269.72292,505.155831 2260.71162,457.577272 2249.6122,391.087884 C2244.05174,357.778809 2252.06938,313.174556 2232.14695,280.565025 C2194.14685,218.365529 2082.15611,185.275454 2042.12672,148.454802 C1963.57517,76.1998994 1725.34645,4.41629572 1725.34645,4.41629572 Z" id="Path-42" fill="#1A3656" mask="url(#mask-8)"></path>
                                        </g>
                                        <mask id="mask-10" fill="white">
                                            <use xlink:href="#path-9"></use>
                                        </mask>
                                        <use id="Fill-172" fill="#DCAF88" xlink:href="#path-9"></use>
                                        <path d="M931.738543,14.9425221 C931.738543,14.9425221 1019.79198,137.240203 1065.15525,190.341468 C1108.35993,240.915928 1170.59681,250.690602 1212.80212,283.204835 C1238.73048,303.179589 1250.60771,313.10877 1250.60771,343.906744 C1250.60771,374.704718 1265.8842,496.000893 1258.09947,542.042369 C1250.31473,588.083845 1222.82302,584.77082 1166.94274,576.261011 C1111.06246,567.751202 931.140637,343.715378 931.140637,343.715378 L931.738543,14.9425221 Z" id="Path-31" fill="#E8BC96" mask="url(#mask-10)"></path>
                                        <path d="M962.732435,287.446842 C962.732435,287.446842 964.927389,370.096643 1024.18111,457.227489 C1093.04153,558.4847 1238.71803,649.865675 1332.72812,647.092674 C1424.43408,644.387639 1514.67958,615.652113 1578.67902,512.677457 C1636.74157,419.255197 1661.14104,245.496925 1661.14104,245.496925 L1699.98386,458.517217 L1423.72084,844.339203 L1306.17385,977.608208 L1161.10881,797.246681 C1161.10881,797.246681 967.769116,540.420265 946.926655,410.508543 C941.367916,375.860741 962.732435,287.446842 962.732435,287.446842 Z" id="Path-16" fill="#977E67" mask="url(#mask-10)"></path>
                                        <path d="M1676.61369,-116.284373 C1676.61369,-116.284373 1619.86162,86.3982549 1536.52915,200.62426 C1502.15648,247.739777 1431.71431,251.281588 1398.09908,272.390799 C1350.21817,302.458377 1350.69747,356.656637 1340.00761,356.656637 C1329.31775,356.656637 1317.366,313.574365 1251.54923,285.87012 C1209.75047,268.275777 1132.37536,253.255879 1100.34916,232.225958 C1076.2643,216.410701 1024.78125,129.211172 1024.78125,129.211172 L1676.61369,-116.284373 Z" id="Path-30" fill="#C19B7B" mask="url(#mask-10)"></path>
                                        <path d="M1119.8158,555.288488 C1119.8158,555.288488 1238.78115,637.735556 1277.47162,612.423215 C1309.47953,591.48278 1305.81944,433.730822 1331.91094,416.530161 C1358.00245,399.329499 1349.72699,506.185971 1407.39058,526.774947 C1457.85477,544.793356 1546.51837,496.366618 1578.55308,468.420261 C1647.19267,408.540628 1665.00429,286.269682 1665.00429,286.269682 C1665.00429,286.269682 1683.87593,373.883153 1645.86532,448.745439 C1628.39013,483.163002 1540.007,566.796542 1493.18408,628.509924 C1457.22967,675.898438 1469.36352,711.329562 1455.92857,704.841057 C1442.49363,698.352552 1421.92673,659.046914 1394.75238,651.856582 C1376.14594,646.933318 1359.96809,669.916837 1331.91094,670.688197 C1293.79608,671.73607 1234.7632,640.392559 1250.48813,659.224175 C1266.21305,678.05579 1358.26168,710.818781 1376.25762,747.772835 C1397.95067,792.318791 1407.39058,856.791682 1364.64629,879.055926 C1321.902,901.32017 1221.25651,825.832243 1214.34472,792.462788 C1211.76106,779.989142 1224.79808,766.582305 1227.2535,740.889637 C1228.73897,725.34622 1216.575,707.920722 1214.34472,690.021961 C1210.39926,658.358419 1214.34472,628.509924 1214.34472,628.509924 L1119.8158,555.288488 Z" id="Path-32" fill="#C7A07E" mask="url(#mask-10)"></path>
                                        <path d="M1615.66766,441.886574 C1598.70125,496.592979 1554.57597,566.233182 1533.31619,605.346728 C1501.76368,663.396726 1488.00918,704.181558 1487.04363,715.188337 C1485.30542,735.002865 1541.42747,736.453642 1533.31619,759.371502 C1529.41279,770.400282 1501.28265,819.760709 1471.35648,871.014925 C1439.09591,926.26723 1406.59733,981.608013 1406.59733,981.608013 L1305.10132,987.557035 L1171.37673,802.373697 C1171.37673,802.373697 1150.10604,764.711858 1126.41639,710.644039 C1102.72673,656.576219 1160.65925,718.593854 1171.37673,729.849704 C1182.0942,741.105554 1185.8478,691.102546 1117.30685,597.801131 C1048.76591,504.499717 1048.18314,499.679648 1008.19174,409.369537 C968.200343,319.059426 974.279162,211.244107 974.279162,211.244107 L868.469212,269.634631 C868.469212,269.634631 966.240912,564.999966 1034.14728,691.871883 C1099.03146,813.097323 1266.84085,1013.9267 1266.84085,1013.9267 L1504.42076,998.477575 L1741.32113,575.585394 L1699.91491,259.615226 C1699.91491,259.615226 1657.8146,305.988177 1615.66766,441.886574 Z" id="Path-33" fill="#5A5148" mask="url(#mask-10)"></path>
                                        <g id="Col-droit" transform="translate(883.962264, 176.825886)">
                                            <mask id="mask-12" fill="white">
                                                <use xlink:href="#path-11"></use>
                                            </mask>
                                            <use id="Path-15" fill="#3F72AD" xlink:href="#path-11"></use>
                                            <path d="M229.025162,656.264494 C229.025162,656.264494 166.434002,568.539268 136.662295,472.262273 C116.746051,407.856282 102.960803,333.12474 87.3137074,271.833147 C69.361932,201.513842 50.7701259,148.16454 48.2089927,136.235114 C40.0785399,98.3645183 97.3123816,16.0920862 97.3123816,16.0920862 L333.084913,603.012059 L229.025162,656.264494 Z" id="Path-17" fill="#37659A" mask="url(#mask-12)"></path>
                                            <path d="M305.985248,627.325567 C305.985248,627.325567 227.214809,547.650609 187.673849,464.102154 C162.041803,409.942675 108.048861,315.117212 92.4017651,253.825619 C74.4499896,183.506314 67.5420643,142.928155 64.980931,130.998728 C56.8504782,93.1281329 100.573141,9.90608443 100.573141,9.90608443 L346.344347,603.012059 L305.985248,627.325567 Z" id="Path-17-Copy" fill="#2B496B" mask="url(#mask-12)"></path>
                                            <path d="M13.7475933,165.88472 C13.7475933,165.88472 -0.547567085,250.385885 6.39984803,315.561283 C11.8986791,367.147162 32.7353131,449.437567 46.3394533,526.887564 C54.3077878,572.252246 67.8426028,621.213216 72.116348,655.944619 C77.0583762,696.106951 72.116348,718.962068 72.116348,718.962068 C72.116348,718.962068 98.6087981,704.283729 111.799623,696.469874 C137.20834,681.418502 173.618183,649.282473 205.481659,630.156406 C238.014464,610.628574 265.742342,604.263757 265.742342,604.263757 C265.742342,604.263757 228.368397,612.718637 207.892192,624.553376 C190.111453,634.830202 145.513553,669.408349 123.220925,684.845917 C92.425366,706.171735 77.0410987,710.734251 77.0410987,710.734251 C77.0410987,710.734251 83.3092983,685.411117 77.0410987,652.357236 C68.7625478,608.702239 57.5974034,578.311609 46.3394533,512.361351 C35.8050664,450.649803 14.9390631,360.396399 9.46837893,313.271332 C4.03363021,266.455816 13.7475933,165.88472 13.7475933,165.88472 Z" id="Path-18" fill="#2C496B" mask="url(#mask-12)"></path>
                                            <mask id="mask-14" fill="white">
                                                <use xlink:href="#path-13"></use>
                                            </mask>
                                            <use id="Path-19" fill="#8EB8E9" xlink:href="#path-13"></use>
                                            <polygon id="Path-20" fill="#748FAD" mask="url(#mask-14)" points="273.649223 664.705428 286.175406 560.965021 157.694241 363.561763 153.133217 401.239841"></polygon>
                                        </g>
                                        <g id="Col-gauche" transform="translate(1535.884434, 581.315100) scale(-1, 1) translate(-1535.884434, -581.315100) translate(1330.363208, 176.825886)">
                                            <mask id="mask-16" fill="white">
                                                <use xlink:href="#path-15"></use>
                                            </mask>
                                            <use id="Path-15" fill="#3F72AD" xlink:href="#path-15"></use>
                                            <path d="M229.025162,656.264494 C229.025162,656.264494 166.434002,568.539268 136.662295,472.262273 C116.746051,407.856282 102.960803,333.12474 87.3137074,271.833147 C69.361932,201.513842 50.7701259,148.16454 48.2089927,136.235114 C40.0785399,98.3645183 97.3123816,16.0920862 97.3123816,16.0920862 L333.084913,603.012059 L229.025162,656.264494 Z" id="Path-17" fill="#37659A" mask="url(#mask-16)"></path>
                                            <path d="M305.985248,627.325567 C305.985248,627.325567 227.214809,547.650609 187.673849,464.102154 C162.041803,409.942675 108.048861,315.117212 92.4017651,253.825619 C74.4499896,183.506314 67.5420643,142.928155 64.980931,130.998728 C56.8504782,93.1281329 100.573141,9.90608443 100.573141,9.90608443 L346.344347,603.012059 L305.985248,627.325567 Z" id="Path-17-Copy" fill="#2B496B" mask="url(#mask-16)"></path>
                                            <path d="M13.7475933,165.88472 C13.7475933,165.88472 -0.547567085,250.385885 6.39984803,315.561283 C11.8986791,367.147162 32.7353131,449.437567 46.3394533,526.887564 C54.3077878,572.252246 67.8426028,621.213216 72.116348,655.944619 C77.0583762,696.106951 72.116348,718.962068 72.116348,718.962068 C72.116348,718.962068 98.6087981,704.283729 111.799623,696.469874 C137.20834,681.418502 173.618183,649.282473 205.481659,630.156406 C238.014464,610.628574 265.742342,604.263757 265.742342,604.263757 C265.742342,604.263757 228.368397,612.718637 207.892192,624.553376 C190.111453,634.830202 145.513553,669.408349 123.220925,684.845917 C92.425366,706.171735 77.0410987,710.734251 77.0410987,710.734251 C77.0410987,710.734251 83.3092983,685.411117 77.0410987,652.357236 C68.7625478,608.702239 57.5974034,578.311609 46.3394533,512.361351 C35.8050664,450.649803 14.9390631,360.396399 9.46837893,313.271332 C4.03363021,266.455816 13.7475933,165.88472 13.7475933,165.88472 Z" id="Path-18" fill="#2C496B" mask="url(#mask-16)"></path>
                                            <mask id="mask-18" fill="white">
                                                <use xlink:href="#path-17"></use>
                                            </mask>
                                            <use id="Path-19" fill="#8EB8E9" xlink:href="#path-17"></use>
                                            <polygon id="Path-20" fill="#748FAD" mask="url(#mask-18)" points="273.649223 664.705428 286.175406 560.965021 157.694241 363.561763 153.133217 401.239841"></polygon>
                                        </g>
                                        <path d="M1272.41259,945.198672 C1272.41259,945.198672 1155.90957,844.883174 1190.22281,858.591225 C1224.53604,872.299276 1296.48825,924.399961 1317.96522,940.396484 C1340.34159,957.062897 1388.71044,940.396484 1388.71044,940.396484 L1367.4814,1366.8736 L1249.96353,1366.8736 L1272.41259,959.573207 L1272.41259,945.198672 Z" id="Path-2-Copy-5" fill="#244974"></path>
                                    </g>
                                    <g id="Oreilles" transform="translate(782.306604, 1007.907550)">
                                        <path d="M888.027995,119.501522 C862.667146,219.502877 872.547208,342.173482 917.046948,361.216109 C961.607331,380.242985 983.438825,283.993915 1008.77542,183.945308 C1034.12414,83.943952 1053.27516,26.7615736 1008.77542,7.7189466 C964.227163,-11.3394311 913.388845,19.5159168 888.027995,119.501522 Z" id="Fill-174" fill="#D9A981"></path>
                                        <path d="M17.325165,119.501522 C-8.0356844,219.502877 1.84437763,342.173482 46.3441176,361.216109 C90.9045005,380.242985 112.735995,283.993915 138.072587,183.945308 C163.421308,83.943952 182.572327,26.7615736 138.072587,7.7189466 C93.524333,-11.3394311 42.6860143,19.5159168 17.325165,119.501522 Z" id="Fill-174-Copy" fill="#EAB88D" transform="translate(84.174481, 183.013128) scale(-1, 1) translate(-84.174481, -183.013128) "></path>
                                    </g>
                                    <g id="Visage-fond" transform="translate(808.825472, 375.755008)">
                                        <mask id="mask-20" fill="white">
                                            <use xlink:href="#path-19"></use>
                                        </mask>
                                        <use id="Fill-182" fill="#DCAF88" transform="translate(485.633573, 694.482962) scale(-1, 1) translate(-485.633573, -694.482962) " xlink:href="#path-19"></use>
                                        <path d="M529.585721,818.543089 C541.720867,822.439668 567.658858,805.589624 584.459955,804.808789 C597.379727,804.20834 606.416473,819.567052 616.058404,814.646511 C625.700336,809.72597 624.653813,790.064697 618.748329,782.592944 C611.889491,773.914987 595.313623,773.980243 582.501715,764.85692 C566.848639,753.71041 567.821136,745.099867 561.115347,743.359577 C554.409559,741.619286 551.454615,749.604388 545.010951,756.808614 C534.823792,768.198189 519.647684,772.881459 517.113807,781.193114 C512.673739,795.757479 517.450574,814.646511 529.585721,818.543089 Z" id="Path-25" fill="#EABB94" mask="url(#mask-20)"></path>
                                        <path d="M717.315236,378.257439 C698.479412,345.811825 689.322273,200.88833 762.980576,215.835447 C836.638878,230.782564 862.011649,547.572159 862.011649,547.572159 C862.011649,547.572159 868.364858,672.884832 871.221371,711.698524 C882.704022,867.722339 760.477846,1143.21408 771.185727,1046.77507 C774.776589,1014.43448 815.612267,963.56414 814.39107,905.435889 C813.314302,854.182303 770.280834,797.772745 771.185727,736.561697 C771.621016,707.116786 801.069936,629.46789 799.147501,605.583456 C796.083105,567.511254 741.778514,525.776129 741.778514,515.999124 C741.778514,493.640912 769.103977,492.256188 799.147501,515.999124 C827.048697,538.049013 852.473586,564.135076 851.847885,556.994217 C851.157616,549.116472 846.704158,474.484303 814.39107,430.8184 C781.836956,386.826789 726.768142,394.540525 717.315236,378.257439 Z" id="Path-24" fill="#E9BB94" mask="url(#mask-20)"></path>
                                        <path d="M408.786808,372.964759 C399.021365,392.573812 271.433734,381.064113 238.447034,399.014088 C164.058521,439.493189 160.587811,502.088902 160.587811,502.088902 C160.587811,502.088902 211.610569,458.728826 238.447034,449.457982 C262.394433,441.185186 311.990991,438.348942 311.990991,472.181976 C311.990991,479.101724 237.218697,510.421648 238.447034,561.670878 C238.898291,580.4984 265.015624,573.745361 282.421663,595.461752 C288.401327,602.922195 294.755864,639.042269 311.990991,639.042269 C329.226117,639.042269 416.077552,608.084368 444.72583,561.670878 C472.220343,517.126619 408.786808,468.332936 408.786808,459.235336 C408.786808,450.137735 479.44199,442.032506 486.571685,449.457982 C488.313122,451.271664 500.801277,484.200205 502.015461,529.018242 C502.997825,565.279356 488.601675,615.227873 486.571685,662.749328 C484.184733,718.627156 478.607839,776.44039 473.823947,824.905868 C470.818798,855.350937 347.78627,842.209754 342.889506,862.467891 C340.24807,873.395629 363.779264,869.534666 385.839098,884.842999 C414.151407,904.490212 434.163943,935.639188 427.864038,939.690981 C408.786808,951.960532 264.461727,951.153331 264.592968,954.217784 C264.703818,956.806108 264.104189,938.545605 282.421663,884.842999 C292.770236,854.503368 340.126443,802.865388 346.807791,770.691442 C352.53879,743.09389 341.760402,712.722538 342.889506,693.77985 C344.440831,667.753668 302.998099,676.612457 293.747726,697.872387 C288.459036,710.027266 269.434564,752.286559 244.779423,796.639945 C226.310603,829.864446 201.621649,859.155999 193.929705,905.803424 C185.079941,959.472395 214.200669,1035.68775 215.31109,1079.15293 C217.443736,1162.63104 200.10491,1193.92175 200.10491,1193.92175 C200.10491,1193.92175 114.196834,1104.74625 98.4300481,891.869695 C88.2623472,754.589644 124.569046,577.937725 143.980091,438.348942 C156.834801,345.908108 150.583379,266.025219 160.587811,237.890851 C209.125347,101.394058 335.887071,84.4203438 376.999254,108.750898 C397.680408,120.990189 441.712004,174.034059 451.354628,222.797734 C461.046538,271.810655 426.132728,338.134076 408.786808,372.964759 Z" id="Path-26" fill="#E9BB94" mask="url(#mask-20)"></path>
                                        <path d="M354.893893,370.449433 C345.12845,390.058485 266.493027,372.456593 233.506328,390.406568 C159.117815,430.885669 155.598564,541.62445 155.598564,541.62445 C155.598564,541.62445 206.669862,474.313501 233.506328,465.042657 C257.453726,456.769861 279.947693,458.246305 279.947693,492.079339 C279.947693,498.999087 167.229754,544.616586 168.458091,595.865816 C168.909348,614.693338 217.540704,559.620253 258.310718,584.531508 C299.080732,609.442763 238.091439,627.638746 233.506328,642.617397 C219.43588,688.582765 236.779492,750.506032 225.98221,799.437967 C215.725257,845.921196 177.207818,895.179003 168.458091,948.241301 C159.608327,1001.91027 198.994489,1030.64125 200.10491,1074.10643 C202.237556,1157.58454 183.252604,1156.88369 183.252604,1156.88369 C183.252604,1156.88369 144.641803,1062.19392 108.009795,891.458549 C78.7594016,755.127589 136.187518,582.814556 155.598564,443.225774 C168.453274,350.784939 145.594132,303.674107 155.598564,275.539739 C204.1361,139.042946 280.57038,115.564745 321.682562,139.895299 C342.363717,152.13459 354.364658,182.052235 364.007282,230.81591 C373.699192,279.828831 372.239813,335.618749 354.893893,370.449433 Z" id="Path-26-Copy" fill="#EEC6A4" mask="url(#mask-20)"></path>
                                        <path d="M148.684795,587.5124 C142.228719,579.620148 181.338702,545.801064 181.338702,545.801064 C181.338702,545.801064 200.537145,494.758276 219.48091,482.680032 C229.398856,476.356507 244.415154,499.995751 234.723361,513.298063 C227.522774,523.181112 207.397219,532.416762 193.137498,545.801064 C169.794765,567.710762 154.065179,594.089669 148.684795,587.5124 Z M108.038257,768.29124 C108.343787,786.006321 128.654571,766.053624 138.383913,777.227411 C160.178313,802.257465 158.832512,843.196907 172.072651,830.074888 C190.969758,811.34637 195.663068,768.227106 190.969758,726.206128 C184.895747,671.823216 172.075209,617.908154 156.647713,612.692037 C129.299589,603.445493 107.048321,710.89315 108.038257,768.29124 Z M195.898745,255.855274 C185.804255,261.832837 178.884989,347.78602 177.072853,369.327089 C175.260717,390.868158 189.645435,398.493183 203.1391,383.396439 C211.893977,373.601463 221.942646,318.876247 215.898446,281.943433 C212.626876,261.952654 199.443791,253.756036 195.898745,255.855274 Z" id="Combined-Shape" fill="#F4D7BE" mask="url(#mask-20)"></path>
                                        <path d="M260.036598,976.632084 C265.589879,975.12251 277.72185,985.160656 303.612354,996.435852 C358.434337,1020.31058 444.243767,1059.56757 444.243767,1075.57652 C444.243767,1099.14594 375.293607,1126.23163 374.181192,1159.76423 C373.068776,1193.29683 452.731584,1208.61416 433.351104,1220.59767 C428.439879,1223.63442 408.954284,1225.52277 400.465506,1235.83989 C391.133204,1247.1822 392.475233,1266.83793 380.051768,1265.70054 C369.832126,1264.76492 367.487262,1243.22155 357.728699,1231.67948 C347.559101,1219.65126 330.115262,1217.58824 326.615262,1215.7013 C311.960172,1207.80039 323.852516,1188.91806 315.254321,1172.00777 C306.656127,1155.09747 284.653494,1148.9868 273.106432,1121.10279 C250.980761,1067.67341 248.661164,979.724321 260.036598,976.632084 Z" id="Path-34" fill="#E9BB94" mask="url(#mask-20)"></path>
                                        <path d="M263.034907,988.322079 C250.840524,993.53888 257.439557,1064.15712 271.353649,1094.40308 C284.520746,1123.02526 330.837486,1164.9567 343.086201,1159.81537 C355.334915,1154.67405 402.08284,1087.99834 386.859206,1054.90574 C375.001651,1029.1302 275.229289,983.105277 263.034907,988.322079 Z" id="Path-36" fill="#EEC6A4" mask="url(#mask-20)"></path>
                                        <path d="M289.077168,1036.7516 C282.051242,1039.75732 285.33471,1068.36297 293.351465,1085.78951 C300.93783,1102.28049 313.551427,1114.6883 320.608656,1111.72607 C327.665885,1108.76384 368.215909,1086.9119 359.444648,1067.84524 C352.612789,1052.99438 296.103093,1033.74589 289.077168,1036.7516 Z" id="Path-36-Copy" fill="#F4D6BE" mask="url(#mask-20)"></path>
                                        <path d="M490.912248,1428.16298 C493.05271,1427.62531 586.337495,1404.26241 667.580971,1395.93528 C749.772164,1387.51101 852.682889,1192.79715 916.159672,1081.52356 C979.636456,970.249969 932.046964,749.96685 890.709142,792.830418 C883.809503,799.984717 890.386192,868.747587 869.912246,907.231856 C827.174672,987.564404 779.571757,1162.03377 749.787176,1119.71871 C725.932168,1085.8278 653.338411,1169.68173 638.426701,1185.185 C623.514991,1200.68827 538.906896,1307.42273 490.874713,1307.39852 C488.304775,1307.39722 486.324119,1308.98372 484.831403,1311.79395 C470.410916,1308.48044 448.295211,1301.70869 429.028958,1302.21425 C405.079811,1302.84269 386.543197,1316.46015 361.090858,1307.39852 C296.601363,1284.43874 240.384504,1228.74341 232.163682,1220.19646 C217.251972,1204.69319 58.257714,970.510522 74.8138583,758.506966 C91.3700026,546.50341 0.629299787,970.249969 64.1060831,1081.52356 C127.582866,1192.79715 230.493591,1387.51101 312.684784,1395.93528 C394.875977,1404.35955 490.892641,1428.24511 490.892641,1428.24511 C490.892641,1428.24511 490.899273,1428.21745 490.912248,1428.16298 Z" id="Combined-Shape-Copy-2" fill="#957558" mask="url(#mask-20)"></path>
                                        <path d="M331.903433,770.764044 C335.024099,774.677546 309.057837,820.004305 283.719945,860.966333 C265.951429,889.691472 249.671505,912.992427 238.88507,932.429085 C212.717186,979.582404 234.225425,1040.76196 226.168461,1033.8889 C218.111496,1027.01584 187.734509,980.832789 211.42239,902.072741 C235.11027,823.312693 326.59436,764.10615 331.903433,770.764044 Z" id="Path-35" fill="#C39B79" mask="url(#mask-20)"></path>
                                        <path d="M295.852069,820.470909 C298.972735,824.384411 275.065057,867.295537 275.065057,867.295537 C275.065057,867.295537 237.789462,897.188686 230.176434,922.482548 C221.207357,952.281803 223.75746,1009.8727 215.700495,1002.99965 C207.643531,996.126588 207.031244,932.429085 215.700495,902.337883 C224.369747,872.246681 290.542997,813.813014 295.852069,820.470909 Z" id="Path-35-Copy" fill="#957558" mask="url(#mask-20)"></path>
                                        <path d="M392.280992,877.450966 C375.709406,867.669974 476.353377,830.654039 565.58011,830.654039 C654.806844,830.654039 709.743032,889.60482 720.390647,883.527893 C731.038262,877.450966 680.317344,782.741302 687.748787,774.711708 C695.180229,766.682114 768.571429,849.299618 773.635784,917.249364 C777.713369,971.95936 746.713706,996.077379 741.583497,1036.91292 C735.778958,1083.11599 757.1807,1121.64738 764.919285,1121.64738 C768.778726,1121.64738 769.280254,1060.48816 799.174527,997.449967 C810.955392,972.607603 828.928845,952.135527 842.089783,930.540213 C862.495582,897.057066 876.341495,841.148302 876.341495,867.669974 C876.341495,894.191646 856.10326,1030.92334 783.870346,1148.77992 C766.453725,1177.19721 717.066665,1134.9628 692.889015,1154.98397 C645.156975,1194.51019 619.261555,1284.93202 596.566224,1298.1678 C548.753272,1326.05204 487.860818,1324.37664 430.296342,1311.31234 C410.809259,1306.88974 402.012372,1337.86064 383.924591,1331.53264 C312.184372,1306.43434 277.737929,1288.62692 246.148121,1235.19516 C214.558313,1181.7634 226.420378,1000.42311 231.747716,1036.91292 C233.51945,1049.04848 251.831883,1084.47141 258.179644,1121.64738 C264.123766,1156.45942 257.708836,1192.41862 270.772497,1223.38029 C275.326067,1234.17253 289.728565,1236.15916 302.245803,1244.14989 C314.016681,1251.66416 344.333112,1294.23557 383.924591,1298.1678 C440.30395,1303.76741 511.039915,1267.34571 535.684883,1250.94009 C559.672565,1234.97201 576.867237,1235.19516 565.58011,1216.39942 C554.292984,1197.60367 467.057943,1194.88094 430.296342,1183.24997 C411.16267,1177.19629 393.389531,1151.15278 418.299867,1136.40008 C443.210203,1121.64738 465.240512,1108.78587 499.000741,1114.50055 C514.307778,1117.0916 548.280744,1126.88999 565.58011,1144.13307 C584.9699,1163.45977 579.382157,1185.085 588.615817,1191.45965 C597.758423,1197.77144 660.816039,1159.66681 687.748787,1102.34316 C712.28544,1050.11936 713.721766,990.737452 709.241718,983.971972 C704.761671,977.206492 602.418579,1030.94648 554.558275,1036.91292 C509.240177,1042.56243 429.706513,1018.81985 429.706513,1018.81985 C429.706513,1018.81985 551.74633,1030.92073 601.099228,1009.51908 C650.452125,988.117418 608.325908,974.173325 620.004393,962.393762 C631.682879,950.614199 709.241718,975.010182 709.241718,958.308344 C709.241718,952.638805 678.059158,928.383084 631.682879,917.249364 C586.297742,906.35359 522.061445,905.340613 474.70116,898.891466 C427.890942,892.517222 397.722154,880.662485 392.280992,877.450966 Z" id="Path-37" fill="#C29B79" mask="url(#mask-20)"></path>
                                        <path d="M435.597202,1169.18714 C435.597202,1178.96644 470.126456,1183.00894 486.979147,1184.0909 C508.669579,1185.48344 550.411353,1186.61184 550.411353,1175.78494 C550.411353,1169.7783 524.901209,1159.99047 507.612414,1149.70852 C493.738347,1141.45736 488.768909,1131.87808 479.373886,1131.27492 C472.278674,1130.8194 458.88796,1134.72217 451.220492,1140.96391 C440.040551,1150.06499 435.597202,1163.38623 435.597202,1169.18714 Z" id="Path-39" fill="#957558" mask="url(#mask-20)"></path>
                                        <path d="M438.645539,875.513246 C441.261763,880.264183 452.754678,895.972252 488.638315,897.281049 C533.30321,898.910127 603.055407,864.582492 635.587611,875.513246 C682.761629,891.363619 732.044909,973.143648 751.918898,973.143648 C771.792887,973.143648 768.055885,931.811715 765.116158,914.588688 C761.782414,895.057232 735.355709,859.265508 735.355709,867.389377 C735.355709,875.513246 754.176123,921.551567 736.412348,921.551567 C718.648573,921.551567 681.251671,858.340426 610.730577,846.439475 C540.209483,834.538524 432.772863,864.848746 438.645539,875.513246 Z" id="Path-38" fill="#957558" mask="url(#mask-20)"></path>
                                        <path d="M490.893416,1428.16771 C492.411486,1427.78604 586.058329,1404.29102 667.580971,1395.93528 C749.772164,1387.51101 852.682889,1192.79715 916.159672,1081.52356 C979.636456,970.249969 985.911509,792.830418 985.911509,792.830418 L963.57795,743.483192 C963.57795,743.483192 932.046964,749.96685 890.709142,792.830418 C883.809503,799.984717 874.430272,863.930077 853.956326,902.414345 C811.218752,982.746894 779.571757,1162.03377 749.787176,1119.71871 C725.932168,1085.8278 771.539719,965.262148 749.787176,929.784602 C732.767167,902.025632 709.241267,882.747924 645.643163,860.022216 C582.04506,837.296508 518.817932,832.808202 490.874713,832.8082 L490.874713,832.855217 C462.921743,832.857118 398.207098,837.301367 334.622592,860.022216 C271.024488,882.747924 225.370165,907.074561 208.695217,935.231308 C189.969288,966.851273 227.477367,1123.59143 208.695217,1108.38005 C192.975772,1095.6491 166.334137,979.99882 120.744916,901.953033 C75.155695,823.907245 71.9687898,769.974254 64.1060831,761.15023 C36.7454503,730.444407 16.6878054,743.483192 16.6878054,743.483192 L-5.64575348,792.830418 C-5.64575348,792.830418 0.629299787,970.249969 64.1060831,1081.52356 C127.582866,1192.79715 230.493591,1387.51101 312.684784,1395.93528 C394.875977,1404.35955 490.892641,1428.24511 490.892641,1428.24511 C490.892641,1428.24511 490.892902,1428.21916 490.893416,1428.16771 Z M490.874713,1108.37662 C512.430102,1108.37662 514.046246,1108.01553 550.189432,1119.71871 C586.332617,1131.42188 598.080723,1152.43605 591.634665,1170.02067 C585.188606,1187.6053 526.300358,1188.27801 520.696593,1204.78756 C515.092827,1221.29712 513.241653,1252.28905 535.657372,1252.30035 C583.689555,1252.32457 623.514991,1200.68827 638.426701,1185.185 C653.338411,1169.68173 756.146809,1025.83173 698.594432,970.510522 C638.810236,949.407578 492.752282,930.033118 490.892639,929.786973 L490.892641,935.231308 C490.892641,935.231308 278.880574,937.738664 252.034144,968.448036 C198.049915,1030.20007 297.773074,1171.62183 312.684784,1187.12511 C327.596494,1202.62838 396.5762,1252.32457 444.608383,1252.30035 C467.024102,1252.28905 465.172928,1221.29712 459.569163,1204.78756 C453.965398,1188.27801 395.077149,1187.6053 388.63109,1170.02067 C382.185032,1152.43605 393.933139,1131.42188 430.076324,1119.71871 C466.209486,1108.01878 469.33552,1108.37984 490.874713,1108.38005 Z" id="Combined-Shape" fill-opacity="0.66" fill="#685646" mask="url(#mask-20)"></path>
                                    </g>
                                    <g id="Bouche" transform="translate(1065.174528, 1290.828968)">
                                        <path d="M1.2264924,53.4591384 C1.2264924,61.1240264 9.79865436,64.0864667 21.8207872,77.8715476 C42.5740688,101.668129 56.1549117,123.555104 87.6996481,136.839889 C119.244385,150.124675 186.114555,178.364536 220.262079,178.364536 C246.996307,178.364536 300.923778,170.355508 328.373773,161.313048 C368.739625,148.015902 439.297667,90.1589957 439.297667,77.8715476 C439.297667,71.4321565 429.418676,57.2919098 410.886891,49.6496497 C375.163584,34.9178352 328.314503,10.5327486 303.185257,4.60438723 C269.587996,-3.32170438 239.579252,9.40869087 220.262079,9.40869087 C200.944907,9.40869087 180.788572,-4.75014238 131.659069,4.60438723 C110.504336,8.63236573 56.1872181,29.6023531 32.3481364,35.5285122 C9.30957665,41.2556695 1.2264924,45.7942505 1.2264924,53.4591384 Z" id="Path-2-Copy-2" fill="#ECBB90"></path>
                                        <path d="M1.2264924,53.4591384 C1.2264924,61.1240264 9.79865436,64.0864667 21.8207872,77.8715476 C42.5740688,101.668129 56.1549117,123.555104 87.6996481,136.839889 C119.244385,150.124675 186.114555,178.364536 220.262079,178.364536 C246.996307,178.364536 300.923778,170.355508 328.373773,161.313048 C368.739625,148.015902 439.297667,90.1589957 439.297667,77.8715476 C439.297667,71.4321565 427.483018,61.1013986 408.951234,53.4591384 C373.227927,38.727324 325.587927,15.3370522 300.458681,9.40869087 C266.86142,1.48259925 241.642011,15.1056759 222.324838,15.1056759 C203.007665,15.1056759 180.368246,0.0541612551 131.238743,9.40869087 C110.084009,13.4366694 57.4486801,33.3894391 33.6095984,39.3155982 C10.5710386,45.0427555 1.2264924,45.7942505 1.2264924,53.4591384 Z" id="Path-2-Copy-4" fill="url(#linearGradient-21)"></path>
                                        <path d="M13.0236732,61.5524366 C13.0236732,69.2173245 24.0430748,83.6755754 73.9910693,100.642314 C123.939064,117.609052 200.375953,149.220866 218.299624,149.220866 C231.785276,149.220866 303.624622,136.109379 352.124356,120.427756 C399.771466,105.021815 424.210543,87.1123321 424.210543,79.2631331 C424.210543,72.8237421 377.253601,55.6672534 352.124356,49.7388921 C318.527094,41.8128005 243.007951,57.438219 223.690778,57.438219 C204.373605,57.438219 132.223488,32.253964 92.3075782,44.1976856 C69.2556442,51.0953333 13.0236732,53.8875486 13.0236732,61.5524366 Z" id="Path-2-Copy-3" fill="#DB8383"></path>
                                        <mask id="mask-24" fill="white">
                                            <use xlink:href="#path-23"></use>
                                        </mask>
                                        <use id="Path-2-Copy" fill="url(#linearGradient-22)" xlink:href="#path-23"></use>
                                        <path d="M361.06657,82.1378423 C361.06657,82.1378423 367.315605,86.2817451 370.184817,85.3567898 C372.554523,84.5928615 376.977062,78.924594 376.977062,78.924594 L385.791026,39.4400531 L366.945964,34.4987863 L361.06657,82.1378423 Z" id="Path-23" fill="#C5C3C3" mask="url(#mask-24)"></path>
                                        <path d="M56.0995887,68.8759008 C56.0995887,68.8759008 62.348624,73.0198037 65.2178358,72.0948484 C67.5875419,71.3309201 72.0100809,65.6626525 72.0100809,65.6626525 L80.8240445,26.1781117 L61.9789834,21.2368448 L56.0995887,68.8759008 Z" id="Path-23-Copy" fill="#C5C3C3" mask="url(#mask-24)" transform="translate(68.461817, 46.733164) scale(-1, 1) translate(-68.461817, -46.733164) "></path>
                                        <path d="M72.8911084,94.2141453 C72.8911084,94.2141453 67.7906487,88.5142428 69.4983747,71.4920741 C71.2061006,54.4699055 78.7953118,35.3625788 78.7953118,35.3625788 L363.565398,46.3440039 C363.565398,46.3440039 366.798198,62.4394311 366.493469,71.4920741 C366.069097,84.0989919 361.378096,111.322686 361.378096,111.322686 C361.378096,111.322686 340.88871,113.300497 325.52147,113.300497 C318.89601,113.300497 312.742614,108.9944 310.535919,107.528282 C308.329224,106.062163 304.38527,112.200539 301.831013,113.300497 C295.712282,115.93545 282.432563,115.364205 276.649856,115.911831 C275.547825,116.016194 273.212724,111.371219 271.17144,111.322686 C268.908536,111.268885 266.93057,115.809233 265.746255,115.911831 C249.577294,117.312557 229.988397,115.911831 216.356997,115.911831 C202.725598,115.911831 179.564186,113.462605 161.380326,111.322686 C159.943445,111.153591 160.093215,107.778863 159.156403,107.528282 C158.267179,107.290429 156.28222,110.171982 155.290043,110.171982 C153.25259,110.171982 141.127784,109.986242 134.054193,108.9944 C128.97479,108.282179 121.895217,102.940121 121.895217,101.138468 C121.895217,99.3368158 117.467136,105.73193 115.789629,105.73193 C113.01056,105.73193 72.8911084,94.2141453 72.8911084,94.2141453 Z" id="Path-4" fill="url(#linearGradient-25)" mask="url(#mask-24)"></path>
                                        <path d="M380.850275,42.0461341 C380.850275,42.0461341 371.972857,50.7028368 368.466242,56.5459481 C366.988594,59.0081691 368.276597,64.0304591 366.731712,67.8808571 C364.645219,73.0811364 359.91043,76.9384274 359.91043,76.9384274 L362.808858,49.6260905 C362.808858,49.6260905 356.129713,53.865193 350.370982,63.9492063 C344.612251,74.0332195 341.235502,76.9384274 341.235502,76.9384274 C341.235502,76.9384274 343.939428,57.4526106 341.235502,52.5562334 C339.311,49.0712687 332.777529,46.0309243 332.777529,46.0309243 L325.755473,40.1245798 C325.755473,40.1245798 316.817148,54.95765 314.057313,61.7586681 C311.837494,67.2289325 310.816509,76.9384274 310.816509,76.9384274 C310.816509,76.9384274 307.980884,67.45045 305.320366,61.7586681 C302.382183,55.4728613 291.708628,49.6260905 291.708628,49.6260905 C291.708628,49.6260905 284.503144,55.9648526 280.158396,63.9492063 C277.466514,68.8960834 272.910516,79.7993536 272.910516,79.7993536 C272.910516,79.7993536 269.199991,66.1940027 267.151704,61.7586681 C262.971254,52.7063771 253.824373,46.0309243 253.824373,46.0309243 L234.547592,46.0309243 C234.547592,46.0309243 226.808872,56.5651714 223.410815,61.7586681 C220.573774,66.0947233 215.842297,74.61958 215.842297,74.61958 C215.842297,74.61958 209.397637,60.8883966 204.5493,56.5459481 C200.680869,53.0811596 191.522681,49.6260905 191.522681,49.6260905 L179.939728,45.6811483 C179.939728,45.6811483 174.46219,49.3745609 171.998152,52.5562334 C167.880986,57.8724949 160.196118,71.1749503 160.196118,71.1749503 C160.196118,71.1749503 149.089708,56.5459481 138.035831,56.5459481 C126.981955,56.5459481 123.509277,71.1749503 123.509277,71.1749503 C123.509277,71.1749503 120.62236,63.3314847 115.15456,56.5459481 C110.041567,50.2007261 102.467886,44.8531472 98.5864261,45.6811483 C90.5541598,47.394608 86.3547052,67.8808571 86.3547052,67.8808571 C86.3547052,67.8808571 83.9951748,59.3191452 82.2610351,56.5459481 C79.0107021,51.348089 71.4012873,43.9676885 71.4012873,43.9676885 L219.673855,24.6326011 L380.850275,42.0461341 Z" id="Path-13" fill="#F5DEDE" mask="url(#mask-24)"></path>
                                    </g>
                                    <g id="nez" transform="translate(1153.570755, 813.399076)">
                                        <path d="M136.203513,394.15532 C136.203513,394.15532 162.881925,78.3556384 151.725585,46.0629656 C140.569245,13.7702928 41.0409895,1.29912614 41.0409895,1.29912614 C41.0409895,1.29912614 111.299787,68.3203492 106.766584,97.1599548 C102.233381,125.99956 1.79186465,279.501669 1.79186465,330.348882 C1.79186465,381.196096 38.3409691,376.449583 38.3409691,376.449583 C38.3409691,376.449583 61.3975659,367.218457 71.6656078,369.076198 C84.770211,371.447142 102.067692,387.766995 116.308626,394.15532 C126.358762,398.6637 136.203513,394.15532 136.203513,394.15532 Z" id="Path-22" fill="#F1C29A"></path>
                                        <path d="M143.402263,394.15532 C143.402263,394.15532 136.98272,395.774239 123.960184,388.866337 C113.565696,383.352503 97.9351698,373.426908 85.5033375,365.15594 C77.7260443,359.981663 61.1880143,356.717956 49.1084808,353.864851 C37.9759877,351.23543 30.203999,348.185384 28.302488,337.284085 C25.2517502,319.794308 53.3097714,318.0169 73.2584895,320.825811 C93.2072077,323.634723 121.528857,335.749086 121.528857,332.997546 C121.528857,330.246006 91.3373574,312.493169 73.2584895,309.546971 C51.6977309,306.033351 31.9788806,316.39776 32.0628083,315.105872 C33.3981351,294.551355 57.6196107,267.246224 65.7375763,245.709691 C92.4984102,174.714615 125.806551,111.348864 123.960184,93.1418678 C119.216965,46.3690842 50.4056399,1.29912614 50.4056399,1.29912614 C50.4056399,1.29912614 119.065346,68.3203492 114.635319,97.1599548 C111.977123,114.464886 86.3510729,181.530341 57.6561196,239.493891 C38.5293791,278.129736 12.0498258,310.012057 12.0498258,330.348882 C12.0498258,381.196096 47.767072,376.449583 47.767072,376.449583 C47.767072,376.449583 70.2989002,367.218457 80.3332413,369.076198 C93.1395835,371.447142 110.043373,387.766995 123.960184,394.15532 C133.781578,398.6637 143.402263,394.15532 143.402263,394.15532 Z" id="Path-22-Copy" fill="#F4CDAC"></path>
                                        <path d="M45.8850644,376.821952 C45.8850644,376.821952 36.4474214,374.096041 36.4474214,368.981916 C36.4474214,361.216631 39.1864496,353.238252 50.7397043,355.587914 C62.292959,357.937575 84.0465741,363.225375 84.0465741,368.981916 C84.0465741,374.738458 69.0063317,372.54173 60.2469978,372.54173 C50.7397043,372.54173 45.8850644,376.821952 45.8850644,376.821952 Z" id="Path-3806" fill="#A98C73"></path>
                                        <path d="M203.754157,379.88191 C203.754157,379.88191 186.473284,375.748628 186.473284,370.634503 C186.473284,362.869218 197.163861,359.541537 208.717116,361.891199 C220.27037,364.24086 243.974289,373.919249 243.974289,376.419297 C243.974289,378.919346 237.538771,379.88191 228.195802,379.88191 C223.314083,379.88191 203.754157,379.88191 203.754157,379.88191 Z" id="Path-3806-Copy" fill="#A98C73" transform="translate(215.223787, 370.516199) scale(-1, 1) translate(-215.223787, -370.516199) "></path>
                                        <path d="M168.387235,42.2679381 C177.045358,42.2679381 175.047836,203.949285 168.387235,286.215141 C165.643846,320.099053 157.900754,390.717243 140.175263,390.717243 C122.449773,390.717243 119.587349,321.56927 122.449773,286.215141 C124.54441,260.344034 134.638188,230.760582 140.175263,196.061647 C151.930511,122.395578 162.501479,42.2679381 168.387235,42.2679381 Z" id="Path-14" fill="#D6AB86"></path>
                                        <path d="M249.13516,298.648968 C249.13516,298.648968 286.377428,329.285249 278.088398,359.089275 C269.799368,388.893301 243.894477,387.126466 243.894477,387.126466 C243.894477,387.126466 338.875464,390.749524 338.875464,359.089275 C338.875464,327.429026 249.13516,298.648968 249.13516,298.648968 Z" id="Path-21" fill="#E0AF87"></path>
                                    </g>
                                    <g id="Oeil-droit" transform="translate(959.099057, 755.930663)">
                                        <path d="M164.047975,58.1218845 C164.047975,58.1218845 208.344083,82.6142021 215.062113,90.5581257 C221.589309,98.2763918 203.856302,110.823681 203.856302,110.823681 L164.047975,190.030779 C164.047975,190.030779 189.299644,193.906779 185.288164,206.309072 C181.276683,218.711365 132.312554,225.550564 132.312554,225.550564 C132.312554,225.550564 192.862389,236.506144 235.139949,221.213621 C256.490167,213.490879 267.094737,194.560278 276.362623,179.52448 C282.454759,169.640874 290.469925,162.598437 291.772884,157.449216 C296.352464,139.350976 272.129428,117.009906 256.00101,99.5453601 C246.736381,89.5132203 247.547939,81.4804703 239.135538,75.7898154 C216.157205,60.2458877 164.047975,58.1218845 164.047975,58.1218845 Z" id="Path-10" fill="#CB9D76"></path>
                                        <path d="M273.228829,168.940203 C276.352844,177.8702 251.49834,174.498511 231.946569,181.364158 C206.912052,190.155084 182.681774,204.056285 161.586254,204.868697 C139.788179,205.708166 106.57038,187.706654 80.0074799,181.364158 C55.6199778,175.541088 39.6655196,184.20011 39.6655196,184.20011 C39.6655196,184.20011 46.2351256,174.026885 68.6608247,153.694764 C89.6950951,134.624173 119.65058,104.419066 155.189164,102.674142 C235.389239,98.736365 270.104815,160.010205 273.228829,168.940203 Z" id="Path-11" fill="#BC926D"></path>
                                        <mask id="mask-27" fill="white">
                                            <use xlink:href="#path-26"></use>
                                        </mask>
                                        <use id="Path-3" fill="#A07E61" xlink:href="#path-26"></use>
                                        <mask id="mask-29" fill="white">
                                            <use xlink:href="#path-28"></use>
                                        </mask>
                                        <use id="Path-3-Copy" fill="#FFFFFF" xlink:href="#path-28"></use>
                                        <path d="M164.500331,184.016968 C187.015945,184.016968 199.756379,169.911752 199.756379,147.39188 C199.756379,124.872007 187.015945,110.922181 164.500331,110.922181 C141.984717,110.922181 120.211682,124.872007 120.211682,147.39188 C120.211682,169.911752 141.984717,184.016968 164.500331,184.016968 Z" id="Oval" fill="url(#radialGradient-30)" mask="url(#mask-29)"></path>
                                        <ellipse id="Oval-3-Copy" fill="#000000" mask="url(#mask-29)" cx="159.645418" cy="145.152839" rx="13.259434" ry="12.3402468"></ellipse>
                                        <path d="M151.959729,153.360963 C154.72852,152.379727 156.744678,148.843251 156.744678,146.401795 C156.744678,143.960339 154.110513,142.459332 151.669519,142.459332 C149.228525,142.459332 147.625872,143.30226 147.625872,145.743716 C147.625872,148.185172 149.190938,154.3422 151.959729,153.360963 Z" id="Oval-6-Copy" fill="#CBBEBE" mask="url(#mask-29)" transform="translate(152.185275, 147.962645) rotate(-11.000000) translate(-152.185275, -147.962645) "></path>
                                        <path d="M152.19338,145.076094 C152.482113,144.755655 152.893359,144.564119 153.437412,144.564119 C154.657909,144.564119 156.235725,145.173264 156.235725,146.393992 C156.235725,147.61472 154.741258,148.933413 153.52076,148.933413 C152.498909,148.933413 151.88714,148.257731 151.715069,147.321359 C151.335567,147.592465 150.791719,147.699876 150.162878,147.699876 C148.94238,147.699876 148.042049,147.295262 148.042049,146.074534 C148.042049,144.853806 149.585298,143.980497 150.805796,143.980497 C151.656856,143.980497 152.03963,144.405132 152.19338,145.076094 Z" id="Combined-Shape-Copy" fill="#EFEFEF" mask="url(#mask-29)"></path>
                                        <path d="M41.5227411,179.680771 C41.5227411,179.680771 52.6960748,169.167232 67.8998169,154.98185 C86.7459209,137.398074 112.815843,114.824845 143.667501,107.357575 C199.408158,93.866224 259.292142,145.375418 259.292142,145.375418 C259.292142,145.375418 211.959742,87.9481842 143.667501,103.180833 C107.703267,111.20269 84.847385,134.053023 67.8998169,151.937243 C52.6657632,168.013246 41.5227411,179.680771 41.5227411,179.680771 Z" id="Path-12" fill="#614B39"></path>
                                        <path d="M1.12821573,128.279197 C5.63802354,133.857168 22.5779205,67.4574856 105.158787,56.0879796 C153.760813,49.3965867 250.04489,64.4105208 250.04489,56.0879796 C250.04489,47.7654385 229.342483,7.28074905 205.926787,2.44303809 C186.516985,-1.5670504 154.327764,0.527312858 128.154467,2.44303809 C106.96083,3.99428255 91.0118219,4.3837288 78.7253823,9.56527649 C7.36728384,39.6590548 -3.38159209,122.701226 1.12821573,128.279197 Z" id="Path-3803" fill="#47433E"></path>
                                    </g>
                                    <g id="Oeil-gauche" transform="translate(1365.721698, 755.930663)">
                                        <path d="M123.599658,93.7571073 C123.599658,93.7571073 96.8523696,109.616834 94.0054371,115.397747 C92.1150405,119.236341 109.38767,122.615628 109.38767,122.615628 L149.891184,218.19512 C149.891184,218.19512 103.480095,208.181122 94.0054371,218.19512 C84.5307789,228.209118 98.6474128,244.396247 98.6474128,244.396247 C98.6474128,244.396247 127.171233,253.336862 140.338509,256.113925 C161.819183,260.644335 218.094853,264.779718 218.094853,264.779718 C218.094853,264.779718 14.0559655,273.367479 4.7156689,193.975117 C-4.6246277,114.582755 123.599658,93.7571073 123.599658,93.7571073 Z" id="Path-8" fill="#CB9D76"></path>
                                        <path d="M28.9889519,181.528573 C28.9889519,181.528573 34.6992011,179.364952 48.9503332,184.913137 C70.824549,193.429104 106.86708,211.203815 126.777432,213.283187 C146.192219,215.310804 175.393888,206.213577 198.49903,202.674245 C216.581532,199.904299 231.462462,202.674245 231.462462,202.674245 C231.462462,202.674245 229.331029,139.830627 137.726528,131.042693 C46.1220261,122.25476 28.9889519,181.528573 28.9889519,181.528573 Z" id="Path-9" fill="#BB916D"></path>
                                        <mask id="mask-32" fill="white">
                                            <use xlink:href="#path-31"></use>
                                        </mask>
                                        <use id="Path-7" fill="#A07E61" xlink:href="#path-31"></use>
                                        <mask id="mask-34" fill="white">
                                            <use xlink:href="#path-33"></use>
                                        </mask>
                                        <use id="Path-7-Copy" fill="#FFFFFF" xlink:href="#path-33"></use>
                                        <ellipse id="Oval-2" fill="url(#radialGradient-30)" mask="url(#mask-34)" cx="128.174528" cy="172.405239" rx="39.7783019" ry="35.3651772"></ellipse>
                                        <ellipse id="Oval-3" fill="#000000" mask="url(#mask-34)" cx="124.286928" cy="171.676722" rx="13.259434" ry="12.3402468"></ellipse>
                                        <path d="M117.016206,174.046821 C119.784998,173.065585 120.711047,171.373627 120.711047,168.932171 C120.711047,166.490715 118.73223,164.511524 116.291236,164.511524 C113.850241,164.511524 111.871424,166.490715 111.871424,168.932171 C111.871424,171.373627 114.247415,175.028057 117.016206,174.046821 Z" id="Oval-6" fill="#CBBEBE" mask="url(#mask-34)" transform="translate(116.291236, 169.360929) rotate(-11.000000) translate(-116.291236, -169.360929) "></path>
                                        <path d="M117.657211,172.598416 C118.877708,172.598416 119.867116,171.608821 119.867116,170.388093 C119.867116,169.167365 118.877708,168.177769 117.657211,168.177769 C116.436713,168.177769 115.447305,169.167365 115.447305,170.388093 C115.447305,171.608821 116.436713,172.598416 117.657211,172.598416 Z M113.237399,172.598416 C114.457897,172.598416 115.447305,171.608821 115.447305,170.388093 C115.447305,169.167365 114.457897,168.177769 113.237399,168.177769 C112.016902,168.177769 111.027494,169.167365 111.027494,170.388093 C111.027494,171.608821 112.016902,172.598416 113.237399,172.598416 Z" id="Combined-Shape" fill="#EFEFEF" mask="url(#mask-34)"></path>
                                        <path d="M61.6701689,158.219416 C73.7430099,146.559283 95.1187264,137.369813 118.409671,133.032294 C177.061998,122.109356 237.856655,166.433898 226.496765,157.630574 C215.136875,148.82725 206.394268,144.072782 195.432486,139.345115 C184.470703,134.617449 152.679419,124.345004 122.031898,128.791767 C91.3843774,133.238529 72.4491296,146.928268 66.0839987,151.519162 C47.1884747,165.147688 40.9912468,187.073699 40.9912468,187.073699 C40.9912468,187.073699 49.5973278,169.87955 61.6701689,158.219416 Z" id="Path-12-Copy" fill="#614B39" transform="translate(134.434008, 157.387082) scale(-1, 1) translate(-134.434008, -157.387082) "></path>
                                        <path d="M58.6251324,153.50556 C63.1349402,159.083531 55.5479831,73.9543242 138.128849,62.5848182 C186.730876,55.8934253 293.35958,62.718094 293.35958,54.3955529 C293.35958,46.0730117 282.040289,10.3024212 258.624593,5.46471023 C239.214791,1.45462174 213.373223,3.548985 187.199925,5.46471023 C166.006289,7.01595469 133.297304,13.1538359 121.010864,18.3353836 C49.6527657,48.4291619 54.1153246,147.927589 58.6251324,153.50556 Z" id="Path-3803-Copy" fill="#47433E" transform="translate(174.896346, 78.472383) scale(-1, 1) translate(-174.896346, -78.472383) "></path>
                                    </g>
                                    <path d="M844.695375,1152.45139 C851.867303,1180.48324 867.939976,1228.45271 867.939976,1228.45271 C867.939976,1228.45271 876.712175,1210.58794 876.712175,1199.33557 C876.712175,1188.08321 887.279657,1163.94463 887.279657,1137.26922 C887.279657,1085.40651 885.840843,1098.59759 895.749332,1032.48401 C903.377732,981.584126 930.611469,918.342073 934.808608,857.903494 C941.232271,765.403087 925.873771,710.687844 934.808608,672.520211 C946.977591,620.537025 946.073154,555.234172 984.542618,515.945227 C1016.74519,483.056669 1142.71208,460.246191 1142.71208,460.246191 L1120.41055,485.044062 L1173.42355,460.246191 L1318.79605,495.890141 L1306.82551,471.493501 C1306.82551,471.493501 1457.16978,430.652965 1570.36269,495.890141 C1683.55561,561.127317 1683.58678,727.337328 1696.08498,772.684301 C1703.16003,798.354578 1685.17238,1012.29768 1685.17238,1098.542 C1685.17238,1145.73725 1698.00983,1172.49096 1700.96903,1214.19235 C1703.41745,1248.69583 1727.48775,1266.07896 1727.48775,1266.07896 L1753.10648,1186.612 C1753.10648,1186.612 1771.61653,1130.07508 1797.58428,1064.34808 C1815.15534,1019.87395 1823.87805,978.097558 1823.87805,925.183753 C1823.87805,919.513014 1823.94725,879.53851 1823.87806,874.144834 C1822.81324,791.141693 1817.40075,763.327444 1811.37985,715.324161 C1805.35895,667.320878 1774.9362,568.550773 1774.9362,568.550773 C1774.9362,568.550773 1773.35992,532.557657 1771.40984,515.945227 C1769.42388,499.027124 1763.5371,476.965979 1763.5371,471.493501 C1763.5371,460.647422 1753.10648,495.890141 1753.10648,495.890141 C1753.10648,495.890141 1728.49417,451.1868 1720.23052,413.936472 C1711.96687,376.686144 1696.08498,345.838538 1696.08498,362.705803 C1696.08498,379.573068 1685.17238,377.988406 1685.17238,377.988406 C1685.17238,377.988406 1627.69648,318.594194 1546.80449,277.627423 C1465.9125,236.660651 1370.17673,217.665156 1370.17673,217.665156 L1392.26269,255.365279 C1392.26269,255.365279 1328.67417,237.488728 1264.99714,224.557979 C1201.32012,211.627231 1126.15285,228.367354 1126.15285,228.367354 C1126.15285,228.367354 1148.28121,233.279858 1157.08499,236.660651 C1165.88876,240.041445 1173.42355,246.520078 1173.42355,246.520078 C1173.42355,246.520078 1096.97618,244.552859 1047.18779,255.365279 C997.399402,266.177699 950.661478,288.424504 950.661478,288.424504 L1026.6516,283.047389 C1026.6516,283.047389 990.804309,298.402268 970.662578,310.613015 C950.520848,322.823762 934.808608,338.726395 934.808608,338.726395 L950.661478,349.962962 C950.661478,349.962962 899.770831,380.651598 876.712175,413.936472 C853.653518,447.221347 848.972748,461.588029 832.209621,485.044062 C828.930623,489.632245 874.805923,472.69479 871.432046,477.701233 C862.94738,490.291493 855.208066,527.321767 844.695375,559.363195 C835.642914,586.954012 823.402827,610.355726 820.067959,616.988621 C811.397206,634.234339 797.060089,672.520211 797.060089,672.520211 L832.209621,662.098576 C832.209621,662.098576 819.503655,743.185439 814.08275,819.341715 C811.143622,860.632435 813.137951,900.37599 814.08275,925.183753 C817.409751,1012.54135 834.199827,1111.42902 844.695375,1152.45139 Z" id="Path-3802" fill="#393633"></path>
                                </g>
                            </g>
                        </g>
                    </g>
                    <mask id="mask-37" fill="white">
                        <use xlink:href="#path-35"></use>
                    </mask>
                    <g id="Oval-Copy" stroke-opacity="0.484148551" stroke="#FFFFFF" mask="url(#mask-36)" stroke-width="42">
                        <use mask="url(#mask-38)" xlink:href="#path-35"></use>
                    </g>
                </g>
            </g>
        </g>
    </g>
</svg>