<?xml version="1.0" encoding="UTF-8"?>
<svg width="1024px" height="1024px" viewBox="0 0 1024 1024" version="1.1" xmlns="http://www.w3.org/2000/svg" xmlns:xlink="http://www.w3.org/1999/xlink">
    <!-- Generator: Sketch 40 (33762) - http://www.bohemiancoding.com/sketch -->
    <title>agile</title>
    <desc>Created with Sketch.</desc>
    <defs>
        <circle id="path-1" cx="512.5" cy="512.5" r="439.5"></circle>
        <linearGradient x1="53.1414293%" y1="-24.1419626%" x2="50%" y2="100%" id="linearGradient-3">
            <stop stop-color="#000000" offset="0%"></stop>
            <stop stop-color="#000000" stop-opacity="0" offset="100%"></stop>
        </linearGradient>
        <path d="M138.292895,8.67052822 C138.292895,8.67052822 137.191914,-2.87544794 142.612788,53.9732108 C148.033663,110.821869 167.714958,142.182724 167.714958,142.182724 L35.7149581,142.182724 C35.7149581,142.182724 12.4465596,73.2039527 10.395338,51.6928112 L6.29289483,8.67052822 L138.292895,8.67052822 Z" id="path-4"></path>
        <mask id="mask-5" maskContentUnits="userSpaceOnUse" maskUnits="objectBoundingBox" x="0" y="0" width="161.422063" height="134.475618" fill="white">
            <use xlink:href="#path-4"></use>
        </mask>
        <path d="M431.432215,94.6937105 C431.432215,94.6937105 507.157338,10.1174502 510.478953,5.61755621 C513.800568,1.11766227 518.284597,-1.21480536 522.057235,2.27867778 C525.829873,5.77216092 530.078524,8.86235426 533.078713,11.6133694 C536.078903,14.3643845 535.585105,18.41967 533.638488,21.0605663 C531.691872,23.7014625 452.976142,114.192013 452.976142,114.192013 C452.976142,114.192013 462.456631,123.442975 464.456147,125.05498 C466.455663,126.666984 462.055883,133.322901 459.241915,130.831764 C456.427948,128.340627 413.737498,89.2600328 412.230601,87.9567099 C410.723704,86.653387 414.867407,80.3779134 417.466725,82.6289157 C420.066043,84.879918 431.432215,94.6937105 431.432215,94.6937105 Z" id="path-6"></path>
        <path d="M431.432215,94.6937105 L452.976142,114.192013 C452.976142,114.192013 462.456631,123.442975 464.456147,125.05498 C466.455663,126.666984 462.055883,133.322901 459.241915,130.831764 C458.485591,130.162209 453.729059,126.579952 448.785266,122.067879 C448.303023,121.627748 435.48697,135.191247 434.831887,134.856508 C426.34912,130.521919 414.797279,120.094926 411.374179,114.192013 C410.977395,113.507786 423.93425,98.736951 423.367657,98.219486 C416.599798,92.0384468 412.738839,88.3962877 412.230601,87.9567099 C410.723704,86.653387 414.867407,80.3779134 417.466725,82.6289157 C420.066043,84.879918 431.432215,94.6937105 431.432215,94.6937105 Z" id="path-8"></path>
        <path d="M0.376810009,81.4893837 L10.2603628,84.0175576 L13.8813882,92.6530312 L4.15322692,90.4330119 L0.376810009,81.4893837 Z M12.7877698,67.7974453 L22.6713225,70.3256191 L26.292348,78.9610927 L16.5641867,76.7410734 L12.7877698,67.7974453 Z M25.9523496,53.347048 L35.8359023,55.8752218 L39.4569278,64.5106954 L29.7287665,62.2906761 L25.9523496,53.347048 Z M38.3633094,39.6551095 L48.2468621,42.1832834 L51.8678875,50.8187569 L42.1397263,48.5987376 L38.3633094,39.6551095 Z M48.5935252,28.1423358 L58.4770779,30.6705096 L62.0981034,39.3059832 L52.3699421,37.0859639 L48.5935252,28.1423358 Z M61.758105,13.6919385 L71.6416577,16.2201123 L75.2626832,24.8555859 L65.5345219,22.6355666 L61.758105,13.6919385 Z M72.8902878,0 L82.7738405,2.52817387 L86.394866,11.1636474 L76.6667047,8.94362814 L72.8902878,0 Z" id="path-10"></path>
        <path d="M1.03211583,220.276949 C1.03211583,220.276949 42.4783833,99.8045406 86.5005857,83.8810847 C111.395164,74.8763619 154.958844,56.6105394 188.115793,42.4375586 C191.312738,41.0710202 194.412937,39.7425311 197.390327,38.4640611 C218.139307,29.554597 221.416796,0.556279687 221.416796,0.556279687 L329.313902,7.1841982 C329.313902,7.1841982 329.026233,28.5042145 347.670998,36.3019257 C381.539607,50.466632 434.601958,72.4444971 464.83183,83.8810847 C511.703332,101.613546 544.512332,220.276949 544.512332,220.276949 L1.03211583,220.276949 Z" id="path-12"></path>
        <path d="M9.57180726,130.070162 C9.57180726,130.070162 11.3029428,74.3711588 52.018067,29.880014 C69.2405511,11.0602746 110.48363,0.800954968 134.271583,0.800954968 C165.277543,0.800954968 210.37083,9.18924964 230.107557,36.4993084 C261.30999,79.6746683 258.703097,130.478102 258.703097,130.478102 C258.703097,130.478102 272.608691,130.188121 265.186049,161.642513 C257.763406,193.096905 246.21068,193.096905 246.21068,193.096905 C246.21068,193.096905 190.264943,318.335097 133.680291,318.335097 C77.0956386,318.335097 20.1628416,193.096905 20.1628416,193.096905 C20.1628416,193.096905 9.57180726,193.096905 2.16898357,161.642513 C-5.23384012,130.188121 9.57180726,130.070162 9.57180726,130.070162 Z" id="path-14"></path>
    </defs>
    <g id="Icônes" stroke="none" stroke-width="1" fill="none" fill-rule="evenodd">
        <g id="agile">
            <mask id="mask-2" fill="white">
                <use xlink:href="#path-1"></use>
            </mask>
            <use id="Oval" fill="#E40A0A" xlink:href="#path-1"></use>
            <polygon id="ombre" fill-opacity="0.25" fill="url(#linearGradient-3)" mask="url(#mask-2)" transform="translate(627.912940, 660.575564) rotate(-45.000000) translate(-627.912940, -660.575564) " points="891.579157 357.960978 891.579157 430.716876 939.683187 438.340273 944.115642 856.778138 316.595772 963.19015 311.710238 428.280619 599.073444 525.489409"></polygon>
            <g id="Post-it" mask="url(#mask-2)">
                <g transform="translate(123.000000, 295.000000)">
                    <path d="M150.130101,134.892433 L18.0632185,146.396992 C18.0632185,146.396992 0.747325724,79.7086803 0.835275558,58.4581709 L1.34653994,15.9571522 L150.130101,134.892433 Z" id="Rectangle" stroke="none" fill-opacity="0.42" fill="#000000"></path>
                    <use id="Rectangle-Copy-2" stroke="#EEC93D" mask="url(#mask-5)" stroke-width="2" fill="#FFEE60" transform="translate(87.003926, 74.944914) rotate(-5.000000) translate(-87.003926, -74.944914) " xlink:href="#path-4"></use>
                    <path d="M138.292895,8.67052822 C138.292895,8.67052822 137.191914,-2.87544794 142.612788,53.9732108 C148.033663,110.821869 167.714958,142.182724 167.714958,142.182724 C167.714958,142.182724 110.026581,102.059426 82.8821831,79.6082933 C56.2192265,57.5553608 6.29289483,8.67052822 6.29289483,8.67052822 L138.292895,8.67052822 Z" id="Rectangle-Copy" stroke="none" fill="#FFE367" transform="translate(87.003926, 74.944914) rotate(-5.000000) translate(-87.003926, -74.944914) "></path>
                    <path d="M41.2199222,119.185212 C38.263848,117.932031 67.4373559,110.273046 85.4978894,106.759758 C96.5417816,104.611406 120.662741,101.715508 130.438567,102.300791 C140.214394,102.886074 139.984156,106.1665 130.438567,108.713518 C120.892978,111.260537 117.541727,107.683918 90.6188481,110.655577 C63.6959691,113.627236 44.2696383,119.185212 41.2199222,119.185212 Z" id="Path-5" stroke="none" fill="#000000"></path>
                    <path d="M68.9385305,63.7904633 C69.2371987,64.1317983 69.3971971,64.6757929 69.4185305,65.4224633 C69.4398639,66.1691337 69.365198,66.9264594 69.1945305,67.6944633 C69.023863,68.4624671 68.7785321,69.1237938 68.4585305,69.6784633 C68.1385289,70.2331327 67.7651993,70.4891301 67.3385305,70.4464633 C65.7171891,70.2331289 63.9038739,70.0731305 61.8985305,69.9664633 C59.8931871,69.8597961 57.8238745,69.8277964 55.6905305,69.8704633 C56.0318655,70.0837977 56.3625289,70.3397951 56.6825305,70.6384633 C57.0025321,70.9371314 57.2585295,71.2464617 57.4505305,71.5664633 C57.6425315,71.8864649 57.7598636,72.1957951 57.8025305,72.4944633 C57.8451974,72.7931314 57.7598649,73.070462 57.5465305,73.3264633 C55.0291846,76.0998105 52.8425398,78.8624495 50.9865305,81.6144633 C49.1305212,84.366477 47.6585359,86.8304524 46.5705305,89.0064633 C45.4825251,91.1824741 44.8211983,92.9211234 44.5865305,94.2224633 C44.3518627,95.5238031 44.6398598,96.0677977 45.4505305,95.8544633 C46.2612012,95.6411289 46.5171987,95.7691276 46.2185305,96.2384633 C45.9198623,96.7077989 45.3972009,97.2731266 44.6505305,97.9344633 C43.9038601,98.5957999 43.0932015,99.2144604 42.2185305,99.7904633 C41.3438595,100.366466 40.7571987,100.654463 40.4585305,100.654463 C40.0318617,100.654463 39.5625331,100.537131 39.0505305,100.302463 C38.5385279,100.067795 38.0691993,99.7904649 37.6425305,99.4704633 C37.2158617,99.1504617 36.8638652,98.8304649 36.5865305,98.5104633 C36.3091958,98.1904617 36.1705305,97.9664639 36.1705305,97.8384633 C36.1705305,97.1557932 36.4478611,96.0891372 37.0025305,94.6384633 C37.5571999,93.1877893 38.3038591,91.5451391 39.2425305,89.7104633 C40.1812019,87.8757874 41.2265247,85.9451401 42.3785305,83.9184633 C43.5305363,81.8917865 44.725191,79.9611391 45.9625305,78.1264633 C47.19987,76.2917874 48.3945247,74.6491372 49.5465305,73.1984633 C50.6985363,71.7477893 51.722526,70.6598002 52.6185305,69.9344633 C50.314519,70.019797 48.1598739,70.190462 46.1545305,70.4464633 C44.1491871,70.7024645 42.4852038,71.0651276 41.1625305,71.5344633 C40.4371935,71.7904645 39.893199,71.7477983 39.5305305,71.4064633 C39.167862,71.0651282 38.9331977,70.6171327 38.8265305,70.0624633 C38.7198633,69.5077938 38.7305299,68.9531327 38.8585305,68.3984633 C38.9865311,67.8437938 39.1785292,67.5024639 39.4345305,67.3744633 C40.330535,66.8197938 41.6531884,66.3077989 43.4025305,65.8384633 C45.1518726,65.3691276 47.0825199,64.9637983 49.1945305,64.6224633 C51.3065411,64.2811282 53.4718527,63.9931311 55.6905305,63.7584633 C57.9092083,63.5237954 59.9678543,63.3744636 61.8665305,63.3104633 C63.7652067,63.2464629 65.3545241,63.2464629 66.6345305,63.3104633 C67.9145369,63.3744636 68.6825292,63.534462 68.9385305,63.7904633 L68.9385305,63.7904633 Z M75.3385306,64.1744633 C76.4478695,63.6197938 77.6211911,63.3211301 78.8585306,63.2784633 C80.0958702,63.2357964 81.2265255,63.4277945 82.2505306,63.8544633 C83.2745358,64.2811321 84.1065274,64.9211257 84.7465306,65.7744633 C85.3865338,66.6278009 85.6638644,67.6304575 85.5785306,68.7824633 C85.45053,70.1904703 85.0452007,71.8757868 84.3625306,73.8384633 C83.6798606,75.8011397 82.8158692,77.8597858 81.7705306,80.0144633 C80.7251921,82.1691407 79.5305374,84.3344524 78.1865306,86.5104633 C76.8425239,88.6864741 75.4238714,90.702454 73.9305306,92.5584633 C72.4371898,94.4144725 70.9118718,96.0357897 69.3545306,97.4224633 C67.7971895,98.8091369 66.3145377,99.7584607 64.9065306,100.270463 C63.7545249,100.739799 62.6345361,100.974463 61.5465306,100.974463 C60.4585252,100.974463 59.4665351,100.793132 58.5705306,100.430463 C57.6745262,100.067795 56.9172004,99.5877996 56.2985306,98.9904633 C55.6798609,98.3931269 55.2851982,97.7318002 55.1145306,97.0064633 C54.7731956,95.7264569 54.8051953,94.1371394 55.2105306,92.2384633 C55.615866,90.3397871 56.2878593,88.3131407 57.2265306,86.1584633 C58.165202,84.0037858 59.327857,81.8064745 60.7145306,79.5664633 C62.1012042,77.3264521 63.5945226,75.2144732 65.1945306,73.2304633 C66.7945386,71.2464533 68.4691886,69.4544713 70.2185306,67.8544633 C71.9678727,66.2544553 73.6745223,65.0278009 75.3385306,64.1744633 L75.3385306,64.1744633 Z M60.2345306,92.7184633 C60.3198644,93.0597983 60.4905294,93.4117948 60.7465306,93.7744633 C61.0025319,94.1371317 61.3438618,94.4357954 61.7705306,94.6704633 C62.1971994,94.9051311 62.741194,95.0117967 63.4025306,94.9904633 C64.0638673,94.9691298 64.8638593,94.7664652 65.8025306,94.3824633 C67.5945396,93.5717925 69.3758551,92.2598057 71.1465306,90.4464633 C72.9172062,88.6331209 74.5065236,86.6384741 75.9145306,84.4624633 C77.3225377,82.2864524 78.4958593,80.0998076 79.4345306,77.9024633 C80.373202,75.7051189 80.90653,73.8171378 81.0345306,72.2384633 C81.0771975,71.5131263 80.8638663,70.8944658 80.3945306,70.3824633 C79.925195,69.8704607 79.317201,69.4864645 78.5705306,69.2304633 C77.8238602,68.974462 77.0025351,68.8784629 76.1065306,68.9424633 C75.2105262,69.0064636 74.3998676,69.2731276 73.6745306,69.7424633 C71.754521,70.894469 69.9092062,72.5051196 68.1385306,74.5744633 C66.3678551,76.6438069 64.8318705,78.7984521 63.5305306,81.0384633 C62.2291908,83.2784745 61.2585338,85.4651193 60.6185306,87.5984633 C59.9785274,89.7318073 59.8505287,91.4384569 60.2345306,92.7184633 L60.2345306,92.7184633 Z M112.330531,64.9424633 C113.610537,66.4358041 114.218531,68.0784543 114.154531,69.8704633 C114.09053,71.6624722 113.557202,73.5291202 112.554531,75.4704633 C111.551859,77.4118063 110.197206,79.3851199 108.490531,81.3904633 C106.783856,83.3958066 104.938541,85.326454 102.954531,87.1824633 C100.970521,89.0384725 98.954541,90.7877884 96.9065308,92.4304633 C94.8585205,94.0731381 92.981206,95.4917906 91.2745308,96.6864633 C89.5678556,97.8811359 88.1385365,98.8197932 86.9865308,99.5024633 C85.834525,100.185133 85.1945314,100.526463 85.0665308,100.526463 C84.7678626,100.483796 84.4798655,100.355798 84.2025308,100.142463 C83.9251961,99.9291289 83.6158658,99.6517983 83.2745308,99.3104633 C82.8051951,99.6517983 82.3358665,99.9611285 81.8665308,100.238463 C81.3971951,100.515798 81.0131989,100.654463 80.7145308,100.654463 C80.287862,100.654463 79.8611996,100.569131 79.4345308,100.398463 C79.007862,100.227796 78.6131993,100.025131 78.2505308,99.7904633 C77.8878623,99.5557954 77.5998652,99.3211311 77.3865308,99.0864633 C77.1731964,98.8517954 77.0665308,98.6704639 77.0665308,98.5424633 C77.0665308,97.9877938 77.3331948,97.1238025 77.8665308,95.9504633 C78.3998668,94.7771241 79.1038597,93.4331375 79.9785308,91.9184633 C80.8532018,90.403789 81.866525,88.7718053 83.0185308,87.0224633 C84.1705365,85.2731212 85.3545247,83.5238053 86.5705308,81.7744633 C87.7865369,80.0251212 89.0131913,78.3398047 90.2505308,76.7184633 C91.4878703,75.0971218 92.6398588,73.6678028 93.7065308,72.4304633 C92.9811938,72.6437977 92.2878674,72.8357957 91.6265308,73.0064633 C90.9651941,73.1771308 90.5491983,73.1984639 90.3785308,73.0704633 C90.0371957,72.8997957 89.7385321,72.5904655 89.4825308,72.1424633 C89.2265295,71.694461 89.0345314,71.1931327 88.9065308,70.6384633 C88.7785301,70.0837938 88.7465305,69.5291327 88.8105308,68.9744633 C88.8745311,68.4197938 89.0771957,67.9077989 89.4185308,67.4384633 C89.7171989,67.0117945 90.4211919,66.5637989 91.5305308,66.0944633 C92.6398697,65.6251276 93.9518565,65.1984652 95.4665308,64.8144633 C96.981205,64.4304613 98.6131887,64.099798 100.362531,63.8224633 C102.111873,63.5451285 103.775856,63.3851301 105.354531,63.3424633 C106.933205,63.2997964 108.351858,63.3957954 109.610531,63.6304633 C110.869204,63.8651311 111.775861,64.3024601 112.330531,64.9424633 L112.330531,64.9424633 Z M101.002531,71.6624633 C99.2531887,73.5824729 97.5678722,75.5344533 95.9465308,77.5184633 C94.3251893,79.5024732 92.8425375,81.4331205 91.4985308,83.3104633 C90.1545241,85.187806 88.9598693,86.9691215 87.9145308,88.6544633 C86.8691922,90.339805 86.0692002,91.8224569 85.5145308,93.1024633 C87.221206,92.2917925 89.0985205,91.2251365 91.1465308,89.9024633 C93.194541,88.57979 95.2425205,87.1504709 97.2905308,85.6144633 C99.338541,84.0784556 101.311855,82.4998047 103.210531,80.8784633 C105.109207,79.2571218 106.751857,77.7318037 108.138531,76.3024633 C109.525204,74.8731228 110.559861,73.5931356 111.242531,72.4624633 C111.925201,71.3317909 112.117199,70.4891327 111.818531,69.9344633 C111.434529,69.2944601 110.826535,68.8251314 109.994531,68.5264633 C109.162527,68.2277951 108.223869,68.0784633 107.178531,68.0784633 C106.133192,68.0784633 105.034537,68.206462 103.882531,68.4624633 C102.730525,68.7184645 101.642536,69.0597945 100.618531,69.4864633 C100.959866,69.8277983 101.183864,70.1904613 101.290531,70.5744633 C101.397198,70.9584652 101.301199,71.3211282 101.002531,71.6624633 L101.002531,71.6624633 Z M128.010531,64.1744633 C129.11987,63.6197938 130.293191,63.3211301 131.530531,63.2784633 C132.76787,63.2357964 133.898526,63.4277945 134.922531,63.8544633 C135.946536,64.2811321 136.778528,64.9211257 137.418531,65.7744633 C138.058534,66.6278009 138.335865,67.6304575 138.250531,68.7824633 C138.12253,70.1904703 137.717201,71.8757868 137.034531,73.8384633 C136.351861,75.8011397 135.487869,77.8597858 134.442531,80.0144633 C133.397192,82.1691407 132.202538,84.3344524 130.858531,86.5104633 C129.514524,88.6864741 128.095872,90.702454 126.602531,92.5584633 C125.10919,94.4144725 123.583872,96.0357897 122.026531,97.4224633 C120.46919,98.8091369 118.986538,99.7584607 117.578531,100.270463 C116.426525,100.739799 115.306536,100.974463 114.218531,100.974463 C113.130525,100.974463 112.138535,100.793132 111.242531,100.430463 C110.346526,100.067795 109.589201,99.5877996 108.970531,98.9904633 C108.351861,98.3931269 107.957198,97.7318002 107.786531,97.0064633 C107.445196,95.7264569 107.477196,94.1371394 107.882531,92.2384633 C108.287866,90.3397871 108.95986,88.3131407 109.898531,86.1584633 C110.837202,84.0037858 111.999857,81.8064745 113.386531,79.5664633 C114.773205,77.3264521 116.266523,75.2144732 117.866531,73.2304633 C119.466539,71.2464533 121.141189,69.4544713 122.890531,67.8544633 C124.639873,66.2544553 126.346523,65.0278009 128.010531,64.1744633 L128.010531,64.1744633 Z M112.906531,92.7184633 C112.991865,93.0597983 113.16253,93.4117948 113.418531,93.7744633 C113.674532,94.1371317 114.015862,94.4357954 114.442531,94.6704633 C114.8692,94.9051311 115.413194,95.0117967 116.074531,94.9904633 C116.735868,94.9691298 117.53586,94.7664652 118.474531,94.3824633 C120.26654,93.5717925 122.047855,92.2598057 123.818531,90.4464633 C125.589206,88.6331209 127.178524,86.6384741 128.586531,84.4624633 C129.994538,82.2864524 131.16786,80.0998076 132.106531,77.9024633 C133.045202,75.7051189 133.57853,73.8171378 133.706531,72.2384633 C133.749198,71.5131263 133.535867,70.8944658 133.066531,70.3824633 C132.597195,69.8704607 131.989201,69.4864645 131.242531,69.2304633 C130.495861,68.974462 129.674535,68.8784629 128.778531,68.9424633 C127.882526,69.0064636 127.071868,69.2731276 126.346531,69.7424633 C124.426521,70.894469 122.581206,72.5051196 120.810531,74.5744633 C119.039855,76.6438069 117.503871,78.7984521 116.202531,81.0384633 C114.901191,83.2784745 113.930534,85.4651193 113.290531,87.5984633 C112.650528,89.7318073 112.522529,91.4384569 112.906531,92.7184633 L112.906531,92.7184633 Z" id="TODO" stroke="none" fill="#000000" transform="translate(87.218060, 82.118463) rotate(-4.000000) translate(-87.218060, -82.118463) "></path>
                </g>
            </g>
            <g id="ninja" mask="url(#mask-2)">
                <g transform="translate(138.000000, 112.000000)">
                    <g id="Group" transform="translate(113.811151, 266.072993)">
                        <path d="M427.990869,98.779866 C427.990869,98.779866 329.615589,204.187401 225.554688,300.42977 C225.554688,304.66941 225.554688,312.439808 225.554688,312.439808 C225.554688,312.439808 208.93938,323.213617 238.131019,323.213617 C310.627841,256.91147 451.007413,117.395461 451.007413,117.395461 L427.990869,98.779866 Z" id="Path-9" fill="#ABABAB"></path>
                        <path d="M427.990869,98.779866 C427.990869,98.779866 329.615589,204.187401 225.554688,300.42977 C167.831589,353.815891 192.739478,335.226638 205.982099,330.583295 C216.612748,326.855805 207.492068,344.842692 234.248585,320.372454 C306.745407,254.070306 447.254913,111.557311 447.254913,111.557311 L427.990869,98.779866 Z" id="Path-9-Copy" fill="#D8D8D8"></path>
                        <mask id="mask-7" fill="white">
                            <use xlink:href="#path-6"></use>
                        </mask>
                        <use id="Path-7-Copy" fill="#4D4D4D" xlink:href="#path-6"></use>
                        <path d="M441.954614,104.27508 L458.072082,119.168894 L589.879843,-42.0947432 L577.675675,-53.1134207 C577.675675,-53.1134207 537.374162,-3.02108592 515.917228,22.0392588 C492.776181,49.0665424 441.954614,104.27508 441.954614,104.27508 Z" id="Path-8" fill="#000000" mask="url(#mask-7)"></path>
                        <mask id="mask-9" fill="white">
                            <use xlink:href="#path-8"></use>
                        </mask>
                        <use id="Path-7" fill="#FFC027" xlink:href="#path-8"></use>
                        <path d="M434.786499,108.517516 C439.203084,112.692322 448.849739,121.968782 448.849739,121.968782 L445.185259,126.191768 C445.185259,126.191768 425.150249,100.525682 423.035976,98.0934035 C420.921703,95.6611252 430.789848,104.739655 434.786499,108.517516 Z" id="Path-12" fill="#DA9A00" mask="url(#mask-9)"></path>
                        <g id="Group-3" transform="translate(442.456835, 8.954380)">
                            <mask id="mask-11" fill="white">
                                <use xlink:href="#path-10"></use>
                            </mask>
                            <use id="Combined-Shape" fill="#FFC028" xlink:href="#path-10"></use>
                            <path d="M-0.502220944,95.3207001 L15.6152475,110.214515 L147.423009,-51.0491227 L135.218841,-62.0678003 C135.218841,-62.0678003 94.9173274,-11.9754655 73.4603939,13.0848792 C50.3193464,40.1121628 -0.502220944,95.3207001 -0.502220944,95.3207001 Z" id="Path-8-Copy" fill="#D99900" mask="url(#mask-11)"></path>
                        </g>
                    </g>
                    <g id="Ninja" transform="translate(101.023381, 118.965328)">
                        <g id="buste" transform="translate(0.000000, 268.631387)">
                            <mask id="mask-13" fill="white">
                                <use xlink:href="#path-12"></use>
                            </mask>
                            <use id="Path-2" fill="#4D4D4D" xlink:href="#path-12"></use>
                            <polygon id="Path-4" fill="#393939" mask="url(#mask-13)" points="271.618072 124.782289 375.576003 33.9574451 326.100143 3.50952154 214.112031 -0.0596821856 180.751358 39.5137587"></polygon>
                            <path d="M309.671952,28.8778691 C309.671952,28.8778691 370.514021,79.9978507 413.847604,118.412341 C423.753247,127.193526 418.572236,185.895651 385.982016,151.450063 C350.47035,113.916709 257.690877,39.1889021 257.690877,39.1889021 L309.671952,28.8778691 Z" id="Path-3-Copy" fill="#696868" mask="url(#mask-13)" transform="translate(338.025031, 95.531088) scale(-1, 1) translate(-338.025031, -95.531088) "></path>
                            <path d="M196.069432,41.6698399 C196.069432,41.6698399 287.906544,118.8321 326.281496,154.793769 C367.970755,193.861318 436.262063,266.757496 436.262063,266.757496 L366.837278,266.757496 C366.837278,266.757496 304.969716,198.687622 272.379496,164.242034 C236.86783,126.70868 144.088357,51.9808729 144.088357,51.9808729 L196.069432,41.6698399 Z" id="Path-3" fill="#393939" mask="url(#mask-13)"></path>
                            <path d="M174.330223,28.8778691 C174.330223,28.8778691 266.167336,106.040129 304.542288,142.001798 C346.231546,181.069348 414.522854,253.965526 414.522854,253.965526 L345.09807,253.965526 C345.09807,253.965526 283.230507,185.895651 250.640288,151.450063 C215.128622,113.916709 122.349149,39.1889021 122.349149,39.1889021 L174.330223,28.8778691 Z" id="Path-3-Copy-2" fill="#696868" mask="url(#mask-13)"></path>
                        </g>
                        <g id="tête" transform="translate(138.107914, 0.000000)">
                            <path d="M254.842698,102.787172 C275.304764,128.555542 291.929132,71.0791361 311.452203,55.5382194 C330.975274,39.9973027 234.380633,77.0188017 254.842698,102.787172 Z" id="Path-11" fill="#393939"></path>
                            <path d="M250.803017,133.178023 C271.265082,158.946393 287.889451,101.469988 307.412522,85.9290712 C326.935593,70.3881545 230.340951,107.409653 250.803017,133.178023 Z" id="Path-11-Copy" fill="#474747" transform="translate(278.987008, 110.987231) rotate(21.000000) translate(-278.987008, -110.987231) "></path>
                            <mask id="mask-15" fill="white">
                                <use xlink:href="#path-14"></use>
                            </mask>
                            <use id="Path-5" fill="#4D4D4D" xlink:href="#path-14"></use>
                            <path d="M14.7496701,183.573982 C14.7496701,183.573982 66.715018,175.929845 126.169667,194.992847 C185.624316,214.055849 194.645796,226.011341 194.645796,226.011341 L193.338104,208.681195 C193.338104,208.681195 185.178809,192.291307 128.218794,180.407759 C71.2587796,168.52421 14.7496701,183.573982 14.7496701,183.573982 Z" id="Path-10" fill="#393939" mask="url(#mask-15)" transform="translate(104.697733, 200.924800) scale(-1, -1) rotate(-8.000000) translate(-104.697733, -200.924800) "></path>
                            <path d="M176.292971,262.478929 C230.677251,234.493939 232.73741,215.209876 232.73741,215.209876 L232.73741,234.758816 C232.73741,234.758816 228.395363,253.003264 176.292971,273.434447 C124.190579,293.865629 93.3700471,277.958969 93.3700471,277.958969 C93.3700471,277.958969 121.90869,290.463919 176.292971,262.478929 Z" id="Path-10-Copy" fill="#393939" mask="url(#mask-15)"></path>
                            <path d="M105.952055,74.4324301 C105.952055,74.4324301 137.15142,57.2455857 196.606069,76.3085875 C256.060718,95.3715894 258.31295,114.317674 258.31295,114.317674 L258.31295,94.7687345 C258.31295,94.7687345 253.566083,77.2366187 196.606069,65.3530703 C139.646054,53.469522 105.952055,74.4324301 105.952055,74.4324301 Z" id="Path-10-Copy-2" fill="#393939" mask="url(#mask-15)"></path>
                            <path d="M2.58258265,37.2230303 C2.58258265,37.2230303 33.7819473,20.0361859 93.2365961,39.0991878 C152.691245,58.1621897 154.943477,77.1082742 154.943477,77.1082742 L154.943477,57.5593348 C154.943477,57.5593348 150.196611,40.0272189 93.2365961,28.1436706 C36.2765815,16.2601222 2.58258265,37.2230303 2.58258265,37.2230303 Z" id="Path-10-Copy-3" fill="#393939" mask="url(#mask-15)" transform="translate(78.763030, 50.802551) scale(-1, 1) rotate(19.000000) translate(-78.763030, -50.802551) "></path>
                            <ellipse id="Oval-3" stroke="#979797" fill="#F9B58B" mask="url(#mask-15)" cx="133.943761" cy="148.386861" rx="104.599622" ry="36.0302783"></ellipse>
                            <path d="M89.012747,143.365913 C101.089602,148.87908 123.740668,161.720336 123.740668,161.720336 L100.704534,157.132824 C100.704534,157.132824 96.6812743,169.789418 89.0212025,167.906966 C81.3611308,166.024515 82.5324705,152.667066 82.5324705,152.667066 L65.69025,148.9669 L62.9994265,133.991544 C62.9994265,133.991544 80.8425218,139.636149 89.012747,143.365913 Z" id="Path-6" fill="#000000" mask="url(#mask-15)"></path>
                            <path d="M180.572043,143.365913 C168.495188,148.87908 145.844122,161.720336 145.844122,161.720336 L168.880256,157.132824 C168.880256,157.132824 172.903516,169.789418 180.563588,167.906966 C188.223659,166.024515 187.05232,152.667066 187.05232,152.667066 L203.89454,148.9669 L206.585364,133.991544 C206.585364,133.991544 188.742268,139.636149 180.572043,143.365913 Z" id="Path-6-Copy" fill="#000000" mask="url(#mask-15)"></path>
                        </g>
                    </g>
                </g>
            </g>
        </g>
    </g>
</svg>