<?xml version="1.0" encoding="UTF-8"?>
<svg width="1024px" height="1024px" viewBox="0 0 1024 1024" version="1.1" xmlns="http://www.w3.org/2000/svg" xmlns:xlink="http://www.w3.org/1999/xlink">
    <!-- Generator: Sketch 40 (33762) - http://www.bohemiancoding.com/sketch -->
    <title>agilehover</title>
    <desc>Created with Sketch.</desc>
    <defs>
        <circle id="path-1" cx="512.5" cy="512.5" r="439.5"></circle>
        <mask id="mask-2" maskContentUnits="userSpaceOnUse" maskUnits="objectBoundingBox" x="0" y="0" width="879" height="879" fill="white">
            <use xlink:href="#path-1"></use>
        </mask>
        <path d="M501.820593,110.228342 C501.820593,110.228342 589.900308,11.7772316 593.763846,6.53912392 C597.627384,1.30101629 602.842984,-1.41409583 607.23113,2.65249796 C611.619276,6.71909174 616.561097,10.3162355 620.050768,13.5185584 C623.540439,16.7208813 622.966078,21.4414419 620.701871,24.5155807 C618.437663,27.5897195 526.879423,132.925367 526.879423,132.925367 C526.879423,132.925367 537.906658,143.693962 540.232396,145.570418 C542.558135,147.446875 537.440528,155.194704 534.16746,152.294893 C530.894392,149.395081 481.238974,103.903262 479.486226,102.386127 C477.733478,100.868993 482.553228,93.564019 485.576627,96.1843013 C488.600025,98.8045836 501.820593,110.228342 501.820593,110.228342 Z" id="path-3"></path>
        <path d="M501.820593,110.228342 L526.879423,132.925367 C526.879423,132.925367 537.906658,143.693962 540.232396,145.570418 C542.558135,147.446875 537.440528,155.194704 534.16746,152.294893 C533.287741,151.515496 527.755178,147.345565 522.004803,142.09328 C521.443882,141.580945 506.536883,157.369554 505.774923,156.979901 C495.908189,151.934217 482.47166,139.796661 478.490078,132.925367 C478.028559,132.128892 493.099331,114.934882 492.440299,114.332526 C484.56826,107.137479 480.077384,102.897818 479.486226,102.386127 C477.733478,100.868993 482.553228,93.564019 485.576627,96.1843013 C488.600025,98.8045836 501.820593,110.228342 501.820593,110.228342 Z" id="path-5"></path>
        <path d="M0.438286747,94.8578276 L11.934346,97.8007518 L16.1461435,107.852886 L4.83082793,105.26867 L0.438286747,94.8578276 Z M14.8741007,78.919708 L26.37016,81.8626322 L30.5819575,91.9147669 L19.2666419,89.3305505 L14.8741007,78.919708 Z M30.1864882,62.0987035 L41.6825474,65.0416277 L45.8943449,75.0937624 L34.5790294,72.5095459 L30.1864882,62.0987035 Z M44.6223022,46.1605839 L56.1183614,49.1035082 L60.3301589,59.1556429 L49.0148433,56.5714264 L44.6223022,46.1605839 Z M56.5215827,32.7591241 L68.017642,35.7020483 L72.2294395,45.754183 L60.9141239,43.1699665 L56.5215827,32.7591241 Z M71.8339702,15.9381195 L83.3300295,18.8810438 L87.541827,28.9331784 L76.2265114,26.348962 L71.8339702,15.9381195 Z M84.7823741,0 L96.2784334,2.94292422 L100.490231,12.9950589 L89.1749153,10.4108425 L84.7823741,0 Z" id="path-7"></path>
        <path d="M1.20050604,256.413681 C1.20050604,256.413681 49.4087524,116.177611 100.613199,97.6418903 C129.56934,87.1599306 180.240455,65.8975751 218.806977,49.3994976 C222.525506,47.8087768 226.131503,46.2623472 229.594656,44.7741425 C253.728842,34.4030687 257.541055,0.647538124 257.541055,0.647538124 L383.041627,8.36277565 C383.041627,8.36277565 382.707025,33.1803695 404.393693,42.2573058 C443.787982,58.7457514 505.507482,84.3291151 540.669372,97.6418903 C595.187982,118.283386 633.349787,256.413681 633.349787,256.413681 L1.20050604,256.413681 Z" id="path-9"></path>
        <path d="M11.1334523,151.408349 C11.1334523,151.408349 13.1470235,86.5718482 60.5048403,34.7818708 C80.5371811,12.8747276 128.509089,0.932352716 156.178058,0.932352716 C192.242655,0.932352716 244.692934,10.6967585 267.649718,42.4870695 C303.942843,92.7454056 300.910635,151.883212 300.910635,151.883212 C300.910635,151.883212 317.084933,151.545659 308.451283,188.160187 C299.817632,224.774714 286.380074,224.774714 286.380074,224.774714 C286.380074,224.774714 221.306762,370.558401 155.490296,370.558401 C89.6738299,370.558401 23.4524192,224.774714 23.4524192,224.774714 C23.4524192,224.774714 11.1334523,224.774714 2.52285431,188.160187 C-6.08774371,151.545659 11.1334523,151.408349 11.1334523,151.408349 Z" id="path-11"></path>
        <path d="M138.292895,8.67052822 C138.292895,8.67052822 137.191914,-2.87544794 142.612788,53.9732108 C148.033663,110.821869 167.714958,142.182724 167.714958,142.182724 L35.7149581,142.182724 C35.7149581,142.182724 12.4465596,73.2039527 10.395338,51.6928112 L6.29289483,8.67052822 L138.292895,8.67052822 Z" id="path-13"></path>
        <mask id="mask-14" maskContentUnits="userSpaceOnUse" maskUnits="objectBoundingBox" x="0" y="0" width="161.422063" height="134.475618" fill="white">
            <use xlink:href="#path-13"></use>
        </mask>
    </defs>
    <g id="Icônes" stroke="none" stroke-width="1" fill="none" fill-rule="evenodd">
        <g id="agilehover">
            <use id="Oval" stroke="#E40A0A" mask="url(#mask-2)" stroke-width="84" xlink:href="#path-1"></use>
            <g id="ninja-copy" transform="translate(80.000000, 73.000000)">
                <g id="Group" transform="translate(132.379496, 309.722628)">
                    <path d="M497.81779,114.984837 C497.81779,114.984837 383.392534,237.684621 262.354046,349.715681 C262.354046,354.650839 262.354046,363.695982 262.354046,363.695982 C262.354046,363.695982 243.027943,376.237249 276.982212,376.237249 C361.306927,299.058145 524.589494,136.654346 524.589494,136.654346 L497.81779,114.984837 Z" id="Path-9" fill="#ABABAB"></path>
                    <path d="M497.81779,114.984837 C497.81779,114.984837 383.392534,237.684621 262.354046,349.715681 C195.213395,411.859867 224.185018,390.221023 239.58818,384.815933 C251.953224,380.476942 241.344501,401.414603 272.466357,372.929989 C356.791072,295.750884 520.224772,129.85844 520.224772,129.85844 L497.81779,114.984837 Z" id="Path-9-Copy" fill="#D8D8D8"></path>
                    <mask id="mask-4" fill="white">
                        <use xlink:href="#path-3"></use>
                    </mask>
                    <use id="Path-7-Copy" fill="#4D4D4D" xlink:href="#path-3"></use>
                    <path d="M514.059726,121.381548 L532.806768,138.718713 L686.11903,-49.0004428 L671.923746,-61.8267493 C671.923746,-61.8267493 625.047021,-3.51669916 600.089378,25.654829 C573.172857,57.1159751 514.059726,121.381548 514.059726,121.381548 Z" id="Path-8" fill="#000000" mask="url(#mask-4)"></path>
                    <mask id="mask-6" fill="white">
                        <use xlink:href="#path-5"></use>
                    </mask>
                    <use id="Path-7" fill="#FFC027" xlink:href="#path-5"></use>
                    <path d="M505.72213,126.319961 C510.859284,131.179651 522.079795,141.977926 522.079795,141.977926 L517.817453,146.893698 C517.817453,146.893698 494.513722,117.017056 492.054504,114.185759 C489.595286,111.354462 501.073424,121.922337 505.72213,126.319961 Z" id="Path-12" fill="#DA9A00" mask="url(#mask-6)"></path>
                    <g id="Group-3" transform="translate(514.643885, 10.423358)">
                        <mask id="mask-8" fill="white">
                            <use xlink:href="#path-7"></use>
                        </mask>
                        <use id="Combined-Shape" fill="#FFC028" xlink:href="#path-7"></use>
                        <path d="M-0.584158538,110.95819 L18.1628828,128.295355 L171.475145,-59.4238005 L157.279861,-72.250107 C157.279861,-72.250107 110.403136,-13.9400568 85.4454933,15.2314714 C58.5289725,46.6926175 -0.584158538,110.95819 -0.584158538,110.95819 Z" id="Path-8-Copy" fill="#D99900" mask="url(#mask-8)"></path>
                    </g>
                </g>
                <g id="Ninja" transform="translate(117.505396, 138.481752)">
                    <g id="buste" transform="translate(0.000000, 312.700730)">
                        <mask id="mask-10" fill="white">
                            <use xlink:href="#path-9"></use>
                        </mask>
                        <use id="Path-2" fill="#4D4D4D" xlink:href="#path-9"></use>
                        <polygon id="Path-4" fill="#393939" mask="url(#mask-10)" points="315.932694 145.252993 436.851413 39.52821 379.303541 4.08526331 249.044515 -0.069473129 210.241031 45.9960443"></polygon>
                        <path d="M360.195083,33.6153226 C360.195083,33.6153226 430.963565,93.1216066 481.367045,137.838046 C492.888797,148.059796 486.862502,216.392084 448.955172,176.295651 C407.64976,132.6049 299.733271,45.6178946 299.733271,45.6178946 L360.195083,33.6153226 Z" id="Path-3-Copy" fill="#696868" mask="url(#mask-10)" transform="translate(393.173982, 111.203092) scale(-1, 1) translate(-393.173982, -111.203092) "></path>
                        <path d="M228.058256,48.5058336 C228.058256,48.5058336 334.878639,138.326667 379.514483,180.187897 C428.005364,225.66453 507.438433,310.519425 507.438433,310.519425 L426.686961,310.519425 C426.686961,310.519425 354.725675,231.282595 316.818345,191.186162 C275.512933,147.495411 167.596444,60.5084055 167.596444,60.5084055 L228.058256,48.5058336 Z" id="Path-3" fill="#393939" mask="url(#mask-10)"></path>
                        <path d="M202.772285,33.6153226 C202.772285,33.6153226 309.592668,123.436156 354.228512,165.297386 C402.719393,210.774019 482.152462,295.628914 482.152462,295.628914 L401.40099,295.628914 C401.40099,295.628914 329.439704,216.392084 291.532374,176.295651 C250.226962,132.6049 142.310473,45.6178946 142.310473,45.6178946 L202.772285,33.6153226 Z" id="Path-3-Copy-2" fill="#696868" mask="url(#mask-10)"></path>
                    </g>
                    <g id="tête" transform="translate(160.640288, 0.000000)">
                        <path d="M296.42041,119.649546 C320.220872,149.645252 339.557514,82.7397647 362.265783,64.6493396 C384.974053,46.5589144 272.619948,89.6538405 296.42041,119.649546 Z" id="Path-11" fill="#393939"></path>
                        <path d="M291.721652,155.026059 C315.522114,185.021765 334.858756,118.116277 357.567026,100.025852 C380.275296,81.9354266 267.921191,125.030353 291.721652,155.026059 Z" id="Path-11-Copy" fill="#474747" transform="translate(324.503875, 129.194837) rotate(21.000000) translate(-324.503875, -129.194837) "></path>
                        <mask id="mask-12" fill="white">
                            <use xlink:href="#path-11"></use>
                        </mask>
                        <use id="Path-5" fill="#4D4D4D" xlink:href="#path-11"></use>
                        <path d="M17.156086,213.689542 C17.156086,213.689542 77.5996061,204.791374 146.75431,226.981688 C215.909014,249.172001 226.402353,263.088807 226.402353,263.088807 L224.881311,242.915628 C224.881311,242.915628 215.390823,223.836957 149.137754,210.003896 C82.8846846,196.170835 17.156086,213.689542 17.156086,213.689542 Z" id="Path-10" fill="#393939" mask="url(#mask-12)" transform="translate(121.779220, 233.886786) scale(-1, -1) rotate(-8.000000) translate(-121.779220, -233.886786) "></path>
                        <path d="M205.055256,305.538953 C268.312358,272.962988 270.708633,250.515348 270.708633,250.515348 L270.708633,273.271318 C270.708633,273.271318 265.658178,294.508793 205.055256,318.291738 C144.452333,342.074683 108.603416,323.558514 108.603416,323.558514 C108.603416,323.558514 141.798153,338.114919 205.055256,305.538953 Z" id="Path-10-Copy" fill="#393939" mask="url(#mask-12)"></path>
                        <path d="M123.238185,86.6431711 C123.238185,86.6431711 159.527741,66.6368016 228.682446,88.8271147 C297.83715,111.017428 300.456835,133.071643 300.456835,133.071643 L300.456835,110.315674 C300.456835,110.315674 294.935515,89.9073906 228.682446,76.0743301 C162.429377,62.2412695 123.238185,86.6431711 123.238185,86.6431711 Z" id="Path-10-Copy-2" fill="#393939" mask="url(#mask-12)"></path>
                        <path d="M3.00393228,43.3295189 C3.00393228,43.3295189 39.2934886,23.3231494 108.448193,45.5134625 C177.602897,67.7037757 180.222582,89.7579911 180.222582,89.7579911 L180.222582,67.0020217 C180.222582,67.0020217 174.701262,46.5937384 108.448193,32.7606778 C42.1951237,18.9276173 3.00393228,43.3295189 3.00393228,43.3295189 Z" id="Path-10-Copy-3" fill="#393939" mask="url(#mask-12)" transform="translate(91.613257, 59.136778) scale(-1, 1) rotate(19.000000) translate(-91.613257, -59.136778) "></path>
                        <ellipse id="Oval-3" stroke="#979797" fill="#F9B58B" mask="url(#mask-12)" cx="155.796751" cy="172.729927" rx="121.665102" ry="41.9410943"></ellipse>
                        <path d="M103.53522,166.885285 C117.582421,173.302894 143.929019,188.250776 143.929019,188.250776 L117.134529,182.910676 C117.134529,182.910676 112.454872,197.643602 103.545056,195.452332 C94.6352393,193.261062 95.9976837,177.712305 95.9976837,177.712305 L76.4076466,173.405122 L73.2778139,155.973038 C73.2778139,155.973038 94.032019,162.543648 103.53522,166.885285 Z" id="Path-6" fill="#000000" mask="url(#mask-12)"></path>
                        <path d="M210.032461,166.885285 C195.985261,173.302894 169.638663,188.250776 169.638663,188.250776 L196.433153,182.910676 C196.433153,182.910676 201.11281,197.643602 210.022626,195.452332 C218.932442,193.261062 217.569998,177.712305 217.569998,177.712305 L237.160035,173.405122 L240.289867,155.973038 C240.289867,155.973038 219.535662,162.543648 210.032461,166.885285 Z" id="Path-6-Copy" fill="#000000" mask="url(#mask-12)"></path>
                    </g>
                </g>
            </g>
            <g id="Post-it-Copy" transform="translate(123.000000, 298.000000)">
                <path d="M150.130101,134.892433 L18.0632185,146.396992 C18.0632185,146.396992 0.747325724,79.7086803 0.835275558,58.4581709 L1.34653994,15.9571522 L150.130101,134.892433 Z" id="Rectangle" fill-opacity="0.42" fill="#000000"></path>
                <use id="Rectangle-Copy-2" stroke="#EEC93D" mask="url(#mask-14)" stroke-width="2" fill="#FFEE60" transform="translate(87.003926, 74.944914) rotate(-5.000000) translate(-87.003926, -74.944914) " xlink:href="#path-13"></use>
                <path d="M138.292895,8.67052822 C138.292895,8.67052822 137.191914,-2.87544794 142.612788,53.9732108 C148.033663,110.821869 167.714958,142.182724 167.714958,142.182724 C167.714958,142.182724 110.026581,102.059426 82.8821831,79.6082933 C56.2192265,57.5553608 6.29289483,8.67052822 6.29289483,8.67052822 L138.292895,8.67052822 Z" id="Rectangle-Copy" fill="#FFE367" transform="translate(87.003926, 74.944914) rotate(-5.000000) translate(-87.003926, -74.944914) "></path>
                <path d="M41.2199222,119.185212 C38.263848,117.932031 67.4373559,110.273046 85.4978894,106.759758 C96.5417816,104.611406 120.662741,101.715508 130.438567,102.300791 C140.214394,102.886074 139.984156,106.1665 130.438567,108.713518 C120.892978,111.260537 117.541727,107.683918 90.6188481,110.655577 C63.6959691,113.627236 44.2696383,119.185212 41.2199222,119.185212 Z" id="Path-5" fill="#000000"></path>
                <text id="TODO" transform="translate(78.762531, 83.886463) rotate(-4.000000) translate(-78.762531, -83.886463) " font-family="VentographyPersonalUseOnly, Ventography Personal Use Only" font-size="64" font-weight="normal" letter-spacing="-1.27999985" fill="#000000">
                    <tspan x="29.5145305" y="99.8864633">TODO</tspan>
                </text>
            </g>
            <g id="Shuriken-Copy" transform="translate(128.000000, 239.000000)">
                <path d="M49.8572201,102.81867 L52.7354331,101.821268 L52.030034,100.43476 C52.030034,100.43476 48.4524434,101.016441 43.5632955,98.8812708 C38.6741476,96.7461007 34.5222315,90.2758334 34.5222315,90.2758334 L26.4085438,102.046951 L30.5916636,106.302166 C22.2935344,107.672944 0.343513247,108.90473 0.343513247,108.90473 L28.3286108,110.259318 L42.1829163,110.929921 L60.6438327,109.403927 L71.6420879,110.225947 L66.0984765,108.981069 C70.1759945,109.155139 73.9027133,109.143614 76.8373664,108.961147 L73.6080801,110.080208 L74.3134792,111.466716 C74.3134792,111.466716 77.8910699,110.885035 82.7802178,113.020205 C87.6693657,115.155375 91.8212817,121.625642 91.8212817,121.625642 L99.9349695,109.854525 L95.7518496,105.599309 C104.049979,104.228532 126,102.996746 126,102.996746 L98.0149025,101.642157 L84.1605969,100.971555 L65.6996805,102.497548 L54.7014254,101.675529 L60.547048,102.988226 C56.6105972,102.768903 52.9241918,102.716473 49.8572201,102.81867 Z M69.6247228,106.509821 C70.1771903,106.041575 67.5997173,105.397729 63.8677758,105.071751 C60.1358343,104.745772 56.6626346,104.861102 56.1101672,105.329348 C55.5576998,105.797593 58.1351727,106.441439 61.8671142,106.767418 C65.5990557,107.093396 69.0722554,106.978066 69.6247228,106.509821 Z" id="Combined-Shape" fill-opacity="0.25" fill="#000000"></path>
                <path d="M83.5102368,40.7336041 L82.5058742,39.5956471 C82.5058742,39.5956471 77.9472516,42.418427 66.2666516,37.0261816 C54.5860515,31.6339362 36.0033787,12.3531664 36.0033787,12.3531664 L45.1081627,51.7500849 L62.6455556,66.5904011 L63.0271257,71.8405189 C62.5185592,73.5952846 61.7795609,75.601728 60.7283518,77.8788411 C55.3361064,89.5594411 36.0553366,108.142114 36.0553366,108.142114 L75.4522551,99.0373299 L90.2925713,81.499937 L94.3200243,81.2072282 L95.3243869,82.3451852 C95.3243869,82.3451852 99.8830095,79.5224053 111.56361,84.9146507 C123.24421,90.3068961 141.826882,109.587666 141.826882,109.587666 L132.722098,70.1907474 L115.184705,55.3504312 L114.803135,50.1003134 C115.311702,48.3455477 116.0507,46.3391043 117.101909,44.0619912 C122.494155,32.3813912 141.774924,13.7987184 141.774924,13.7987184 L102.378006,22.9035024 L87.5376897,40.4408953 L83.5102368,40.7336041 Z M88.6113231,66.1706223 C92.2781484,66.1706223 95.2506976,63.8309715 95.2506976,60.9448659 C95.2506976,58.0587603 92.2781484,55.7191094 88.6113231,55.7191094 C84.9444978,55.7191094 81.9719485,58.0587603 81.9719485,60.9448659 C81.9719485,63.8309715 84.9444978,66.1706223 88.6113231,66.1706223 Z" id="Combined-Shape-Copy" stroke="#979797" stroke-width="3" fill="#D8D8D8" transform="translate(88.915131, 60.970416) rotate(-165.000000) translate(-88.915131, -60.970416) "></path>
                <polygon id="Path-3" fill="#FFE367" points="24.9892098 97.8459823 27.3213622 96.2167483 31.4961853 94.271628 40.1787929 94.666486 29.8840263 83.4155226 18.7753541 92.5712484"></polygon>
            </g>
        </g>
    </g>
</svg>