<?xml version="1.0" encoding="UTF-8"?>
<svg width="1024px" height="1024px" viewBox="0 0 1024 1024" version="1.1" xmlns="http://www.w3.org/2000/svg" xmlns:xlink="http://www.w3.org/1999/xlink">
    <!-- Generator: Sketch 40 (33762) - http://www.bohemiancoding.com/sketch -->
    <title>devhover</title>
    <desc>Created with Sketch.</desc>
    <defs>
        <circle id="path-1" cx="512.5" cy="512.5" r="439.5"></circle>
        <mask id="mask-2" maskContentUnits="userSpaceOnUse" maskUnits="objectBoundingBox" x="0" y="0" width="879" height="879" fill="white">
            <use xlink:href="#path-1"></use>
        </mask>
        <rect id="path-3" x="101.557947" y="35.5624756" width="687.595043" height="415.971814"></rect>
        <rect id="path-5" x="0" y="0" width="470.993377" height="302.941176" rx="3"></rect>
        <mask id="mask-7" maskContentUnits="userSpaceOnUse" maskUnits="objectBoundingBox" x="-1" y="-1" width="472.993377" height="304.941176">
            <rect x="-1" y="-1" width="472.993377" height="304.941176" fill="white"></rect>
            <use xlink:href="#path-5" fill="black"></use>
        </mask>
        <rect id="path-8" x="0" y="0" width="470.993377" height="302.941176" rx="3"></rect>
        <mask id="mask-10" maskContentUnits="userSpaceOnUse" maskUnits="objectBoundingBox" x="-1" y="-1" width="472.993377" height="304.941176">
            <rect x="-1" y="-1" width="472.993377" height="304.941176" fill="white"></rect>
            <use xlink:href="#path-8" fill="black"></use>
        </mask>
    </defs>
    <g id="Icônes" stroke="none" stroke-width="1" fill="none" fill-rule="evenodd">
        <g id="devhover">
            <use id="Oval" stroke="#2BAF2B" mask="url(#mask-2)" stroke-width="84" xlink:href="#path-1"></use>
            <g id="macbook" transform="translate(68.000000, 251.000000)">
                <g>
                    <rect id="screen-body" fill="#43403D" x="73.5927152" y="0" width="743.562081" height="483.967207" rx="8"></rect>
                    <path d="M887.574633,512.082287 L888.692605,487.722747 C888.771754,485.904279 886.970612,484.085254 885.090922,484.084697 L3.79884365,483.82353 C1.81783418,483.822942 -0.0804890097,485.851115 0.00263303178,487.879875 C0.502209895,499.855556 1.01706226,511.831237 1.01706226,511.831237 C1.30873631,518.461796 6.80427716,523.838384 13.3134297,523.840191 L875.219441,524.079393 C881.716946,524.081197 887.252856,518.688506 887.574633,512.082287 Z" id="body" fill="#DEDEDE"></path>
                    <path d="M878.67366,525 L14.5291325,525 C8.00349785,525 4.24905492,520.602586 2.75807706,516.184537 L888.134329,516.184537 C886.633294,520.58832 885.187617,525 878.67366,525 Z" id="lower-body" fill="#A8A8A8"></path>
                    <mask id="mask-4" fill="white">
                        <use xlink:href="#path-3"></use>
                    </mask>
                    <use id="screen" fill="#61C8E3" xlink:href="#path-3"></use>
                    <g id="fenêtre-1" mask="url(#mask-4)">
                        <g transform="translate(133.938742, 50.000000)">
                            <mask id="mask-6" fill="white">
                                <use xlink:href="#path-5"></use>
                            </mask>
                            <g id="Rectangle-5" stroke="none" fill="none">
                                <use fill="#15313D" fill-rule="evenodd" xlink:href="#path-5"></use>
                                <use stroke="#979797" mask="url(#mask-7)" stroke-width="2" xlink:href="#path-5"></use>
                            </g>
                            <rect id="Rectangle-2" stroke="none" fill="#21566E" fill-rule="evenodd" mask="url(#mask-6)" x="66.2334437" y="20.5882353" width="404.759934" height="273.529412"></rect>
                            <rect id="Rectangle" stroke="none" fill-opacity="0.76" fill="#000000" fill-rule="evenodd" mask="url(#mask-6)" x="-2.94370861" y="0" width="481.296358" height="22.0588235"></rect>
                            <g id="code" stroke="none" stroke-width="1" fill="none" fill-rule="evenodd" mask="url(#mask-6)">
                                <g transform="translate(107.445364, 30.882353)">
                                    <rect id="Rectangle-3" fill="#FFCF15" x="0" y="0" width="14.718543" height="7.35294118"></rect>
                                    <rect id="Rectangle-3-Copy" fill="#90AAB7" transform="translate(51.514901, 3.676471) scale(-1, 1) translate(-51.514901, -3.676471) " x="29.4370861" y="0" width="44.1556291" height="7.35294118"></rect>
                                    <rect id="Rectangle-3-Copy-2" fill="#15E1FF" x="88.3112583" y="0" width="19.134106" height="7.35294118"></rect>
                                    <rect id="Rectangle-3-Copy-3" fill="#FFFFFF" transform="translate(143.505795, 3.676471) scale(-1, 1) translate(-143.505795, -3.676471) " x="122.163907" y="0" width="42.6837748" height="7.35294118"></rect>
                                    <rect id="Rectangle-3-Copy-7" fill="#FFCF15" x="0" y="14.7058824" width="14.718543" height="7.35294118"></rect>
                                    <rect id="Rectangle-3-Copy-6" fill="#90AAB7" transform="translate(58.874172, 18.382353) scale(-1, 1) translate(-58.874172, -18.382353) " x="29.4370861" y="14.7058824" width="58.8741722" height="7.35294118"></rect>
                                    <rect id="Rectangle-3-Copy-5" fill="#15E1FF" x="103.029801" y="14.7058824" width="19.134106" height="7.35294118"></rect>
                                    <rect id="Rectangle-3-Copy-4" fill="#FFFFFF" transform="translate(163.375828, 18.382353) scale(-1, 1) translate(-163.375828, -18.382353) " x="136.88245" y="14.7058824" width="52.986755" height="7.35294118"></rect>
                                    <rect id="Rectangle-3-Copy-11" fill="#FFCF15" x="0" y="44.1176471" width="14.718543" height="7.35294118"></rect>
                                    <rect id="Rectangle-3-Copy-10" fill="#FF631F" transform="translate(58.874172, 47.794118) scale(-1, 1) translate(-58.874172, -47.794118) " x="29.4370861" y="44.1176471" width="58.8741722" height="7.35294118"></rect>
                                </g>
                            </g>
                            <rect id="Rectangle-4" stroke="none" fill="#2D7190" fill-rule="evenodd" mask="url(#mask-6)" x="413.59106" y="22.0588235" width="57.4023179" height="188.235294"></rect>
                            <path d="M78.0082781,30.8823529 L89.7831126,30.8823529 L89.7831126,38.2352941 L78.0082781,38.2352941 L78.0082781,30.8823529 Z M78.0082781,45.5882353 L89.7831126,45.5882353 L89.7831126,52.9411765 L78.0082781,52.9411765 L78.0082781,45.5882353 Z M78.0082781,60.2941176 L89.7831126,60.2941176 L89.7831126,67.6470588 L78.0082781,67.6470588 L78.0082781,60.2941176 Z M78.0082781,75 L89.7831126,75 L89.7831126,82.3529412 L78.0082781,82.3529412 L78.0082781,75 Z M78.0082781,89.7058824 L89.7831126,89.7058824 L89.7831126,97.0588235 L78.0082781,97.0588235 L78.0082781,89.7058824 Z M78.0082781,104.411765 L89.7831126,104.411765 L89.7831126,111.764706 L78.0082781,111.764706 L78.0082781,104.411765 Z M78.0082781,119.117647 L89.7831126,119.117647 L89.7831126,126.470588 L78.0082781,126.470588 L78.0082781,119.117647 Z M78.0082781,133.823529 L89.7831126,133.823529 L89.7831126,141.176471 L78.0082781,141.176471 L78.0082781,133.823529 Z M78.0082781,148.529412 L89.7831126,148.529412 L89.7831126,155.882353 L78.0082781,155.882353 L78.0082781,148.529412 Z M78.0082781,163.235294 L89.7831126,163.235294 L89.7831126,170.588235 L78.0082781,170.588235 L78.0082781,163.235294 Z M78.0082781,177.941176 L89.7831126,177.941176 L89.7831126,185.294118 L78.0082781,185.294118 L78.0082781,177.941176 Z M78.0082781,192.647059 L89.7831126,192.647059 L89.7831126,200 L78.0082781,200 L78.0082781,192.647059 Z M78.0082781,207.352941 L89.7831126,207.352941 L89.7831126,214.705882 L78.0082781,214.705882 L78.0082781,207.352941 Z M78.0082781,222.058824 L89.7831126,222.058824 L89.7831126,229.411765 L78.0082781,229.411765 L78.0082781,222.058824 Z M78.0082781,236.764706 L89.7831126,236.764706 L89.7831126,244.117647 L78.0082781,244.117647 L78.0082781,236.764706 Z M78.0082781,251.470588 L89.7831126,251.470588 L89.7831126,258.823529 L78.0082781,258.823529 L78.0082781,251.470588 Z M78.0082781,266.176471 L89.7831126,266.176471 L89.7831126,273.529412 L78.0082781,273.529412 L78.0082781,266.176471 Z M78.0082781,280.882353 L89.7831126,280.882353 L89.7831126,288.235294 L78.0082781,288.235294 L78.0082781,280.882353 Z" id="Combined-Shape" stroke="none" fill="#2C7190" fill-rule="evenodd" mask="url(#mask-6)"></path>
                        </g>
                    </g>
                    <g id="fenêtre-2" mask="url(#mask-4)">
                        <g transform="translate(251.687086, 138.235294)">
                            <mask id="mask-9" fill="white">
                                <use xlink:href="#path-8"></use>
                            </mask>
                            <g id="Rectangle-5" stroke="none" fill="none">
                                <use fill="#15313D" fill-rule="evenodd" xlink:href="#path-8"></use>
                                <use stroke="#979797" mask="url(#mask-10)" stroke-width="2" xlink:href="#path-8"></use>
                            </g>
                            <rect id="Rectangle-2" stroke="none" fill="#21566E" fill-rule="evenodd" mask="url(#mask-9)" x="66.2334437" y="20.5882353" width="404.759934" height="273.529412"></rect>
                            <rect id="Rectangle" stroke="none" fill-opacity="0.76" fill="#000000" fill-rule="evenodd" mask="url(#mask-9)" x="-2.94370861" y="0" width="481.296358" height="22.0588235"></rect>
                            <g id="code" stroke="none" stroke-width="1" fill="none" fill-rule="evenodd" mask="url(#mask-9)">
                                <g transform="translate(107.445364, 30.882353)">
                                    <rect id="Rectangle-3" fill="#FFCF15" x="0" y="0" width="14.718543" height="7.35294118"></rect>
                                    <rect id="Rectangle-3-Copy" fill="#90AAB7" transform="translate(58.874172, 3.676471) scale(-1, 1) translate(-58.874172, -3.676471) " x="29.4370861" y="0" width="58.8741722" height="7.35294118"></rect>
                                    <rect id="Rectangle-3-Copy-2" fill="#15E1FF" x="103.029801" y="0" width="19.134106" height="7.35294118"></rect>
                                    <rect id="Rectangle-3-Copy-3" fill="#FFFFFF" transform="translate(150.865066, 3.676471) scale(-1, 1) translate(-150.865066, -3.676471) " x="136.88245" y="0" width="27.9652318" height="7.35294118"></rect>
                                    <rect id="Rectangle-3-Copy-7" fill="#FFCF15" x="0" y="14.7058824" width="14.718543" height="7.35294118"></rect>
                                    <rect id="Rectangle-3-Copy-6" fill="#90AAB7" transform="translate(66.233444, 18.382353) scale(-1, 1) translate(-66.233444, -18.382353) " x="29.4370861" y="14.7058824" width="73.5927152" height="7.35294118"></rect>
                                    <rect id="Rectangle-3-Copy-5" fill="#15E1FF" x="117.748344" y="14.7058824" width="19.134106" height="7.35294118"></rect>
                                    <rect id="Rectangle-3-Copy-4" fill="#FFFFFF" transform="translate(178.094371, 18.382353) scale(-1, 1) translate(-178.094371, -18.382353) " x="151.600993" y="14.7058824" width="52.986755" height="7.35294118"></rect>
                                    <rect id="Rectangle-3-Copy-11" fill="#FFCF15" x="0" y="44.1176471" width="14.718543" height="7.35294118"></rect>
                                    <rect id="Rectangle-3-Copy-10" fill="#FF631F" transform="translate(51.514901, 47.794118) scale(-1, 1) translate(-51.514901, -47.794118) " x="29.4370861" y="44.1176471" width="44.1556291" height="7.35294118"></rect>
                                    <rect id="Rectangle-3-Copy-13" fill="#FFCF15" x="22.0778146" y="58.8235294" width="14.718543" height="7.35294118"></rect>
                                    <rect id="Rectangle-3-Copy-12" fill="#90AAB7" transform="translate(78.008278, 62.500000) scale(-1, 1) translate(-78.008278, -62.500000) " x="51.5149007" y="58.8235294" width="52.986755" height="7.35294118"></rect>
                                    <rect id="Rectangle-3-Copy-15" fill="#FFCF15" x="22.0778146" y="73.5294118" width="14.718543" height="7.35294118"></rect>
                                    <rect id="Rectangle-3-Copy-14" fill="#90AAB7" transform="translate(70.649007, 77.205882) scale(-1, 1) translate(-70.649007, -77.205882) " x="51.5149007" y="73.5294118" width="38.2682119" height="7.35294118"></rect>
                                    <rect id="Rectangle-3-Copy-8" fill="#15E1FF" x="104.501656" y="73.5294118" width="19.134106" height="7.35294118"></rect>
                                    <rect id="Rectangle-3-Copy-16" fill="#90AAB7" x="138.354305" y="73.5294118" width="52.986755" height="7.35294118"></rect>
                                    <rect id="Rectangle-3-Copy-17" fill="#FFFFFF" x="44.1556291" y="88.2352941" width="52.986755" height="7.35294118"></rect>
                                    <rect id="Rectangle-3-Copy-18" fill="#90AAB7" transform="translate(125.843543, 91.911765) scale(-1, 1) translate(-125.843543, -91.911765) " x="111.860927" y="88.2352941" width="27.9652318" height="7.35294118"></rect>
                                    <rect id="Rectangle-3-Copy-19" fill="#90AAB7" x="154.544702" y="88.2352941" width="52.986755" height="7.35294118"></rect>
                                    <rect id="Rectangle-3-Copy-22" fill="#FFCF15" x="66.2334437" y="102.941176" width="14.718543" height="7.35294118"></rect>
                                    <rect id="Rectangle-3-Copy-21" fill="#90AAB7" transform="translate(119.956126, 106.617647) scale(-1, 1) translate(-119.956126, -106.617647) " x="95.6705298" y="102.941176" width="48.5711921" height="7.35294118"></rect>
                                    <rect id="Rectangle-3-Copy-9" fill="#FF631F" x="158.960265" y="102.941176" width="19.134106" height="7.35294118"></rect>
                                    <rect id="Rectangle-3-Copy-25" fill="#90AAB7" transform="translate(80.216060, 121.323529) scale(-1, 1) translate(-80.216060, -121.323529) " x="66.2334437" y="117.647059" width="27.9652318" height="7.35294118"></rect>
                                    <rect id="Rectangle-3-Copy-27" fill="#90AAB7" transform="translate(172.206954, 121.323529) scale(-1, 1) translate(-172.206954, -121.323529) " x="142.769868" y="117.647059" width="58.8741722" height="7.35294118"></rect>
                                    <rect id="Rectangle-3-Copy-26" fill="#15E1FF" x="108.917219" y="117.647059" width="19.134106" height="7.35294118"></rect>
                                    <rect id="Rectangle-3-Copy-29" fill="#90AAB7" x="88.3112583" y="132.352941" width="44.1556291" height="7.35294118"></rect>
                                    <rect id="Rectangle-3-Copy-28" fill="#90AAB7" transform="translate(192.076987, 136.029412) scale(-1, 1) translate(-192.076987, -136.029412) " x="147.18543" y="132.352941" width="89.7831126" height="7.35294118"></rect>
                                    <rect id="Rectangle-3-Copy-24" fill="#FFFFFF" x="44.1556291" y="161.764706" width="52.986755" height="7.35294118"></rect>
                                    <rect id="Rectangle-3-Copy-23" fill="#90AAB7" transform="translate(125.843543, 165.441176) scale(-1, 1) translate(-125.843543, -165.441176) " x="111.860927" y="161.764706" width="27.9652318" height="7.35294118"></rect>
                                    <rect id="Rectangle-3-Copy-20" fill="#90AAB7" x="154.544702" y="161.764706" width="52.986755" height="7.35294118"></rect>
                                    <rect id="Rectangle-3-Copy-32" fill="#FFCF15" x="66.2334437" y="176.470588" width="14.718543" height="7.35294118"></rect>
                                    <rect id="Rectangle-3-Copy-31" fill="#90AAB7" transform="translate(125.107616, 180.147059) scale(-1, 1) translate(-125.107616, -180.147059) " x="95.6705298" y="176.470588" width="58.8741722" height="7.35294118"></rect>
                                    <rect id="Rectangle-3-Copy-30" fill="#15E0FF" x="169.263245" y="176.470588" width="19.134106" height="7.35294118"></rect>
                                    <rect id="Rectangle-3-Copy-33" fill="#90AAB7" transform="translate(221.514073, 180.147059) scale(-1, 1) translate(-221.514073, -180.147059) " x="203.115894" y="176.470588" width="36.7963576" height="7.35294118"></rect>
                                    <rect id="Rectangle-3-Copy-34" fill="#90AAB7" transform="translate(63.289735, 194.852941) scale(-1, 1) translate(-63.289735, -194.852941) " x="44.1556291" y="191.176471" width="38.2682119" height="7.35294118"></rect>
                                    <rect id="Rectangle-3-Copy-35" fill="#90AAB7" x="97.1423841" y="191.176471" width="79.4801325" height="7.35294118"></rect>
                                    <rect id="Rectangle-3-Copy-37" fill="#90AAB7" transform="translate(41.211921, 209.558824) scale(-1, 1) translate(-41.211921, -209.558824) " x="22.0778146" y="205.882353" width="38.2682119" height="7.35294118"></rect>
                                    <rect id="Rectangle-3-Copy-36" fill="#FF631F" x="75.0645695" y="205.882353" width="27.9652318" height="7.35294118"></rect>
                                    <rect id="Rectangle-3-Copy-38" fill="#90AAB7" x="119.220199" y="205.882353" width="79.4801325" height="7.35294118"></rect>
                                    <rect id="Rectangle-3-Copy-41" fill="#FFCF15" x="22.0778146" y="220.588235" width="14.718543" height="7.35294118"></rect>
                                    <rect id="Rectangle-3-Copy-40" fill="#90AAB7" transform="translate(75.800497, 224.264706) scale(-1, 1) translate(-75.800497, -224.264706) " x="51.5149007" y="220.588235" width="48.5711921" height="7.35294118"></rect>
                                    <rect id="Rectangle-3-Copy-39" fill="#FFFFFF" x="114.804636" y="220.588235" width="38.2682119" height="7.35294118"></rect>
                                    <rect id="Rectangle-3-Copy-43" fill="#90AAB7" transform="translate(67.705298, 238.970588) scale(-1, 1) translate(-67.705298, -238.970588) " x="48.5711921" y="235.294118" width="38.2682119" height="7.35294118"></rect>
                                    <rect id="Rectangle-3-Copy-42" fill="#90AAB7" x="101.557947" y="235.294118" width="79.4801325" height="7.35294118"></rect>
                                    <rect id="Rectangle-3-Copy-44" fill="#90AAB7" transform="translate(222.250000, 238.970588) scale(-1, 1) translate(-222.250000, -238.970588) " x="195.756623" y="235.294118" width="52.986755" height="7.35294118"></rect>
                                    <rect id="Rectangle-3-Copy-45" fill="#90AAB7" transform="translate(78.008278, 253.676471) scale(-1, 1) translate(-78.008278, -253.676471) " x="48.5711921" y="250" width="58.8741722" height="7.35294118"></rect>
                                    <rect id="Rectangle-3-Copy-46" fill="#15E0FF" x="122.163907" y="250" width="19.134106" height="7.35294118"></rect>
                                    <rect id="Rectangle-3-Copy-47" fill="#90AAB7" transform="translate(178.094371, 253.676471) scale(-1, 1) translate(-178.094371, -253.676471) " x="156.016556" y="250" width="44.1556291" height="7.35294118"></rect>
                                </g>
                            </g>
                            <rect id="Rectangle-4" stroke="none" fill="#2D7190" fill-rule="evenodd" mask="url(#mask-9)" x="413.59106" y="22.0588235" width="57.4023179" height="188.235294"></rect>
                            <path d="M78.0082781,30.8823529 L89.7831126,30.8823529 L89.7831126,38.2352941 L78.0082781,38.2352941 L78.0082781,30.8823529 Z M78.0082781,45.5882353 L89.7831126,45.5882353 L89.7831126,52.9411765 L78.0082781,52.9411765 L78.0082781,45.5882353 Z M78.0082781,60.2941176 L89.7831126,60.2941176 L89.7831126,67.6470588 L78.0082781,67.6470588 L78.0082781,60.2941176 Z M78.0082781,75 L89.7831126,75 L89.7831126,82.3529412 L78.0082781,82.3529412 L78.0082781,75 Z M78.0082781,89.7058824 L89.7831126,89.7058824 L89.7831126,97.0588235 L78.0082781,97.0588235 L78.0082781,89.7058824 Z M78.0082781,104.411765 L89.7831126,104.411765 L89.7831126,111.764706 L78.0082781,111.764706 L78.0082781,104.411765 Z M78.0082781,119.117647 L89.7831126,119.117647 L89.7831126,126.470588 L78.0082781,126.470588 L78.0082781,119.117647 Z M78.0082781,133.823529 L89.7831126,133.823529 L89.7831126,141.176471 L78.0082781,141.176471 L78.0082781,133.823529 Z M78.0082781,148.529412 L89.7831126,148.529412 L89.7831126,155.882353 L78.0082781,155.882353 L78.0082781,148.529412 Z M78.0082781,163.235294 L89.7831126,163.235294 L89.7831126,170.588235 L78.0082781,170.588235 L78.0082781,163.235294 Z M78.0082781,177.941176 L89.7831126,177.941176 L89.7831126,185.294118 L78.0082781,185.294118 L78.0082781,177.941176 Z M78.0082781,192.647059 L89.7831126,192.647059 L89.7831126,200 L78.0082781,200 L78.0082781,192.647059 Z M78.0082781,207.352941 L89.7831126,207.352941 L89.7831126,214.705882 L78.0082781,214.705882 L78.0082781,207.352941 Z M78.0082781,222.058824 L89.7831126,222.058824 L89.7831126,229.411765 L78.0082781,229.411765 L78.0082781,222.058824 Z M78.0082781,236.764706 L89.7831126,236.764706 L89.7831126,244.117647 L78.0082781,244.117647 L78.0082781,236.764706 Z M78.0082781,251.470588 L89.7831126,251.470588 L89.7831126,258.823529 L78.0082781,258.823529 L78.0082781,251.470588 Z M78.0082781,266.176471 L89.7831126,266.176471 L89.7831126,273.529412 L78.0082781,273.529412 L78.0082781,266.176471 Z M78.0082781,280.882353 L89.7831126,280.882353 L89.7831126,288.235294 L78.0082781,288.235294 L78.0082781,280.882353 Z" id="Combined-Shape" stroke="none" fill="#2C7190" fill-rule="evenodd" mask="url(#mask-9)"></path>
                        </g>
                    </g>
                    <polygon id="glare" fill-opacity="0.13" fill="#FFFFFF" mask="url(#mask-4)" points="789.673498 35.5624756 789.6735 451.53429 333.941902 35.5624756"></polygon>
                    <path d="M445.13602,26.2930336 C449.551697,26.2930336 453.131311,22.7115545 453.131311,18.2935756 C453.131311,13.8755968 449.551697,10.2941176 445.13602,10.2941176 C440.720342,10.2941176 437.140728,13.8755968 437.140728,18.2935756 C437.140728,22.7115545 440.720342,26.2930336 445.13602,26.2930336 Z" id="camera" fill="#9E9E9E"></path>
                    <rect id="Rectangle-15" fill="#AAAAAA" x="371.501618" y="483.532122" width="147.912887" height="11.999187" rx="5.99959348"></rect>
                </g>
            </g>
        </g>
    </g>
</svg>