<?xml version="1.0" encoding="UTF-8"?>
<svg width="1024px" height="1024px" viewBox="0 0 1024 1024" version="1.1" xmlns="http://www.w3.org/2000/svg" xmlns:xlink="http://www.w3.org/1999/xlink">
    <!-- Generator: Sketch 40 (33762) - http://www.bohemiancoding.com/sketch -->
    <title>dynamichover</title>
    <desc>Created with Sketch.</desc>
    <defs>
        <circle id="path-1" cx="512.5" cy="512.5" r="439.5"></circle>
        <mask id="mask-2" maskContentUnits="userSpaceOnUse" maskUnits="objectBoundingBox" x="0" y="0" width="879" height="879" fill="white">
            <use xlink:href="#path-1"></use>
        </mask>
        <path d="M361.518737,394.680652 C361.518737,394.680652 344.908338,423.424066 334.290795,436.882329 C327.003463,446.119383 309.50512,459.002642 299.759728,469.028365 C298.293158,470.537121 305.336094,470.541764 303.875464,472.144236 C299.974826,476.423663 296.124104,481.072642 292.476771,486.28014 C280.631427,503.192393 266.159871,537.792706 259.141064,543.625904 C248.30492,552.631619 233.941757,560.544463 225.329506,569.795529 C195.172901,602.189004 177.596394,627.811342 177.596394,627.811342 L182.98454,663.924381 C182.98454,663.924381 268.585289,591.460627 313.96262,554.877509 C327.665797,543.830033 346.168163,529.252368 365.117387,514.440991 C365.788713,513.916259 372.344557,518.293024 373.016812,517.767852 C384.379274,508.891378 390.693579,503.845816 401.076499,495.183612 C428.08371,472.652189 450.328845,448.391907 450.328845,448.391907 L361.518737,394.680652 Z" id="path-3"></path>
        <path d="M436.504645,216.428362 C435.750617,214.64416 438.521279,212.885597 438.521279,212.885597 L429.073941,194.736233 C429.073941,194.736233 361.175047,207.814045 304.967852,222.982351 C297.265818,225.060854 286.378569,235.066434 277.089847,241.195246 C270.736955,245.386962 264.164521,245.998319 261.886989,244.159449 C259.609456,242.320578 268.664136,241.482296 273.058286,237.530338 C275.34979,235.469434 274.289277,233.969284 273.898577,233.035815 C273.403432,231.852809 266.335528,233.199356 258.603044,235.759287 C248.534105,239.09273 240.06798,241.202954 239.496183,239.379231 C238.485273,236.154972 257.966659,230.370393 256.386942,228.530973 C255.755058,227.795209 251.299454,229.160121 244.911799,230.965455 C238.524144,232.770789 229.39382,235.469786 227.993543,233.035815 C226.569417,230.560388 237.025024,228.049697 246.001667,225.154696 C254.97831,222.259695 255.37522,220.984818 255.016187,220.121461 C254.640321,219.217627 252.252969,218.780128 246.001667,220.121461 C239.750365,221.462795 234.247063,224.195042 232.7303,221.692719 C231.213537,219.190395 238.206936,218.100562 244.199671,216.13574 C250.534719,214.058686 257.010947,212.144725 256.386942,211.309769 C255.935449,210.705646 252.831399,210.363601 248.455354,211.309769 C241.061988,212.908328 238.170233,213.110419 237.491645,211.309769 C236.70287,209.216734 238.984607,209.231774 248.455354,207.140684 C251.954899,206.368003 255.967317,205.21979 259.661169,204.67291 C278.574708,201.872731 302.008843,202.529733 302.893906,201.962456 C306.832062,199.438314 396.317507,155.369866 416.768578,146.070606 C422.944482,143.262375 429.33045,142.818526 434.977594,146.424535 C437.172517,147.826113 453.052722,161.499506 470.71322,174.592689 C471.318309,175.041291 471.943942,174.139807 472.554589,174.592689 C499.975893,194.929476 543.718183,228.530973 543.718183,228.530973 L553.309982,216.13574 L565.315802,246.60156 C565.315802,246.60156 575.750966,258.423789 587.505437,272.128184 C589.295229,274.214881 593.935154,269.989303 595.753941,272.128184 C600.818377,278.083929 624.03625,322.417105 624.611798,322.969402 C624.763581,323.115054 623.16042,325.442893 623.313715,325.588748 C638.543825,340.079698 663.090077,353.55634 663.090077,353.55634 L739.137931,272.664059 C739.137931,272.664059 737.409045,272.141027 735.122953,266.419499 C732.836862,260.697971 729.418316,254.99164 730.293631,248.273403 C731.153316,241.675131 734.262817,230.855917 737.363259,232.287302 C740.463701,233.718688 736.972336,239.242715 737.363259,245.481037 C737.594816,249.176204 739.194882,251.51309 740.463701,251.51309 C742.336222,251.51309 745.233251,239.460546 747.643899,228.530973 C749.62436,219.551814 751.040063,211.309769 753.315,211.309769 C755.83469,211.309769 754.86828,219.923008 754.195656,226.029754 C753.521792,232.147756 753.141211,235.759287 755.131323,235.759287 C757.222343,235.759287 759.544022,226.690874 761.425199,218.081434 C763.121518,210.318018 764.319669,202.919299 767.124176,203.028719 C770.006839,203.141188 768.985896,210.319193 767.670364,218.081434 C766.286691,226.245731 764.559074,235.028618 765.952066,235.759287 C767.402332,236.52 769.739931,228.846826 772.12627,221.692719 C774.211248,215.442074 776.246337,209.562071 778.899374,210.384806 C781.436268,211.171524 779.213183,217.360159 777.338878,224.199232 C775.009643,232.698281 772.65079,242.092681 773.972258,242.092681 C775.246577,242.092681 777.945747,237.270828 780.261831,233.035815 C782.280204,229.345174 783.838103,226.094999 786.081437,226.936796 C788.421275,227.814806 786.416511,232.232264 784.298895,236.797438 C782.05649,241.631632 779.62108,246.60156 779.62108,246.60156 L772.12627,269.415107 C772.12627,269.415107 769.651586,274.152127 768.905328,276.328724 C768.15907,278.505321 756.811176,286.423343 756.811176,286.423343 C756.811176,286.423343 695.478158,393.129907 689.658032,401.154501 C683.837907,409.179094 680.786738,410.039228 671.672405,406.61728 C666.159399,404.547439 622.607227,385.287691 589.070527,369.835336 C585.576452,368.225408 582.191461,366.646559 578.969638,365.129829 C578.251332,364.791674 576.519254,366.71218 575.817768,366.380544 C559.9381,358.873236 553.309982,344.947479 553.309982,344.947479 C553.309982,344.947479 503.468727,384.33755 495.369583,392.108987 C487.270439,399.880423 484.008047,412.576069 484.008047,412.576069 C484.008047,412.576069 498.298387,427.601097 517.892812,448.812922 C518.466873,449.434367 515.291368,449.574791 515.868168,450.199135 C538.384183,474.571053 559.973952,498.910789 562.219009,501.116759 C566.484651,505.308134 569.063431,510.785191 565.315802,515.471665 C562.829246,518.581146 553.335869,532.787181 549.910085,536.020142 C546.4843,539.253103 536.133525,540.96023 528.537095,542.202563 C520.450971,542.669267 365.874555,557.945011 365.874555,557.945011 L339.845588,557.945011 C339.845588,557.945011 345.938615,559.941498 343.865687,565.511941 C341.666638,571.421299 342.292886,590.177785 342.021105,599.573929 C341.700849,610.645992 349.779501,624.987491 348.409334,633.122217 C348.010241,635.491648 339.845588,636.236528 339.845588,636.236528 C324.111485,633.122217 316.013849,611.577147 316.013849,611.577147 C316.013849,611.577147 297.167817,558.580849 295.156715,548.040532 C293.145613,537.500215 295.663614,529.35502 300.079391,528.063619 C313.705667,524.078592 348.409334,520.306849 348.409334,520.306849 L437.169903,495.42043 L466.918664,494.249785 C466.918664,494.249785 459.204085,491.21414 445.715557,485.249784 C444.345646,484.644037 438.60484,489.10935 437.169903,488.478858 C419.025515,480.506464 398.273124,464.176933 384.636791,459.645201 C359.3036,451.22628 349.609258,435.05835 346.013069,416.608511 C342.021105,396.12819 368.643602,372.883058 368.643602,372.883058 C387.246401,344.130808 433.588912,306.028044 440.058509,297.991476 C446.528105,289.954908 455.582196,253.766091 451.992971,244.762689 C448.403747,235.759287 442.486463,230.582706 436.504645,216.428362 Z" id="path-5"></path>
    </defs>
    <g id="Icônes" stroke="none" stroke-width="1" fill="none" fill-rule="evenodd">
        <g id="dynamichover">
            <use id="Oval" stroke="#FEDF21" mask="url(#mask-2)" stroke-width="84" xlink:href="#path-1"></use>
            <g id="runner-copy" transform="translate(183.000000, 115.000000)">
                <path d="M400.798288,347.067694 L431.924678,309.284699 C431.924678,309.284699 421.082895,319.1731 392.847027,319.994781 C281.451074,323.236473 61.69279,322.128989 61.6117888,328.176196 C61.5538843,332.499103 271.966407,332.728533 374.371517,336.170167 C395.829229,336.891318 400.798288,347.067694 400.798288,347.067694 Z" id="Path-22" fill="#3CB80E"></path>
                <path d="M347.999171,407.391098 L379.12556,369.608103 C379.12556,369.608103 368.283778,379.496504 340.04791,380.318186 C228.651957,383.559877 0.476387311,380.1862 0.395386077,386.233408 C0.337481534,390.556314 219.16729,393.051938 321.5724,396.493571 C343.030112,397.214722 347.999171,407.391098 347.999171,407.391098 Z" id="Path-22-Copy-2" fill="#505050"></path>
                <path d="M445.082607,291.036394 L465.866967,252.731507 C465.866967,252.731507 455.544883,262.619909 428.662493,263.44159 C322.606272,266.683282 168.533322,265.836743 168.456203,271.883951 C168.401074,276.206858 313.576249,276.175342 411.0726,279.616975 C431.501744,280.338127 445.082607,291.036394 445.082607,291.036394 Z" id="Path-22-Copy" fill="#3CB80E"></path>
                <path d="M544.431334,233.251736 L563.735385,199.622435 L582.667863,158.395803 L642.276201,160.837433 C642.276201,160.837433 650.330838,170.523874 649.570998,176.184254 C648.640653,183.11481 643.556792,192.172364 642.276201,200.69315 C640.334115,213.615389 643.742205,220.723255 642.276201,225.172605 C640.810197,229.621955 633.5321,227.231665 633.5321,227.231665 C633.5321,227.231665 617.585305,255.397503 612.069828,255.397503 C606.554351,255.397503 600.020925,248.8875 600.020925,248.8875 L591.725361,289.343568 L544.431334,233.251736 Z" id="Path-20" fill="#F69145"></path>
                <path d="M554.624088,215.056917 C554.624088,215.056917 568.518231,212.227527 573.714313,201.526688 C578.102616,192.489393 585.850404,174.928167 595.060762,169.686798 C600.011927,166.869222 615.558989,164.321068 629.55161,166.803728 C641.588632,168.939413 649.881887,173.655645 649.881887,173.655645 L666.690536,164.595157 C666.690536,164.595157 649.265804,161.70176 642.405282,157.762433 C640.867976,156.879709 651.253824,155.509683 649.881887,154.543485 C641.212908,148.43828 627.352223,148.062546 623.130944,147.439317 C622.624923,147.364608 635.997219,142.111859 635.484074,142.037845 C627.212351,140.84478 613.55613,142.623309 604.689017,142.037845 C603.067156,141.93076 614.739751,135.312991 613.144767,135.242137 C598.756273,134.602954 580.014643,143.124488 573.714313,147.439317 C556.857765,158.98365 554.624088,215.056917 554.624088,215.056917 Z" id="Path-21" fill="#303030"></path>
                <mask id="mask-4" fill="white">
                    <use xlink:href="#path-3"></use>
                </mask>
                <use id="Path-18" fill="#DF7F36" xlink:href="#path-3"></use>
                <polygon id="Path-19" fill="#3D3D3D" mask="url(#mask-4)" points="295.455375 466.066603 373.25576 520.357171 434.842204 465.992009 344.752166 401.752822"></polygon>
                <path d="M192.417991,645.959496 C192.417991,645.959496 200.693289,647.895676 198.620361,653.466119 C196.421313,659.375477 200.936609,685.204236 200.664828,694.60038 C200.344571,705.672443 218.763171,719.489386 217.393004,727.624113 C216.993911,729.993544 207.395706,730.679659 207.395706,730.679659 C191.661604,727.565348 180.939795,718.498776 177.046927,705.76967 C173.154059,693.040564 152.649815,656.086026 149.401563,645.464721 C146.153311,634.843417 166.621598,616.659973 170.162292,615.577805 C173.702987,614.495637 168.972215,622.246485 175.646288,630.135067 C182.32036,638.023649 192.417991,645.959496 192.417991,645.959496 Z" id="Path-14-Copy" fill="#000000" transform="translate(183.259691, 673.077967) rotate(17.000000) translate(-183.259691, -673.077967) "></path>
                <mask id="mask-6" fill="white">
                    <use xlink:href="#path-5"></use>
                </mask>
                <use id="Path-14" fill="#F69145" xlink:href="#path-5"></use>
                <path d="M433.929459,216.231555 C433.929459,216.231555 451.546206,203.203157 457.072647,197.011001 C468.874721,183.787252 481.665548,153.161484 481.665548,153.161484 L548.664439,191.15493 L632.647907,304.610487 C632.647907,304.610487 628.077778,325.68253 607.287629,345.01178 C586.497479,364.341031 472.873054,426.50727 472.873054,426.50727 L357.457158,385.348177 L433.929459,216.231555 Z" id="Path-15" fill="#3BB90D" mask="url(#mask-6)"></path>
                <path d="M354.21358,373.436282 C354.21358,373.436282 420.317501,369.639588 441.38527,380.816761 C468.867775,395.397172 522.308921,447.419015 522.308921,447.419015 C522.308921,447.419015 485.823249,461.149148 471.74707,468.415011 C456.959541,476.048059 435.717798,492.115748 435.717798,492.115748 L325.931943,445.716119 L354.21358,373.436282 Z" id="Path-16" fill="#4F4F4F" mask="url(#mask-6)"></path>
                <path d="M282.825524,527.35291 L322.835219,522.148898 C322.835219,522.148898 334.181981,517.504652 331.489813,529.759486 C329.538929,538.639972 337.587879,557.063336 341.662564,558.731438 C345.73725,560.39954 350.534271,569.441564 353.856591,573.618083 C370.335756,594.334189 351.132013,641.69697 351.132013,641.69697 L320.064855,649.672315 L282.825524,527.35291 Z" id="Path-17" fill="#1D1D1D" mask="url(#mask-6)"></path>
            </g>
        </g>
    </g>
</svg>