<?xml version="1.0" encoding="UTF-8" standalone="no"?>
<svg width="2151px" height="726px" viewBox="0 0 2151 726" version="1.1" xmlns="http://www.w3.org/2000/svg" xmlns:xlink="http://www.w3.org/1999/xlink">
    <!-- Generator: Sketch 40 (33762) - http://www.bohemiancoding.com/sketch -->
    <title>logo-white-big</title>
    <desc>Created with Sketch.</desc>
    <defs></defs>
    <g id="Page-1" stroke="none" stroke-width="1" fill="none" fill-rule="evenodd">
        <g id="logo-white-big" fill="#000000">
            <g id="B">
                <path d="M200.833,323 C311.75,323 401.666,413.079 401.666,524.196 C401.666,635.313 311.75,725.392 200.833,725.392 C89.916,725.392 0,635.313 0,524.196 C0,413.079 89.916,323 200.833,323 Z M321,524.718 C321,591.389 267.05,645.435 200.5,645.435 C133.949,645.435 80,591.388 80,524.718 C80,458.048 133.95,404 200.5,404 C267.05,404 321,458.047 321,524.718 Z" id="Combined-Shape"></path>
                <path d="M80,526 C80,725.392029 201,725.392029 201,725.392029 C201,725.392029 0,725.392029 0,526 L0,0 L80,0 L80,526 Z" id="Shape"></path>
            </g>
            <g id="S">
                <path d="M402.001103,524.196 L321,524.196 C321,635.313 410.916,725.392 521.833,725.392 C632.75,725.392 722.666,635.313 722.666,524.196 C722.666,413.079 632.75,323 521.833,323 L521.293889,404.005922 C521.695459,404.001977 522.097499,404 522.5,404 C589.05,404 643,458.047 643,524.718 C643,591.389 589.05,645.435 522.5,645.435 C455.95,645.435 402,591.388 402,524.718 C402,524.543914 402.000368,524.369913 402.001103,524.196 Z" id="Combined-Shape"></path>
                <path d="M642.999653,202.197 L722.666,202.197 C722.666,91.079 632.75,1.001 521.833,1 C410.916,1 321,91.079 321,202.196 C321,313.313 411.25,404.608 522,404 C522,398.439799 521.971302,362.811218 521.9377,322.998716 C455.646373,322.695847 402,268.862844 402,202.500499 C402,135.95062 455.95,82 522.5,82 C588.948806,82 642.835901,135.785678 642.999626,202.197 Z" id="Combined-Shape"></path>
            </g>
            <path d="M885.2,329.1 C931.4,329.1 958.1,305.1 958.1,264.3 C958.1,231.9 942.5,212.1 911.9,205.8 C937.7,197.4 950,180.6 950,152.1 C950,116.1 925.1,95.4 881.9,95.4 L811.1,95.4 C789.8,95.4 780.8,104.7 780.8,127.8 L780.8,297 C780.8,319.8 789.8,329.1 811.1,329.1 L885.2,329.1 Z M808.7,194.1 L808.7,129.9 C808.7,123.9 811.7,120.3 817.4,120.3 L879.8,120.3 C907.1,120.3 921.2,132.3 921.2,155.7 C921.2,179.7 906.2,194.1 880.4,194.1 L808.7,194.1 Z M808.7,218.7 L881.3,218.7 C911.9,218.7 928.4,233.4 928.4,261.6 C928.4,289.2 912.2,304.2 881.9,304.2 L818.3,304.2 C811.7,304.2 808.7,300.9 808.7,294.3 L808.7,218.7 Z M1028.89461,260.7 L1132.69461,260.7 L1156.39461,322.8 C1158.49461,328.5 1163.29461,331.2 1168.69461,331.2 C1170.49461,331.2 1172.29461,330.9 1174.09461,330.3 C1180.09461,328.8 1184.89461,324.3 1184.89461,318.3 C1184.89461,316.5 1184.59461,315 1183.69461,313.2 L1102.09461,107.7 C1098.19461,97.5 1090.39461,93.6 1080.79461,93.6 C1071.49461,93.6 1063.99461,97.5 1060.09461,107.7 L978.494605,312.6 C977.894605,314.4 977.594605,315.9 977.594605,317.7 C977.594605,323.4 982.094605,328.5 988.094605,330 C990.194605,330.6 991.994605,330.9 994.094605,330.9 C999.194605,330.9 1003.69461,328.5 1005.79461,322.5 L1028.89461,260.7 Z M1037.89461,235.5 L1071.79461,148.5 C1075.39461,139.5 1078.39461,129.9 1081.09461,119.7 C1083.79461,129.9 1087.09461,139.5 1090.39461,148.2 L1123.69461,235.5 L1037.89461,235.5 Z M1282.38921,192.3 C1248.78921,185.7 1238.28921,174.6 1238.28921,153 C1238.28921,133.2 1254.18921,115.8 1288.98921,115.8 C1322.28921,115.8 1334.88921,132.6 1339.68921,149.7 C1342.08921,156 1347.48921,158.4 1352.88921,158.4 C1354.68921,158.4 1356.48921,158.1 1357.98921,157.8 C1363.98921,156.6 1369.08921,152.1 1369.08921,145.8 C1369.08921,144.3 1368.78921,142.8 1368.18921,141.3 C1361.58921,119.7 1342.98921,90.9 1288.98921,90.9 C1232.58921,90.9 1209.18921,121.5 1209.18921,153 C1209.18921,192.3 1229.58921,209.4 1274.58921,218.7 L1298.58921,223.8 C1333.98921,231 1347.48921,241.8 1347.48921,266.4 C1347.48921,292.2 1326.18921,308.7 1291.98921,308.7 C1248.18921,308.7 1238.28921,286.2 1232.88921,266.1 C1231.08921,259.8 1225.38921,257.1 1219.68921,257.1 C1217.88921,257.1 1216.38921,257.4 1214.58921,257.7 C1208.28921,259.2 1203.18921,263.7 1203.18921,270.3 C1203.18921,271.5 1203.48921,272.7 1203.78921,274.2 C1210.98921,298.5 1225.08921,333.9 1293.48921,333.9 C1347.18921,333.9 1376.88921,304.8 1376.88921,266.1 C1376.88921,222.6 1351.38921,206.7 1304.58921,196.8 L1282.38921,192.3 Z M1473.18382,121.8 L1473.18382,318.6 C1473.18382,326.7 1479.48382,330.9 1487.58382,330.9 C1495.68382,330.9 1501.98382,326.7 1501.98382,318.6 L1501.98382,121.8 L1570.08382,121.8 C1576.98382,121.8 1581.48382,115.8 1581.48382,108.9 C1581.48382,101.7 1577.28382,95.4 1570.08382,95.4 L1404.78382,95.4 C1397.58382,95.4 1393.38382,101.7 1393.38382,108.9 C1393.38382,115.8 1397.58382,121.8 1405.08382,121.8 L1473.18382,121.8 Z M1609.07842,318.6 C1609.07842,326.7 1615.07842,330.9 1623.17842,330.9 C1631.57842,330.9 1637.87842,326.7 1637.87842,318.6 L1637.87842,105.9 C1637.87842,97.5 1631.57842,93.6 1623.17842,93.6 C1615.07842,93.6 1609.07842,97.5 1609.07842,105.9 L1609.07842,318.6 Z M1712.87303,219.6 L1815.17303,219.6 C1822.37303,219.6 1826.87303,213.9 1826.87303,207 C1826.87303,199.5 1822.67303,194.1 1815.17303,194.1 L1712.87303,194.1 L1712.87303,132 C1712.87303,124.8 1715.87303,121.5 1723.07303,121.5 L1828.67303,121.5 C1836.47303,121.5 1840.67303,115.8 1840.67303,108.3 C1840.67303,100.8 1836.47303,95.4 1828.67303,95.4 L1715.27303,95.4 C1693.97303,95.4 1684.67303,104.7 1684.67303,127.8 L1684.67303,297 C1684.67303,319.8 1693.97303,329.1 1715.27303,329.1 L1831.37303,329.1 C1839.17303,329.1 1843.37303,323.1 1843.37303,315.9 C1843.37303,308.4 1839.17303,303 1831.37303,303 L1723.97303,303 C1717.37303,303 1712.87303,300.3 1712.87303,293.4 L1712.87303,219.6 Z M2026.06763,196.8 C2026.06763,240 2029.06763,283.5 2030.86763,302.1 C2023.06763,285.3 2006.26763,253.2 1992.46763,230.7 L1916.86763,108 C1911.16763,99 1906.06763,93.6 1892.56763,93.6 C1880.86763,93.6 1873.66763,100.5 1873.66763,111.6 L1873.66763,318.6 C1873.66763,326.7 1879.66763,330.9 1888.06763,330.9 C1896.16763,330.9 1902.16763,326.7 1902.16763,318.6 L1902.16763,226.5 C1902.16763,182.4 1899.76763,140.7 1897.96763,121.5 C1904.86763,136.5 1919.86763,165.9 1931.86763,185.1 L2011.36763,313.8 C2018.86763,325.8 2023.66763,330.9 2036.56763,330.9 C2048.56763,330.9 2054.56763,323.7 2054.56763,312 L2054.56763,105.9 C2054.56763,97.5 2048.86763,93.6 2040.46763,93.6 C2032.06763,93.6 2026.06763,97.5 2026.06763,105.9 L2026.06763,196.8 Z" id="BASTIEN"></path>
            <path d="M847.4,514.697305 C813.8,508.097305 803.3,496.997305 803.3,475.397305 C803.3,455.597305 819.2,438.197305 854,438.197305 C887.3,438.197305 899.9,454.997305 904.7,472.097305 C907.1,478.397305 912.5,480.797305 917.9,480.797305 C919.7,480.797305 921.5,480.497305 923,480.197305 C929,478.997305 934.1,474.497305 934.1,468.197305 C934.1,466.697305 933.8,465.197305 933.2,463.697305 C926.6,442.097305 908,413.297305 854,413.297305 C797.6,413.297305 774.2,443.897305 774.2,475.397305 C774.2,514.697305 794.6,531.797305 839.6,541.097305 L863.6,546.197305 C899,553.397305 912.5,564.197305 912.5,588.797305 C912.5,614.597305 891.2,631.097305 857,631.097305 C813.2,631.097305 803.3,608.597305 797.9,588.497305 C796.1,582.197305 790.4,579.497305 784.7,579.497305 C782.9,579.497305 781.4,579.797305 779.6,580.097305 C773.3,581.597305 768.2,586.097305 768.2,592.697305 C768.2,593.897305 768.5,595.097305 768.8,596.597305 C776,620.897305 790.1,656.297305 858.5,656.297305 C912.2,656.297305 941.9,627.197305 941.9,588.497305 C941.9,544.997305 916.4,529.097305 869.6,519.197305 L847.4,514.697305 Z M1070.29459,413.297305 C1007.89459,413.297305 966.794594,461.597305 966.794594,534.497305 C966.794594,609.197305 1007.89459,656.297305 1072.39459,656.297305 C1125.79459,656.297305 1150.99459,622.697305 1161.49459,592.997305 C1162.09459,591.197305 1162.39459,589.697305 1162.39459,587.897305 C1162.39459,581.597305 1156.99459,577.097305 1151.89459,575.897305 C1149.79459,575.297305 1147.69459,574.997305 1145.89459,574.997305 C1140.19459,574.997305 1134.79459,577.697305 1132.39459,584.297305 C1124.59459,608.297305 1107.49459,629.897305 1071.49459,629.897305 C1026.49459,629.897305 996.794594,592.697305 996.794594,534.797305 C996.794594,475.697305 1026.49459,439.397305 1071.49459,439.397305 C1105.69459,439.397305 1120.69459,457.097305 1129.69459,478.697305 C1132.39459,484.397305 1137.19459,486.497305 1142.29459,486.497305 C1144.69459,486.497305 1147.09459,486.197305 1149.49459,485.297305 C1153.99459,483.797305 1158.79459,479.597305 1158.79459,473.297305 C1158.79459,471.497305 1158.49459,469.397305 1157.59459,467.297305 C1146.79459,440.897305 1123.09459,413.297305 1070.29459,413.297305 L1070.29459,413.297305 Z M1229.58919,583.097305 L1333.38919,583.097305 L1357.08919,645.197305 C1359.18919,650.897305 1363.98919,653.597305 1369.38919,653.597305 C1371.18919,653.597305 1372.98919,653.297305 1374.78919,652.697305 C1380.78919,651.197305 1385.58919,646.697305 1385.58919,640.697305 C1385.58919,638.897305 1385.28919,637.397305 1384.38919,635.597305 L1302.78919,430.097305 C1298.88919,419.897305 1291.08919,415.997305 1281.48919,415.997305 C1272.18919,415.997305 1264.68919,419.897305 1260.78919,430.097305 L1179.18919,634.997305 C1178.58919,636.797305 1178.28919,638.297305 1178.28919,640.097305 C1178.28919,645.797305 1182.78919,650.897305 1188.78919,652.397305 C1190.88919,652.997305 1192.68919,653.297305 1194.78919,653.297305 C1199.88919,653.297305 1204.38919,650.897305 1206.48919,644.897305 L1229.58919,583.097305 Z M1238.58919,557.897305 L1272.48919,470.897305 C1276.08919,461.897305 1279.08919,452.297305 1281.78919,442.097305 C1284.48919,452.297305 1287.78919,461.897305 1291.08919,470.597305 L1324.38919,557.897305 L1238.58919,557.897305 Z M1569.18378,519.197305 C1569.18378,562.397305 1572.18378,605.897305 1573.98378,624.497305 C1566.18378,607.697305 1549.38378,575.597305 1535.58378,553.097305 L1459.98378,430.397305 C1454.28378,421.397305 1449.18378,415.997305 1435.68378,415.997305 C1423.98378,415.997305 1416.78378,422.897305 1416.78378,433.997305 L1416.78378,640.997305 C1416.78378,649.097305 1422.78378,653.297305 1431.18378,653.297305 C1439.28378,653.297305 1445.28378,649.097305 1445.28378,640.997305 L1445.28378,548.897305 C1445.28378,504.797305 1442.88378,463.097305 1441.08378,443.897305 C1447.98378,458.897305 1462.98378,488.297305 1474.98378,507.497305 L1554.48378,636.197305 C1561.98378,648.197305 1566.78378,653.297305 1579.68378,653.297305 C1591.68378,653.297305 1597.68378,646.097305 1597.68378,634.397305 L1597.68378,428.297305 C1597.68378,419.897305 1591.98378,415.997305 1583.58378,415.997305 C1575.18378,415.997305 1569.18378,419.897305 1569.18378,428.297305 L1569.18378,519.197305 Z M1643.87838,565.397305 C1643.87838,625.697305 1677.17838,656.597305 1735.07838,656.597305 C1794.47838,656.597305 1826.57838,624.797305 1826.57838,565.397305 L1826.57838,428.297305 C1826.57838,419.897305 1820.57838,415.997305 1812.17838,415.997305 C1803.77838,415.997305 1797.77838,419.897305 1797.77838,428.297305 L1797.77838,564.197305 C1797.77838,608.297305 1776.17838,630.497305 1734.77838,630.497305 C1694.27838,630.497305 1672.67838,608.597305 1672.67838,564.497305 L1672.67838,428.297305 C1672.67838,419.897305 1666.37838,415.997305 1658.57838,415.997305 C1649.87838,415.997305 1643.87838,419.897305 1643.87838,428.297305 L1643.87838,565.397305 Z" id="SCANU"></path>
        </g>
    </g>
</svg>