<?xml version="1.0" encoding="UTF-8"?>
<svg width="512px" height="512px" viewBox="0 0 512 512" version="1.1" xmlns="http://www.w3.org/2000/svg" xmlns:xlink="http://www.w3.org/1999/xlink">
    <!-- Generator: Sketch 40 (33762) - http://www.bohemiancoding.com/sketch -->
    <title>vader-saber</title>
    <desc>Created with Sketch.</desc>
    <defs></defs>
    <g id="Icônes" stroke="none" stroke-width="1" fill="none" fill-rule="evenodd">
        <g id="vader-saber">
            <g id="Group" transform="translate(248.867063, 252.319201) scale(-1, 1) rotate(-45.000000) translate(-248.867063, -252.319201) translate(229.867063, -59.680799)">
                <path d="M0.922927,433.222243 L0.922927,413.259979 C0.922927,413.259979 3.18305667,404.246938 15.0125713,397.848159 C26.842086,391.44938 36.4930616,393.297714 36.4930616,393.297714 L36.4930616,433.222243 L0.922927,433.222243 Z" id="Fill-10" fill="#000000"></path>
                <path d="M19,0.455401756 C15.845,0.327020371 13.2298209,8.7293777 13.29,17.0662832 L9,429.870791 L29,429.870791 L24.71,17.0662832 C24.7464902,7.95836291 22.03,0.577947623 19,0.455401756 Z" id="Fill-1" fill="#E74C3C"></path>
                <polygon id="Fill-8" fill="#BEBEBE" points="3.15751719 623.72532 3.15751719 522.894504 4.56343814 517.369325 33.6956958 517.369325 35.0525057 522.894504 35.0525057 623.72532"></polygon>
                <polygon id="Fill-8-Copy" fill="#BEBEBE" points="4.55250573 536.226786 4.55250573 429.870791 33.6575172 429.870791 33.6575172 536.226786"></polygon>
                <polygon id="Fill-9" fill="#323232" points="37.664739 499.684845 1.22157966 499.684845 1.22157966 469.741449 37.664739 469.741449"></polygon>
                <path d="M0.922927,433.222243 L0.922927,413.259979 C0.922927,413.259979 8.55369344,416.716564 18.7079943,410.75149 C28.8622952,404.786415 36.4930616,393.297714 36.4930616,393.297714 L36.4930616,433.222243 L0.922927,433.222243 Z" id="Fill-10-Copy" fill="#323232"></path>
                <polygon id="Fill-11" fill="#BEBEBE" points="16 495.372583 21 495.372583 21 473.372583 16 473.372583"></polygon>
                <polygon id="Fill-13" fill="#323232" points="5.89282919 611.874021 0.892829195 611.874021 0.892829195 527.034398 5.89282919 527.034398"></polygon>
                <polygon id="Fill-14" fill="#323232" points="36.3342721 611.976443 31.3342721 611.976443 31.3342721 527.13682 36.3342721 527.13682"></polygon>
                <polygon id="Fill-15" fill="#323232" points="23.6135506 611.925232 13.6135506 611.925232 13.6135506 527.085609 23.6135506 527.085609"></polygon>
            </g>
        </g>
    </g>
</svg>