<?xml version="1.0" encoding="UTF-8"?>
<svg width="1024px" height="1024px" viewBox="0 0 1024 1024" version="1.1" xmlns="http://www.w3.org/2000/svg" xmlns:xlink="http://www.w3.org/1999/xlink">
    <!-- Generator: Sketch 40 (33762) - http://www.bohemiancoding.com/sketch -->
    <title>com</title>
    <desc>Created with Sketch.</desc>
    <defs>
        <linearGradient x1="-6.80049596%" y1="-6.80049596%" x2="85.3553391%" y2="85.3553391%" id="linearGradient-1">
            <stop stop-color="#000000" offset="0%"></stop>
            <stop stop-color="#000000" stop-opacity="0" offset="100%"></stop>
        </linearGradient>
        <path d="M82.4546685,162.90625 C75.9963029,162.90625 70.423442,160.822937 65.7359185,156.65625 C61.0483951,152.489563 58.7046685,146.656287 58.7046685,139.15625 C58.7046685,132.802052 60.9442295,127.333356 65.4234185,122.75 C69.9026076,118.166644 75.4233857,115.875 81.9859185,115.875 C88.5484513,115.875 94.1473537,118.140602 98.7827935,122.671875 C103.418233,127.203148 105.735919,132.697884 105.735919,139.15625 C105.735919,146.55212 103.418233,152.359354 98.7827935,156.578125 C94.1473537,160.796896 88.7046998,162.90625 82.4546685,162.90625 L82.4546685,162.90625 Z M178.833141,162.90625 C172.374775,162.90625 166.801914,160.822937 162.114391,156.65625 C157.426867,152.489563 155.083141,146.656287 155.083141,139.15625 C155.083141,132.802052 157.322702,127.333356 161.801891,122.75 C166.28108,118.166644 171.801858,115.875 178.364391,115.875 C184.926923,115.875 190.525826,118.140602 195.161266,122.671875 C199.796705,127.203148 202.114391,132.697884 202.114391,139.15625 C202.114391,146.55212 199.796705,152.359354 195.161266,156.578125 C190.525826,160.796896 185.083172,162.90625 178.833141,162.90625 L178.833141,162.90625 Z M275.211613,162.90625 C268.753247,162.90625 263.180386,160.822937 258.492863,156.65625 C253.805339,152.489563 251.461613,146.656287 251.461613,139.15625 C251.461613,132.802052 253.701174,127.333356 258.180363,122.75 C262.659552,118.166644 268.18033,115.875 274.742863,115.875 C281.305396,115.875 286.904298,118.140602 291.539738,122.671875 C296.175178,127.203148 298.492863,132.697884 298.492863,139.15625 C298.492863,146.55212 296.175178,152.359354 291.539738,156.578125 C286.904298,160.796896 281.461644,162.90625 275.211613,162.90625 L275.211613,162.90625 Z" id="path-2"></path>
        <filter x="-50%" y="-50%" width="200%" height="200%" filterUnits="objectBoundingBox" id="filter-3">
            <feOffset dx="5" dy="5" in="SourceAlpha" result="shadowOffsetOuter1"></feOffset>
            <feColorMatrix values="0 0 0 0 0   0 0 0 0 0   0 0 0 0 0  0 0 0 0.302819293 0" type="matrix" in="shadowOffsetOuter1"></feColorMatrix>
        </filter>
        <filter x="-50%" y="-50%" width="200%" height="200%" filterUnits="objectBoundingBox" id="filter-4">
            <feOffset dx="3" dy="8" in="SourceAlpha" result="shadowOffsetInner1"></feOffset>
            <feComposite in="shadowOffsetInner1" in2="SourceAlpha" operator="arithmetic" k2="-1" k3="1" result="shadowInnerInner1"></feComposite>
            <feColorMatrix values="0 0 0 0 0   0 0 0 0 0   0 0 0 0 0  0 0 0 0.0837862319 0" type="matrix" in="shadowInnerInner1"></feColorMatrix>
        </filter>
        <path d="M412.032715,481.493164 C402.950638,481.493164 395.113802,478.563506 388.521973,472.704102 C381.930143,466.844697 378.634277,458.641654 378.634277,448.094727 C378.634277,439.159135 381.78366,431.468782 388.08252,425.023438 C394.381379,418.578093 402.144973,415.355469 411.373535,415.355469 C420.602097,415.355469 428.475553,418.541472 434.994141,424.913574 C441.512728,431.285676 444.771973,439.01265 444.771973,448.094727 C444.771973,458.495169 441.512728,466.661591 434.994141,472.594238 C428.475553,478.526885 420.821821,481.493164 412.032715,481.493164 L412.032715,481.493164 Z M547.564941,481.493164 C538.482865,481.493164 530.646029,478.563506 524.054199,472.704102 C517.462369,466.844697 514.166504,458.641654 514.166504,448.094727 C514.166504,439.159135 517.315886,431.468782 523.614746,425.023438 C529.913606,418.578093 537.6772,415.355469 546.905762,415.355469 C556.134323,415.355469 564.00778,418.541472 570.526367,424.913574 C577.044954,431.285676 580.304199,439.01265 580.304199,448.094727 C580.304199,458.495169 577.044954,466.661591 570.526367,472.594238 C564.00778,478.526885 556.354048,481.493164 547.564941,481.493164 L547.564941,481.493164 Z M683.097168,481.493164 C674.015091,481.493164 666.178256,478.563506 659.586426,472.704102 C652.994596,466.844697 649.69873,458.641654 649.69873,448.094727 C649.69873,439.159135 652.848113,431.468782 659.146973,425.023438 C665.445832,418.578093 673.209427,415.355469 682.437988,415.355469 C691.66655,415.355469 699.540006,418.541472 706.058594,424.913574 C712.577181,431.285676 715.836426,439.01265 715.836426,448.094727 C715.836426,458.495169 712.577181,466.661591 706.058594,472.594238 C699.540006,478.526885 691.886274,481.493164 683.097168,481.493164 L683.097168,481.493164 Z" id="path-5"></path>
        <filter x="-50%" y="-50%" width="200%" height="200%" filterUnits="objectBoundingBox" id="filter-6">
            <feOffset dx="5" dy="5" in="SourceAlpha" result="shadowOffsetOuter1"></feOffset>
            <feColorMatrix values="0 0 0 0 0   0 0 0 0 0   0 0 0 0 0  0 0 0 0.0795969203 0" type="matrix" in="shadowOffsetOuter1"></feColorMatrix>
        </filter>
        <filter x="-50%" y="-50%" width="200%" height="200%" filterUnits="objectBoundingBox" id="filter-7">
            <feOffset dx="3" dy="8" in="SourceAlpha" result="shadowOffsetInner1"></feOffset>
            <feComposite in="shadowOffsetInner1" in2="SourceAlpha" operator="arithmetic" k2="-1" k3="1" result="shadowInnerInner1"></feComposite>
            <feColorMatrix values="0 0 0 0 0   0 0 0 0 0   0 0 0 0 0  0 0 0 0.0837862319 0" type="matrix" in="shadowInnerInner1"></feColorMatrix>
        </filter>
    </defs>
    <g id="Icônes" stroke="none" stroke-width="1" fill="none" fill-rule="evenodd">
        <g id="com">
            <circle id="Oval" fill="#FF9300" cx="512.5" cy="512.5" r="439.5"></circle>
            <path d="M951.592743,531.592743 L757.50375,337.50375 L512,585.447831 L195.239775,619.379282 L527.018383,951.764725 C756.680129,944.310768 941.801843,760.656513 951.592743,531.592743 Z" id="Combined-Shape" fill-opacity="0.33" fill="url(#linearGradient-1)"></path>
            <g id="Group" transform="translate(163.000000, 425.000000)">
                <path d="M128.749822,243.41118 C53.8994025,226.746839 -2.84217094e-14,180.013053 -2.84217094e-14,124.966502 C-2.84217094e-14,55.9494086 84.7299687,0 189.249682,0 C293.769395,0 378.499364,55.9494086 378.499364,124.966502 C378.499364,193.983595 293.769395,249.933004 189.249682,249.933004 C182.683948,249.933004 176.196308,249.712221 169.802858,249.281285 L128.749823,291 L128.749823,243.411184 Z" id="Combined-Shape" fill="#3C9BC7"></path>
                <path d="M153.428861,247.697545 C66.0372728,236.642159 1.88021069e-13,185.896661 1.1937118e-12,124.966502 C1.47792889e-12,108.053475 84.7299687,180.356935 189.249682,180.356935 C293.769395,180.356935 378.499364,114.30592 378.499364,124.966502 C378.499364,193.983595 293.769395,249.933004 189.249682,249.933004 C182.683949,249.933004 176.196308,249.712221 169.802858,249.281284 L128.749823,291 L153.428861,247.697545 Z" id="Combined-Shape-Copy-3" fill="#348AB2"></path>
                <g id="...">
                    <use fill="black" fill-opacity="1" filter="url(#filter-3)" xlink:href="#path-2"></use>
                    <use fill="#DAEEFF" fill-rule="evenodd" xlink:href="#path-2"></use>
                    <use fill="black" fill-opacity="1" filter="url(#filter-4)" xlink:href="#path-2"></use>
                </g>
                <path d="M327.514479,210.295714 C204.657079,196.788227 111,126.273771 111,41.3148255 C111,30.5787266 112.4956,20.0732902 115.356728,9.88440562 C138.059207,3.5204059 163.031847,2.84217094e-14 189.249682,2.84217094e-14 C293.769395,2.84217094e-14 378.499364,55.9494086 378.499364,124.966502 C378.499364,157.956334 359.140318,187.960471 327.514479,210.295714 Z M128.749823,242.493325 L128.749823,291 L181.257362,237.641044 L128.749823,242.493325 Z" id="Combined-Shape" fill-opacity="0.18" fill="#000000"></path>
            </g>
            <path d="M458.501326,595.688975 C355.889935,572.844063 282,508.777371 282,433.314825 C282,338.70026 398.155126,262 541.439736,262 C684.724345,262 800.879471,338.70026 800.879471,433.314825 C800.879471,527.929391 684.724345,604.629651 541.439736,604.629651 C532.438864,604.629651 523.545048,604.326983 514.780357,603.736218 L458.501327,660.92782 L458.501327,595.68898 Z" id="Combined-Shape-Copy-2" fill="#DAEEFF" transform="translate(541.439736, 461.463910) scale(-1, 1) translate(-541.439736, -461.463910) "></path>
            <path d="M458.566836,595.79515 C354.58012,573.040918 278.067802,508.883762 282.065509,433.314825 C283.072334,414.282748 399.656652,512 542.941261,512 C686.225871,512 800.108699,412.03071 800.944981,433.314825 C804.662089,527.918588 684.789854,604.629651 541.505245,604.629651 C520.054193,604.629651 499.099027,602.910224 478.988844,599.668779 L458.566836,660.92782 L458.566836,595.79515 Z" id="Combined-Shape-Copy-4" fill-opacity="0.76" fill="#CEE2F2" transform="translate(541.472490, 545.634749) scale(-1, 1) translate(-541.472490, -545.634749) "></path>
            <g id="...">
                <use fill="black" fill-opacity="1" filter="url(#filter-6)" xlink:href="#path-5"></use>
                <use fill="#3C9BC6" fill-rule="evenodd" xlink:href="#path-5"></use>
                <use fill="black" fill-opacity="1" filter="url(#filter-7)" xlink:href="#path-5"></use>
            </g>
        </g>
    </g>
</svg>