<?xml version="1.0" encoding="UTF-8"?>
<svg width="1024px" height="1024px" viewBox="0 0 1024 1024" version="1.1" xmlns="http://www.w3.org/2000/svg" xmlns:xlink="http://www.w3.org/1999/xlink">
    <!-- Generator: Sketch 40 (33762) - http://www.bohemiancoding.com/sketch -->
    <title>curioushover</title>
    <desc>Created with Sketch.</desc>
    <defs>
        <circle id="path-1" cx="512.5" cy="512.5" r="439.5"></circle>
        <mask id="mask-2" maskContentUnits="userSpaceOnUse" maskUnits="objectBoundingBox" x="0" y="0" width="879" height="879" fill="white">
            <use xlink:href="#path-1"></use>
        </mask>
        <rect id="path-3" x="161.222953" y="35.6915961" width="40.1524443" height="138.304935"></rect>
        <mask id="mask-4" maskContentUnits="userSpaceOnUse" maskUnits="objectBoundingBox" x="0" y="0" width="40.1524443" height="138.304935" fill="white">
            <use xlink:href="#path-3"></use>
        </mask>
        <rect id="path-5" x="0.613175822" y="57.9988437" width="40.1524443" height="93.6904398"></rect>
        <mask id="mask-6" maskContentUnits="userSpaceOnUse" maskUnits="objectBoundingBox" x="0" y="0" width="40.1524443" height="93.6904398" fill="white">
            <use xlink:href="#path-5"></use>
        </mask>
        <rect id="path-7" x="395.445545" y="14.4008151" width="53.5365924" height="181.322097"></rect>
        <mask id="mask-8" maskContentUnits="userSpaceOnUse" maskUnits="objectBoundingBox" x="0" y="0" width="53.5365924" height="181.322097" fill="white">
            <use xlink:href="#path-7"></use>
        </mask>
        <rect id="path-9" x="627.437446" y="1.11536238" width="53.5365924" height="210.321519"></rect>
        <mask id="mask-10" maskContentUnits="userSpaceOnUse" maskUnits="objectBoundingBox" x="0" y="0" width="53.5365924" height="210.321519" fill="white">
            <use xlink:href="#path-9"></use>
        </mask>
    </defs>
    <g id="Icônes" stroke="none" stroke-width="1" fill="none" fill-rule="evenodd">
        <g id="curioushover">
            <use id="Oval" stroke="#0F5186" mask="url(#mask-2)" stroke-width="84" xlink:href="#path-1"></use>
            <g id="téléscope" transform="translate(133.000000, 177.000000)">
                <g id="pied" transform="translate(201.673152, 248.666667)">
                    <path d="M1.09720112,475.858186 C-7.46411373,471.34417 128.609941,74.9101936 134.100885,59.8318734 C139.59183,44.7535533 162.420899,49.9528309 156.818575,68.7034991 C151.216252,87.4541672 9.65851598,480.372202 1.09720112,475.858186 Z" id="Path-7" fill="#5C5C5C"></path>
                    <path d="M365.988743,447.983312 C356.306501,450.028463 144.724249,80.7421975 136.90361,66.5014801 C129.082972,52.2607626 149.563509,41.8887945 160.17075,58.8400281 C170.77799,75.7912617 375.670985,445.938162 365.988743,447.983312" id="Path-7-Copy" fill="#676767"></path>
                    <path d="M143.749725,496.226405 C134.079405,494.137067 133.957999,79.622355 134.254984,63.7742814 C134.551969,47.9262079 158.091756,46.9587577 158.89482,66.3476931 C159.697885,85.7366285 153.420046,498.315743 143.749725,496.226405" id="Path-7-Copy-2" fill="#757575"></path>
                    <ellipse id="Oval-4" fill="#989898" transform="translate(145.520906, 50.174474) rotate(-22.000000) translate(-145.520906, -50.174474) " cx="145.520906" cy="50.1744738" rx="37.9863813" ry="37.9907407"></ellipse>
                </g>
                <g id="lunette" transform="translate(354.987213, 230.975549) rotate(-23.000000) translate(-354.987213, -230.975549) translate(14.491105, 124.601475)">
                    <rect id="Rectangle-4" fill="#D8D8D8" x="0.613175822" y="66.9217427" width="176.224617" height="75.8446418"></rect>
                    <path d="M0.0432917854,104.844064 C0.0432917854,104.844064 135.184055,104.844064 145.153564,104.844064 C155.123073,104.844064 155.826326,66.7146497 161.222953,66.7146497 C161.222953,70.3155604 161.222953,142.766384 161.222953,142.766384 L0.0432917854,142.766384 L0.0432917854,104.844064 Z" id="Rectangle-4-Copy" fill-opacity="0.065698596" fill="#000000"></path>
                    <rect id="Rectangle-4-Copy-3" fill="#D8D8D8" x="161.140799" y="44.7519441" width="234.366416" height="120.305639"></rect>
                    <path d="M161.140799,104.904764 C161.140799,104.904764 368.280219,104.904764 376.796001,104.904764 C385.311783,104.904764 390.89751,44.4234507 395.507216,44.4234507 C395.507216,50.1352565 395.507216,165.057583 395.507216,165.057583 L161.140799,165.057583 L161.140799,104.904764 Z" id="Rectangle-4-Copy-2" fill-opacity="0.065698596" fill="#000000"></path>
                    <use id="Rectangle" stroke="#FFCC76" mask="url(#mask-4)" stroke-width="2" fill="#F1A411" xlink:href="#path-3"></use>
                    <use id="Rectangle-Copy-3" stroke="#FFCC76" mask="url(#mask-6)" stroke-width="2" fill="#F1A411" xlink:href="#path-5"></use>
                    <rect id="Rectangle-4-Copy-5" fill="#D8D8D8" x="395.445545" y="26.9585693" width="234.366416" height="157.724458"></rect>
                    <path d="M395.445545,106.251463 C395.445545,106.251463 598.436946,106.251463 606.952728,106.251463 C615.46851,106.251463 625.202256,26.9585693 629.811961,26.9585693 C629.811961,34.4469254 629.811961,185.113692 629.811961,185.113692 L395.445545,185.113692 L395.445545,106.251463 Z" id="Rectangle-4-Copy-4" fill-opacity="0.065698596" fill="#000000"></path>
                    <use id="Rectangle-Copy" stroke="#FFCC76" mask="url(#mask-8)" stroke-width="2" fill="#F1A411" xlink:href="#path-7"></use>
                    <use id="Rectangle-Copy-2" stroke="#FFCC76" mask="url(#mask-10)" stroke-width="2" fill="#F1A411" xlink:href="#path-9"></use>
                </g>
            </g>
        </g>
    </g>
</svg>