<?xml version="1.0" encoding="UTF-8"?>
<svg width="512px" height="512px" viewBox="0 0 512 512" version="1.1" xmlns="http://www.w3.org/2000/svg" xmlns:xlink="http://www.w3.org/1999/xlink">
    <!-- Generator: Sketch 40 (33762) - http://www.bohemiancoding.com/sketch -->
    <title>luke-saber</title>
    <desc>Created with Sketch.</desc>
    <defs></defs>
    <g id="Icônes" stroke="none" stroke-width="1" fill="none" fill-rule="evenodd">
        <g id="luke-saber">
            <g id="Group-2" transform="translate(264.362053, 263.412907) rotate(45.000000) translate(-264.362053, -263.412907) translate(-64.637947, 241.912907)">
                <path d="M215.435993,-193.374442 C212.280993,-193.502823 209.665814,-185.100466 209.725993,-176.763561 L205.435993,236.040947 L225.435993,236.040947 L221.145993,-176.763561 C221.182483,-185.871481 218.465993,-193.251896 215.435993,-193.374442 Z" id="Fill-1" fill="#44E73C" transform="translate(215.435993, 21.332526) rotate(-90.000000) translate(-215.435993, -21.332526) "></path>
                <path d="M444.698445,14.5441176 L429.528074,14.5441176 L429.528074,28.4558824 L444.698445,28.4558824 L444.698445,35.4117647 L454.179926,35.4117647 L454.179926,7.58823529 L444.698445,7.58823529 L444.698445,14.5441176 Z" id="Combined-Shape" fill="#DAAC93"></path>
                <path d="M454.179926,4.42647059 L456.076223,4.42647059 L456.076223,37.9411765 L454.179926,37.9411765 L454.179926,4.42647059 Z M411.829309,5.05882353 L424.471284,5.05882353 L424.471284,37.9411765 L411.829309,37.9411765 L411.829309,5.05882353 Z M424.471284,11.3823529 L429.528074,11.3823529 L429.528074,31.6176471 L424.471284,31.6176471 L424.471284,11.3823529 Z M401.715729,8.8817842e-14 L404.876223,8.8817842e-14 L404.876223,43 L401.715729,43 L401.715729,8.8817842e-14 Z M404.876223,3.79411765 L411.829309,3.79411765 L411.829309,39.2058824 L404.876223,39.2058824 L404.876223,3.79411765 Z" id="Combined-Shape" fill="#D8D8D8"></path>
                <path d="M456.076223,10.75 L459.868815,10.75 L459.868815,31.6176471 L456.076223,31.6176471 L456.076223,10.75 Z M459.868815,14.5441176 L470.614494,14.5441176 L470.614494,28.4558824 L459.868815,28.4558824 L459.868815,14.5441176 Z" id="Combined-Shape" fill="#323232"></path>
                <polygon id="Rectangle-14" fill="#323232" points="470.614494 8.84174841 473.160636 5.05882353 475.641848 5.05882353 478.199679 8.84174841 478.199679 33.5035131 475.684093 37.3019149 473.160636 37.3019149 470.614494 33.5035131"></polygon>
                <polygon id="Rectangle-14-Copy" fill="#323232" points="478.199679 8.84174841 480.745821 5.05882353 483.227033 5.05882353 485.784865 8.84174841 485.784865 33.5035131 483.269278 37.3019149 480.745821 37.3019149 478.199679 33.5035131"></polygon>
                <rect id="Rectangle-10-Copy" fill="#D8D8D8" x="480.728074" y="5.3633521" width="2.52839506" height="31.6409429"></rect>
                <polygon id="Rectangle-14-Copy-2" fill="#323232" points="485.784865 8.84174841 488.331007 5.05882353 490.812218 5.05882353 493.37005 8.84174841 493.37005 33.5035131 490.854463 37.3019149 488.331007 37.3019149 485.784865 33.5035131"></polygon>
                <rect id="Rectangle-10-Copy-2" fill="#D8D8D8" x="488.31326" y="5.3633521" width="2.52839506" height="31.6409429"></rect>
                <polygon id="Rectangle-14-Copy-3" fill="#323232" points="493.37005 8.84174841 495.916192 5.05882353 498.397403 5.05882353 500.955235 8.84174841 500.955235 33.5035131 498.439649 37.3019149 495.916192 37.3019149 493.37005 33.5035131"></polygon>
                <rect id="Rectangle-10-Copy-3" fill="#D8D8D8" x="495.898445" y="5.3633521" width="2.52839506" height="31.6409429"></rect>
                <polygon id="Rectangle-14-Copy-4" fill="#323232" points="500.955235 8.84174841 503.501377 5.05882353 505.982588 5.05882353 508.54042 8.84174841 508.54042 33.5035131 506.024834 37.3019149 503.501377 37.3019149 500.955235 33.5035131"></polygon>
                <rect id="Rectangle-10-Copy-4" fill="#D8D8D8" x="503.48363" y="5.3633521" width="2.52839506" height="31.6409429"></rect>
                <polygon id="Rectangle-14-Copy-5" fill="#323232" points="508.54042 8.84174841 511.086562 5.05882353 513.567774 5.05882353 516.125605 8.84174841 516.125605 33.5035131 513.610019 37.3019149 511.086562 37.3019149 508.54042 33.5035131"></polygon>
                <rect id="Rectangle-10-Copy-5" fill="#D8D8D8" x="511.068815" y="5.3633521" width="2.52839506" height="31.6409429"></rect>
                <polygon id="Rectangle-14-Copy-6" fill="#323232" points="516.125605 8.84174841 518.671747 5.05882353 521.152959 5.05882353 523.71079 8.84174841 523.71079 33.5035131 521.195204 37.3019149 518.671747 37.3019149 516.125605 33.5035131"></polygon>
                <rect id="Rectangle-10-Copy-6" fill="#D8D8D8" x="518.654" y="5.3633521" width="2.52839506" height="31.6409429"></rect>
                <polygon id="Rectangle-14-Copy-7" fill="#323232" points="523.71079 8.84174841 526.256932 5.05882353 528.738144 5.05882353 531.295976 8.84174841 531.295976 33.5035131 528.780389 37.3019149 526.256932 37.3019149 523.71079 33.5035131"></polygon>
                <rect id="Rectangle-10-Copy-7" fill="#D8D8D8" x="526.239186" y="5.3633521" width="2.52839506" height="31.6409429"></rect>
                <polygon id="Rectangle-14-Copy-8" fill="#323232" points="531.295976 8.84174841 533.842118 5.05882353 536.323329 5.05882353 538.881161 8.84174841 538.881161 33.5035131 536.365574 37.3019149 533.842118 37.3019149 531.295976 33.5035131"></polygon>
                <polygon id="Rectangle-14-Copy-9" fill="#323232" points="538.881161 8.84174841 541.427303 5.05882353 543.908514 5.05882353 546.466346 8.84174841 546.466346 33.5035131 543.95076 37.3019149 541.427303 37.3019149 538.881161 33.5035131"></polygon>
                <path d="M626.453624,6.63970588 L657.715729,6.63970588 L657.715729,36.0321865 L626.453624,36.0321865 L626.453624,38.8897059 L545.834247,38.8897059 L545.834247,4.11029412 L626.453624,4.11029412 L626.453624,6.63970588 Z" id="Combined-Shape" fill="#D8D8D8"></path>
                <rect id="Rectangle-11" fill="#323232" x="542.041655" y="5.05882353" width="3.79259259" height="32.25"></rect>
                <rect id="Rectangle-10-Copy-8" fill="#D8D8D8" x="533.824371" y="5.3633521" width="2.52839506" height="31.6409429"></rect>
                <rect id="Rectangle-15" fill="#949494" x="634.960173" y="4.42647059" width="15.8024691" height="6.95588235"></rect>
                <rect id="Rectangle-15-Copy" fill="#949494" x="634.960173" y="17.7058824" width="15.8024691" height="6.95588235"></rect>
                <rect id="Rectangle-15-Copy-2" fill="#949494" x="634.960173" y="31.6176471" width="15.8024691" height="6.95588235"></rect>
                <rect id="Rectangle-16" fill="#D79C73" x="562.268815" y="12.0147059" width="36.6617284" height="19.6029412"></rect>
                <rect id="Rectangle-17" fill="#323232" x="564.165111" y="13.9117647" width="2.52839506" height="15.8088235"></rect>
                <rect id="Rectangle-17-Copy" fill="#323232" x="567.957704" y="13.9117647" width="2.52839506" height="15.8088235"></rect>
                <rect id="Rectangle-17-Copy-2" fill="#323232" x="571.750297" y="13.9117647" width="2.52839506" height="15.8088235"></rect>
                <rect id="Rectangle-17-Copy-3" fill="#323232" x="575.542889" y="13.9117647" width="2.52839506" height="15.8088235"></rect>
                <rect id="Rectangle-17-Copy-4" fill="#323232" x="579.335482" y="13.9117647" width="2.52839506" height="15.8088235"></rect>
                <rect id="Rectangle-17-Copy-5" fill="#323232" x="583.128074" y="13.9117647" width="2.52839506" height="15.8088235"></rect>
                <rect id="Rectangle-17-Copy-6" fill="#323232" x="586.920667" y="13.9117647" width="2.52839506" height="15.8088235"></rect>
                <rect id="Rectangle-17-Copy-7" fill="#323232" x="590.71326" y="13.9117647" width="2.52839506" height="15.8088235"></rect>
                <rect id="Rectangle-17-Copy-8" fill="#323232" x="591.505852" y="13.9117647" width="2.52839506" height="15.8088235"></rect>
                <rect id="Rectangle-10" fill="#D8D8D8" x="473.142889" y="5.3633521" width="2.52839506" height="31.6409429"></rect>
            </g>
        </g>
    </g>
</svg>