<?xml version="1.0" encoding="UTF-8"?>
<svg width="1024px" height="1024px" viewBox="0 0 1024 1024" version="1.1" xmlns="http://www.w3.org/2000/svg" xmlns:xlink="http://www.w3.org/1999/xlink">
    <!-- Generator: Sketch 40 (33762) - http://www.bohemiancoding.com/sketch -->
    <title>webhover</title>
    <desc>Created with Sketch.</desc>
    <defs>
        <circle id="path-1" cx="512.5" cy="512.5" r="439.5"></circle>
        <mask id="mask-2" maskContentUnits="userSpaceOnUse" maskUnits="objectBoundingBox" x="0" y="0" width="879" height="879" fill="white">
            <use xlink:href="#path-1"></use>
        </mask>
        <ellipse id="path-3" cx="58.296967" cy="157.33983" rx="3.71825758" ry="3.69900523"></ellipse>
        <mask id="mask-4" maskContentUnits="userSpaceOnUse" maskUnits="objectBoundingBox" x="0" y="0" width="7.43651515" height="7.39801046" fill="white">
            <use xlink:href="#path-3"></use>
        </mask>
        <rect id="path-5" x="0" y="0" width="101.986494" height="135.277906" rx="0.2"></rect>
        <rect id="path-7" x="0" y="0" width="48.1674447" height="84.7532443" rx="0.2"></rect>
        <rect id="path-9" x="0" y="0" width="190.690756" height="119.723545" rx="0.2"></rect>
    </defs>
    <g id="Icônes" stroke="none" stroke-width="1" fill="none" fill-rule="evenodd">
        <g id="webhover">
            <use id="Oval" stroke="#2B83AF" mask="url(#mask-2)" stroke-width="84" xlink:href="#path-1"></use>
            <g id="Group-3-Copy" transform="translate(169.000000, 99.000000)">
                <path d="M481.975938,273.246911 C455.64592,229.468893 407.619639,200.173516 352.73803,200.173516 C282.515993,200.173516 223.517277,248.13496 206.830473,313.028333 C202.209364,312.152579 197.440143,311.694304 192.563682,311.694304 C156.014279,311.694304 125.489172,337.438368 118.197687,371.749871 C76.0588889,383.37811 45.1184211,421.923775 45.1184211,467.682242 C45.1184211,522.646567 89.7606385,567.203957 144.829604,567.203957 C145.301826,567.203957 145.773281,567.200681 146.243948,567.19415 L547.210196,567.203957 L547.210196,567.142552 C548.383758,567.183376 549.562498,567.203957 550.746053,567.203957 C605.815019,567.203957 650.457237,522.646567 650.457237,467.682242 C650.457237,429.83426 629.289745,396.920817 598.126171,380.092093 C598.12642,379.996986 598.126545,379.901849 598.126545,379.806684 C598.126545,320.74927 550.159907,272.873776 490.99006,272.873776 C487.954206,272.873776 484.947844,272.999807 481.975938,273.246911 Z" id="Combined-Shape" stroke="#FF9300" stroke-width="10" fill="#F4F4F4"></path>
                <path d="M78.0893795,276.179539 L207.456478,414.908767 L81.4650974,234.974428 L86.5957072,231.381937 L238.148994,447.822461 L271.903959,484.020229 L120.827791,222.348629 L126.251983,219.21697 L262.07946,454.477061 L144.542292,213.490155 L150.171726,210.744498 L296.126083,509.995277 L418.350073,641.06446 L413.769372,645.336033 L305.517066,529.249647 L306.973631,532.236046 L352.640148,611.332775 L389.953492,664.621752 L385.291311,667.886247 L390.696062,677.247551 L385.271869,680.37921 L347.352687,614.701259 L346.831723,613.957245 L382.021034,686.106025 L376.391601,688.851683 L360.174974,655.602672 L357.615867,657.531097 L73.284815,280.211047 L53.0685161,258.531721 L55.3471051,256.406902 L39.3230282,235.142234 L44.3251364,231.372875 L78.0893795,276.179539 Z M114.149978,324.033569 L233.269596,451.77372 L323.866888,581.160062 L353.147195,641.193588 L114.149978,324.033569 Z M285.825472,508.132997 L263.962112,484.687414 L306.315398,545.174174 L301.440078,535.178288 L285.825472,508.132997 Z" id="Combined-Shape" fill="#2B83AF" opacity="0.53662817" transform="translate(228.836551, 449.798090) rotate(3.000000) translate(-228.836551, -449.798090) "></path>
                <path d="M308.49783,366.764832 L437.864928,505.49406 L311.873548,325.559722 L317.004158,321.96723 L468.557444,538.407754 L502.31241,574.605523 L351.236241,312.933923 L356.660434,309.802264 L492.48791,545.062355 L374.950743,304.075449 L380.580176,301.329791 L526.534533,600.58057 L648.758524,731.649753 L644.177823,735.921326 L535.925517,619.83494 L537.382081,622.82134 L583.048599,701.918068 L620.361943,755.207046 L615.699761,758.47154 L621.104513,767.832845 L615.68032,770.964504 L577.761137,705.286553 L577.240173,704.542539 L612.429484,776.691319 L606.800051,779.436977 L590.583425,746.187965 L588.024318,748.116391 L303.693266,370.796341 L283.476967,349.117014 L285.755556,346.992196 L269.731479,325.727527 L274.733587,321.958168 L308.49783,366.764832 Z M344.558429,414.618863 L463.678046,542.359013 L554.275338,671.745355 L583.555645,731.778881 L344.558429,414.618863 Z M516.233923,598.718291 L494.370563,575.272707 L536.723848,635.759468 L531.848529,625.763582 L516.233923,598.718291 Z" id="Combined-Shape" fill="#2B83AF" opacity="0.53662817" transform="translate(459.245001, 540.383384) rotate(60.000000) translate(-459.245001, -540.383384) "></path>
                <path d="M233.873931,122.479081 L363.241029,261.208309 L237.249649,81.2739704 L242.380259,77.6814787 L393.933546,294.122003 L427.688511,330.319772 L276.612342,68.6481717 L282.036535,65.5165127 L417.864011,300.776603 L300.326844,59.7896977 L305.956277,57.0440397 L451.910634,356.294819 L574.134625,487.364002 L569.553924,491.635575 L461.301618,375.549189 L462.758182,378.535588 L508.4247,457.632317 L545.738044,510.921294 L541.075862,514.185789 L546.480614,523.547093 L541.056421,526.678752 L503.137238,461.000801 L502.616274,460.256787 L537.805585,532.405567 L532.176152,535.151225 L515.959526,501.902214 L513.400419,503.83064 L229.069367,126.510589 L208.853068,104.831263 L211.131657,102.706444 L195.10758,81.4417758 L200.109688,77.6724169 L233.873931,122.479081 Z M269.93453,170.333111 L389.054147,298.073262 L479.651439,427.459604 L508.931746,487.49313 L269.93453,170.333111 Z M441.610024,354.43254 L419.746664,330.986956 L462.099949,391.473717 L457.22463,381.47783 L441.610024,354.43254 Z" id="Combined-Shape-Copy" fill="#2B83AF" opacity="0.53662817" transform="translate(384.621102, 296.097632) rotate(127.000000) translate(-384.621102, -296.097632) "></path>
                <g id="iPad" transform="translate(0.000000, 91.191781)">
                    <ellipse id="Oval-2" fill="#FF9300" cx="123.218589" cy="123.157058" rx="123.218589" ry="123.157058"></ellipse>
                    <g id="Body" transform="translate(64.921622, 43.700892)">
                        <rect id="Rectangle-2" stroke="#CCD2D5" stroke-width="0.6" fill="#EAF0F2" x="0" y="0" width="116.593934" height="164.209411" rx="5.9"></rect>
                        <rect id="Rectangle-3" fill="#DEE3E6" x="7.03813041" y="14.2675916" width="102.517673" height="135.806335" rx="0.2"></rect>
                        <use id="Oval-1" stroke="#CCD2D5" mask="url(#mask-4)" xlink:href="#path-3"></use>
                        <g id="Group" transform="translate(57.234608, 6.076937)">
                            <path d="M1.06235931,1.71739529 C0.696243731,1.71739529 0.39838474,1.42107854 0.39838474,1.05685864 C0.39838474,0.692638729 0.696243731,0.396321989 1.06235931,0.396321989 C1.42847488,0.396321989 1.72633387,0.692638729 1.72633387,1.05685864 C1.72633387,1.42107854 1.42847488,1.71739529 1.06235931,1.71739529" id="Fill-9" fill="#BAC1C4"></path>
                            <path d="M1.06235931,0 C0.476544032,0 0,0.474076589 0,1.05685864 C0,1.63964069 0.476544032,2.11371727 1.06235931,2.11371727 C1.64817458,2.11371727 2.12471861,1.63964069 2.12471861,1.05685864 C2.12471861,0.474076589 1.64817458,0 1.06235931,0 M1.06235931,0.603919221 C1.31383493,0.603919221 1.51765615,0.8066851 1.51765615,1.05685864 C1.51765615,1.30703217 1.31383493,1.50979805 1.06235931,1.50979805 C0.810883683,1.50979805 0.607062461,1.30703217 0.607062461,1.05685864 C0.607062461,0.8066851 0.810883683,0.603919221 1.06235931,0.603919221" id="Fill-11" fill="#D0D8DB"></path>
                        </g>
                    </g>
                    <g id="Screen" transform="translate(72.225343, 58.232698)">
                        <mask id="mask-6" fill="white">
                            <use xlink:href="#path-5"></use>
                        </mask>
                        <use id="Mask" fill="#343434" xlink:href="#path-5"></use>
                    </g>
                </g>
                <g id="Android" transform="translate(533.901316, 213.952816)">
                    <g id="Body">
                        <ellipse id="Oval-4" fill="#FF9300" cx="88.107916" cy="88.0639179" rx="88.107916" ry="88.0639179"></ellipse>
                        <rect id="Rectangle-2" stroke="#CCD2D5" stroke-width="0.6" fill="#EAEFF1" x="60.9468291" y="35.7552749" width="54.3221738" height="105.941555" rx="1.6"></rect>
                        <g id="Group" transform="translate(97.072413, 41.052353)">
                            <path d="M1.07038766,1.72155027 C0.701505313,1.72155027 0.401395373,1.42451664 0.401395373,1.05941555 C0.401395373,0.694314468 0.701505313,0.397280832 1.07038766,0.397280832 C1.43927001,0.397280832 1.73937995,0.694314468 1.73937995,1.05941555 C1.73937995,1.42451664 1.43927001,1.72155027 1.07038766,1.72155027" id="Fill-9" fill="#BAC1C3"></path>
                            <path d="M1.07038766,0 C0.480145322,0 0,0.475223548 0,1.05941555 C0,1.64360756 0.480145322,2.11883111 1.07038766,2.11883111 C1.66063,2.11883111 2.14077532,1.64360756 2.14077532,1.05941555 C2.14077532,0.475223548 1.66063,0 1.07038766,0 M1.07038766,0.605380316 C1.32376371,0.605380316 1.52912523,0.808636757 1.52912523,1.05941555 C1.52912523,1.31019435 1.32376371,1.51345079 1.07038766,1.51345079 C0.81701161,1.51345079 0.611650092,1.31019435 0.611650092,1.05941555 C0.611650092,0.808636757 0.81701161,0.605380316 1.07038766,0.605380316" id="Fill-11" fill="#D0D8DB"></path>
                        </g>
                        <rect id="Rectangle-3" fill="#DEE3E6" x="63.7565967" y="46.0845766" width="48.7026386" height="85.282952" rx="0.2"></rect>
                        <rect id="Rectangle-16" fill="#BAC1C3" x="83.42497" y="38.9335216" width="9.36589203" height="1.05941555" rx="0.4"></rect>
                        <rect id="Rectangle-16" fill="#BAC1C3" x="77.002644" y="41.1847796" width="4.01395373" height="1.85397722" rx="0.926988609"></rect>
                        <rect id="Rectangle-16" fill="#BAC1C3" x="83.42497" y="137.459168" width="9.36589203" height="1.05941555" rx="0.4"></rect>
                    </g>
                    <g id="Screen" transform="translate(64.024194, 46.349430)">
                        <mask id="mask-8" fill="white">
                            <use xlink:href="#path-7"></use>
                        </mask>
                        <use id="Mask" fill="#343434" xlink:href="#path-7"></use>
                    </g>
                </g>
                <g id="Macbook" transform="translate(194.259868, 483.275495)">
                    <g id="Body">
                        <ellipse id="Oval-3" fill="#FF9300" cx="169.591177" cy="169.506489" rx="169.591177" ry="169.506489"></ellipse>
                        <rect id="Rectangle-2" stroke="#CCD2D5" stroke-width="0.6" fill="#EAF0F2" transform="translate(169.524965, 170.289665) rotate(-90.000000) translate(-169.524965, -170.289665) " x="98.9429002" y="65.7976155" width="141.164129" height="208.984099" rx="5.9"></rect>
                        <g id="Group" transform="translate(168.465572, 104.508228)">
                            <path d="M1.19181722,1.72934009 C0.82672388,1.72934009 0.529696544,1.43096241 0.529696544,1.06420929 C0.529696544,0.697456163 0.82672388,0.399078483 1.19181722,0.399078483 C1.55691057,0.399078483 1.8539379,0.697456163 1.8539379,1.06420929 C1.8539379,1.43096241 1.55691057,1.72934009 1.19181722,1.72934009" id="Fill-9" fill="#BAC1C4"></path>
                            <path d="M1.05939309,0 C0.475213471,0 0,0.477373881 0,1.06420929 C0,1.6510447 0.475213471,2.12841858 1.05939309,2.12841858 C1.6435727,2.12841858 2.11878617,1.6510447 2.11878617,1.06420929 C2.11878617,0.477373881 1.6435727,0 1.05939309,0 M1.05939309,0.608119594 C1.31016657,0.608119594 1.5134187,0.812295747 1.5134187,1.06420929 C1.5134187,1.31612283 1.31016657,1.52029898 1.05939309,1.52029898 C0.808619609,1.52029898 0.605367478,1.31612283 0.605367478,1.06420929 C0.605367478,0.812295747 0.808619609,0.608119594 1.05939309,0.608119594" id="Fill-11" fill="#D0D8DB"></path>
                        </g>
                        <rect id="Rectangle-3" fill="#DEE3E6" x="74.0471627" y="110.627432" width="191.220452" height="120.25565" rx="0.2"></rect>
                        <g id="Group-2" transform="translate(42.397794, 241.525174)">
                            <path d="M0.340169785,-2.79035816e-05 C0.225435031,-8.29394411e-05 0.132424136,0.093701381 0.132424136,0.200067804 L0.132424136,1.74506136 C0.132424136,1.74506136 7.1506447,4.31932543 32.0466409,4.65578808 C57.0096251,4.61525667 213.467707,4.65578808 213.467707,4.65578808 C213.467707,4.65578808 244.003109,4.82648767 254.198216,1.6385365 L254.198216,0.320036816 C254.198216,0.210521882 254.110892,0.121700599 253.99047,0.121642835 L0.340169785,-2.79035816e-05 Z" id="Path-37" stroke="#CBD2D4" stroke-width="1.2"></path>
                            <path d="M254.386765,1.59631393 C254.386765,1.59631393 251.766852,4.7889418 197.385072,4.67491938 C179.457843,4.63733131 153.772404,4.63661396 127.392019,4.65254289 C100.700326,4.63661167 74.9588931,4.63726838 57.0016625,4.67491938 C2.61991199,4.7889418 0,1.59631393 0,1.59631393 L127.259595,1.59631393 L254.386765,1.59631393 Z" id="Combined-Shape" fill="#CCD2D5"></path>
                            <rect id="Rectangle-5" fill="#EAEFF1" x="0" y="0" width="254.386765" height="1.59631393" rx="0.2"></rect>
                            <path d="M103.158402,0 L151.360787,0 L151.360787,1.59631393 C151.360787,1.59631393 145.289451,2.12841858 127.354774,2.12841858 C109.420098,2.12841858 103.158402,1.59631393 103.158402,1.59631393 L103.158402,0 Z" id="Rectangle-10" fill="#D9E0E3"></path>
                        </g>
                    </g>
                    <g id="Screen" transform="translate(74.312011, 110.893484)">
                        <mask id="mask-10" fill="white">
                            <use xlink:href="#path-9"></use>
                        </mask>
                        <use id="Mask" fill="#343434" xlink:href="#path-9"></use>
                    </g>
                </g>
            </g>
        </g>
    </g>
</svg>