<?xml version="1.0" encoding="UTF-8"?>
<svg width="133px" height="78px" viewBox="0 0 133 78" version="1.1" xmlns="http://www.w3.org/2000/svg" xmlns:xlink="http://www.w3.org/1999/xlink">
    <!-- Generator: Sketch 40 (33762) - http://www.bohemiancoding.com/sketch -->
    <title>babel</title>
    <desc>Created with Sketch.</desc>
    <defs></defs>
    <g id="Maquette" stroke="none" stroke-width="1" fill="none" fill-rule="evenodd">
        <g id="nav-view-desktop-copy" transform="translate(-1157.000000, -3178.000000)">
            <g id="Built-with" transform="translate(0.000000, 3137.000000)">
                <g id="babel" transform="translate(1157.000000, 41.000000)">
                    <g id="Group" transform="translate(1.000000, 26.000000)">
                        <path d="M90.5282813,4.60122 L90.4988906,4.316 L90.0407578,4.35552 L90.0698906,4.64048 L90.5282813,4.60122 L90.5282813,4.60122 Z M93.6088828,12.0731 L93.6186797,12.2304 L93.9404297,12.20102 C93.9306328,12.10274 93.9695625,11.94544 94.0378828,11.74888 L94.0084922,11.46366 C93.8721094,11.47354 93.7354688,11.67998 93.6088828,12.0731 L93.6088828,12.0731 Z M81.588375,21.48198 C81.5690391,21.21652 80.7499688,20.18432 79.1316797,18.36536 C79.1025469,18.03126 79.6581328,17.52972 80.7986953,16.87114 L84.0548672,14.0101 C84.7860234,13.07592 85.2150234,11.56194 85.3418672,9.45802 L85.3026797,8.97624 C85.1760938,7.52128 84.1329844,6.35128 82.1540156,5.45662 C80.9840625,4.66024 78.87825,4.21772 75.8365781,4.1392 C73.3213594,4.35552 70.0360547,5.2598 65.9902031,6.86244 C64.8787734,7.6687 63.611625,8.47496 62.1882422,9.28096 L62.2075781,9.52692 C62.2954922,9.51704 62.431875,9.4679 62.5878516,9.35974 C62.753625,9.33998 62.8510781,9.41876 62.860875,9.57606 L63.1045078,9.44814 L63.2215547,9.43826 L63.2313516,9.54642 C63.2411484,9.67434 62.3635547,10.37244 60.5892891,11.62096 L60.7259297,11.87654 L60.6088828,11.88642 L60.3162656,11.77826 C60.3260625,11.86666 60.1994766,11.92568 59.9555859,11.94544 L59.9653828,12.0536 L60.2482031,12.40746 C60.1605469,12.41734 60.0239063,12.37808 59.8387969,12.30918 C59.4291328,12.34844 59.0295234,12.56476 58.6299141,12.97764 L58.7956875,12.25016 C59.3902031,9.66446 59.7996094,7.3736 60.0141094,5.38772 L59.9849766,5.2598 C59.5755703,4.99434 59.1757031,4.62072 58.8052266,4.14882 C58.8150234,3.8441 58.8150234,3.6673 58.8052266,3.62778 L58.7760938,3.51962 L58.6590469,3.54926 C57.3723047,5.49588 54.8960156,8.81894 51.2206406,13.51844 C48.4228594,16.86126 46.9798828,18.71948 46.8922266,19.0931 C45.7516641,20.2826 45.2056172,21.00046 45.2641406,21.24616 C44.9619844,21.44272 44.8351406,21.63928 44.8838672,21.8556 C44.7962109,21.87536 44.7376875,21.84598 44.7180938,21.75732 C44.2308281,22.5537 43.5092109,23.06486 42.5442188,23.29106 L41.5302422,23.52714 C41.3938594,23.55652 41.3255391,23.6548 41.3353359,23.82198 L41.3644688,23.9499 L41.7447422,23.86124 L41.7741328,23.9694 L40.9161328,24.30376 L39.3952969,24.65762 L38.5958203,24.70676 C38.4787734,24.8248 39.2295234,24.69714 38.9371641,24.76578 L37.9427813,25.00186 C37.3382109,25.1394 37.0069219,25.09026 36.9483984,24.84456 L36.8313516,24.87394 C36.8509453,24.9821 36.8604844,25.06088 36.8411484,25.12952 L36.782625,24.88382 L35.9831484,25.0705 C35.924625,24.69714 34.8425859,23.3402 32.7465703,21.00046 C32.7076406,20.54806 33.4483359,19.88922 34.9596328,19.03408 L39.2295234,15.24874 C40.1849766,14.0101 40.7503594,12.02396 40.9357266,9.29084 L40.8772031,8.65176 C40.7114297,6.7249 39.3269766,5.1714 36.7241016,3.97202 C35.1836719,2.92006 32.4150234,2.3595 28.4181563,2.2711 C25.1034609,2.55632 20.7747891,3.74582 15.4519922,5.82036 C13.9896797,6.89182 12.3226641,7.95366 10.4509453,9.00562 L10.4800781,9.33998 C10.6069219,9.3301 10.7724375,9.26146 10.9771406,9.14342 C11.1916406,9.12366 11.3086875,9.22194 11.3282813,9.41876 L11.6595703,9.23182 L11.8253438,9.22194 L11.8351406,9.37924 C11.8449375,9.53654 10.6847813,10.45096 8.33533594,12.12224 L8.52044531,12.41734 L8.35492969,12.42722 L7.99399219,12.2993 C8.00378906,12.39758 7.83801563,12.46648 7.49692969,12.49586 L7.51626563,12.67292 L7.90633594,13.10556 C7.77975,13.11544 7.60417969,13.07592 7.37988281,12.9974 C6.61959375,13.0663 5.87864063,13.61672 5.14748438,14.65906 L5.33259375,14.9539 C5.96629688,14.36396 6.33677344,14.06912 6.44402344,14.05924 L6.48295313,14.54102 C6.37570313,14.5509 6.20992969,14.61954 5.98589063,14.73758 L6.3855,15.34728 C7.14040445,14.5243066 7.99537608,13.8008056 8.93010938,13.19396 C9.38824219,13.312 9.631875,13.45942 9.64167188,13.61672 L9.99255469,13.58734 C12.5077734,11.70936 14.9938594,10.35268 17.4603516,9.51704 L17.4894844,9.85114 C17.0313516,10.53936 16.7193984,10.89348 16.553625,10.91298 C16.5732188,11.14906 16.6510781,11.3555 16.7972578,11.53256 C16.8364453,11.95532 15.7152188,14.80648 13.4436328,20.07616 C8.28660938,32.32632 3.9579375,41.39096 0.438796875,47.25084 C0.448335938,47.36862 0.51665625,47.52592 0.6435,47.72274 C1.51103906,47.5163 2.05708594,47.29998 2.29092188,47.09328 L2.47628906,47.07378 L2.50542188,47.40814 L2.82717188,47.3785 L3.15871875,47.19182 C3.16851563,47.2901 3.27576563,47.33924 3.49980469,47.31948 L3.52919531,47.65384 C3.55832813,47.97832 3.37321875,48.46972 2.98314844,49.14832 C2.63226563,49.55132 2.25199219,50.39684 1.85238281,51.68488 L1.86192188,51.84218 L2.18367188,51.81254 C3.58771875,50.22966 4.65016406,48.67616 5.38132031,47.16218 C9.47589844,45.95292 12.5956875,44.76342 14.7597656,43.59342 C16.9338984,43.40648 18.5911172,42.82642 19.7221406,41.87274 L19.7025469,41.69594 L18.8837344,41.94164 L18.6983672,41.9614 L18.6787734,41.78434 C20.2777266,41.53864 21.3793594,41.18452 21.9934688,40.69312 C25.1034609,38.27434 27.4529063,36.5638 29.0420625,35.5511 C32.3077734,33.13258 34.4331797,30.77282 35.3981719,28.48222 C35.5807575,28.4420935 35.7627902,28.3994496 35.9442188,28.3543 C36.4023516,28.3348 36.6557813,28.32492 36.7241016,28.30516 C36.7045078,28.21676 36.7436953,28.16762 36.8313516,28.14786 C37.5625078,28.06934 37.211625,28.197 37.6795547,28.08884 L38.9077734,27.80388 C38.8299141,27.82338 38.8005234,27.8629 38.8201172,27.94142 L39.0052266,27.82338 C38.9662969,27.82338 38.9371641,27.81376 38.9077734,27.80388 L39.1124766,27.75474 L39.0150234,27.81376 C39.1516641,27.83326 39.2978438,27.82338 39.4636172,27.78412 L39.5512734,28.14786 L33.96525,37.1046 L32.7269766,38.66772 L32.1226641,40.71262 L32.2397109,40.68324 L32.8440234,40.42766 L32.6491172,41.22404 L32.7076406,41.45986 L32.8731563,41.6663 C32.7952969,41.68606 32.7661641,41.7352 32.7855,41.8236 L32.8148906,41.95152 L33.0683203,41.8925 C33.4387969,41.56802 33.5947734,41.27318 33.53625,41.00772 C33.9358594,41.07636 34.1990859,41.106 34.3357266,41.06674 L34.3648594,41.1944 C34.1212266,41.25342 33.9943828,41.44998 33.9747891,41.78434 L34.0041797,41.91226 L34.1405625,41.88262 C36.1685156,39.65078 41.1404297,32.01172 45.1277578,26.83044 C45.0009141,26.27014 47.0773359,25.49326 51.3668203,24.49044 L51.5034609,24.46106 C51.6594375,25.1394 51.3278906,26.7813 50.5090781,29.38676 C49.982625,30.95976 49.7291953,31.82504 49.768125,31.96258 C49.0856953,34.05662 48.7639453,35.18736 48.802875,35.36442 L47.2820391,40.38814 C46.2974531,42.96422 45.5469609,45.66796 45.0205078,48.51912 C45.1081641,48.49936 45.2445469,48.50924 45.4397109,48.55838 L45.6539531,48.37144 C45.6735469,48.4601 45.7320703,48.48948 45.8197266,48.46972 L45.7320703,48.10598 L46.3949063,48.08648 C46.5898125,48.03734 46.7555859,47.79138 46.8922266,47.33924 C46.8628359,46.6609 46.9994766,46.29716 47.3016328,46.21838 C47.7110391,44.60612 47.9644688,43.79986 48.0523828,43.77022 C48.4323984,42.16784 48.7152188,41.25342 48.9003281,41.02722 C49.4757656,38.94306 49.8947109,37.87134 50.1677344,37.80244 L50.2262578,38.05828 L49.8070547,39.1495 C49.0758984,42.42342 48.3349453,45.00912 47.5844531,46.9066 L47.7989531,47.8504 L47.9353359,47.82102 C49.7485313,43.88826 52.3612031,36.10178 55.7635547,24.46106 C55.8612656,23.43848 56.3485313,22.6421 57.2163281,22.0818 L57.0211641,21.87536 L56.9920313,21.7672 C57.3821016,21.6788 57.6548672,21.5215 57.8108438,21.30518 C57.7915078,21.21652 57.4501641,21.08886 56.7873281,20.9118 L58.4837344,13.57746 C58.8539531,13.2431 59.0684531,13.0663 59.1367734,13.0663 L59.1661641,13.43992 C59.07825,13.44954 58.9418672,13.49868 58.7858906,13.60684 L59.1076406,14.06912 C59.6923594,13.43004 60.3260625,12.87936 61.0182891,12.41734 C61.3691719,12.51562 61.5447422,12.63366 61.5643359,12.7517 L61.8177656,12.73194 C63.7480078,11.30636 65.6393203,10.28378 67.5012422,9.66446 L67.5208359,9.91016 C67.17975,10.4312 66.9456563,10.69666 66.8188125,10.70654 C66.8384063,10.8836 66.8871328,11.0409 66.9747891,11.17844 C67.0041797,11.50292 66.1657734,13.66586 64.4500313,17.67714 C60.5307656,26.96798 57.2454609,33.8403 54.5742656,38.30398 C54.5840625,38.39238 54.6425859,38.51042 54.7498359,38.66772 C55.402875,38.51042 55.8220781,38.34324 55.9878516,38.18594 L56.1048984,38.17606 L56.1244922,38.42202 L56.3972578,38.40226 L56.6411484,38.27434 C56.6506875,38.34324 56.7386016,38.37288 56.904375,38.363 L56.9237109,38.62846 C56.9433047,38.86428 56.8069219,39.2379 56.5045078,39.74906 C56.2219453,40.05404 55.9293281,40.69312 55.617375,41.6663 L55.6271719,41.79422 L55.8806016,41.77446 C56.9433047,40.57508 57.7523203,39.3952 58.3081641,38.23508 C61.4178984,37.31104 63.7869375,36.41638 65.4248203,35.53134 C67.0918359,35.38392 68.3494453,34.95128 69.2074453,34.2238 L69.1976484,34.09614 L68.5639453,34.28282 L68.4275625,34.2927 L68.4177656,34.16478 C69.6266484,33.98798 70.4748516,33.71264 70.9329844,33.3489 C73.2922266,31.52006 75.0762891,30.21252 76.2851719,29.44578 C80.0482031,26.68302 81.802875,24.02842 81.588375,21.48198 L81.588375,21.48198 Z M80.9451328,21.64916 L81.0327891,22.6421 C80.9157422,22.88806 80.7891563,23.01572 80.6721094,23.0256 L80.5259297,21.33456 C80.7986953,21.43284 80.9353359,21.53112 80.9451328,21.64916 L80.9451328,21.64916 Z M7.12645313,13.64636 L6.96067969,13.65598 L6.93154688,13.35126 L7.60417969,13.29224 L7.61397656,13.44954 C7.50672656,13.45942 7.34095313,13.51844 7.12645313,13.64636 L7.12645313,13.64636 Z M3.84114844,46.78856 C3.45107813,46.61176 3.10019531,46.54286 2.79803906,46.57224 L2.75885156,46.09046 C2.73951563,45.90378 2.84676563,45.77586 3.08060156,45.72672 C3.29510156,45.70722 3.42194531,45.86452 3.44128125,46.17912 C4.00692188,45.48102 4.318875,45.12716 4.37739844,45.11728 L4.73807813,45.2647 C4.62103125,46.24802 4.318875,46.7493 3.84114844,46.78856 L3.84114844,46.78856 Z M38.9469609,9.75286 C38.7811875,9.77262 38.4496406,9.25158 37.9719141,8.21912 L37.9427813,7.9144 C38.2547344,7.88502 38.5764844,8.39618 38.9175703,9.44814 L38.9469609,9.75286 L38.9469609,9.75286 Z M38.4787734,6.08582 L38.3423906,6.4103 L33.5751797,4.40466 C36.7532344,4.51282 38.3911172,5.07312 38.4787734,6.08582 L38.4787734,6.08582 Z M18.3474844,23.51726 L17.6748516,23.57628 L17.6454609,23.2713 L18.3180938,23.21254 L18.3474844,23.51726 L18.3474844,23.51726 Z M17.8014375,13.04654 L17.9672109,13.03666 L18.0061406,13.51844 C17.8501641,13.52832 17.6454609,13.76414 17.3920313,14.21654 L17.3626406,13.88218 C17.6650547,13.51844 17.8210313,13.2431 17.8014375,13.04654 L17.8014375,13.04654 Z M16.3878516,16.40886 L16.446375,17.04794 L16.2806016,17.05782 L16.2220781,16.41874 L16.3878516,16.40886 L16.3878516,16.40886 Z M15.6468984,17.6085 L15.9686484,17.57886 C15.9395156,18.10978 15.7933359,18.395 15.5301094,18.4145 L15.3643359,18.42438 C15.5690391,18.07052 15.6664922,17.79518 15.6468984,17.6085 L15.6468984,17.6085 Z M15.0913125,19.27978 L15.2764219,19.26002 L15.2862187,19.41732 L14.9840625,19.92874 L14.6623125,19.95812 L14.6525156,19.80082 C14.9742656,19.77144 15.1204453,19.60426 15.0913125,19.27978 L15.0913125,19.27978 Z M14.5452656,20.78414 L14.4478125,21.59014 L14.2820391,21.60002 L14.2139766,20.80364 L14.5452656,20.78414 L14.5452656,20.78414 Z M9.07628906,36.46552 C8.86178906,37.56662 8.62769531,38.12692 8.3840625,38.14668 L8.37426563,37.98938 C8.31574219,37.44858 8.54983594,36.93742 9.07628906,36.46552 L9.07628906,36.46552 Z M8.07210938,38.65784 L8.08190625,38.81514 C8.10124219,39.03146 8.00378906,39.15938 7.78928906,39.169 L7.77975,39.0117 C7.76015625,38.82502 7.85760938,38.70698 8.07210938,38.65784 L8.07210938,38.65784 Z M7.77975,43.20992 L8.28660938,43.16078 L8.30594531,43.33784 C8.17935938,43.34746 8.01358594,43.41636 7.80888281,43.5344 L7.48713281,43.56378 C7.46753906,43.39686 7.57478906,43.26894 7.77949219,43.20992 L7.77975,43.20992 L7.77975,43.20992 Z M22.2079688,38.71686 C19.3612031,40.13256 17.6843906,41.09612 17.1873281,41.5974 C14.1067266,42.679 12.5760938,43.34746 12.6052266,43.61292 C9.86596875,44.7044 8.0623125,45.51066 7.19477344,46.01194 C6.99007031,46.0317 6.69745313,45.95292 6.30764063,45.77586 C6.25891406,45.21556 6.51234375,44.76342 7.04833594,44.39968 C7.5260625,44.36016 7.98419531,44.42906 8.42299219,44.61574 C8.93010938,44.35028 9.81724219,44.05544 11.0748516,43.74084 L11.0454609,43.40648 L10.0317422,43.49514 C10.1583281,43.31808 11.1331172,42.85606 12.9659063,42.10882 L13.4730234,42.05968 L13.4828203,42.21698 C12.6150234,42.2955 12.1372969,42.55134 12.0300469,43.01336 C12.0496406,43.2198 12.1666875,43.3082 12.3811875,43.2887 C13.0342266,42.87556 13.3559766,42.62986 13.3461797,42.56096 C14.5844531,42.32514 18.0061406,40.51606 23.6117578,37.14386 L23.6411484,37.44858 C23.6509453,37.596 23.1732188,38.00888 22.2079688,38.71686 L22.2079688,38.71686 Z M13.6094063,41.56802 C14.4284766,41.49912 15.1302422,41.16502 15.7152188,40.58496 C15.9490547,40.5652 16.0758984,40.6536 16.0856953,40.86004 C15.6858281,40.89956 14.9157422,41.23366 13.7947734,41.88262 L13.629,41.8925 L13.6094063,41.56802 L13.6094063,41.56802 Z M27.4820391,30.82196 L23.1827578,34.25344 C19.9851094,36.36724 18.2693672,37.42882 18.0257344,37.44858 C12.9367734,40.27036 9.76851562,41.7352 8.54003906,41.84336 L8.35492969,41.86286 C8.51090625,41.28306 10.7724375,36.61294 15.1596328,27.82338 C17.089875,27.6562 20.1315469,26.75192 24.2748516,25.10014 L25.2885703,25.01148 C27.3845859,24.8248 28.9541484,25.23768 29.9877187,26.221 L30.0459844,26.85982 C29.2661016,29.1213 28.4083594,30.43872 27.4820391,30.82196 L27.4820391,30.82196 Z M19.0786406,26.05382 L19.7708672,25.9948 L19.7804063,26.1521 L19.0884375,26.21112 L19.0786406,26.05382 L19.0786406,26.05382 Z M28.7981719,24.39216 L29.3052891,24.34302 C29.7732188,24.56922 30.0168516,24.76578 30.0364453,24.94284 L30.0459844,25.10014 C29.5976484,25.1394 29.1784453,24.90358 28.7981719,24.39216 L28.7981719,24.39216 Z M30.1728281,16.49752 C29.7244922,17.03806 28.4960156,17.96236 26.4876563,19.26002 C25.8248203,19.31904 23.3583281,20.2826 19.0884375,22.1702 C18.8749681,22.0718234 18.6397673,22.0312303 18.4060078,22.05242 L18.3766172,21.74744 C18.3278906,21.12812 18.6009141,20.3515 19.2052266,19.4077 C19.5367734,17.63788 19.8974531,16.62518 20.2973203,16.37948 L23.8556484,8.30778 C23.8164609,7.80624 24.5770078,7.42274 26.1367734,7.15728 L26.6436328,7.10814 L26.6828203,7.57042 C28.2131953,7.33434 29.1686484,7.1968 29.539125,7.16716 C32.3662969,6.92146 33.8384063,7.50152 33.9554531,8.88784 L34.2772031,8.8582 L34.2088828,8.04232 L34.5597656,8.01268 C35.388375,8.47496 35.8369688,9.03526 35.8954922,9.69384 C35.9344219,10.14624 35.6907891,10.70654 35.173875,11.37526 C34.9596328,11.39476 34.8327891,11.23746 34.8131953,10.92286 L34.4623125,10.9525 L34.3844531,11.93556 C32.9512734,14.0985 31.9081641,15.20948 31.2646641,15.2685 C30.6796875,16.08464 30.3190078,16.48764 30.1728281,16.49752 L30.1728281,16.49752 Z M32.3565,22.1507 C32.0641406,21.95388 31.8300469,21.86548 31.6547344,21.87536 L31.6155469,21.39358 L31.9372969,21.3642 L32.6491172,21.78696 C32.67825,22.0129 32.5807969,22.13094 32.3565,22.1507 L32.3565,22.1507 Z M34.6182891,24.85418 C34.9302422,24.9821 35.1156094,25.11964 35.1545391,25.24756 L34.9985625,25.28682 L35.0083594,25.2967 C34.9789688,25.2967 34.9400391,25.30658 34.9106484,25.31646 L34.6768125,25.50314 L34.6182891,24.85418 L34.6182891,24.85418 Z M34.8327891,26.21112 L34.8036563,26.0832 L35.2130625,25.98492 L35.2421953,26.11284 L34.8327891,26.21112 L34.8327891,26.21112 Z M35.817375,27.3221 C36.2365781,27.2532 36.4412812,27.22382 37.2211641,27.04676 L37.2505547,27.17468 L35.7686484,27.51866 C35.7882422,27.44976 35.8075781,27.38112 35.817375,27.3221 L35.817375,27.3221 Z M37.2603516,27.94142 C36.6364453,28.00044 36.7728281,27.92166 35.7784453,28.14786 L35.7490547,28.0202 L36.9873281,27.61694 L37.5821016,27.4794 L37.6403672,27.71522 C37.3771406,27.77424 37.5723047,27.77424 37.2603516,27.94142 L37.2603516,27.94142 Z M38.5764844,27.62682 C38.4300469,27.66608 38.3132578,27.59744 38.2449375,27.43026 L38.6252109,27.3416 C38.7907266,27.30234 38.8979766,27.37124 38.9371641,27.53842 L38.5764844,27.62682 L38.5764844,27.62682 Z M42.1443516,23.75308 L42.1152188,23.62542 L42.7293281,23.478 L42.7878516,23.71382 L42.1443516,23.75308 L42.1443516,23.75308 Z M45.9563672,47.32936 C45.9952969,47.1523 46.0050938,47.02464 45.9855,46.93598 L46.1221406,46.9066 C46.2876563,46.86734 46.3851094,46.92636 46.4242969,47.08366 L46.4534297,47.21132 L45.9563672,47.32936 L45.9563672,47.32936 Z M48.6275625,24.76578 L48.3545391,24.71664 C47.9157422,24.8937 47.5452656,25.02136 47.2431094,25.09026 L46.9896797,25.14928 C46.8435,25.18854 46.7264531,25.12952 46.6679297,24.97222 L48.4519922,24.55934 L49.0369687,24.284 L49.231875,24.5102 C48.9490547,24.56922 48.7443516,24.65762 48.6275625,24.76578 L48.6275625,24.76578 Z M50.0019609,24.32326 L49.9728281,24.1956 C50.0604844,24.17584 50.1775312,24.1072 50.304375,23.97928 L51.5715234,23.68444 L51.6009141,23.8121 C50.9282812,23.97928 50.3920312,24.14646 50.0019609,24.32326 L50.0019609,24.32326 Z M50.197125,21.73756 C50.1092109,21.75732 49.9924219,21.8361 49.8459844,21.95388 C49.8266484,21.86548 49.6510781,21.86548 49.3195313,21.94426 C49.2612656,21.6983 50.197125,21.35432 52.1371641,20.90192 L52.4099297,20.8429 L52.4684531,21.07898 C51.1035938,21.48198 50.3433047,21.70818 50.197125,21.73756 L50.197125,21.73756 Z M53.6092734,18.02138 C53.4726328,19.5845 52.9268438,20.46954 51.9615938,20.69548 L51.9324609,20.56782 L51.0744609,20.90192 L50.6941875,20.99058 C50.4992813,21.03972 50.3237109,21.02984 50.1677344,20.9807 L50.089875,20.63646 C50.0604844,20.5088 51.2987578,18.77824 53.8139766,15.45518 L54.1063359,15.50458 C54.2135859,15.95672 54.0478125,16.79236 53.6092734,18.02138 L53.6092734,18.02138 Z M59.6436328,12.81046 L59.5268438,12.82034 L59.50725,12.57464 L60.0141094,12.5255 L60.0239063,12.65316 C59.93625,12.67292 59.8094063,12.72206 59.6436328,12.81046 L59.6436328,12.81046 Z M57.1578047,37.98938 C56.8651875,37.85158 56.6019609,37.79282 56.3779219,37.81232 L56.3485313,37.4387 C56.3387344,37.31104 56.4168516,37.22238 56.582625,37.17324 C56.7483984,37.15374 56.8458516,37.27152 56.8651875,37.52736 C57.2843906,36.98656 57.5184844,36.71122 57.5672109,36.71122 L57.8304375,36.81938 C57.7329844,37.56662 57.5086875,37.95974 57.1578047,37.98938 L57.1578047,37.98938 Z M83.8112344,9.8709 C83.6843906,9.88078 83.4407578,9.4874 83.0604844,8.69102 L83.0411484,8.44532 C83.2847812,8.42556 83.5382109,8.80906 83.7916406,9.59556 L83.8112344,9.8709 L83.8112344,9.8709 Z M83.4603516,7.059 L83.3433047,7.31458 L79.73625,5.79072 C82.1442188,5.8695 83.3920313,6.29226 83.4603516,7.059 L83.4603516,7.059 Z M68.1643359,20.30236 L67.6572187,20.3515 L67.6378828,20.10554 L68.1447422,20.06628 L68.1643359,20.30236 L68.1643359,20.30236 Z M67.7451328,12.34844 L67.8815156,12.33856 L67.9106484,12.71218 C67.7840625,12.72206 67.6280859,12.89912 67.4427188,13.2431 L67.4233828,12.9974 C67.6476797,12.71218 67.7546719,12.49586 67.7451328,12.34844 L67.7451328,12.34844 Z M66.6824297,14.90476 L66.7213594,15.38654 L66.5849766,15.39642 L66.5457891,14.91464 L66.6824297,14.90476 L66.6824297,14.90476 Z M66.10725,15.81918 L66.3606797,15.79942 C66.3315469,16.2123 66.2242969,16.42862 66.0389297,16.44838 L65.9025469,16.458 C66.0487266,16.18292 66.1170469,15.9666 66.10725,15.81918 L66.10725,15.81918 Z M65.6978438,17.07758 L65.8148906,17.0677 L65.8244297,17.19536 L65.6003906,17.58874 L65.3467031,17.6085 L65.3371641,17.48058 C65.6003906,17.46082 65.7171797,17.32328 65.6978438,17.07758 L65.6978438,17.07758 Z M65.2884375,18.21794 L65.2005234,18.84714 L65.0834766,18.85702 L65.03475,18.2377 L65.2884375,18.21794 L65.2884375,18.21794 Z M61.1255391,30.14362 C60.9597656,30.96964 60.7844531,31.3924 60.5990859,31.4119 L60.5892891,31.30374 C60.5601563,30.89086 60.7354688,30.49774 61.1255391,30.14362 L61.1255391,30.14362 Z M60.3554531,31.80528 L60.3649922,31.91344 C60.3845859,32.09024 60.3067266,32.18878 60.1311563,32.1984 L60.1213594,32.07074 C60.1115625,31.94282 60.1896797,31.85442 60.3554531,31.80528 L60.3554531,31.80528 Z M60.1409531,35.26588 L60.5307656,35.2365 L60.5405625,35.36416 C60.4529063,35.37404 60.3162656,35.42318 60.1602891,35.51184 L59.9068594,35.53134 C59.8970625,35.3938 59.9751797,35.3054 60.1409531,35.26588 L60.1409531,35.26588 Z M71.0889609,31.85442 C68.9442188,32.92614 67.6670156,33.65362 67.2674063,34.02724 C64.9275,34.853 63.7676016,35.36442 63.7869375,35.57086 C61.7105156,36.4065 60.3456563,37.00606 59.7021563,37.38956 C59.5461797,37.39944 59.3218828,37.34042 59.0295234,37.20288 C58.9905938,36.78012 59.1855,36.43588 59.5949063,36.1803 C59.9653828,36.15092 60.3162656,36.20006 60.6380156,36.3376 C61.0280859,36.14104 61.7007188,35.92472 62.6561719,35.67902 L62.6365781,35.43306 L61.8371016,35.49208 C61.9348125,35.35454 62.6853047,35.00042 64.0795547,34.43024 L64.4693672,34.40086 L64.4791641,34.50902 C63.8163281,34.56804 63.4458516,34.7646 63.3677344,35.11846 C63.3775313,35.27576 63.4749844,35.35454 63.6407578,35.33478 C64.1282813,35.0103 64.3621172,34.82362 64.3621172,34.7646 C65.2979766,34.59742 67.8913125,33.22098 72.1516641,30.64516 L72.171,30.89086 C72.1807969,30.99902 71.8201172,31.31362 71.0889609,31.85442 L71.0889609,31.85442 Z M64.5572813,34.01736 C65.1907266,33.95834 65.7269766,33.71264 66.1755703,33.28 C66.3410859,33.26024 66.4387969,33.33902 66.4483359,33.49632 C66.1559766,33.5257 65.5807969,33.77166 64.713,34.24356 L64.5766172,34.25344 L64.5572813,34.01736 L64.5572813,34.01736 Z M75.1054219,25.84738 L71.8590469,28.48222 C69.4314844,30.0846 68.1156094,30.89086 67.9106484,30.91062 C64.0501641,33.0538 61.6519922,34.16478 60.7063359,34.24356 L60.5699531,34.25344 C60.6867422,33.81092 62.4125391,30.26166 65.7465703,23.59578 C67.1990859,23.46812 69.4998047,22.77002 72.6585234,21.51162 L73.4482031,21.44272 C75.0371016,21.30518 76.2266484,21.61978 77.0065313,22.37664 L77.0454609,22.85842 C76.4506875,24.54946 75.8074453,25.5424 75.1054219,25.84738 L75.1054219,25.84738 Z M68.7297188,22.22922 L69.2365781,22.18008 L69.246375,22.308 L68.7395156,22.35714 L68.7297188,22.22922 L68.7297188,22.22922 Z M76.1096016,20.96094 L76.4996719,20.93156 C76.8603516,21.10836 77.0454609,21.26592 77.0552578,21.39358 L77.0650547,21.50174 C76.7237109,21.53112 76.4019609,21.35432 76.1096016,20.96094 L76.1096016,20.96094 Z M77.1331172,14.97366 C76.7920313,15.38654 75.8659688,16.09426 74.3549297,17.07758 C73.8478125,17.12672 71.9760938,17.8542 68.7395156,19.2699 C68.5835391,19.21088 68.4079688,19.19138 68.2226016,19.20126 L68.2032656,18.9553 C68.1643359,18.4834 68.3690391,17.89346 68.817375,17.17586 C69.0708047,15.81918 69.353625,15.06206 69.6459844,14.885 L72.3659063,8.75004 C72.3367734,8.3863 72.9119531,8.09146 74.0819063,7.86526 L74.4717188,7.83588 L74.5011094,8.2095 C75.6514688,8.02256 76.3728281,7.9144 76.6651875,7.88502 C78.8099297,7.69808 79.9311563,8.13072 80.0188125,9.19256 L80.2722422,9.1728 L80.2235156,8.58286 L80.4772031,8.56336 C81.1011094,8.90734 81.4323984,9.32048 81.4715859,9.81188 C81.5007188,10.166 81.3251484,10.59838 80.9546719,11.09992 C80.7891563,11.11942 80.6917031,11.00164 80.6721094,10.74606 L80.4186797,10.76556 L80.3405625,11.50292 C79.2585234,13.16458 78.4688438,14.01998 77.9715234,14.05924 C77.5329844,14.65906 77.2599609,14.96378 77.1331172,14.97366 L77.1331172,14.97366 Z M78.2739375,19.06346 L78.2445469,18.68984 L78.4979766,18.67034 L79.0440234,19.00444 C79.0538203,19.16174 78.9757031,19.2504 78.8099297,19.2699 C78.5760938,19.12248 78.4005234,19.05358 78.2739375,19.06346 L78.2739375,19.06346 Z M32.89275,42.94446 L32.6393203,43.00348 L32.4248203,43.19016 C32.46375,43.34746 32.5612031,43.40648 32.7269766,43.36722 C32.89275,43.32796 32.9610703,43.22968 32.9221406,43.07238 L32.89275,42.94446 L32.89275,42.94446 Z M31.9277578,41.00772 L31.9568906,41.13538 C32.1226641,41.09612 32.1907266,40.99784 32.1517969,40.84054 L32.1226641,40.71262 C31.9666875,40.75214 31.8983672,40.85042 31.9277578,41.00772 L31.9277578,41.00772 Z M38.7907266,24.53958 L39.0833438,24.47094 L39.0248203,24.21536 L38.7324609,24.284 L38.7907266,24.53958 L38.7907266,24.53958 Z M127.252383,32.03148 C124.28857,32.69994 123.918094,32.5819 123.294188,32.63104 L123.313781,32.877 L123.586805,32.85724 L123.732984,32.84736 L123.694055,32.81798 L124.015547,32.69006 C126.949969,32.36558 127.291313,32.48362 127.261922,32.14926 L127.252383,32.03148 L127.252383,32.03148 Z M111.293273,34.16478 L111.312867,34.41074 L111.351797,34.41074 L111.332461,34.16478 L111.293273,34.16478 L111.293273,34.16478 Z M109.460484,27.68584 L109.197258,27.59744 C108.982758,28.1775 108.875508,28.52148 108.885305,28.61976 L108.895102,28.72792 C109.099805,28.71804 109.285172,28.36418 109.460484,27.68584 L109.460484,27.68584 Z M127.856695,31.98234 L127.876289,32.22804 L128.305031,32.30656 L128.285695,32.06086 L127.856695,31.98234 L127.856695,31.98234 Z M107.686219,34.4695 L107.023383,34.39098 L106.906336,34.64656 L106.916133,34.77448 L110.864273,34.44012 L110.844938,34.19442 L107.686219,34.4695 L107.686219,34.4695 Z M105.892359,25.7491 L105.88282,25.62118 L105.74618,25.63106 L105.502547,25.78836 L105.63893,26.02418 C105.824297,26.00468 105.911953,25.91602 105.892359,25.7491 L105.892359,25.7491 Z M129.728414,30.17326 L129.913781,30.1535 C130.021031,30.14362 130.069758,30.05522 130.059961,29.89792 L129.952711,29.66184 C129.280078,29.72086 128.968125,29.7505 128.422078,30.05522 L128.412281,29.92756 L127.603266,30.00608 C127.583672,29.76038 127.515609,29.63246 127.408359,29.64234 L126.989156,29.6816 C126.501633,29.72086 126.267539,29.70136 126.023906,29.88804 C126.014109,29.79964 125.984977,29.76038 125.93625,29.76038 L125.46832,29.79964 L125.195297,29.95694 C125.1855,29.86854 125.156367,29.82902 125.107383,29.82902 L124.941867,29.9767 L124.93207,29.84878 L124.278773,29.79964 L124.122797,29.80952 L124.142391,30.05522 L124.473938,30.14362 L124.785891,30.12412 C124.893141,30.19302 125.00993,30.21252 125.14657,30.20264 L125.419594,30.0651 L125.429133,30.17326 C123.898758,30.55676 123.908297,30.48786 122.855391,30.66492 C122.738602,30.58614 122.650688,30.54688 122.592164,30.55676 L122.572828,30.57626 C122.455781,30.56638 122.387461,30.48786 122.377922,30.35994 L122.923711,30.2913 C122.962641,30.2913 122.992031,30.33056 123.294188,30.38958 C123.732984,30.17326 123.75232,30.0846 123.986414,30.0651 L123.96682,29.81914 C122.465578,30.11424 123.069891,29.91768 121.188375,30.0846 L121.100719,30.09448 L121.081125,29.84878 C123.498891,29.55394 122.689875,29.72086 123.518484,29.48504 C123.528281,29.57344 123.557414,29.6127 123.606141,29.6127 C123.694984,29.521161 123.811746,29.4623764 123.937688,29.44578 L124.103461,29.4359 C124.951406,29.367 125.234227,29.53418 126.911039,29.06228 L126.920836,29.17044 L127.193859,29.03264 L127.447289,29.01314 C127.427695,28.76718 127.798172,28.72792 127.925016,28.71804 L127.905422,28.45258 C124.961203,29.0524 124.191117,28.88522 123.372305,29.1213 L123.362508,29.01314 C122.592422,29.15068 122.563031,29.09166 122.368125,29.10154 C122.309602,29.11142 122.221945,29.16056 122.124234,29.25884 C122.114695,29.17044 122.085305,29.13092 122.026781,29.13092 C121.997648,29.13092 121.987852,29.1408 121.978055,29.1408 L119.48243,29.55368 C119.472633,29.48504 119.4435,29.44578 119.384977,29.4554 C118.088438,29.73074 118.43932,29.77988 116.703984,29.93718 C116.625867,29.94706 116.518875,29.98632 116.382234,30.07498 C116.372438,30.00608 116.333508,29.96682 116.245852,29.97644 L115.183148,30.0651 L114.471586,30.2419 C114.461789,30.17326 114.422859,30.134 114.334945,30.14362 C113.935336,30.25178 113.584453,30.32068 113.301633,30.34044 L113.282039,30.34044 C113.106727,30.35994 113.369953,30.2913 113.233313,30.23228 L113.018813,30.35994 C112.706859,30.38958 112.872633,30.34044 111.800391,30.35006 C109.918875,30.58614 110.123578,30.61552 109.918875,30.6254 L109.216852,30.57626 C109.226648,30.64516 109.187719,30.6943 109.109602,30.6943 C108.310125,30.58614 107.900719,30.45822 107.890922,30.3108 C107.998172,29.54406 108.183539,29.15068 108.446766,29.13092 L108.583148,29.1213 L108.466102,29.37688 L108.602742,29.367 C108.856172,29.22946 108.973219,29.10154 108.963422,28.9835 L108.943828,28.71804 L108.690398,28.7378 L108.670805,28.4921 C108.651469,28.30516 108.680602,28.13798 108.748922,28.00044 L109.324102,27.06652 L109.343695,27.31222 L109.616461,27.29246 L109.597125,27.04676 L109.441148,26.82056 C109.645852,26.64376 109.801828,26.54522 109.928414,26.5356 L109.918875,26.40768 L109.548398,26.43732 L109.519008,26.0637 C110.259961,24.5102 110.610844,23.60566 110.591508,23.35008 L110.854734,23.45824 C111.020508,23.44836 111.098367,23.35008 111.08857,23.17302 L110.835141,23.19278 L110.825344,23.08462 C110.807542,22.9051059 110.841374,22.7242192 110.922797,22.56358 C111.322664,22.14082 111.507773,21.71806 111.468844,21.27554 C111.546961,21.26566 111.585891,21.30518 111.595688,21.39358 C111.936773,21.19702 112.2,20.67598 112.394906,19.8107 C112.999477,18.7096 113.857219,16.5074 114.978445,13.21372 C117.123188,7.39336 117.035531,6.77404 117.337688,5.3976 L117.084258,5.4171 C117.103594,5.59416 117.064664,5.76134 116.986805,5.91864 C116.811234,5.84974 116.674852,5.81048 116.577398,5.82036 L116.567602,5.7122 C116.528414,5.21066 116.733375,4.6111 117.201305,3.90312 L117.318094,3.89324 L117.532594,4.73876 L117.786023,4.71926 C117.776484,4.66024 117.844547,4.32588 117.981188,3.70656 C117.971391,3.57864 117.873938,3.50012 117.678773,3.49024 L117.435141,3.64754 C117.415805,3.47048 117.425344,3.00846 117.454734,2.2711 L117.327891,2.28098 C117.113391,2.06466 117.006141,1.8876 116.996344,1.74018 L115.602352,1.87772 C115.592555,1.77944 115.543828,1.63202 115.446375,1.44534 C115.436578,1.31742 115.748531,1.1895 116.392031,1.06184 L116.674852,1.17 L116.938078,1.0127 C116.947617,1.1011 116.996344,1.14036 117.093797,1.13074 L117.357023,0.97344 C117.36682,1.06184 117.415547,1.1011 117.513258,1.09122 L117.639844,1.0816 L117.62025,0.79638 C117.425344,0.81614 116.908688,0.81614 116.089875,0.7865 L115.826648,0.96356 L115.816852,0.80626 C109.275375,1.3468 105.56107,1.65178 104.673938,1.74018 C104.556891,1.75006 104.098758,1.74018 103.289484,1.72042 C103.299281,1.82858 103.201828,1.8876 103.006922,1.90736 L102.724102,1.77944 L101.768648,2.0254 C101.544352,2.0449 101.164336,2.03502 100.637883,1.97626 C100.491703,2.09404 100.316133,2.16294 100.101633,2.1827 C99.9845859,2.19232 101.495625,2.10392 102.899414,2.00564 C102.753234,2.12368 102.529195,2.19232 102.217242,2.22196 C102.002742,2.24172 101.817375,2.21208 101.661398,2.12368 C101.446898,2.22196 100.75493,2.37926 99.5947734,2.61508 L99.3119531,2.50718 L94.7494453,3.2149 C94.573875,3.1265 94.3691719,3.09686 94.1353359,3.11662 C93.8914453,3.13638 93.4820391,3.22478 92.9166563,3.38208 L90.7133906,4.30612 L90.8791641,4.58146 C90.9864141,4.57158 91.1423906,4.51282 91.3275,4.40466 L92.1076406,4.4733 L92.0099297,5.21066 C91.2885703,5.53514 90.8693672,6.01692 90.7523203,6.62662 C89.6702813,7.10814 89.1340313,7.45238 89.1340313,7.65882 L89.1438281,7.78674 L89.3096016,7.77686 L89.6019609,7.61956 L89.9433047,8.03244 L89.9920313,8.60262 C90.0113672,8.77968 88.188375,12.64354 84.5423906,20.1942 C81.3836719,27.46952 79.7264531,31.45142 79.5704766,32.16902 C78.4884375,32.47374 77.8642734,32.91626 77.6791641,33.5062 C77.6987578,33.69288 78.02025,33.8208 78.6441563,33.86994 L78.6735469,34.1549 L78.3907266,34.6268 L78.4394531,35.19724 C78.4688438,35.49208 79.2585234,35.71828 80.8084922,35.87558 C80.7986953,35.7773 80.8476797,35.71828 80.9546719,35.7084 C80.9840625,36.06226 80.8866094,36.75048 80.6623125,37.77306 L80.8280859,37.76318 C81.4713281,36.8784 81.7737422,36.2687 81.7443516,35.9346 L81.8809922,35.92472 C82.0369688,35.91484 82.2027422,36.0919 82.3976484,36.47514 C82.2027422,36.55392 81.5203125,38.11704 80.3503594,41.1749 L80.5161328,41.44998 L80.6819063,41.44036 C82.1148281,37.78294 83.0117578,35.75754 83.3822344,35.37404 C85.26375,35.20686 88.5199219,34.87276 93.1409531,34.37122 L93.4333125,34.19442 C93.4431094,34.2927 93.5016328,34.34184 93.6088828,34.33196 L93.9110391,34.30258 L94.2036563,34.12552 C94.2131953,34.2238 94.2717188,34.27294 94.3789688,34.26306 L97.8787734,33.95834 C98.8050938,33.87982 99.2436328,33.5946 99.2047031,33.11282 C99.1949063,32.98516 99.7409531,32.83748 100.842586,32.68018 C100.949836,32.6703 101.105813,32.69994 101.320313,32.76884 C101.310516,32.68018 101.866102,32.59178 102.977531,32.4935 C103.006922,31.90356 103.192031,31.58896 103.523578,31.55958 L103.494188,31.27436 C103.182234,31.30374 102.831352,31.38252 102.421945,31.52006 C101.690789,31.4808 101.222859,31.42178 101.027695,31.35288 C100.832789,31.46104 100.686609,31.52006 100.579359,31.52994 L98.142,31.60872 L97.8496406,31.76602 C97.8398438,31.67736 97.7813203,31.6381 97.6740703,31.64798 L97.5376875,31.65786 L97.2257344,31.81516 C97.2159375,31.7265 96.9625078,31.65786 96.4553906,31.58896 L96.1436953,31.77564 L95.539125,31.82478 L95.5293281,31.66748 C98.6684531,31.3235 100.21868,30.89086 100.179492,30.3797 C100.384453,30.35994 100.491703,30.45822 100.511039,30.66492 L101.427563,30.42884 L101.398172,30.14362 L93.8819063,30.35006 C93.8914453,30.4486 93.8427188,30.50736 93.7357266,30.51724 L92.8192031,30.43872 C92.5851094,30.45822 92.3902031,30.52712 92.2342266,30.64516 L91.8931406,30.51724 C90.9474844,30.59602 90.2454609,30.71406 89.7775313,30.86148 C89.1340313,30.81234 88.4224688,30.82196 87.6327891,30.89086 L85.9461797,31.03828 L85.1662969,30.94988 C85.1273672,30.4486 86.0923594,27.98068 88.081125,23.55652 C88.6565625,22.06204 89.1827578,21.12812 89.689875,20.77426 C89.797125,20.76438 89.9531016,20.80364 90.1676016,20.89204 L91.3666875,20.47916 L91.9807969,20.57744 C93.0141094,20.48904 94.2131953,20.1942 95.5878516,19.68278 C95.9291953,19.6534 96.182625,19.67316 96.3677344,19.75168 L97.2842578,19.53536 L100.013977,19.29954 C101.173875,19.20126 102.431484,18.94542 103.796344,18.52266 L103.767211,18.2377 C103.260352,18.28684 102.997125,18.19844 102.977531,17.99174 C102.948398,17.6085 102.577922,17.4512 101.866102,17.50996 L101.836969,17.225 L102.587719,17.00868 L104.556891,16.8415 L104.5275,16.55654 C104.449641,16.56616 104.050031,16.55654 103.309078,16.5269 L103.279688,16.22218 L104.040234,16.15328 C104.244938,16.13378 104.332594,16.03524 104.313258,15.83868 C103.289484,15.86832 102.772828,15.81918 102.763031,15.68138 C95.6267813,16.03524 92.0491172,16.10414 92.0295234,15.87794 C91.9222734,15.88782 91.7760938,15.95672 91.5811875,16.07476 L91.3958203,15.77966 C93.2871328,11.72912 94.3985625,9.68422 94.7203125,9.65458 C94.7298516,9.81188 94.6519922,10.06746 94.4764219,10.4117 L94.4862188,10.53936 L94.788375,10.50998 C95.539125,8.7009 96.1728281,7.76698 96.6992813,7.72772 C98.9414766,7.5309 96.3873281,7.38348 101.183672,6.62662 C101.378836,6.71502 101.515219,6.75428 101.612672,6.7444 C103.494188,6.36116 106.116656,5.9579 109.480078,5.54502 L109.460484,5.2598 L107.666625,5.42698 L107.647289,5.14202 C107.861789,5.12226 108.037102,5.05336 108.183539,4.93558 L108.193078,5.09288 C108.290789,5.083 108.427172,5.0141 108.602742,4.89606 C108.914695,4.86668 109.148531,4.89606 109.314305,4.98472 C109.938211,4.81754 110.44507,4.71926 110.815547,4.67974 L111.936773,4.57158 C112.209797,4.39478 112.336383,4.23748 112.326844,4.09006 L112.317047,3.96214 C112.034227,3.99152 111.712477,3.97202 111.332461,3.90312 C111.322664,3.74582 111.400523,3.63766 111.585891,3.58852 L113.672109,3.39196 L114.627563,3.146 C114.637102,3.25416 114.686086,3.29368 114.763945,3.29368 C114.861398,3.2838 114.998039,3.2149 115.173352,3.09686 C115.222078,3.10674 115.280602,3.10674 115.329328,3.11662 C115.202742,3.38208 115.056305,3.76558 114.910125,4.26686 L114.637102,4.28662 C114.617766,4.09968 114.569039,3.93276 114.481125,3.78508 L114.344742,3.79496 C111.80993,10.91298 110.679164,14.22642 108.339516,19.69266 C107.910516,21.08886 107.549836,21.86548 107.237883,22.03266 C107.24768,22.18996 107.345133,22.26848 107.510906,22.24898 C107.569172,22.9372 107.413195,23.61554 107.03318,24.284 C105.950883,27.43026 105.229523,29.15068 104.859047,29.46528 L105.10268,30.94988 C105.112477,31.10718 105.034617,31.19558 104.868844,31.21534 L104.615414,31.2351 C104.576227,30.82196 104.430047,30.6254 104.16682,30.65504 L104.030438,30.66492 C103.698891,31.18596 103.445461,31.78552 103.279688,32.48362 L103.533117,32.46386 C103.874461,32.23792 104.030438,31.97246 104.001047,31.66748 L104.508164,31.61834 L104.800523,31.7265 C104.566688,32.10012 104.459438,32.39522 104.478773,32.62116 L104.615414,32.85724 L104.283867,33.64374 L104.293664,33.77166 C104.586023,33.74202 104.907773,33.8403 105.249117,34.04674 C105.482953,34.02724 105.736383,33.91908 106.019203,33.73214 C106.311563,33.70276 107.403398,33.69288 109.285172,33.69288 L110.23057,33.3684 C111.381188,33.35852 111.566297,33.38816 112.56068,33.29976 L112.970086,33.26024 L113.184586,33.11282 L113.194383,33.24074 C114.237492,33.15208 114.305813,33.22098 115.124625,33.31926 L115.134422,33.44718 L114.559242,33.49632 L114.578578,33.74202 C114.754148,33.72252 114.910125,33.67312 115.036969,33.56522 C115.183148,33.55534 115.270805,33.63386 115.280602,33.81092 C115.046766,33.83068 114.783539,33.88944 114.490922,33.98798 L114.237492,33.89932 C113.837883,34.00748 113.925539,34.03712 113.652516,34.05662 L113.252906,33.9781 C113.262703,34.04674 113.223516,34.09588 113.155453,34.09588 C113.164992,34.25344 113.252906,34.33196 113.399086,34.32208 L113.808492,34.28282 L115.943438,34.09588 L116.752711,33.91908 C116.762508,33.98798 116.791641,34.02724 116.859961,34.01736 L117.249773,33.86994 L117.981188,33.81092 C118.54657,33.76178 118.536773,33.72252 119.764992,33.5257 C119.755453,33.44718 119.784586,33.41754 119.843109,33.40792 L119.852906,33.51582 C121.851469,33.17184 121.978055,33.15208 122.299805,33.04392 L122.328938,33.10294 C122.826258,32.98516 122.543438,33.01454 122.680078,32.91626 C122.689875,33.00466 122.719008,33.04392 122.767734,33.04392 L123.118617,33.01454 L123.099281,32.74908 L122.387461,32.7392 L122.377922,32.7197 C122.348531,32.72932 122.328938,32.72932 122.299805,32.7392 L122.202352,32.7392 L122.202352,32.75896 C121.724625,32.85724 121.714828,32.78834 121.402875,32.81798 L119.618813,32.91626 L119.609016,32.78834 L120.603398,32.6508 L120.964078,32.62116 L121.169039,32.47374 L121.178578,32.60166 C122.582625,32.48362 123.079688,32.83748 129.572438,31.44154 C129.92332,31.4119 129.894188,31.11706 130.118484,30.50736 C129.999525,30.5155719 129.880803,30.488262 129.777141,30.42884 C129.241148,30.63528 128.958328,30.537 127.925016,30.70418 C127.837102,30.71406 127.769039,30.63528 127.739648,30.47798 L127.729852,30.36982 L128.724234,30.3992 C128.909602,30.3797 129.270281,30.35006 129.806531,30.04534 C129.806531,30.134 129.611367,30.18314 129.728414,30.17326 L129.728414,30.17326 Z M81.7250156,30.94988 L81.266625,30.98914 C81.2472891,30.80246 81.4909219,30.09448 81.9977813,28.88522 L82.3001953,28.85584 C82.3099922,29.1408 82.124625,29.8389 81.7250156,30.94988 L81.7250156,30.94988 Z M82.2806016,28.70842 L82.2708047,28.5805 C82.2610078,28.4232 82.3587188,28.31504 82.5732188,28.2659 L82.5827578,28.39356 C82.5925547,28.5805 82.4951016,28.68866 82.2806016,28.70842 L82.2806016,28.70842 Z M88.3737422,33.45706 L88.3835391,33.58472 L87.6229922,33.65362 L87.6131953,33.5257 L88.3737422,33.45706 L88.3737422,33.45706 Z M87.4572188,33.37828 C87.4670156,33.53558 87.2331797,33.71264 86.7260625,33.88944 L85.7902031,33.8208 L85.4880469,33.85018 L85.4589141,33.56522 L87.4572188,33.37828 L87.4572188,33.37828 Z M93.6186797,4.77828 L93.1602891,4.81754 L93.15075,4.66024 C93.1409531,4.50294 93.2286094,4.39478 93.4235156,4.34564 L93.5892891,4.33576 L93.9012422,4.46342 C93.9110391,4.65036 93.8233828,4.75852 93.6186797,4.77828 L93.6186797,4.77828 Z M100.589156,3.40184 L100.735336,3.39196 L100.754672,3.67692 L100.335469,3.71644 C100.32593,3.55914 100.403789,3.45098 100.589156,3.40184 L100.589156,3.40184 Z M98.8342266,4.02116 L98.142,3.94238 L98.1322031,3.81472 C99.0389297,3.73594 99.3410859,3.63766 99.8969297,3.48036 C99.9067266,3.58852 100.00418,3.62778 100.179492,3.60828 L100.199086,3.89324 L99.9260625,3.92288 C99.7115625,3.94238 99.5264531,3.913 99.3704766,3.8246 C99.2047031,3.93276 99.0291328,4.0014 98.8342266,4.02116 L98.8342266,4.02116 Z M99.7020234,6.5676 L99.6922266,6.43968 L100.813195,6.33152 L100.822992,6.45944 L99.7020234,6.5676 L99.7020234,6.5676 Z M100.901109,5.58428 L100.891313,5.42698 L101.437102,5.37784 L101.446898,5.53514 L100.901109,5.58428 L100.901109,5.58428 Z M101.027695,3.65742 L100.881516,3.6673 L101.008359,3.36232 L102.256172,3.24454 L102.265969,3.40184 C101.944219,3.43122 101.525016,3.51962 101.027695,3.65742 L101.027695,3.65742 Z M101.661398,6.37078 L101.641805,6.08582 L102.187852,6.03668 C102.373219,6.01692 102.470672,6.10532 102.480469,6.30214 L101.661398,6.37078 L101.661398,6.37078 Z M104.966297,1.82858 L104.264273,2.0254 L104.137688,2.03502 C103.806141,2.06466 103.377141,2.05478 102.870281,2.00564 C103.777008,1.94662 104.644547,1.87772 104.966297,1.82858 L104.966297,1.82858 Z M104.215547,4.97484 L104.225344,5.1025 L103.260352,5.19116 L103.250555,5.06324 L104.215547,4.97484 L104.215547,4.97484 Z M105.794906,5.7317 C105.785109,5.61392 105.6,5.53514 105.219727,5.49588 L104.254734,5.77122 L103.513781,5.8006 C103.348008,5.68256 103.260352,5.60404 103.250555,5.54502 L104.108555,5.59416 L106.038797,5.27956 L107.023383,5.31882 L107.03318,5.47612 C106.545656,5.52526 106.13625,5.61392 105.794906,5.7317 L105.794906,5.7317 Z M115.729195,3.146 C115.845984,3.15588 115.924102,3.15588 115.953234,3.15588 C116.294578,2.82178 116.674852,2.55632 117.113391,2.36938 C116.762508,3.92288 116.216461,5.07312 115.465969,5.82036 L114.919922,5.486 C115.378055,4.316 115.651078,3.53938 115.729195,3.146 L115.729195,3.146 Z M114.052383,6.04656 L114.188766,6.03668 C114.003398,6.39054 113.837883,6.57722 113.701242,6.5871 L113.672109,6.21348 C113.759766,6.21348 113.886609,6.15446 114.052383,6.04656 L114.052383,6.04656 Z M112.970086,8.65176 C113.233312,7.58992 113.486742,6.99036 113.720836,6.83306 L113.730633,6.96072 C113.593992,7.94404 113.379492,8.46508 113.09693,8.50434 L113.145656,9.12366 C112.911562,9.45802 112.804312,9.7136 112.814109,9.91016 L112.677727,9.92004 L112.599609,9.06464 C112.755586,9.04514 112.88243,8.90734 112.970086,8.65176 L112.970086,8.65176 Z M112.550883,10.06746 C112.56068,10.21514 112.463227,10.55912 112.26832,11.09004 L112.13168,11.09992 L112.102547,10.7263 C112.287656,10.29366 112.443633,10.07734 112.550883,10.06746 L112.550883,10.06746 Z M104.683734,33.09306 L104.673938,32.98516 L104.927367,32.9654 L104.9565,33.33902 C104.820117,33.3489 104.722664,33.27012 104.683734,33.09306 L104.683734,33.09306 Z M115.924102,33.38816 C115.914305,33.29976 115.875375,33.26024 115.787719,33.27012 L115.154016,33.32914 L115.144219,33.20122 L115.202742,33.20122 L116.703984,33.07356 L116.713781,33.20122 C116.274984,33.22098 116.011758,33.28988 115.924102,33.38816 L115.924102,33.38816 Z M115.173352,33.07356 C115.231875,33.10294 115.202742,33.13258 115.173352,33.15208 C115.144219,33.14246 115.105289,33.11282 115.173352,33.07356 L115.173352,33.07356 Z M115.251469,31.30374 L114.413063,31.37264 L114.403266,31.24472 L115.163555,31.17608 L115.826648,31.0089 C115.836445,31.08742 115.875375,31.11706 115.963031,31.10718 C116.752711,30.96964 116.674852,30.93038 117.054867,30.90074 C117.181711,30.89086 117.259828,30.96964 117.269367,31.12694 L115.251469,31.30374 L115.251469,31.30374 Z M118.185891,31.04816 C117.717961,30.99902 117.68857,30.95976 117.357281,30.98914 L117.347484,30.88098 L118.097977,30.81234 L118.107773,30.9205 C118.029914,30.93038 118.312477,30.94988 118.185891,31.04816 L118.185891,31.04816 Z M118.244414,30.91062 L118.234617,30.80246 L118.644023,30.7632 L118.65382,30.87136 L118.244414,30.91062 L118.244414,30.91062 Z M119.150883,30.83184 L119.141344,30.72368 C119.209406,30.71406 119.306859,30.66492 119.433703,30.56638 C119.638406,30.54688 119.745656,30.68442 119.76525,30.84172 L119.150883,30.83184 L119.150883,30.83184 Z M120.311039,30.68442 L120.301242,30.55676 L120.798563,30.51724 L120.808359,30.64516 L120.311039,30.68442 L120.311039,30.68442 Z M121.003266,30.6254 C120.993469,30.47798 121.051992,30.38958 121.178836,30.36982 L121.344352,30.58614 C121.334812,30.51724 121.363945,30.47798 121.422469,30.4681 L121.549312,30.70418 L121.003266,30.6254 L121.003266,30.6254 Z M113.642977,33.83068 L113.623383,33.58472 L113.545266,33.5946 L113.564859,33.8403 L113.642977,33.83068 L113.642977,33.83068 Z M130.771781,29.35712 C130.849641,29.30798 130.88857,29.25884 130.703461,29.22946 C130.615547,29.32774 130.800914,29.35712 130.606008,29.367 L130.615547,29.4554 C130.635141,29.4359 130.683867,29.40626 130.722797,29.37688 L130.615547,29.46528 L130.615547,29.47516 L130.410844,29.74062 L130.82025,29.5932 L130.869234,29.5932 L130.849641,29.34724 L130.771781,29.35712 L130.771781,29.35712 Z M131.483344,29.91768 L131.405227,29.92756 L131.42482,30.17326 L132,30.12412 C131.990203,29.96682 131.60993,29.91768 131.483344,29.91768 L131.483344,29.91768 Z M130.596211,29.48504 L130.606008,29.47516 L130.606008,29.46528 C130.606008,29.46528 130.596211,29.47516 130.596211,29.48504 L130.596211,29.48504 Z" id="Shape" fill="#000000"></path>
                        <path d="M93.1700859,11.2866 L93.1798828,11.4439 L93.5016328,11.41452 C93.4918359,11.31624 93.5307656,11.15894 93.5990859,10.96212 L93.5699531,10.67716 C93.4333125,10.68704 93.2969297,10.89348 93.1700859,11.2866 L93.1700859,11.2866 Z M90.0894844,3.81472 L90.0603516,3.5295 L89.6019609,3.56876 L89.6313516,3.85398 L90.0894844,3.81472 L90.0894844,3.81472 Z M81.1498359,20.69548 C81.1302422,20.43002 80.3114297,19.39782 78.6931406,17.57886 C78.66375,17.24476 79.2195937,16.74322 80.3601563,16.08464 L83.6163281,13.2236 C84.3474844,12.28942 84.7762266,10.77544 84.9030703,8.67152 L84.8641406,8.18974 C84.7372969,6.73452 83.6941875,5.56478 81.7152187,4.67012 C80.5452656,3.87374 78.4394531,3.43122 75.3980391,3.35244 C72.8828203,3.56876 69.5972578,4.4733 65.5516641,6.07594 C64.4402344,6.8822 63.1728281,7.6882 61.7494453,8.49446 L61.7690391,8.74042 C61.8566953,8.73054 61.9930781,8.6814 62.1493125,8.57324 C62.3148281,8.55348 62.4125391,8.63226 62.4220781,8.78956 L62.6659687,8.66164 L62.7827578,8.65176 L62.7925547,8.75992 C62.8023516,8.88784 61.9250156,9.58568 60.15075,10.83446 L60.2871328,11.09004 L60.1700859,11.09992 L59.8777266,10.99176 C59.8875234,11.08016 59.7606797,11.13918 59.5170469,11.15894 L59.5268437,11.2671 L59.8094062,11.62096 C59.72175,11.63084 59.5853672,11.59158 59.4,11.52268 C58.9905937,11.56194 58.5907266,11.77826 58.1911172,12.19114 L58.3568906,11.46366 C58.9516641,8.87796 59.3610703,6.5871 59.5755703,4.60122 L59.5461797,4.4733 C59.1367734,4.20784 58.7371641,3.83422 58.3666875,3.36232 C58.3764844,3.0576 58.3764844,2.88054 58.3666875,2.84128 L58.3372969,2.73312 L58.2205078,2.76276 C56.9335078,4.70938 54.4572187,8.03244 50.7821016,12.73194 C47.9840625,16.07476 46.5410859,17.93272 46.4534297,18.30634 C45.3128672,19.4961 44.7668203,20.2137 44.8253438,20.45966 C44.5231875,20.65622 44.3963438,20.85278 44.4453281,21.0691 C44.3574141,21.08886 44.2988906,21.05922 44.2795547,20.97082 C43.7920313,21.7672 43.0706719,22.27836 42.1054219,22.50456 L41.0914453,22.74038 C40.9550625,22.77002 40.8867422,22.8683 40.8965391,23.03548 L40.9259297,23.16314 L41.3059453,23.07474 L41.3353359,23.1829 L40.4773359,23.51726 L38.9565,23.87112 L38.1572813,23.92026 C38.0402344,24.0383 38.7907266,23.91038 38.4983672,23.97928 L37.5039844,24.21536 C36.8996719,24.3529 36.568125,24.30376 36.5096016,24.05806 L36.3925547,24.08744 C36.4121484,24.1956 36.4219453,24.27412 36.4023516,24.34302 L36.3438281,24.09732 L35.5443516,24.284 C35.4860859,23.91038 34.4037891,22.5537 32.3077734,20.2137 C32.2688438,19.76156 33.0097969,19.10272 34.5208359,18.24758 L38.7907266,14.46224 C39.7461797,13.2236 40.3115625,11.23746 40.4969297,8.50434 L40.4384063,7.86526 C40.2726328,5.9384 38.8884375,4.3849 36.2853047,3.18552 C34.7451328,2.13356 31.9764844,1.573 27.9793594,1.4846 C24.6646641,1.76956 20.33625,2.95932 15.0131953,5.03386 C13.5508828,6.10532 11.8838672,7.16716 10.0121484,8.21912 L10.0412813,8.55348 C10.168125,8.5436 10.3338984,8.47496 10.5386016,8.35692 C10.7531016,8.33716 10.8701484,8.43544 10.8894844,8.63226 L11.2210313,8.44532 L11.3868047,8.43544 L11.3963438,8.59274 C11.4061406,8.75004 10.2459844,9.66446 7.89653906,11.33574 L8.08190625,11.63084 L7.91613281,11.64072 L7.55545313,11.5128 C7.56525,11.61108 7.39947656,11.67998 7.05813281,11.70936 L7.07772656,11.88642 L7.46753906,12.31906 C7.34095313,12.32894 7.16538281,12.28942 6.94134375,12.2109 C6.18079688,12.27954 5.43984375,12.83022 4.7086875,13.8723 L4.89405469,14.1674 C5.52775781,13.57746 5.89797656,13.28262 6.00522656,13.27274 L6.04441406,13.75452 C5.93716406,13.76414 5.77139063,13.83304 5.54709375,13.95108 L5.94696094,14.56052 C6.70190396,13.7377638 7.55677311,13.0143636 8.4913125,12.40746 C8.94944531,12.5255 9.19333594,12.67292 9.202875,12.83022 L9.55401563,12.80084 C12.0692344,10.92286 14.5550625,9.56618 17.0215547,8.73054 L17.0509453,9.06464 C16.5925547,9.75286 16.2806016,10.10698 16.1148281,10.12648 C16.1344219,10.36256 16.2125391,10.569 16.3587188,10.74606 C16.3976484,11.16882 15.2764219,14.01998 13.0050938,19.28966 C7.8478125,31.53982 3.51939844,40.60446 0,46.46408 C0.009796875,46.58212 0.0781171875,46.73942 0.204703125,46.93598 C1.0725,46.72954 1.61828906,46.51348 1.85238281,46.30678 L2.03749219,46.28728 L2.06688281,46.62138 L2.388375,46.592 L2.71992188,46.40532 C2.72971875,46.5036 2.83696875,46.55274 3.06126562,46.53298 L3.09039844,46.86734 C3.11953125,47.19182 2.93442187,47.68322 2.54435156,48.36156 C2.19346875,48.76482 1.81319531,49.61034 1.41358594,50.89838 L1.42338281,51.05542 L1.74513281,51.02604 C3.14892188,49.44316 4.211625,47.88966 4.94278125,46.37568 C9.03735938,45.16642 12.1568906,43.97666 14.3212266,42.80692 C16.4951016,42.61998 18.1523203,42.03992 19.2833438,41.08624 L19.26375,40.90944 L18.4449375,41.15514 L18.2595703,41.1749 L18.2402344,40.99784 C19.8389297,40.75214 20.9405625,40.39802 21.5549297,39.90662 C24.6646641,37.48784 27.0141094,35.7773 28.6032656,34.7646 C31.8692344,32.34608 33.9943828,29.98632 34.9596328,27.69572 C35.1349453,27.6562 35.3105156,27.61694 35.5054219,27.5678 C35.9635547,27.5483 36.2172422,27.53842 36.2853047,27.51866 C36.2659688,27.43026 36.3048984,27.38112 36.3925547,27.36136 C37.1237109,27.28284 36.7728281,27.4105 37.2407578,27.30234 L38.4692344,27.01738 L38.6739375,26.96798 L38.5764844,27.027 C38.7128672,27.04676 38.8590469,27.03688 39.0248203,26.99762 L39.1124766,27.36136 L33.5264531,36.31784 L32.2884375,37.88122 L31.6838672,39.92612 L31.8009141,39.89674 L32.4052266,39.64116 L32.2103203,40.43754 L32.2688438,40.67336 L32.4346172,40.8798 C32.3565,40.89956 32.3273672,40.9487 32.3467031,41.0371 L32.3760938,41.16502 L32.6295234,41.106 C33,40.78152 33.1559766,40.48668 33.0974531,40.22122 C33.4970625,40.28986 33.7602891,40.3195 33.8969297,40.28024 L33.9260625,40.4079 C33.6824297,40.46692 33.5555859,40.66348 33.53625,40.99784 L33.5653828,41.1255 L33.7020234,41.09612 C35.7297188,38.86428 40.7016328,31.22522 44.6889609,26.04394 C44.5621172,25.48364 46.6387969,24.70676 50.9282812,23.70394 L51.0646641,23.67456 C51.2206406,24.3529 50.8893516,25.9948 50.0702813,28.60026 C49.5438281,30.17326 49.2903984,31.03828 49.3293281,31.17608 C48.6468984,33.27012 48.3251484,34.40086 48.3643359,34.57766 L46.8435,39.60164 C45.8586563,42.17772 45.1081641,44.8812 44.5817109,47.73236 C44.6693672,47.71286 44.8060078,47.72274 45.0009141,47.77188 L45.2154141,47.58494 C45.23475,47.6736 45.2932734,47.70298 45.3811875,47.68322 L45.2932734,47.31948 L45.9563672,47.29998 C46.1512734,47.25084 46.3170469,47.00488 46.4534297,46.55274 C46.4242969,45.8744 46.5606797,45.51066 46.8628359,45.43188 C47.2722422,43.81962 47.5259297,43.01336 47.6135859,42.98372 C47.9938594,41.38134 48.2764219,40.46692 48.4617891,40.24072 C49.0369687,38.15656 49.4561719,37.08484 49.7291953,37.01594 L49.7877187,37.27152 L49.3685156,38.363 C48.6371016,41.63692 47.8964062,44.22262 47.1456563,46.1201 L47.3601563,47.0639 L47.4965391,47.03452 C49.3099922,43.10176 51.9226641,35.31502 55.3250156,23.67456 C55.4224687,22.65198 55.9099922,21.8556 56.7775313,21.2953 L56.582625,21.08886 L56.5532344,20.9807 C56.9433047,20.89204 57.2163281,20.735 57.3723047,20.51868 C57.3527109,20.43002 57.011625,20.30236 56.3485313,20.1253 L58.0449375,12.79096 C58.4154141,12.4566 58.6299141,12.2798 58.6979766,12.2798 L58.7273672,12.65316 C58.6397109,12.66304 58.5030703,12.71218 58.3470937,12.82034 L58.6688438,13.28262 C59.2538203,12.64354 59.8875234,12.09286 60.5794922,11.63084 C60.9306328,11.72912 61.1059453,11.84716 61.1255391,11.96494 L61.3789687,11.94544 C63.3092109,10.51986 65.2005234,9.49728 67.0627031,8.87796 L67.0820391,9.12366 C66.7409531,9.6447 66.5068594,9.91016 66.3802734,9.92004 C66.3996094,10.0971 66.4483359,10.2544 66.53625,10.39194 C66.5653828,10.71642 65.7269766,12.87936 64.0112344,16.89064 C60.0922266,26.18148 56.8066641,33.0538 54.1354688,37.51748 C54.1452656,37.60588 54.2037891,37.72392 54.3110391,37.88122 C54.9643359,37.72392 55.3835391,37.55674 55.5493125,37.39944 L55.6661016,37.38956 L55.6856953,37.63526 L55.9587188,37.61576 L56.2023516,37.48784 C56.2121484,37.55674 56.2998047,37.58612 56.4655781,37.5765 L56.4851719,37.84196 C56.5045078,38.07778 56.368125,38.4514 56.0659687,38.96256 C55.7831484,39.26754 55.4907891,39.90662 55.1788359,40.8798 L55.188375,41.00772 L55.4420625,40.98796 C56.5045078,39.78858 57.3137812,38.6087 57.8693672,37.44858 C60.9793594,36.52454 63.3483984,35.62962 64.9860234,34.74484 C66.6532969,34.59742 67.9106484,34.16478 68.7686484,33.4373 L68.7588516,33.30938 L68.1251484,33.49632 L67.9887656,33.5062 L67.9789687,33.37828 C69.1878516,33.20122 70.0360547,32.92614 70.4941875,32.5624 C72.8534297,30.73356 74.6374922,29.42602 75.846375,28.65902 C79.6094063,25.89652 81.3643359,23.24192 81.1498359,20.69548 L81.1498359,20.69548 Z M80.5063359,20.86266 L80.5939922,21.8556 C80.4772031,22.10156 80.3503594,22.22922 80.2333125,22.2391 L80.0871328,20.54806 C80.3601563,20.64634 80.4965391,20.74462 80.5063359,20.86266 L80.5063359,20.86266 Z M6.68765625,12.85986 L6.52214062,12.86948 L6.49275,12.56476 L7.16538281,12.50574 L7.17517969,12.66304 C7.06792969,12.67292 6.90215625,12.73194 6.68765625,12.85986 L6.68765625,12.85986 Z M3.40235156,46.00206 C3.01253906,45.825 2.66139844,45.75636 2.35924219,45.78574 L2.3203125,45.30396 C2.30071875,45.11728 2.40796875,44.98936 2.6420625,44.94022 C2.85630469,44.92072 2.98314844,45.07802 3.00274219,45.39262 C3.568125,44.69452 3.88007813,44.34066 3.93860156,44.33078 L4.29928125,44.4782 C4.18223438,45.46126 3.88007813,45.9628 3.40235156,46.00206 L3.40235156,46.00206 Z M38.5081641,8.96636 C38.3423906,8.98612 38.0108438,8.46508 37.533375,7.43262 L37.5039844,7.1279 C37.8159375,7.09852 38.1376875,7.60968 38.4787734,8.66164 L38.5081641,8.96636 L38.5081641,8.96636 Z M38.0402344,5.29932 L37.9035937,5.6238 L33.1363828,3.6179 C36.3146953,3.72606 37.9525781,4.28662 38.0402344,5.29932 L38.0402344,5.29932 Z M17.9086875,22.73076 L17.2360547,22.78978 L17.2069219,22.4848 L17.8795547,22.42578 L17.9086875,22.73076 L17.9086875,22.73076 Z M17.3626406,12.26004 L17.5284141,12.25016 L17.5676016,12.73194 C17.411625,12.74182 17.2069219,12.97764 16.9532344,13.43004 L16.9241016,13.09568 C17.2262578,12.73194 17.3822344,12.4566 17.3626406,12.26004 L17.3626406,12.26004 Z M15.9490547,15.62236 L16.0075781,16.26144 L15.8420625,16.27132 L15.7835391,15.63224 L15.9490547,15.62236 L15.9490547,15.62236 Z M15.2083594,16.822 L15.5301094,16.79236 C15.5007187,17.32328 15.3545391,17.6085 15.0913125,17.628 L14.9255391,17.63788 C15.1302422,17.28402 15.2276953,17.00868 15.2083594,16.822 L15.2083594,16.822 Z M14.6525156,18.49328 L14.8378828,18.47352 L14.8474219,18.63082 L14.5452656,19.14224 L14.2235156,19.17162 L14.2139766,19.01432 C14.5357266,18.98494 14.6819063,18.81776 14.6525156,18.49328 L14.6525156,18.49328 Z M14.1067266,19.99764 L14.0092734,20.80364 L13.8435,20.81352 L13.7751797,20.01714 L14.1067266,19.99764 L14.1067266,19.99764 Z M8.63749219,35.67902 C8.42299219,36.78012 8.18915625,37.34042 7.94526562,37.36018 L7.93572656,37.20288 C7.87720312,36.66208 8.11103906,36.15092 8.63749219,35.67902 L8.63749219,35.67902 Z M7.6333125,37.87134 L7.64310938,38.02864 C7.66270313,38.24496 7.56525,38.37288 7.35075,38.3825 L7.34095313,38.2252 C7.32135938,38.03852 7.4188125,37.92048 7.6333125,37.87134 L7.6333125,37.87134 Z M7.34095312,42.42342 L7.8478125,42.37428 L7.86740625,42.55134 C7.7405625,42.56096 7.57478906,42.62986 7.37008594,42.7479 L7.04833594,42.77728 C7.029,42.6101 7.13625,42.48244 7.34095312,42.42342 L7.34095312,42.42342 Z M21.7691719,37.93036 C18.9226641,39.34606 17.2458516,40.30962 16.7485312,40.8109 C13.6679297,41.8925 12.1372969,42.56096 12.1666875,42.82642 C9.42717187,43.9179 7.62351562,44.7239 6.75597656,45.22544 C6.55127344,45.24494 6.25891406,45.16642 5.86884375,44.98936 C5.82011719,44.42906 6.07354687,43.97666 6.60979687,43.61292 C7.08752344,43.57366 7.54565625,43.64256 7.98445312,43.82924 C8.4913125,43.56378 9.37844531,43.26894 10.6360547,42.95434 L10.6069219,42.61998 L9.59294531,42.70838 C9.71953125,42.53158 10.6945781,42.06956 12.5273672,41.32232 L13.0342266,41.27318 L13.0440234,41.43048 C12.1764844,41.509 11.6987578,41.76458 11.5915078,42.22686 C11.6108437,42.4333 11.7278906,42.5217 11.9423906,42.50194 C12.5956875,42.08906 12.9171797,41.84336 12.9076406,41.77446 C14.1456562,41.53864 17.5676016,39.72956 23.1732187,36.35736 L23.2023516,36.66208 C23.2121484,36.8095 22.7344219,37.22238 21.7691719,37.93036 L21.7691719,37.93036 Z M13.1708672,40.78152 C13.9896797,40.71262 14.6917031,40.37852 15.2764219,39.79846 C15.5105156,39.7787 15.6373594,39.8671 15.6468984,40.07354 C15.2472891,40.11306 14.4772031,40.44716 13.3559766,41.09612 L13.1902031,41.106 L13.1708672,40.78152 L13.1708672,40.78152 Z M27.0435,30.03546 L22.7442188,33.47656 C19.5465703,35.59036 17.8308281,36.6522 17.5771406,36.67196 C12.4884375,39.49348 9.31992188,40.95858 8.09170313,41.06674 L7.90633594,41.08624 C8.0623125,40.50618 10.3241016,35.83632 14.7110391,27.04676 C16.6412813,26.87958 19.6829531,25.97504 23.8262578,24.32352 L24.8402344,24.23486 C26.93625,24.04818 28.5058125,24.46106 29.539125,25.44412 L29.5976484,26.0832 C28.8275625,28.3348 27.9695625,29.65222 27.0435,30.03546 L27.0435,30.03546 Z M18.6398438,25.26732 L19.3320703,25.2083 L19.3418672,25.3656 L18.6496406,25.42462 L18.6398438,25.26732 L18.6398438,25.26732 Z M28.3596328,23.60566 L28.8664922,23.55652 C29.3344219,23.78272 29.5780547,23.97928 29.5976484,24.15634 L29.6074453,24.31364 C29.1588516,24.3529 28.7396484,24.11682 28.3596328,23.60566 L28.3596328,23.60566 Z M29.7340312,15.71102 C29.2856953,16.25156 28.0572187,17.17586 26.0491172,18.47352 C25.3860234,18.53254 22.9195312,19.4961 18.6496406,21.3837 C18.4361595,21.2853496 18.2009882,21.244672 17.9672109,21.26566 L17.9380781,20.96094 C17.8893516,20.34162 18.1621172,19.565 18.7666875,18.6212 C19.0979766,16.85138 19.4589141,15.83868 19.8585234,15.59298 L23.4168516,7.52128 C23.3779219,7.01974 24.1382109,6.63624 25.6979766,6.37078 L26.2050937,6.32164 L26.2440234,6.78392 C27.7746562,6.54784 28.7298516,6.4103 29.1003281,6.38066 C31.9277578,6.13496 33.3996094,6.71502 33.5166562,8.10134 L33.8384062,8.0717 L33.7700859,7.25582 L34.1212266,7.22618 C34.9498359,7.6882 35.3981719,8.24876 35.4566953,8.90734 C35.495625,9.35974 35.2519922,9.92004 34.7353359,10.58876 C34.5208359,10.60826 34.3939922,10.45096 34.3746562,10.13636 L34.0235156,10.166 L33.9456562,11.14906 C32.5124766,13.312 31.4693672,14.42298 30.826125,14.482 C30.2411484,15.29788 29.8804687,15.70114 29.7340312,15.71102 L29.7340312,15.71102 Z M31.9179609,21.3642 C31.6253438,21.16738 31.3915078,21.07898 31.2159375,21.08886 L31.1770078,20.60708 L31.4987578,20.57744 L32.2103203,21.00046 C32.2397109,21.2264 32.142,21.34444 31.9179609,21.3642 L31.9179609,21.3642 Z M34.17975,24.06768 C34.4917031,24.1956 34.6768125,24.33314 34.7157422,24.46106 L34.5597656,24.50032 L34.5695625,24.5102 C34.5404297,24.5102 34.5012422,24.52008 34.4721094,24.52996 L34.2380156,24.71664 L34.17975,24.06768 L34.17975,24.06768 Z M34.3939922,25.42462 L34.3648594,25.2967 L34.7742656,25.19842 L34.8036563,25.32634 L34.3939922,25.42462 L34.3939922,25.42462 Z M35.3788359,26.5356 C35.7980391,26.4667 36.0027422,26.43732 36.782625,26.26026 L36.8117578,26.38792 L35.3301094,26.73216 C35.3494453,26.66326 35.3690391,26.59462 35.3788359,26.5356 L35.3788359,26.5356 Z M36.8215547,27.15492 C36.1976484,27.21394 36.3340312,27.13516 35.3396484,27.36136 L35.3105156,27.23344 L36.5583281,26.83044 L37.1531016,26.6929 L37.211625,26.92872 C36.9386016,26.98774 37.1335078,26.98774 36.8215547,27.15492 L36.8215547,27.15492 Z M38.1376875,26.84032 C37.9915078,26.87958 37.8744609,26.81094 37.8061406,26.64376 L38.1864141,26.5551 C38.3521875,26.51584 38.4594375,26.58474 38.4983672,26.75192 L38.1376875,26.84032 L38.1376875,26.84032 Z M41.7058125,22.96658 L41.6764219,22.83892 L42.2907891,22.69124 L42.3493125,22.92732 L41.7058125,22.96658 L41.7058125,22.96658 Z M45.5175703,46.54286 C45.5565,46.3658 45.5662969,46.23814 45.5467031,46.14948 L45.6833437,46.1201 C45.8491172,46.08084 45.9465703,46.13986 45.9855,46.29716 L46.0148906,46.42482 L45.5175703,46.54286 L45.5175703,46.54286 Z M48.1887656,23.97928 L47.9157422,23.93014 C47.4772031,24.1072 47.1067266,24.23486 46.8043125,24.30376 L46.5508828,24.36278 C46.4047031,24.40204 46.2876563,24.34302 46.2291328,24.18572 L48.0131953,23.77284 L48.5981719,23.4975 L48.7933359,23.7237 C48.5105156,23.78272 48.3058125,23.87112 48.1887656,23.97928 L48.1887656,23.97928 Z M49.5634219,23.53676 L49.5340313,23.4091 C49.6219453,23.38934 49.7387344,23.3207 49.8655781,23.19278 L51.1329844,22.89768 L51.1621172,23.0256 C50.4894844,23.19278 49.9532344,23.35996 49.5634219,23.53676 L49.5634219,23.53676 Z M49.7583281,20.95106 C49.6706719,20.97082 49.553625,21.04934 49.4074453,21.16738 C49.3878516,21.07898 49.2125391,21.07898 48.8809922,21.1575 C48.8224688,20.9118 49.7583281,20.56782 51.6983672,20.11542 L51.9713906,20.0564 L52.0299141,20.29248 C50.6650547,20.69548 49.9045078,20.92168 49.7583281,20.95106 L49.7583281,20.95106 Z M53.1704766,17.23488 C53.0340938,18.798 52.4880469,19.68278 51.5227969,19.90898 L51.4936641,19.78132 L50.6356641,20.11542 L50.2556484,20.20408 C50.0604844,20.25322 49.8851719,20.24334 49.7291953,20.1942 L49.6510781,19.84996 C49.6219453,19.7223 50.8599609,17.99174 53.3751797,14.66868 L53.6675391,14.71782 C53.7747891,15.17022 53.6092734,16.00586 53.1704766,17.23488 L53.1704766,17.23488 Z M59.2050937,12.02396 L59.0880469,12.03384 L59.0684531,11.78814 L59.5755703,11.739 L59.5851094,11.86666 C59.4974531,11.88642 59.3708672,11.93556 59.2050937,12.02396 L59.2050937,12.02396 Z M56.7190078,37.20288 C56.4266484,37.06508 56.1634219,37.00606 55.939125,37.02582 L55.9099922,36.6522 C55.9001953,36.52454 55.9780547,36.43588 56.1438281,36.38674 C56.3096016,36.36724 56.4070547,36.48502 56.4266484,36.7406 C56.8458516,36.20006 57.0796875,35.92472 57.1284141,35.92472 L57.3916406,36.03288 C57.2941875,36.78012 57.0701484,37.17324 56.7190078,37.20288 L56.7190078,37.20288 Z M83.3724375,9.0844 C83.2458516,9.09428 83.0019609,8.7009 82.6219453,7.90452 L82.6023516,7.65882 C82.8459844,7.63906 83.0996719,8.02256 83.3531016,8.80906 L83.3724375,9.0844 L83.3724375,9.0844 Z M83.0215547,6.2725 L82.9045078,6.52808 L79.2974531,5.00422 C81.7054219,5.083 82.9532344,5.50576 83.0215547,6.2725 L83.0215547,6.2725 Z M67.7255391,19.51586 L67.2186797,19.565 L67.1990859,19.31904 L67.7059453,19.2699 L67.7255391,19.51586 L67.7255391,19.51586 Z M67.3063359,11.56194 L67.4427188,11.55206 L67.4721094,11.92568 C67.3452656,11.93556 67.1892891,12.11262 67.0041797,12.4566 L66.9845859,12.2109 C67.2088828,11.92568 67.3161328,11.70936 67.3063359,11.56194 L67.3063359,11.56194 Z M66.2436328,14.11826 L66.2828203,14.60004 L66.1461797,14.60992 L66.10725,14.12814 L66.2436328,14.11826 L66.2436328,14.11826 Z M65.6684531,15.03242 L65.9218828,15.01292 C65.89275,15.4258 65.7855,15.64212 65.6003906,15.66162 L65.46375,15.6715 C65.6099297,15.39642 65.67825,15.1801 65.6684531,15.03242 L65.6684531,15.03242 Z M65.2590469,16.29108 L65.3760938,16.2812 L65.3858906,16.40886 L65.1615938,16.80224 L64.9081641,16.822 L64.8983672,16.69408 C65.1615938,16.67432 65.2786406,16.53678 65.2590469,16.29108 L65.2590469,16.29108 Z M64.8496406,17.43144 L64.7619844,18.06064 L64.6449375,18.07052 L64.5962109,17.4512 L64.8496406,17.43144 L64.8496406,17.43144 Z M60.6867422,29.35712 C60.5212266,30.18314 60.3456562,30.6059 60.1602891,30.6254 L60.15075,30.51724 C60.1213594,30.10436 60.2969297,29.71098 60.6867422,29.35712 L60.6867422,29.35712 Z M59.9166562,31.01878 L59.9264531,31.12694 C59.9460469,31.30374 59.8679297,31.40202 59.6923594,31.4119 L59.6828203,31.28424 C59.6730234,31.15632 59.7508828,31.06792 59.9166562,31.01878 L59.9166562,31.01878 Z M59.7021562,34.47938 L60.0922266,34.45 L60.1017656,34.57766 C60.0141094,34.58754 59.8777266,34.63668 59.72175,34.72534 L59.4683203,34.74484 C59.4585234,34.6073 59.5363828,34.5189 59.7021562,34.47938 L59.7021562,34.47938 Z M70.6501641,31.06792 C68.5054219,32.13964 67.2282188,32.86712 66.8286094,33.24074 C64.4889609,34.0665 63.3288047,34.57766 63.3483984,34.7841 C61.2717188,35.62 59.9068594,36.21956 59.2636172,36.60306 C59.1076406,36.61294 58.8833438,36.55392 58.5907266,36.41638 C58.5517969,35.99362 58.7467031,35.64938 59.1563672,35.3938 C59.5268438,35.36442 59.8777266,35.41356 60.1994766,35.5511 C60.5892891,35.35454 61.2619219,35.13822 62.217375,34.89226 L62.1980391,34.64656 L61.4083594,34.71546 C61.5058125,34.57766 62.2563047,34.2238 63.6505547,33.65362 L64.0403672,33.62398 L64.0501641,33.73214 C63.3873281,33.79116 63.0168516,33.98798 62.9387344,34.34184 C62.9485313,34.49914 63.0459844,34.57766 63.2117578,34.55816 C63.6992813,34.23368 63.9331172,34.04674 63.9331172,33.98798 C64.8692344,33.8208 67.4623125,32.44436 71.7226641,29.86854 L71.742,30.11424 C71.742,30.21252 71.3813203,30.52712 70.6501641,31.06792 L70.6501641,31.06792 Z M64.1184844,33.23086 C64.7521875,33.17184 65.2884375,32.92614 65.7367734,32.4935 C65.9025469,32.48362 66,32.55252 66.0097969,32.70982 C65.7171797,32.7392 65.142,32.98516 64.2744609,33.45706 L64.1380781,33.46668 L64.1184844,33.23086 L64.1184844,33.23086 Z M74.6668828,25.06088 L71.4205078,27.69572 C68.9929453,29.2981 67.6768125,30.10436 67.4721094,30.12412 C63.611625,32.2673 61.2131953,33.37828 60.2675391,33.45706 L60.1311563,33.46668 C60.2482031,33.02442 61.9737422,29.47516 65.3077734,22.80928 C66.7602891,22.68162 69.0612656,21.98352 72.2197266,20.72512 L73.0094063,20.65622 C74.5985625,20.51868 75.7878516,20.83328 76.5677344,21.59014 L76.6069219,22.07192 C76.0121484,23.76296 75.3686484,24.7559 74.6668828,25.06088 L74.6668828,25.06088 Z M68.2909219,21.44272 L68.7980391,21.39358 L68.8075781,21.5215 L68.3007188,21.57064 L68.2909219,21.44272 L68.2909219,21.44272 Z M75.6708047,20.17444 L76.060875,20.14506 C76.4215547,20.32186 76.6069219,20.47916 76.6164609,20.60708 L76.6262578,20.71524 C76.2851719,20.74462 75.9634219,20.56782 75.6708047,20.17444 L75.6708047,20.17444 Z M76.6945781,14.1869 C76.3532344,14.60004 75.4271719,15.30776 73.9161328,16.29108 C73.4092734,16.34022 71.5372969,17.0677 68.3007187,18.4834 C68.1447422,18.42438 67.9691719,18.40488 67.7840625,18.4145 L67.7644687,18.1688 C67.7255391,17.6969 67.9302422,17.10696 68.3788359,16.38936 C68.6322656,15.03242 68.9148281,14.27556 69.2074453,14.0985 L71.9273672,7.96354 C71.8979766,7.5998 72.4731562,7.30496 73.6431094,7.07876 L74.0331797,7.04938 L74.0623125,7.42274 C75.2126719,7.23606 75.9340312,7.1279 76.2266484,7.09852 C78.3713906,6.91158 79.4923594,7.34422 79.5802734,8.40606 L79.8337031,8.3863 L79.7849766,7.79636 L80.0384062,7.77686 C80.6623125,8.12084 80.9938594,8.53372 81.0327891,9.02538 C81.0619219,9.37924 80.8866094,9.81188 80.5161328,10.31342 C80.3503594,10.33292 80.2529062,10.21514 80.2333125,9.9593 L79.9798828,9.97906 L79.9020234,10.71642 C78.8197266,12.37808 78.0300469,13.23322 77.5329844,13.27274 C77.0941875,13.8723 76.8211641,14.17728 76.6945781,14.1869 L76.6945781,14.1869 Z M77.8351406,18.27696 L77.8060078,17.90334 L78.0594375,17.88384 L78.6052266,18.21794 C78.6150234,18.37524 78.5371641,18.4639 78.3713906,18.4834 C78.1372969,18.33598 77.9619844,18.26708 77.8351406,18.27696 L77.8351406,18.27696 Z M32.4539531,42.15796 L32.2005234,42.21698 L31.9860234,42.40366 C32.0252109,42.56096 32.1226641,42.61998 32.2884375,42.58072 C32.4539531,42.54146 32.5222734,42.44318 32.4833438,42.28588 L32.4539531,42.15796 L32.4539531,42.15796 Z M31.4889609,40.22122 L31.5180938,40.34888 C31.6838672,40.30962 31.7521875,40.21134 31.7132578,40.05404 L31.6838672,39.92612 C31.5278906,39.96538 31.4595703,40.06392 31.4889609,40.22122 L31.4889609,40.22122 Z M38.3911172,27.14504 L38.5764844,27.027 C38.5372969,27.027 38.5081641,27.01712 38.4787734,27.0075 C38.4107109,27.027 38.3813203,27.07614 38.3911172,27.14504 L38.3911172,27.14504 Z M38.3521875,23.75308 L38.6445469,23.68444 L38.5860234,23.4286 L38.2936641,23.4975 L38.3521875,23.75308 L38.3521875,23.75308 Z M107.24768,33.683 L106.584586,33.60448 L106.467539,33.86006 L106.477336,33.98798 L110.425734,33.65362 L110.406141,33.40792 L107.24768,33.683 L107.24768,33.683 Z M110.854734,33.37828 L110.87407,33.62398 L110.913,33.62398 L110.893664,33.37828 L110.854734,33.37828 L110.854734,33.37828 Z M127.417898,31.19558 L127.437492,31.44154 L127.866492,31.52006 L127.846898,31.27436 L127.417898,31.19558 L127.417898,31.19558 Z M126.813586,31.24472 C123.850031,31.91344 123.479555,31.7954 122.855648,31.84454 L122.874984,32.09024 L123.148008,32.07074 L123.294188,32.06086 L123.255258,32.03148 L123.577008,31.90356 C126.51143,31.57908 126.852516,31.69712 126.823383,31.36276 L126.813586,31.24472 L126.813586,31.24472 Z M109.021945,26.89934 L108.758719,26.81094 C108.544219,27.39074 108.436969,27.73498 108.446766,27.83326 L108.456305,27.94142 C108.661266,27.93154 108.846375,27.57768 109.021945,26.89934 L109.021945,26.89934 Z M105.45382,24.9626 L105.444023,24.83468 L105.307641,24.84456 L105.06375,25.00186 L105.200391,25.23768 C105.3855,25.21818 105.473156,25.12952 105.45382,24.9626 L105.45382,24.9626 Z M113.20418,33.04392 L113.184586,32.79822 L113.106727,32.8081 L113.126062,33.0538 L113.20418,33.04392 L113.20418,33.04392 Z M129.289875,29.38676 L129.474984,29.367 C129.582234,29.35712 129.630961,29.26872 129.621164,29.11142 L129.513914,28.87534 C128.841281,28.93436 128.529328,28.964 127.983539,29.26872 L127.973742,29.1408 L127.164469,29.21958 C127.145133,28.97362 127.076812,28.84596 126.969562,28.85584 L126.550359,28.8951 C126.062836,28.93436 125.829,28.91486 125.585109,29.10154 C125.57557,29.01314 125.54618,28.97362 125.497453,28.97362 L125.029523,29.01314 L124.7565,29.17044 C124.746703,29.08178 124.71757,29.04252 124.668844,29.04252 L124.50307,29.18994 L124.493273,29.06228 L123.840234,29.01314 L123.684258,29.02302 L123.703594,29.26872 L124.035141,29.35712 L124.347094,29.33762 C124.454344,29.40626 124.571391,29.42602 124.707773,29.41614 L124.980797,29.2786 L124.990594,29.38676 C123.459961,29.77 123.469758,29.70136 122.416852,29.87816 C122.299805,29.79964 122.212148,29.76038 122.153625,29.77 L122.134031,29.78976 C122.017242,29.77988 121.948922,29.70136 121.939125,29.57344 L122.485172,29.50454 C122.524102,29.50454 122.553234,29.54406 122.855391,29.60308 C123.294187,29.38676 123.313781,29.2981 123.547617,29.2786 L123.528281,29.03264 C122.026781,29.32774 122.631352,29.13092 120.749836,29.2981 L120.661922,29.30798 L120.642586,29.06228 C123.060352,28.76718 122.251078,28.93436 123.079687,28.69854 C123.089484,28.78694 123.118875,28.8262 123.167602,28.8262 C123.256436,28.7347488 123.373055,28.6758988 123.498891,28.65902 L123.664664,28.6494 C124.512867,28.5805 124.795687,28.74768 126.4725,28.27578 L126.482039,28.38394 L126.755062,28.24614 L127.008492,28.22664 C126.989156,27.98068 127.359633,27.94142 127.486219,27.93154 L127.466883,27.66608 C124.522664,28.2659 123.75232,28.09872 122.933508,28.3348 L122.923711,28.22664 C122.153625,28.36418 122.124492,28.30516 121.929328,28.31504 C121.870805,28.32492 121.783148,28.37406 121.685695,28.47234 C121.675898,28.38394 121.646766,28.34442 121.588242,28.34442 C121.558852,28.34442 121.549312,28.3543 121.539516,28.3543 L119.043633,28.76718 C119.034094,28.69854 119.004703,28.65902 118.94618,28.6689 C117.649641,28.94424 118.000523,28.99338 116.265187,29.15068 C116.187328,29.16056 116.080078,29.19982 115.943695,29.28822 C115.933898,29.21958 115.894711,29.18032 115.807055,29.18994 L114.744352,29.2786 L114.032789,29.4554 C114.022992,29.38676 113.984062,29.34724 113.896406,29.35712 C113.496539,29.46528 113.145656,29.53418 112.862836,29.55368 L112.8435,29.55368 C112.66793,29.57344 112.931156,29.50454 112.794773,29.44578 L112.580273,29.57344 C112.26832,29.60308 112.434094,29.55368 111.361594,29.56356 C109.480078,29.79964 109.684781,29.82902 109.480078,29.8389 L108.778055,29.78976 C108.787852,29.85866 108.748922,29.9078 108.670805,29.9078 C107.871586,29.79964 107.46218,29.67172 107.452383,29.5243 C107.559633,28.75756 107.744742,28.36418 108.007969,28.34442 L108.144609,28.3348 L108.027562,28.59038 L108.163945,28.5805 C108.417375,28.4427 108.534422,28.31504 108.524625,28.197 L108.505289,27.93154 L108.251602,27.9513 L108.232266,27.70534 C108.212672,27.51866 108.242062,27.35148 108.310125,27.21394 L108.885305,26.27976 L108.904898,26.52572 L109.177922,26.50596 L109.158328,26.26026 L109.002352,26.03406 C109.207055,25.857 109.363031,25.75872 109.489875,25.74884 L109.480078,25.62118 L109.109602,25.65056 L109.080469,25.27694 C109.821422,23.7237 110.172305,22.81916 110.152711,22.56358 L110.415937,22.67174 C110.581711,22.66186 110.65957,22.56358 110.650031,22.38652 L110.396344,22.40628 L110.386805,22.29812 C110.368737,22.1185944 110.402583,21.9376322 110.484258,21.77708 C110.883867,21.35432 111.069234,20.93156 111.030047,20.48904 C111.108164,20.47916 111.147094,20.51868 111.156891,20.60708 C111.498234,20.41052 111.761461,19.88922 111.956367,19.0242 C112.56068,17.9231 113.41868,15.72064 114.539648,12.42722 C116.684648,6.60686 116.596734,5.98754 116.898891,4.6111 L116.645461,4.6306 C116.665055,4.80766 116.626125,4.97484 116.548008,5.13214 C116.372437,5.06324 116.236055,5.02398 116.138602,5.03386 L116.128805,4.9257 C116.089875,4.42416 116.294578,3.8246 116.762508,3.11662 L116.879555,3.10674 L117.094055,3.95226 L117.347484,3.93276 C117.337687,3.87374 117.406008,3.53938 117.542391,2.92006 C117.532594,2.79214 117.435141,2.71362 117.240234,2.70374 L116.996602,2.86104 C116.977008,2.68398 116.986805,2.22196 117.015937,1.4846 L116.889094,1.49448 C116.674852,1.27816 116.567602,1.1011 116.557805,0.95368 L115.163555,1.09122 C115.154016,0.99294 115.105289,0.84552 115.007578,0.65858 C114.998039,0.53092 115.309992,0.403 115.953234,0.27534 L116.236055,0.3835 L116.499281,0.2262 C116.509078,0.3146 116.557805,0.35386 116.655258,0.34398 L116.918484,0.18668 C116.928281,0.27534 116.977008,0.3146 117.074461,0.30472 L117.201305,0.29484 L117.181711,0.00988 C116.986805,0.02938 116.470148,0.02938 115.651078,0 L115.387852,0.17706 L115.378055,0.01976 C108.836578,0.5603 105.122273,0.86528 104.235141,0.95368 C104.118094,0.96356 103.659961,0.95368 102.850945,0.93392 C102.860484,1.04208 102.763031,1.1011 102.568125,1.12086 L102.285305,0.99294 L101.330109,1.2389 C101.105812,1.2584 100.725539,1.24852 100.199086,1.1895 C100.052906,1.30754 99.8773359,1.37644 99.6628359,1.3962 C99.5460469,1.40582 101.057086,1.31742 102.460875,1.21914 C102.314695,1.33718 102.090398,1.40582 101.778445,1.43546 C101.563945,1.45496 101.378836,1.42558 101.222859,1.33718 C101.008359,1.43546 100.316133,1.59276 99.1559766,1.82858 L98.8734141,1.72042 L94.3109062,2.4284 C94.1353359,2.34 93.9306328,2.31036 93.6965391,2.33012 C93.4529062,2.34962 93.0435,2.43828 92.4781172,2.59558 L90.2748516,3.51962 L90.4403672,3.79496 C90.5476172,3.78508 90.7035937,3.72606 90.8889609,3.6179 L91.6688437,3.6868 L91.5713906,4.42416 C90.8500312,4.74864 90.4308281,5.23042 90.3137812,5.83986 C89.2317422,6.32164 88.6954922,6.66588 88.6954922,6.87232 L88.7052891,6.99998 L88.8708047,6.99036 L89.1634219,6.83306 L89.5045078,7.24594 L89.5532344,7.81612 C89.5728281,7.99318 87.7498359,11.85678 84.1035937,19.4077 C80.9451328,26.68302 79.2876562,30.66492 79.1316797,31.38252 C78.0496406,31.68724 77.4257344,32.12976 77.2403672,32.7197 C77.2599609,32.90638 77.5817109,33.0343 78.2056172,33.08344 L78.23475,33.3684 L77.9521875,33.8403 L78.0009141,34.41074 C78.0300469,34.70558 78.8197266,34.93178 80.3699531,35.08908 C80.3601562,34.9908 80.4088828,34.93178 80.5161328,34.9219 C80.5452656,35.27576 80.4478125,35.96398 80.2235156,36.98656 L80.3892891,36.97668 C81.0327891,36.0919 81.3349453,35.4822 81.3058125,35.1481 L81.4421953,35.13822 C81.5981719,35.12834 81.7639453,35.3054 81.9588516,35.68864 C81.7639453,35.76742 81.0815156,37.33054 79.9115625,40.38814 L80.0773359,40.66348 L80.2431094,40.6536 C81.6762891,36.99644 82.5732187,34.97104 82.9434375,34.58754 C84.8252109,34.42036 88.081125,34.08626 92.7021562,33.58472 L92.9947734,33.40766 C93.0043125,33.5062 93.0628359,33.55534 93.1700859,33.54546 L93.4725,33.51582 L93.7648594,33.33902 C93.7746562,33.4373 93.8331797,33.48644 93.9404297,33.47656 L97.4402344,33.17184 C98.3662969,33.09306 98.8050937,32.8081 98.7659062,32.32632 C98.7563672,32.1984 99.3021562,32.05098 100.403789,31.89368 C100.511039,31.8838 100.667016,31.91344 100.881516,31.98208 C100.871719,31.89368 101.427562,31.80528 102.538992,31.707 C102.568125,31.11706 102.753234,30.80246 103.084781,30.77282 L103.055648,30.48786 C102.743695,30.51724 102.392555,30.59602 101.983148,30.73356 C101.251992,30.6943 100.784062,30.63528 100.589156,30.56638 C100.393992,30.67454 100.247812,30.73356 100.140562,30.74344 L97.7034609,30.82196 L97.4108437,30.97926 C97.4010469,30.89086 97.3427812,30.8516 97.2355312,30.86148 L97.0988906,30.8711 L96.7869375,31.02866 C96.7771406,30.94 96.5237109,30.8711 96.0168516,30.80246 L95.7048984,30.98914 L95.1005859,31.03828 L95.0907891,30.88098 C98.2299141,30.537 99.7798828,30.10436 99.7409531,29.5932 C99.9456562,29.57344 100.052906,29.67172 100.072242,29.87816 L100.988766,29.64234 L100.959633,29.35712 L93.4431094,29.56356 C93.4529062,29.66184 93.4041797,29.72086 93.2969297,29.73074 L92.3804062,29.65222 C92.1465703,29.67172 91.9516641,29.74062 91.7956875,29.85866 L91.4543437,29.73074 C90.5086875,29.80952 89.8066641,29.9273 89.3387344,30.07498 C88.6954922,30.02584 87.9836719,30.03546 87.1939922,30.10436 L85.5076406,30.25178 L84.7277578,30.16338 C84.6885703,29.66184 85.6538203,27.19418 87.6425859,22.77002 C88.2177656,21.27554 88.7442187,20.34162 89.2510781,19.98776 C89.3583281,19.97788 89.5143047,20.01714 89.7288047,20.10554 L90.9278906,19.69266 L91.542,19.79094 C92.5755703,19.70254 93.7746562,19.4077 95.1493125,18.89628 C95.4903984,18.8669 95.7438281,18.88666 95.9291953,18.96518 L96.8454609,18.74886 L99.5751797,18.51278 C100.735336,18.4145 101.992945,18.15892 103.357805,17.73616 L103.328414,17.4512 C102.821555,17.50034 102.558328,17.41168 102.538992,17.20524 C102.509602,16.822 102.139125,16.66444 101.427562,16.72346 L101.398172,16.4385 L102.148922,16.22218 L104.118094,16.055 L104.088961,15.77004 C104.010844,15.77966 103.611234,15.77004 102.870281,15.7404 L102.841148,15.43568 L103.601437,15.36678 C103.806141,15.34728 103.894055,15.24874 103.874461,15.05218 C102.850945,15.08156 102.334031,15.03242 102.324492,14.89488 C95.1882422,15.24874 91.6103203,15.31764 91.5909844,15.09144 C91.4837344,15.10132 91.3372969,15.17022 91.1423906,15.28826 L90.9572812,14.99316 C92.8483359,10.94262 93.9597656,8.89746 94.2815156,8.86808 C94.2913125,9.02538 94.2131953,9.28096 94.0474219,9.6252 L94.0572187,9.75286 L94.3596328,9.72348 C95.110125,7.9144 95.7438281,6.98048 96.2702812,6.94122 C98.5124766,6.7444 95.9583281,6.59698 100.75493,5.83986 C100.949836,5.92852 101.086219,5.96778 101.183672,5.9579 C103.065187,5.5744 105.687656,5.1714 109.051078,4.75852 L109.031484,4.4733 L107.237883,4.64048 L107.218289,4.35526 C107.432789,4.33576 107.608359,4.26686 107.754539,4.14882 L107.764336,4.30612 C107.861789,4.2965 107.998172,4.2276 108.173742,4.10956 C108.485695,4.08018 108.719531,4.10956 108.885305,4.19796 C109.509211,4.03104 110.016328,3.9325 110.386805,3.89324 L111.507773,3.78508 C111.780797,3.60828 111.907641,3.45098 111.897844,3.3033 L111.888047,3.17564 C111.605227,3.20502 111.283734,3.18552 110.903461,3.11662 C110.893664,2.95932 110.971523,2.85116 111.156891,2.80202 L113.243109,2.60546 L114.198562,2.3595 C114.208359,2.46766 114.257086,2.50692 114.334945,2.50692 C114.432398,2.4973 114.569039,2.4284 114.744352,2.31036 C114.793336,2.32024 114.851602,2.32024 114.900328,2.33012 C114.773742,2.59558 114.627562,2.97908 114.481125,3.48036 L114.208359,3.50012 C114.188766,3.31318 114.140039,3.146 114.052383,2.99858 L113.915742,3.00846 C111.381187,10.12648 110.250164,13.43992 107.910516,18.90616 C107.481516,20.30236 107.120836,21.07898 106.808883,21.24616 C106.81868,21.40346 106.916133,21.48198 107.081906,21.46248 C107.14043,22.1507 106.984453,22.82904 106.60418,23.4975 C105.521883,26.64376 104.800523,28.36418 104.430047,28.67878 L104.673937,30.16338 C104.683477,30.32068 104.605617,30.40908 104.439844,30.42884 L104.186414,30.4486 C104.147484,30.03546 104.001047,29.8389 103.738078,29.86854 L103.601438,29.87816 C103.269891,30.3992 103.016461,30.99902 102.850945,31.69712 L103.104375,31.67736 C103.445461,31.45142 103.601438,31.18596 103.572305,30.88098 L104.079164,30.83184 L104.371523,30.94 C104.137688,31.31362 104.030438,31.60872 104.050031,31.83466 L104.186414,32.07074 L103.854867,32.85724 L103.864664,32.98516 C104.157281,32.95552 104.478773,33.0538 104.820117,33.26024 C105.053953,33.24074 105.307641,33.13258 105.590203,32.94564 C105.88282,32.91626 106.974656,32.90638 108.856172,32.90638 L109.801828,32.5819 C110.952188,32.57202 111.137297,32.60166 112.13168,32.513 L112.541086,32.47374 L112.755586,32.32632 L112.765383,32.45424 C113.808492,32.36558 113.876813,32.43448 114.695625,32.53276 L114.705422,32.66068 L114.130242,32.70982 L114.149836,32.95552 C114.325148,32.93576 114.481125,32.88662 114.607969,32.77846 C114.754148,32.76884 114.841805,32.84736 114.851602,33.02442 C114.617766,33.04392 114.354539,33.10294 114.061922,33.20122 L113.808492,33.11282 C113.408883,33.22098 113.496539,33.25036 113.223516,33.27012 L112.823906,33.1916 C112.833703,33.26024 112.794773,33.30938 112.726453,33.30938 C112.73625,33.46668 112.823906,33.54546 112.970086,33.53558 L113.379492,33.49632 L115.514695,33.30938 L116.323711,33.13258 C116.333508,33.20122 116.362641,33.24074 116.430961,33.23086 L116.821031,33.08344 L117.552188,33.02442 C118.11757,32.97528 118.107773,32.93576 119.33625,32.7392 C119.326453,32.66068 119.355586,32.63104 119.414109,32.62116 L119.423906,32.72932 C121.422469,32.38534 121.549055,32.36558 121.870805,32.25742 L121.900195,32.31644 C122.397258,32.1984 122.114695,32.22804 122.251078,32.12976 C122.260875,32.21816 122.290008,32.25742 122.338734,32.25742 L122.689875,32.22804 L122.670281,31.96258 L121.958719,31.9527 L121.948922,31.93294 C121.919531,31.94282 121.900195,31.94282 121.870805,31.9527 L121.773352,31.9527 L121.773352,31.97246 C121.295625,32.07074 121.285828,32.00184 120.973875,32.03148 L119.189813,32.12976 L119.180273,32.00184 L120.174656,31.8643 L120.535336,31.83466 L120.740039,31.68724 L120.749836,31.81516 C122.153625,31.69712 122.650688,32.05098 129.143438,30.65504 C129.494578,30.6254 129.465188,30.33056 129.689484,29.72086 C129.570605,29.7290978 129.451958,29.7017845 129.348398,29.64234 C128.812148,29.84878 128.529328,29.7505 127.496016,29.91768 C127.408359,29.92756 127.340039,29.84878 127.310648,29.69148 L127.300852,29.58332 L128.295234,29.6127 C128.480602,29.5932 128.841281,29.56356 129.377531,29.25884 C129.377531,29.34724 129.172828,29.39638 129.289617,29.38676 L129.289875,29.38676 L129.289875,29.38676 Z M81.2862188,30.16338 L80.8280859,30.20264 C80.8084922,30.01596 81.0523828,29.30798 81.5592422,28.09872 L81.8613984,28.06934 C81.8711953,28.3543 81.6858281,29.0524 81.2862188,30.16338 L81.2862188,30.16338 Z M81.8420625,27.92166 L81.8322656,27.794 C81.8224687,27.6367 81.9199219,27.52854 82.1344219,27.4794 L82.1442187,27.60706 C82.1540156,27.794 82.0563047,27.90216 81.8420625,27.92166 L81.8420625,27.92166 Z M87.9349453,32.6703 L87.9447422,32.79822 L87.1844531,32.86712 L87.1746563,32.7392 L87.9349453,32.6703 L87.9349453,32.6703 Z M87.0186797,32.59178 C87.0284766,32.74908 86.7943828,32.92614 86.2875234,33.10294 L85.3514062,33.0343 L85.04925,33.06368 L85.0201172,32.77846 L87.0186797,32.59178 L87.0186797,32.59178 Z M93.1798828,3.99152 L92.72175,4.03104 L92.7119531,3.87374 C92.7021562,3.71644 92.7900703,3.60828 92.9849766,3.55914 L93.15075,3.54926 L93.4627031,3.67692 C93.4722422,3.86386 93.3845859,3.97202 93.1798828,3.99152 L93.1798828,3.99152 Z M100.150359,2.61508 L100.296539,2.60546 L100.316133,2.89042 L99.8969297,2.92968 C99.8871328,2.77238 99.9649922,2.66448 100.150359,2.61508 L100.150359,2.61508 Z M98.3954297,3.23466 L97.7034609,3.15588 L97.6936641,3.02822 C98.6003906,2.94944 98.9025469,2.85116 99.4581328,2.69386 C99.4679297,2.80202 99.5653828,2.84128 99.7409531,2.82178 L99.7602891,3.10674 L99.4875234,3.13638 C99.2730234,3.15588 99.0876562,3.1265 98.9316797,3.03784 C98.7659062,3.146 98.5905937,3.2149 98.3954297,3.23466 L98.3954297,3.23466 Z M99.2632266,5.7811 L99.2534297,5.65318 L100.374656,5.54502 L100.384453,5.67294 L99.2632266,5.7811 L99.2632266,5.7811 Z M100.462313,4.79778 L100.452516,4.64048 L100.998563,4.59134 L101.008359,4.74864 L100.462313,4.79778 L100.462313,4.79778 Z M100.589156,2.87092 L100.442719,2.88054 L100.569563,2.57582 L101.817375,2.45778 L101.827172,2.61508 C101.505422,2.64472 101.086219,2.73312 100.589156,2.87092 L100.589156,2.87092 Z M101.222859,5.58428 L101.203266,5.29932 L101.749312,5.25018 C101.934422,5.23042 102.031875,5.31882 102.041672,5.51564 L101.222859,5.58428 L101.222859,5.58428 Z M104.5275,1.04208 L103.825734,1.2389 L103.698891,1.24852 C103.367602,1.27816 102.938602,1.26828 102.431484,1.21914 C103.338211,1.16012 104.206008,1.09122 104.5275,1.04208 L104.5275,1.04208 Z M103.777008,4.18834 L103.786805,4.316 L102.821555,4.40466 L102.811758,4.27674 L103.777008,4.18834 L103.777008,4.18834 Z M105.356367,4.9452 C105.34657,4.82742 105.161203,4.74864 104.781188,4.70938 L103.815938,4.98472 L103.074984,5.0141 C102.909211,4.89606 102.821555,4.81754 102.811758,4.75852 L103.669758,4.80766 L105.6,4.49306 L106.584586,4.53232 L106.594383,4.68962 C106.106859,4.73876 105.697453,4.82742 105.356367,4.9452 L105.356367,4.9452 Z M115.290398,2.3595 C115.407445,2.36938 115.485305,2.36938 115.514695,2.36938 C115.855781,2.03502 116.236055,1.76956 116.674852,1.58288 C116.323711,3.13638 115.777922,4.28662 115.027172,5.03386 L114.481125,4.6995 C114.939516,3.5295 115.212539,2.75288 115.290398,2.3595 L115.290398,2.3595 Z M113.613586,5.2598 L113.749969,5.25018 C113.564859,5.60404 113.399086,5.79072 113.262703,5.8006 L113.233312,5.42698 C113.321227,5.42698 113.447812,5.36796 113.613586,5.2598 L113.613586,5.2598 Z M112.531547,7.86526 C112.794773,6.80342 113.048203,6.20386 113.282039,6.04656 L113.291836,6.17422 C113.155453,7.15728 112.940953,7.67858 112.658133,7.71784 L112.706859,8.33716 C112.473023,8.67152 112.365773,8.9271 112.375312,9.12366 L112.23893,9.13354 L112.16107,8.27814 C112.317047,8.25864 112.443633,8.12084 112.531547,7.86526 L112.531547,7.86526 Z M112.112344,9.28096 C112.121883,9.42838 112.02443,9.77262 111.829523,10.30354 L111.693141,10.31342 L111.66375,9.9398 C111.849117,9.50716 112.005094,9.29084 112.112086,9.28096 L112.112344,9.28096 L112.112344,9.28096 Z M104.244937,32.30656 L104.235141,32.1984 L104.48857,32.1789 L104.517961,32.55252 C104.38132,32.5624 104.283867,32.48362 104.244937,32.30656 L104.244937,32.30656 Z M115.485305,32.60166 C115.475508,32.513 115.436578,32.47374 115.348922,32.48362 L114.715219,32.54264 L114.705422,32.41472 L114.763945,32.41472 L116.265187,32.28706 L116.274984,32.41472 C115.836445,32.43448 115.573219,32.50338 115.485305,32.60166 L115.485305,32.60166 Z M114.734812,32.28706 C114.793336,32.31644 114.763945,32.34608 114.734812,32.36558 C114.705422,32.3557 114.666492,32.32632 114.734812,32.28706 L114.734812,32.28706 Z M114.812672,30.51724 L113.974266,30.58614 L113.964469,30.45822 L114.725016,30.38958 L115.387852,30.2224 C115.397648,30.30092 115.436578,30.33056 115.524492,30.32068 C116.314172,30.18314 116.236055,30.14362 116.616328,30.11424 C116.742914,30.10436 116.821031,30.18314 116.830828,30.34044 L114.812672,30.51724 L114.812672,30.51724 Z M117.747094,30.26166 C117.279164,30.21252 117.250031,30.17326 116.918484,30.20264 L116.908688,30.09448 L117.659438,30.02584 L117.669234,30.134 C117.591117,30.14362 117.873938,30.16338 117.747094,30.26166 L117.747094,30.26166 Z M117.805617,30.12412 L117.79582,30.01596 L118.205227,29.97644 L118.215023,30.0846 L117.805617,30.12412 L117.805617,30.12412 Z M118.712344,30.04534 L118.702547,29.93718 C118.770867,29.92756 118.86832,29.87816 118.994906,29.77988 C119.199609,29.76038 119.306859,29.89792 119.326453,30.05522 L118.712344,30.04534 L118.712344,30.04534 Z M119.8725,29.89792 L119.862703,29.77 L120.359766,29.73074 L120.369562,29.85866 L119.8725,29.89792 L119.8725,29.89792 Z M120.564469,29.8389 C120.55493,29.69148 120.613195,29.60308 120.740039,29.58332 L120.905813,29.79964 C120.896016,29.73074 120.925148,29.69148 120.983672,29.6816 L121.110516,29.91768 L120.564469,29.8389 L120.564469,29.8389 Z M130.157414,28.69854 L130.167211,28.68866 L130.167211,28.67878 C130.167211,28.67878 130.157414,28.68866 130.157414,28.69854 L130.157414,28.69854 Z M130.332984,28.57062 C130.410844,28.52148 130.450031,28.47234 130.264664,28.44296 C130.177008,28.54124 130.362117,28.57062 130.167211,28.5805 L130.177008,28.6689 C130.196344,28.6494 130.245328,28.61976 130.284258,28.59038 L130.177008,28.67878 L130.177008,28.68866 L129.972305,28.95412 L130.381711,28.8067 L130.430438,28.8067 L130.410844,28.56074 L130.332984,28.57062 L130.332984,28.57062 Z M131.044547,29.13118 L130.966687,29.1408 L130.986023,29.38676 L131.561203,29.33762 C131.551664,29.18032 131.171391,29.13118 131.044547,29.13118 L131.044547,29.13118 Z" id="Shape" fill="#F9DC3E"></path>
                    </g>
                    <rect id="Rectangle-19-Copy-8" fill-opacity="0.00897305254" fill="#EDEDED" transform="translate(0.500000, 38.500000) scale(-1, 1) translate(-0.500000, -38.500000) " x="0" y="0" width="1" height="77"></rect>
                </g>
            </g>
        </g>
    </g>
</svg>