<?xml version="1.0" encoding="UTF-8"?>
<svg width="47px" height="77px" viewBox="0 0 47 77" version="1.1" xmlns="http://www.w3.org/2000/svg" xmlns:xlink="http://www.w3.org/1999/xlink">
    <!-- Generator: Sketch 40 (33762) - http://www.bohemiancoding.com/sketch -->
    <title>html</title>
    <desc>Created with Sketch.</desc>
    <defs></defs>
    <g id="Maquette" stroke="none" stroke-width="1" fill="none" fill-rule="evenodd">
        <g id="nav-view-desktop-copy" transform="translate(-974.000000, -3178.000000)">
            <g id="Built-with" transform="translate(0.000000, 3137.000000)">
                <g id="html" transform="translate(974.000000, 41.000000)">
                    <g id="Group" transform="translate(5.000000, 17.000000)">
                        <polygon id="Shape" fill="#E44D26" points="41.9269615 11.7616146 38.1139615 55.034701 20.9743846 59.8484064 3.882 55.0414807 0.0730384615 11.7616146 41.9269615 11.7616146"></polygon>
                        <polygon id="Shape" fill="#F16529" points="21 56.1690153 34.8496153 52.2792194 38.1080769 15.3003854 21 15.3003854 21 56.1690153"></polygon>
                        <polygon id="Shape" fill="#EBEBEB" points="13.5876923 25.9166978 21 25.9166978 21 20.6085416 7.86138462 20.6085416 7.98680769 22.0326298 9.27461538 36.660305 21 36.660305 21 31.3522657 14.0665385 31.3522657 13.5876923 25.9166978"></polygon>
                        <polygon id="Shape" fill="#EBEBEB" points="14.7685385 39.3144416 9.50873077 39.3144416 10.2428077 47.6489166 20.9758846 50.6674037 21 50.660624 21 45.1379721 20.9770385 45.1441674 15.1415769 43.5478981 14.7685385 39.3144416"></polygon>
                        <polygon id="Shape" fill="#000000" points="3.96715385 0 6.62988462 0 6.62988462 2.66512434 9.06565385 2.66512434 9.06565385 0 11.7285 0 11.7285 8.07065112 9.06576923 8.07065112 9.06576923 5.36812152 6.63 5.36812152 6.63 8.07065112 3.96726922 8.07065112 3.96726922 0 3.96715385 0"></polygon>
                        <polygon id="Shape" fill="#000000" points="15.2300769 2.67634592 12.8859231 2.67634592 12.8859231 0 20.2382307 0 20.2382307 2.67634592 17.8930385 2.67634592 17.8930385 8.07065112 15.2301923 8.07065112 15.2301923 2.67634592 15.2300769 2.67634592"></polygon>
                        <polygon id="Shape" fill="#000000" points="21.4051154 0 24.1816153 0 25.8895384 2.83578582 27.5957307 0 30.3732693 0 30.3732693 8.07065112 27.7215 8.07065112 27.7215 4.07039299 25.8895384 6.93996043 25.8437307 6.93996043 24.0105 4.07039299 24.0105 8.07065112 21.4051154 8.07065112 21.4051154 0"></polygon>
                        <polygon id="Shape" fill="#000000" points="31.6984615 0 34.3619999 0 34.3619999 5.40295516 38.1065769 5.40295516 38.1065769 8.07065112 31.6984615 8.07065112 31.6984615 0"></polygon>
                        <polygon id="Shape" fill="#FFFFFF" points="20.9818845 36.660305 27.4339615 36.660305 26.8257693 43.5445082 20.9818845 45.1424139 20.9818845 50.6648322 31.7235 47.6489166 31.8023076 46.7521257 33.0335768 32.7776397 33.161423 31.3522657 20.9818845 31.3522657 20.9818845 36.660305"></polygon>
                        <polygon id="Shape" fill="#FFFFFF" points="20.9818845 25.9037229 20.9818845 25.9166978 33.6381923 25.9166978 33.7433078 24.723587 33.9820384 22.0326298 34.1073462 20.6085416 20.9818845 20.6085416 20.9818845 25.9037229"></polygon>
                    </g>
                    <rect id="Rectangle-19-Copy-6" fill-opacity="0.00897305254" fill="#EDEDED" transform="translate(0.500000, 38.500000) scale(-1, 1) translate(-0.500000, -38.500000) " x="0" y="0" width="1" height="77"></rect>
                </g>
            </g>
        </g>
    </g>
</svg>