<?xml version="1.0" encoding="UTF-8"?>
<svg width="155px" height="77px" viewBox="0 0 155 77" version="1.1" xmlns="http://www.w3.org/2000/svg" xmlns:xlink="http://www.w3.org/1999/xlink">
    <!-- Generator: Sketch 40 (33762) - http://www.bohemiancoding.com/sketch -->
    <title>react</title>
    <desc>Created with Sketch.</desc>
    <defs></defs>
    <g id="Maquette" stroke="none" stroke-width="1" fill="none" fill-rule="evenodd">
        <g id="nav-view-desktop-copy" transform="translate(-341.000000, -3178.000000)">
            <g id="Built-with" transform="translate(0.000000, 3137.000000)">
                <g id="react" transform="translate(341.000000, 41.000000)">
                    <g transform="translate(0.000000, 20.000000)" id="Page-1">
                        <g>
                            <g id="react">
                                <g id="Page-1">
                                    <g id="react">
                                        <path d="M44.2915602,15.605731 C43.7334605,15.4140132 43.155155,15.2326172 42.5597081,15.0610652 C42.6575769,14.6624337 42.7474012,14.2689631 42.8272667,13.8821825 C44.1382457,7.53112543 43.2810819,2.41466958 40.3541226,0.730114598 C37.547536,-0.885150558 32.9575776,0.799022139 28.3219407,4.8252863 C27.8761695,5.21244915 27.4291533,5.62235817 26.982329,6.05195503 C26.6846055,5.76772341 26.387361,5.49304902 26.0908826,5.23032114 C21.2325995,0.925177378 16.3629207,-0.889069022 13.4388344,0.80036015 C10.6349291,2.42030835 9.80457862,7.23026426 10.9846512,13.2492081 C11.0986077,13.8305736 11.2318124,14.4242679 11.3824457,15.0279017 C10.693248,15.2231556 10.0278951,15.4313118 9.39127071,15.6527525 C3.69545505,17.6346325 0.0578475952,20.7407278 0.0578475952,23.962561 C0.0578475952,27.2900973 3.96282198,30.6276684 9.89545655,32.6514088 C10.363636,32.81111 10.8494355,32.962114 11.3500782,33.1054722 C11.1875704,33.7583259 11.046226,34.3980858 10.9275771,35.0220765 C9.8023761,40.93656 10.6810863,45.6328805 13.4775222,47.2426025 C16.3659851,48.9049849 21.2136386,47.19625 25.9340245,43.0782366 C26.3071126,42.7527177 26.6815412,42.4075112 27.05664,42.0456751 C27.5428229,42.5129273 28.028239,42.9551396 28.5110702,43.3699229 C33.0833129,47.2966964 37.5991517,48.8823343 40.3930019,47.2681205 C43.2785919,45.6009593 44.2163874,40.5559915 42.9988717,34.4179649 C42.9058869,33.9491834 42.7976762,33.4702712 42.6761545,32.9828533 C43.0165876,32.8824067 43.3507964,32.778711 43.6766738,32.6709056 C49.8442121,30.6314913 53.857014,27.3345381 53.857014,23.962561 C53.857014,20.729068 50.1020983,17.6020424 44.2915602,15.605731 L44.2915602,15.605731 Z M42.9538638,30.4936762 C42.6596836,30.5908729 42.3578424,30.6848205 42.0502555,30.7759008 C41.3693893,28.6246669 40.450459,26.3371471 39.3259283,23.973743 C40.399035,21.6666309 41.2824374,19.4083563 41.9442471,17.2710759 C42.4945902,17.4300125 43.0287495,17.5976461 43.5434693,17.7745501 C48.5219331,19.4850052 51.5587312,22.0139401 51.5587312,23.962561 C51.5587312,26.0381974 48.2790814,28.7326634 42.9538638,30.4936762 L42.9538638,30.4936762 Z M40.7442562,34.8634265 C41.2826288,37.5775806 41.3595255,40.0314915 41.0029086,41.949816 C40.6824898,43.6735556 40.0381086,44.8228109 39.2413705,45.2830864 C37.5459079,46.26251 33.9201752,44.9893932 30.0099338,41.6311785 C29.5616729,41.2462137 29.110156,40.8351579 28.6572026,40.4001132 C30.1731119,38.7454724 31.6881593,36.8218916 33.1668171,34.6855668 C35.7676114,34.4552381 38.2247636,34.0786836 40.4530445,33.564601 C40.5627876,34.006431 40.6602731,34.4397552 40.7442562,34.8634265 L40.7442562,34.8634265 Z M18.3991995,45.1138282 C16.742712,45.6976786 15.4234018,45.7144037 14.6258976,45.255466 C12.9289029,44.278623 12.2234257,40.5079188 13.185736,35.4498575 C13.2959578,34.8705945 13.4271515,34.2755625 13.5783593,33.6673411 C15.7822212,34.1537078 18.2213698,34.5036929 20.8283888,34.7146208 C22.317006,36.805071 23.8758164,38.7265492 25.4466929,40.4090015 C25.1034826,40.7396811 24.7616129,41.054496 24.4216586,41.3511519 C22.3343388,43.1720885 20.242614,44.464033 18.3991995,45.1138282 L18.3991995,45.1138282 Z M10.6387596,30.480965 C8.01546105,29.5861229 5.84904202,28.4231052 4.36406388,27.1540025 C3.0297191,26.0135399 2.35603486,24.8812964 2.35603486,23.962561 C2.35603486,22.0074413 5.27667379,19.5136768 10.1477889,17.8187045 C10.7388307,17.6130331 11.3575476,17.4192128 11.9996304,17.2371478 C12.6728358,19.4226921 13.5559511,21.707727 14.6216841,24.0183752 C13.5421614,26.3633337 12.6465013,28.6847819 11.9666884,30.8959392 C11.508947,30.7646231 11.0654741,30.6264259 10.6387596,30.480965 L10.6387596,30.480965 Z M13.2401287,12.808716 C12.2290757,7.6518331 12.9005574,3.76166369 14.5902742,2.78548959 C16.3901171,1.74556886 20.3700729,3.22827541 24.5648226,6.94555478 C24.8329555,7.1831472 25.1021419,7.43182596 25.3720945,7.68910624 C23.8089748,9.36419957 22.2644329,11.2712466 20.789031,13.3493677 C18.2588127,13.583424 15.8368054,13.9594049 13.6099607,14.462879 C13.469957,13.9008191 13.3459455,13.3486032 13.2401287,12.808716 L13.2401287,12.808716 Z M36.4466583,18.5276588 C35.9143188,17.6099748 35.367806,16.7139858 34.810664,15.8424632 C36.5271943,16.0590298 38.1718069,16.3465108 39.7162533,16.698312 C39.2525745,18.1814008 38.6746524,19.7320592 37.9943605,21.321711 C37.5063586,20.3970503 36.9902024,19.4647439 36.4466583,18.5276588 L36.4466583,18.5276588 Z M26.983095,9.32836002 C28.0431781,10.474557 29.1047933,11.7542683 30.14898,13.1427407 C29.0967493,13.0931387 28.031495,13.0673342 26.957431,13.0673342 C25.8935174,13.0673342 24.8361157,13.0925653 23.7903969,13.1413071 C24.8356369,11.7657369 25.9064452,10.4877459 26.983095,9.32836002 L26.983095,9.32836002 Z M17.4589145,18.5435237 C16.9271492,19.4637881 16.4205693,20.3910293 15.9402282,21.3199908 C15.270949,19.7358821 14.6983893,18.1781514 14.2306887,16.6740366 C15.7656544,16.3312193 17.4025108,16.0509061 19.108124,15.8384492 C18.5431295,16.7179998 17.9921161,17.6205834 17.4589145,18.5433326 L17.4589145,18.5435237 L17.4589145,18.5435237 Z M19.1572498,32.2502925 C17.3950413,32.0540828 15.7335742,31.7882013 14.1989915,31.4548453 C14.6741615,29.9238749 15.2593618,28.3328851 15.9428137,26.7146571 C16.4243998,27.6429495 16.9329907,28.5705731 17.4680118,29.4928446 L17.4681076,29.4928446 C18.013088,30.4324144 18.5776995,31.3527743 19.1572498,32.2502925 L19.1572498,32.2502925 Z M27.046681,38.7584702 C25.9573905,37.585513 24.8708771,36.2880254 23.8097407,34.892385 C24.8398502,34.9327164 25.8900698,34.9533602 26.957431,34.9533602 C28.0539993,34.9533602 29.1380226,34.9287025 30.2050007,34.8812987 C29.1573664,36.3020747 28.0995819,37.6015692 27.046681,38.7584702 L27.046681,38.7584702 Z M38.01629,26.6321784 C38.7353652,28.267896 39.3415374,29.850571 39.8228362,31.3554504 C38.2629724,31.7105964 36.5788098,31.9966441 34.8043438,32.2091967 C35.3628267,31.3259185 35.9141271,30.4145423 36.4558514,29.4770749 C37.0038964,28.528617 37.524266,27.5787253 38.01629,26.6321784 L38.01629,26.6321784 Z M34.4650595,28.3311648 C33.6240795,29.7864421 32.7606912,31.175679 31.8841836,32.487025 C30.2877386,32.6009468 28.6384333,32.6596282 26.957431,32.6596282 C25.2832276,32.6596282 23.6547024,32.6077324 22.0865074,32.5061392 C21.1746636,31.1775907 20.292506,29.784244 19.4568885,28.3436847 L19.45708,28.3436847 C18.6236651,26.907044 17.8566132,25.4582654 17.1615741,24.0176108 C17.8564216,22.5736109 18.6214626,21.1232077 19.4500894,19.6891473 L19.4498979,19.689434 C20.2807271,18.2515508 21.1551281,16.8649898 22.0585448,15.5447559 C23.6585329,15.4240483 25.2992198,15.3610662 26.9573352,15.3610662 L26.957431,15.3610662 C28.6230157,15.3610662 30.2658093,15.4245261 31.8653183,15.5462851 C32.7549455,16.8568662 33.6234093,18.2389353 34.4574945,19.6770096 C35.3010602,21.1312358 36.0759645,22.571986 36.7767493,23.9850207 C36.0780714,25.4223303 35.3048907,26.8776078 34.4650595,28.3311648 L34.4650595,28.3311648 Z M39.2061302,2.71725106 C41.0076969,3.75411348 41.70829,7.935778 40.5763857,13.419231 C40.5041812,13.7691207 40.4228798,14.1255093 40.3345871,14.4866765 C38.1025712,13.9726894 35.6788402,13.5902096 33.1412488,13.3526172 C31.6629738,11.2516543 30.1310724,9.34164454 28.5934252,7.68805492 C29.006829,7.29114375 29.4196581,6.91267796 29.8307633,6.55552479 C33.8025795,3.10584749 37.5147855,1.74384855 39.2061302,2.71725106 L39.2061302,2.71725106 Z" id="Combined-Shape" fill="#53C1DE"></path>
                                        <path d="M26.957431,19.1679923 C29.6106071,19.1679923 31.7615126,21.314543 31.7615126,23.962561 C31.7615126,26.6104833 29.6106071,28.7571301 26.957431,28.7571301 C24.3042548,28.7571301 22.153349,26.6104833 22.153349,23.962561 C22.153349,21.314543 24.3042548,19.1679923 26.957431,19.1679923" id="Shape" fill="#53C1DE"></path>
                                        <path d="M75.7580952,47.5445545 L80.352381,47.5445545 L74.9695238,39.5375842 C78.1580952,38.3057426 79.9409524,35.6025347 79.9409524,31.7701386 C79.9409524,26.5690297 76.4095238,23.5920792 70.272381,23.5920792 L60.5352381,23.5920792 L60.5352381,47.5445545 L64.5809524,47.5445545 L64.5809524,40.3245941 L70.272381,40.3245941 C70.6495238,40.3245941 71.0266667,40.3245941 71.3695238,40.2903762 L75.7580952,47.5445545 L75.7580952,47.5445545 L75.7580952,47.5445545 Z M64.5809524,36.697505 L64.5809524,27.2191683 L70.272381,27.2191683 C73.9752381,27.2191683 76.1009524,28.7247525 76.1009524,31.8727921 C76.1009524,35.1234851 73.9752381,36.697505 70.272381,36.697505 L64.5809524,36.697505 L64.5809524,36.697505 L64.5809524,36.697505 Z M92.592381,29.203802 C87.1752381,29.2380198 83.3695238,32.9677624 83.3695238,38.4768317 C83.3695238,43.9516832 87.072381,47.6814257 92.6952381,47.6814257 C95.8495238,47.6814257 98.4552381,46.5522376 100.238095,44.6018218 L98.1466667,42.3776634 C96.8095238,43.7463762 94.992381,44.4991683 93.0038095,44.4991683 C90.1238095,44.4991683 87.9638095,42.7540594 87.3466667,39.948198 L101.129524,39.948198 C101.609524,33.3783762 99.0038095,29.203802 92.592381,29.203802 L92.592381,29.203802 L92.592381,29.203802 L92.592381,29.203802 Z M87.2780952,37.073901 C87.7238095,34.1653861 89.7466667,32.3518416 92.6266667,32.3518416 C95.6095238,32.3518416 97.5638095,34.1311683 97.7009524,37.073901 L87.2780952,37.073901 L87.2780952,37.073901 L87.2780952,37.073901 Z M116.180952,47.5445545 L120.055238,47.5445545 L120.020952,35.6025347 C119.986667,31.5990495 117.346667,29.203802 112.649524,29.203802 C109.186667,29.203802 107.335238,29.9908119 104.798095,31.496396 L106.409524,34.2338218 C108.226667,33.0019802 110.04381,32.3860594 111.792381,32.3860594 C114.672381,32.3860594 116.146667,33.7547723 116.146667,36.0473663 L116.146667,36.5948515 L110.626667,36.5948515 C106.238095,36.6290693 103.735238,38.7505743 103.735238,42.069703 C103.735238,45.2861782 106.20381,47.7156436 110.146667,47.7156436 C112.786667,47.7156436 114.878095,46.9286337 116.180952,45.320396 L116.180952,47.5445545 L116.180952,47.5445545 L116.180952,47.5445545 Z M110.969524,44.6018218 C108.775238,44.6018218 107.438095,43.5410693 107.438095,41.8986139 C107.438095,40.153505 108.638095,39.4691485 111.209524,39.4691485 L116.146667,39.4691485 L116.146667,41.1458218 C115.940952,43.1304554 113.780952,44.6018218 110.969524,44.6018218 L110.969524,44.6018218 L110.969524,44.6018218 L110.969524,44.6018218 Z M132.809524,29.203802 C127.392381,29.203802 123.620952,32.9677624 123.620952,38.4768317 C123.620952,43.9516832 127.392381,47.6814257 132.809524,47.6814257 C136.272381,47.6814257 138.912381,46.4495842 140.558095,44.2938614 L138.36381,42.1039208 C137.129524,43.5410693 135.278095,44.2938614 132.980952,44.2938614 C129.826667,44.2938614 127.56381,41.9328317 127.56381,38.4768317 C127.56381,35.0208317 129.826667,32.659802 132.980952,32.659802 C135.175238,32.6255842 136.92381,33.4125941 138.192381,34.7128713 L140.352381,32.1807525 C138.672381,30.2645545 136.100952,29.203802 132.809524,29.203802 L132.809524,29.203802 L132.809524,29.203802 L132.809524,29.203802 Z M153.998095,43.3699802 C152.935238,43.8832475 152.078095,44.1569901 151.255238,44.1569901 C150.020952,44.1569901 149.300952,43.5752871 149.300952,41.6933069 L149.300952,32.9677624 L154.68381,32.9677624 L154.68381,30.0250297 L149.300952,30.0250297 L149.300952,25.0292277 L145.392381,25.0292277 L145.392381,30.0250297 L142.820952,30.0250297 L142.820952,32.9677624 L145.392381,32.9677624 L145.392381,42.4118812 C145.392381,46.1416238 147.758095,47.7156436 150.500952,47.7156436 C152.04381,47.7156436 153.552381,47.2365941 154.992381,46.3811485 L153.998095,43.3699802 L153.998095,43.3699802 L153.998095,43.3699802 Z" id="React" fill="#4B4B4B"></path>
                                    </g>
                                </g>
                            </g>
                        </g>
                    </g>
                    <rect id="Rectangle-19-Copy" fill-opacity="0.00897305254" fill="#EDEDED" transform="translate(56.500000, 38.500000) scale(-1, 1) translate(-56.500000, -38.500000) " x="56" y="0" width="1" height="77"></rect>
                </g>
            </g>
        </g>
    </g>
</svg>