<?xml version="1.0" encoding="UTF-8"?>
<svg width="68px" height="77px" viewBox="0 0 68 77" version="1.1" xmlns="http://www.w3.org/2000/svg" xmlns:xlink="http://www.w3.org/1999/xlink">
    <!-- Generator: Sketch 40 (33762) - http://www.bohemiancoding.com/sketch -->
    <title>sass</title>
    <desc>Created with Sketch.</desc>
    <defs></defs>
    <g id="Maquette" stroke="none" stroke-width="1" fill="none" fill-rule="evenodd">
        <g id="nav-view-desktop-copy" transform="translate(-734.000000, -3178.000000)">
            <g id="Built-with" transform="translate(0.000000, 3137.000000)">
                <g id="sass" transform="translate(734.000000, 41.000000)">
                    <path d="M58.8140351,46.7239583 C56.5111111,46.7371094 54.5169591,47.296875 52.8444444,48.1303385 C52.2269006,46.8933594 51.6093567,45.8125 51.5065614,45.0053385 C51.3907719,44.0678385 51.2492515,43.4947917 51.3907719,42.3751302 C51.5321637,41.2552083 52.1754386,39.6666667 52.1754386,39.5364583 C52.1624444,39.4192708 52.0337895,38.8463542 50.7087719,38.8333333 C49.3837544,38.8203125 48.2385965,39.09375 48.1099415,39.4453125 C47.9812865,39.796875 47.7239766,40.6041667 47.5567251,41.4375 C47.3251462,42.6614583 44.9064327,46.9973958 43.5298246,49.2760417 C43.0795322,48.390625 42.6935673,47.609375 42.6162456,46.9842448 C42.5005848,46.046875 42.3589357,45.4738281 42.5005848,44.3541667 C42.6421053,43.2342448 43.2853801,41.6458333 43.2853801,41.515625 C43.2725146,41.3984375 43.1438596,40.8255208 41.8188421,40.8125 C40.4935673,40.7994792 39.3486667,41.0729167 39.2200117,41.4244792 C39.0913567,41.7760417 38.9498363,42.609375 38.6667953,43.4166667 C38.3964912,44.2239583 35.180117,51.4635417 34.3438596,53.3515625 C33.9192982,54.3151042 33.5463275,55.0833333 33.2760234,55.6041667 C33.005848,56.125 33.2631579,55.6432292 33.2374269,55.6953125 C33.005848,56.1380208 32.877193,56.3854167 32.877193,56.3854167 L32.877193,56.3985677 C32.697076,56.7240885 32.5040936,57.0364583 32.4139064,57.0364583 C32.3495789,57.0364583 32.220924,56.1640625 32.4396374,54.966276 C32.9156608,52.453125 34.0735556,48.5339844 34.0608187,48.3907552 C34.0608187,48.325651 34.2794035,47.6354167 33.3144912,47.2839844 C32.3753099,46.9324219 32.0409357,47.5183594 31.963614,47.5183594 C31.8864211,47.5183594 31.8220936,47.7266927 31.8220936,47.7266927 C31.8220936,47.7266927 32.8641988,43.3127604 29.8279415,43.3127604 C27.923848,43.3127604 25.2992865,45.4091146 23.9998713,47.3231771 C23.1764795,47.7789062 21.4267719,48.7423177 19.5741404,49.7710937 C18.866538,50.1617187 18.1332047,50.5783854 17.4384678,50.9559896 L17.297076,50.7994792 C13.6175439,46.828125 6.81169591,44.015625 7.09473684,38.6770833 C7.19766082,36.7369792 7.86666667,31.6197917 20.1662105,25.421875 C30.2398947,20.34375 38.3065614,21.7369792 39.7087719,24.8359375 C41.702924,29.2630208 35.3988304,37.4921875 24.9264444,38.6770833 C20.9381404,39.1328125 18.8409357,37.5703125 18.3135789,36.984375 C17.7603626,36.3723958 17.6831696,36.3463542 17.4773216,36.4635417 C17.1428187,36.6458333 17.3486667,37.1927083 17.4773216,37.5182292 C17.7860936,38.3385417 19.0726433,39.796875 21.2597778,40.5260417 C23.1766082,41.1640625 27.8597778,41.515625 33.5205965,39.3020833 C39.8632865,36.8151042 44.8165029,29.9140625 43.3627018,24.1458333 C41.8831696,18.2734375 32.2597778,16.3463542 23.1638713,19.6145833 C17.7473684,21.5677083 11.8807018,24.6145833 7.66081871,28.6119792 C2.64327485,33.3515625 1.84561404,37.4921875 2.18011696,39.2109375 C3.35100585,45.34375 11.7005848,49.3411458 15.045614,52.296875 C14.8783626,52.3878906 14.7239766,52.4790365 14.5824561,52.5572917 C12.9099415,53.3904948 6.54152047,56.7630208 4.94619883,60.330599 C3.14502924,64.3670573 5.22923977,67.2708333 6.61871345,67.6614583 C10.9157895,68.8723958 15.3157895,66.6979167 17.6959064,63.1171875 C20.0630292,59.5364583 19.780117,54.8880208 18.6865497,52.765625 L18.6478246,52.6875 L19.9601053,51.90625 C20.8093567,51.3984375 21.645614,50.9296875 22.3788187,50.5259115 C21.9672515,51.658724 21.6712164,52.9998698 21.5169591,54.9529948 C21.3368421,57.2447917 22.2631579,60.2134115 23.4853801,61.3852865 C24.025731,61.8929687 24.6690058,61.9061198 25.0678363,61.9061198 C26.4830409,61.9061198 27.1263158,60.7210937 27.8339181,59.3019531 C28.7087719,57.5701823 29.4807018,55.564974 29.4807018,55.564974 C29.4807018,55.564974 28.5157895,60.9946615 31.1532164,60.9946615 C32.1181287,60.9946615 33.0830409,59.7316406 33.5204678,59.080599 L33.5204678,59.0936198 C33.5204678,59.0936198 33.5461988,59.0545573 33.5976608,58.9634115 C33.6516427,58.882629 33.7031296,58.8001673 33.7520468,58.7161458 L33.7520468,58.6901042 C34.1380117,58.0130208 35,56.4635417 36.2865497,53.8984375 C37.9460702,50.5911458 39.5415205,46.4505208 39.5415205,46.4505208 C39.5415205,46.4505208 39.6959064,47.4661458 40.1719298,49.1328125 C40.4548421,50.122526 41.072386,51.203125 41.5484094,52.2578125 C41.1624444,52.8046875 40.9308655,53.1173177 40.9308655,53.1173177 L40.943731,53.1303385 C40.6350877,53.5470052 40.2875906,53.9898437 39.9274854,54.4324219 C38.6152047,56.0209635 37.045614,57.8309896 36.8397661,58.3518229 C36.5953216,58.9636719 36.6467836,59.419401 37.122807,59.7841146 C37.4701754,60.0445312 38.0877193,60.0964844 38.7438596,60.0445312 C39.9274854,59.966276 40.7508772,59.6669271 41.1625731,59.4845052 C41.805848,59.2501302 42.5391813,58.8985677 43.2467836,58.3777344 C44.5333333,57.4143229 45.3181287,56.0471354 45.2409357,54.2242187 C45.2023392,53.2216146 44.8807018,52.2320312 44.4818713,51.2945312 C44.5976608,51.1252604 44.7135789,50.9558594 44.8292398,50.7736979 C46.8619883,47.7657552 48.4315789,44.4585937 48.4315789,44.4585937 C48.4315789,44.4585937 48.5859649,45.4742187 49.0619883,47.1408854 C49.3063041,47.9872396 49.7953216,48.911849 50.2327485,49.8233073 C48.328655,51.3988281 47.1321637,53.2217448 46.7204678,54.4196615 C45.9614035,56.6332031 46.5532164,57.6358073 47.6725146,57.8701823 C48.1741404,57.974349 48.8947368,57.739974 49.4349591,57.505599 C50.1039649,57.2842448 50.9144912,56.9065104 51.6608187,56.3467448 C52.9473684,55.3832031 54.1824561,54.0420573 54.1181287,52.2321615 C54.0795322,51.3988281 53.8608187,50.5785156 53.5649123,49.7972656 C55.1859649,49.1201823 57.2829123,48.7295573 59.9461988,49.0550781 C65.671345,49.7321615 66.8035088,53.3519531 66.584924,54.8623698 C66.3662105,56.3729167 65.1697193,57.2061198 64.7707602,57.4665365 C64.3719298,57.7139323 64.2432749,57.8052083 64.2818713,57.9873698 C64.3333333,58.2609375 64.5134503,58.2477865 64.8608187,58.1958333 C65.3368421,58.1175781 67.871345,56.9588542 67.974269,54.172526 C68.128655,50.591276 64.7707602,46.685026 58.8140351,46.7239583 L58.8140351,46.7239583 Z M14.6596491,61.7890625 C12.7684211,63.8854167 10.1052632,64.6796875 8.97309942,64.0026042 C7.75087719,63.2864583 8.22677193,60.2005208 10.5555556,57.9739583 C11.9707602,56.6197917 13.8105263,55.3697917 15.019883,54.6015625 C15.2900585,54.4322917 15.7017544,54.185026 16.1906433,53.8854167 C16.2678363,53.8334635 16.3192982,53.8072917 16.3192982,53.8072917 C16.4093567,53.7552083 16.5122807,53.6901042 16.6152047,53.625 C17.477193,56.8020833 16.6538012,59.5885417 14.6596491,61.7890625 L14.6596491,61.7890625 Z M28.4900585,52.2708333 C27.8339181,53.8984375 26.4444444,58.078125 25.6081871,57.84375 C24.8875906,57.6484375 24.4502924,54.484375 25.466538,51.359375 C25.9811579,49.783724 27.0747251,47.9088542 27.718,47.1795573 C28.7602339,46.0076823 29.892269,45.6170573 30.1754386,46.0988281 C30.5099415,46.7239583 28.9017544,51.2552083 28.4900585,52.2708333 L28.4900585,52.2708333 Z M39.9017544,57.7916667 C39.6187135,57.935026 39.3614035,58.0390625 39.245614,57.9610677 C39.1555556,57.9089844 39.3612749,57.7136719 39.3612749,57.7136719 C39.3612749,57.7136719 40.789345,56.1641927 41.3554269,55.4480469 C41.6770643,55.0315104 42.0630292,54.5497396 42.4747251,54.0027344 L42.4747251,54.1589844 C42.4748538,56.0338542 40.6994152,57.2838542 39.9017544,57.7916667 L39.9017544,57.7916667 Z M48.7016257,55.7604167 C48.4957778,55.6041667 48.5216374,55.1223958 49.2162456,53.6119792 C49.4865497,53.0130208 50.1039649,52.0104167 51.1718012,51.0598958 C51.3004561,51.4505208 51.3777778,51.8279948 51.3647836,52.1796875 C51.3520468,54.5234375 49.7052632,55.3958333 48.7016257,55.7604167 L48.7016257,55.7604167 Z" id="Shape" fill="#CF649A"></path>
                    <rect id="Rectangle-19-Copy-4" fill-opacity="0.00897305254" fill="#EDEDED" transform="translate(0.500000, 38.500000) scale(-1, 1) translate(-0.500000, -38.500000) " x="0" y="0" width="1" height="77"></rect>
                </g>
            </g>
        </g>
    </g>
</svg>