<?xml version="1.0" encoding="UTF-8"?>
<svg width="1024px" height="1024px" viewBox="0 0 1024 1024" version="1.1" xmlns="http://www.w3.org/2000/svg" xmlns:xlink="http://www.w3.org/1999/xlink">
    <!-- Generator: Sketch 40 (33762) - http://www.bohemiancoding.com/sketch -->
    <title>agilehover</title>
    <desc>Created with Sketch.</desc>
    <defs>
        <circle id="path-1" cx="512.5" cy="512.5" r="439.5"></circle>
        <mask id="mask-2" maskContentUnits="userSpaceOnUse" maskUnits="objectBoundingBox" x="0" y="0" width="879" height="879" fill="white">
            <use xlink:href="#path-1"></use>
        </mask>
        <path d="M493.065388,108.149998 C493.065388,108.149998 579.608387,11.5551731 583.404518,6.4158294 C587.20065,1.27648575 592.325254,-1.38743319 596.63684,2.60248538 C600.948427,6.59240395 605.804028,10.1217239 609.232815,13.2636673 C612.661603,16.4056108 612.097262,21.0371657 609.872558,24.0533419 C607.647854,27.0695181 517.68702,130.419073 517.68702,130.419073 C517.68702,130.419073 528.521864,140.984627 530.807025,142.825703 C533.092187,144.666779 528.063866,152.268524 524.847903,149.423388 C521.63194,146.578252 472.842855,101.944177 471.120687,100.455647 C469.398518,98.9671179 474.134179,91.7998789 477.104828,94.370756 C480.075478,96.9416331 493.065388,108.149998 493.065388,108.149998 Z" id="path-3"></path>
        <path d="M493.065388,108.149998 L517.68702,130.419073 C517.68702,130.419073 528.521864,140.984627 530.807025,142.825703 C533.092187,144.666779 528.063866,152.268524 524.847903,149.423388 C523.983533,148.658686 518.547495,144.567379 512.897447,139.414125 C512.346312,138.91145 497.699394,154.402367 496.950728,154.02006 C487.256137,149.069513 474.054034,137.160809 470.141918,130.419073 C469.688451,129.637615 484.496285,112.767796 483.848751,112.176798 C476.114055,105.117412 471.70153,100.957691 471.120687,100.455647 C469.398518,98.9671179 474.134179,91.7998789 477.104828,94.370756 C480.075478,96.9416331 493.065388,108.149998 493.065388,108.149998 Z" id="path-5"></path>
        <path d="M0.43064001,93.0692928 L11.7261289,95.9567285 L15.8644436,105.819331 L4.74654505,103.28384 L0.43064001,93.0692928 Z M14.614594,77.4316849 L25.9100829,80.3191206 L30.0483977,90.1817233 L18.9304991,87.646232 L14.614594,77.4316849 Z M29.6598281,60.9278387 L40.955317,63.8152744 L45.0936317,73.6778771 L33.9757331,71.1423858 L29.6598281,60.9278387 Z M43.8437821,45.2902308 L55.139271,48.1776665 L59.2775858,58.0402692 L48.1596872,55.5047779 L43.8437821,45.2902308 Z M55.5354573,32.1414541 L66.8309462,35.0288898 L70.969261,44.8914925 L59.8513624,42.3560012 L55.5354573,32.1414541 Z M70.5806914,15.6376079 L81.8761803,18.5250436 L86.014495,28.3876463 L74.8965964,25.852155 L70.5806914,15.6376079 Z M83.303186,0 L94.5986749,2.88743568 L98.7369897,12.7500384 L87.6190911,10.2145471 L83.303186,0 Z" id="path-7"></path>
        <path d="M138.292895,8.67052822 C138.292895,8.67052822 137.191914,-2.87544794 142.612788,53.9732108 C148.033663,110.821869 167.714958,142.182724 167.714958,142.182724 L35.7149581,142.182724 C35.7149581,142.182724 12.4465596,73.2039527 10.395338,51.6928112 L6.29289483,8.67052822 L138.292895,8.67052822 Z" id="path-9"></path>
        <mask id="mask-10" maskContentUnits="userSpaceOnUse" maskUnits="objectBoundingBox" x="0" y="0" width="161.422063" height="134.475618" fill="white">
            <use xlink:href="#path-9"></use>
        </mask>
    </defs>
    <g id="Icônes" stroke="none" stroke-width="1" fill="none" fill-rule="evenodd">
        <g id="agilehover">
            <use id="Oval" stroke="#E40A0A" mask="url(#mask-2)" stroke-width="84" xlink:href="#path-1"></use>
            <g id="Group" transform="translate(218.498458, 381.341563)">
                <path d="M489.132422,112.816809 C489.132422,112.816809 376.70353,233.203101 257.776786,343.121827 C257.776786,347.963934 257.776786,356.838531 257.776786,356.838531 C257.776786,356.838531 238.787863,369.143334 272.149736,369.143334 C355.003247,293.419434 515.437043,134.077742 515.437043,134.077742 L489.132422,112.816809 Z" id="Path-9" fill="#ABABAB"></path>
                <path d="M489.132422,112.816809 C489.132422,112.816809 376.70353,233.203101 257.776786,343.121827 C191.80753,404.094291 220.273689,382.863445 235.408113,377.560267 C247.557426,373.303088 237.133792,393.845971 267.712669,365.898432 C350.56618,290.174531 511.148472,127.409972 511.148472,127.409972 L489.132422,112.816809 Z" id="Path-9-Copy" fill="#D8D8D8"></path>
                <mask id="mask-4" fill="white">
                    <use xlink:href="#path-3"></use>
                </mask>
                <use id="Path-7-Copy" fill="#4D4D4D" xlink:href="#path-3"></use>
                <path d="M505.090987,119.092911 L523.510951,136.103186 L674.148392,-48.0765444 L660.200772,-60.6610123 C660.200772,-60.6610123 614.141899,-3.45039216 589.61969,25.1711098 C563.172778,56.0390592 505.090987,119.092911 505.090987,119.092911 Z" id="Path-8" fill="#000000" mask="url(#mask-4)"></path>
                <mask id="mask-6" fill="white">
                    <use xlink:href="#path-5"></use>
                </mask>
                <use id="Path-7" fill="#FFC027" xlink:href="#path-5"></use>
                <path d="M496.898856,123.938211 C501.946382,128.706272 512.97113,139.300946 512.97113,139.300946 L508.783153,144.124032 C508.783153,144.124032 485.885999,114.810711 483.469687,112.032798 C481.053374,109.254885 492.331255,119.623504 496.898856,123.938211 Z" id="Path-12" fill="#DA9A00" mask="url(#mask-6)"></path>
                <g id="Group-3" transform="translate(505.664954, 10.226826)">
                    <mask id="mask-8" fill="white">
                        <use xlink:href="#path-7"></use>
                    </mask>
                    <use id="Combined-Shape" fill="#FFC028" xlink:href="#path-7"></use>
                    <path d="M-0.573966793,108.866085 L17.8459971,125.876359 L168.483439,-58.3033707 L154.535818,-70.8878386 C154.535818,-70.8878386 108.476946,-13.6772185 83.9547359,14.9442835 C57.5078244,45.8122329 -0.573966793,108.866085 -0.573966793,108.866085 Z" id="Path-8-Copy" fill="#D99900" mask="url(#mask-8)"></path>
                </g>
            </g>
            <g id="Ninja" transform="translate(205.026721, 158.082149)">
                <g id="buste" transform="translate(0.000000, 365.052057)">
                    <path d="M0.0367038052,251.579027 C0.0367038052,251.579027 47.4038666,113.987094 97.7149551,95.8008623 C126.165902,85.5165389 175.952964,64.655083 213.84662,48.4680751 C217.500272,46.9073471 221.043356,45.3900753 224.446088,43.9299306 C248.159207,33.7544024 251.904909,0.635328858 251.904909,0.635328858 L375.215887,8.20509636 C375.215887,8.20509636 374.887123,32.554757 396.195427,41.4605485 C434.902408,57.6381062 495.545095,82.7390981 530.09352,95.8008623 C583.660951,116.053165 621.15695,251.579027 621.15695,251.579027 L0.0367038052,251.579027 Z" id="Path-2" fill="#4D4D4D"></path>
                    <path d="M415.70503,49.5933986 L309.277797,142.514262 L210.509823,49.8923954 C211.631611,49.4139157 212.744149,48.939017 213.84662,48.4680751 C217.500272,46.9073471 221.043356,45.3900753 224.446088,43.9299306 C248.159207,33.7544024 251.904909,0.635328858 251.904909,0.635328858 L375.215887,8.20509636 C375.215887,8.20509636 374.887123,32.554757 396.195427,41.4605485 C402.226621,43.9812822 408.790388,46.7186664 415.70503,49.5933986 Z" id="Combined-Shape" fill="#393939"></path>
                    <path d="M403.767429,44.6221214 C380.988254,63.8734774 334.477596,103.381774 298.517095,135.239124 C287.196361,145.268143 293.117516,212.312034 330.363481,172.971614 C358.625684,143.120142 418.62654,92.668558 452.456648,64.7837633 C435.279235,57.7306997 418.344615,50.7025074 403.767429,44.6221214 Z" id="Combined-Shape" fill="#696868"></path>
                    <path d="M446.778598,251.579027 C422.434966,226.438979 393.828464,197.466578 371.750282,176.790472 C327.893194,135.718531 222.936494,47.591261 222.936494,47.591261 L209.799106,50.1954912 C197.872509,55.2809446 184.927002,60.7595235 171.935924,66.1844867 C197.802769,87.2510133 276.486861,152.027363 310.147996,187.581366 C326.452411,204.802628 349.168562,229.382749 369.558643,251.579027 L446.778598,251.579027 Z" id="Combined-Shape" fill="#393939"></path>
                    <path d="M215.574333,47.729769 C247.313129,74.5826221 314.150176,131.505552 346.905472,162.18072 C373.4256,187.016686 409.36519,223.823056 436.021456,251.579027 L358.116216,251.579027 C334.948951,226.291667 305.302523,194.095575 285.303186,172.971614 C258.138373,144.279241 201.651806,96.5554549 167.265755,68.1315114 C183.2943,61.4603256 199.431069,54.6259566 213.84662,48.4680751 C214.425338,48.2208647 215.001282,47.9747445 215.574333,47.729769 Z" id="Combined-Shape" fill="#696868"></path>
                </g>
                <g id="tête" transform="translate(137.266187, 0.000000)">
                    <path d="M310.677369,175.640834 C334.062587,205.070974 353.061865,139.426982 375.373946,121.67765 C397.686027,103.928318 287.292152,146.210694 310.677369,175.640834 Z" id="Path-11" fill="#393939"></path>
                    <path d="M306.060591,210.350326 C329.445809,239.780465 348.445087,174.136474 370.757168,156.387142 C393.069249,138.63781 282.675373,180.920186 306.060591,210.350326 Z" id="Path-11-Copy" fill="#474747" transform="translate(338.270866, 185.006149) rotate(21.000000) translate(-338.270866, -185.006149) "></path>
                    <path d="M30.3677797,206.800827 C30.3677797,206.800827 32.3462204,143.186812 78.8777909,92.3733297 C98.5606298,70.8792434 145.695578,59.1620408 172.881809,59.1620408 C208.317192,59.1620408 259.852377,68.7423397 282.408636,99.9332476 C318.06856,149.243968 315.089254,207.266737 315.089254,207.266737 C315.089254,207.266737 330.981361,206.935549 322.498341,242.859713 C314.015321,278.783877 300.812206,278.783877 300.812206,278.783877 C300.812206,278.783877 236.87422,421.818828 172.206047,421.818828 C107.537873,421.818828 42.471819,278.783877 42.471819,278.783877 C42.471819,278.783877 30.3677797,278.783877 21.9074098,242.859713 C13.4470399,206.935549 30.3677797,206.800827 30.3677797,206.800827 Z" id="Path-5" fill="#4D4D4D"></path>
                    <path d="M42.5226213,278.894954 C52.9319358,283.544753 74.1589605,290.693595 115.72547,297.84833 C186.042438,309.951806 243.638402,293.041029 243.638402,293.041029 C243.638402,293.041029 182.077231,319.050201 115.724702,314.669819 C85.4704591,312.672531 66.5495914,308.001917 54.9168205,303.511088 C47.5066739,289.691129 43.0411154,280.025524 42.5226213,278.894954 Z M42.2288411,278.763098 C40.4415515,277.957064 38.9833294,277.228418 37.8030167,276.590553 C40.0042731,278.319775 41.6366046,278.685674 42.2288411,278.763098 Z" id="Combined-Shape" fill="#393939"></path>
                    <path d="M285.414183,309.387583 L285.414183,304.039174 C285.414183,304.039174 283.059716,326.063566 220.906252,358.025315 C158.752789,389.987064 126.137197,375.705119 126.137197,375.705119 C126.137197,375.705119 161.360661,393.872167 220.906252,370.537647 C238.094492,363.801979 250.734705,357.274408 260.020358,351.39603 C270.039112,336.613176 278.689855,321.767945 285.414187,309.387575 Z" id="Combined-Shape" fill="#393939"></path>
                    <path d="M314.269572,187.454696 C312.445423,182.394737 302.001714,163.945593 244.121221,145.399556 C176.173051,123.627639 140.516635,143.25679 140.516635,143.25679 C140.516635,143.25679 179.024062,119.314984 244.121221,132.887224 C284.629092,141.332793 302.030867,152.276396 309.397559,159.33887 C312.0424,169.988713 313.488718,179.645573 314.269572,187.454696 Z" id="Combined-Shape" fill="#393939"></path>
                    <path d="M38.8772482,162.945877 C42.9775122,152.738644 54.9833879,134.770274 89.4517431,109.016096 C146.609757,66.3085832 186.714188,73.2597167 186.714188,73.2597167 C186.714188,73.2597167 142.510011,63.1590862 85.3781262,97.185453 C77.0183511,102.164333 69.9115651,106.857858 63.8700721,111.242937 C51.6006947,129.050248 43.814399,147.262105 38.8772512,162.945868 Z M37.0979488,168.909046 C36.6081239,171.651033 36.9047527,173.021109 36.9047527,173.021109 L36.3832493,171.506553 C36.6126808,170.651054 36.8508051,169.785023 37.0979488,168.909046 Z" id="Combined-Shape" fill="#393939"></path>
                    <ellipse id="Oval-3" stroke="#979797" fill="#F9B58B" cx="172.507155" cy="227.720389" rx="119.542425" ry="41.1502992"></ellipse>
                    <path d="M121.157425,221.985947 C134.959545,228.282553 160.846477,242.948594 160.846477,242.948594 L134.519468,237.709182 C134.519468,237.709182 129.921456,252.164319 121.167089,250.014365 C112.412721,247.864411 113.751395,232.608825 113.751395,232.608825 L94.5031428,228.382853 L91.427916,211.27945 C91.427916,211.27945 111.820025,217.726172 121.157425,221.985947 Z" id="Path-6" fill="#000000"></path>
                    <path d="M225.796621,221.985947 C211.9945,228.282553 186.107568,242.948594 186.107568,242.948594 L212.434578,237.709182 C212.434578,237.709182 217.032589,252.164319 225.786957,250.014365 C234.541325,247.864411 233.202651,232.608825 233.202651,232.608825 L252.450903,228.382853 L255.52613,211.27945 C255.52613,211.27945 235.134021,217.726172 225.796621,221.985947 Z" id="Path-6-Copy" fill="#000000"></path>
                </g>
            </g>
            <g id="Post-it-Copy" transform="translate(123.000000, 298.000000)">
                <path d="M150.130101,134.892433 L18.0632185,146.396992 C18.0632185,146.396992 0.747325724,79.7086803 0.835275558,58.4581709 L1.34653994,15.9571522 L150.130101,134.892433 Z" id="Rectangle" fill-opacity="0.42" fill="#000000"></path>
                <use id="Rectangle-Copy-2" stroke="#EEC93D" mask="url(#mask-10)" stroke-width="2" fill="#FFEE60" transform="translate(87.003926, 74.944914) rotate(-5.000000) translate(-87.003926, -74.944914) " xlink:href="#path-9"></use>
                <path d="M138.292895,8.67052822 C138.292895,8.67052822 137.191914,-2.87544794 142.612788,53.9732108 C148.033663,110.821869 167.714958,142.182724 167.714958,142.182724 C167.714958,142.182724 110.026581,102.059426 82.8821831,79.6082933 C56.2192265,57.5553608 6.29289483,8.67052822 6.29289483,8.67052822 L138.292895,8.67052822 Z" id="Rectangle-Copy" fill="#FFE367" transform="translate(87.003926, 74.944914) rotate(-5.000000) translate(-87.003926, -74.944914) "></path>
                <path d="M41.2199222,119.185212 C38.263848,117.932031 67.4373559,110.273046 85.4978894,106.759758 C96.5417816,104.611406 120.662741,101.715508 130.438567,102.300791 C140.214394,102.886074 139.984156,106.1665 130.438567,108.713518 C120.892978,111.260537 117.541727,107.683918 90.6188481,110.655577 C63.6959691,113.627236 44.2696383,119.185212 41.2199222,119.185212 Z" id="Path-5" fill="#000000"></path>
                <text id="TODO" transform="translate(78.762531, 83.886463) rotate(-4.000000) translate(-78.762531, -83.886463) " font-family="VentographyPersonalUseOnly, Ventography Personal Use Only" font-size="64" font-weight="normal" letter-spacing="-1.27999985" fill="#000000">
                    <tspan x="29.5145305" y="99.8864633">TODO</tspan>
                </text>
            </g>
            <g id="Shuriken-Copy" transform="translate(128.000000, 239.000000)">
                <path d="M49.8572201,102.81867 L52.7354331,101.821268 L52.030034,100.43476 C52.030034,100.43476 48.4524434,101.016441 43.5632955,98.8812708 C38.6741476,96.7461007 34.5222315,90.2758334 34.5222315,90.2758334 L26.4085438,102.046951 L30.5916636,106.302166 C22.2935344,107.672944 0.343513247,108.90473 0.343513247,108.90473 L28.3286108,110.259318 L42.1829163,110.929921 L60.6438327,109.403927 L71.6420879,110.225947 L66.0984765,108.981069 C70.1759945,109.155139 73.9027133,109.143614 76.8373664,108.961147 L73.6080801,110.080208 L74.3134792,111.466716 C74.3134792,111.466716 77.8910699,110.885035 82.7802178,113.020205 C87.6693657,115.155375 91.8212817,121.625642 91.8212817,121.625642 L99.9349695,109.854525 L95.7518496,105.599309 C104.049979,104.228532 126,102.996746 126,102.996746 L98.0149025,101.642157 L84.1605969,100.971555 L65.6996805,102.497548 L54.7014254,101.675529 L60.547048,102.988226 C56.6105972,102.768903 52.9241918,102.716473 49.8572201,102.81867 Z M69.6247228,106.509821 C70.1771903,106.041575 67.5997173,105.397729 63.8677758,105.071751 C60.1358343,104.745772 56.6626346,104.861102 56.1101672,105.329348 C55.5576998,105.797593 58.1351727,106.441439 61.8671142,106.767418 C65.5990557,107.093396 69.0722554,106.978066 69.6247228,106.509821 Z" id="Combined-Shape" fill-opacity="0.25" fill="#000000"></path>
                <path d="M83.5102368,40.7336041 L82.5058742,39.5956471 C82.5058742,39.5956471 77.9472516,42.418427 66.2666516,37.0261816 C54.5860515,31.6339362 36.0033787,12.3531664 36.0033787,12.3531664 L45.1081627,51.7500849 L62.6455556,66.5904011 L63.0271257,71.8405189 C62.5185592,73.5952846 61.7795609,75.601728 60.7283518,77.8788411 C55.3361064,89.5594411 36.0553366,108.142114 36.0553366,108.142114 L75.4522551,99.0373299 L90.2925713,81.499937 L94.3200243,81.2072282 L95.3243869,82.3451852 C95.3243869,82.3451852 99.8830095,79.5224053 111.56361,84.9146507 C123.24421,90.3068961 141.826882,109.587666 141.826882,109.587666 L132.722098,70.1907474 L115.184705,55.3504312 L114.803135,50.1003134 C115.311702,48.3455477 116.0507,46.3391043 117.101909,44.0619912 C122.494155,32.3813912 141.774924,13.7987184 141.774924,13.7987184 L102.378006,22.9035024 L87.5376897,40.4408953 L83.5102368,40.7336041 Z M88.6113231,66.1706223 C92.2781484,66.1706223 95.2506976,63.8309715 95.2506976,60.9448659 C95.2506976,58.0587603 92.2781484,55.7191094 88.6113231,55.7191094 C84.9444978,55.7191094 81.9719485,58.0587603 81.9719485,60.9448659 C81.9719485,63.8309715 84.9444978,66.1706223 88.6113231,66.1706223 Z" id="Combined-Shape-Copy" stroke="#979797" stroke-width="3" fill="#D8D8D8" transform="translate(88.915131, 60.970416) rotate(-165.000000) translate(-88.915131, -60.970416) "></path>
                <polygon id="Path-3" fill="#FFE367" points="24.9892098 97.8459823 27.3213622 96.2167483 31.4961853 94.271628 40.1787929 94.666486 29.8840263 83.4155226 18.7753541 92.5712484"></polygon>
            </g>
        </g>
    </g>
</svg>