<?xml version="1.0" encoding="UTF-8"?>
<svg width="1024px" height="1024px" viewBox="0 0 1024 1024" version="1.1" xmlns="http://www.w3.org/2000/svg" xmlns:xlink="http://www.w3.org/1999/xlink">
    <!-- Generator: Sketch 40 (33762) - http://www.bohemiancoding.com/sketch -->
    <title>comhover</title>
    <desc>Created with Sketch.</desc>
    <defs>
        <circle id="path-1" cx="512.5" cy="512.5" r="439.5"></circle>
        <mask id="mask-2" maskContentUnits="userSpaceOnUse" maskUnits="objectBoundingBox" x="0" y="0" width="879" height="879" fill="white">
            <use xlink:href="#path-1"></use>
        </mask>
        <mask id="mask-4" maskContentUnits="userSpaceOnUse" maskUnits="objectBoundingBox" x="0" y="0" width="879" height="879" fill="white">
            <use xlink:href="#path-1"></use>
        </mask>
        <path d="M104.999215,198.72271 C97.7335539,198.72271 91.4640854,196.378983 86.1906215,191.69146 C80.9171576,187.003937 78.2804653,180.441502 78.2804653,172.00396 C78.2804653,164.855487 80.7999713,158.703205 85.839059,153.546929 C90.8781467,148.390653 97.0890221,145.812554 104.471872,145.812554 C111.854721,145.812554 118.153486,148.361356 123.368356,153.459038 C128.583226,158.55672 131.190622,164.738299 131.190622,172.00396 C131.190622,180.324314 128.583226,186.857452 123.368356,191.603569 C118.153486,196.349687 112.0305,198.72271 104.999215,198.72271 L104.999215,198.72271 Z M213.424997,198.72271 C206.159335,198.72271 199.889867,196.378983 194.616403,191.69146 C189.342939,187.003937 186.706247,180.441502 186.706247,172.00396 C186.706247,164.855487 189.225753,158.703205 194.26484,153.546929 C199.303928,148.390653 205.514803,145.812554 212.897653,145.812554 C220.280502,145.812554 226.579267,148.361356 231.794137,153.459038 C237.009007,158.55672 239.616403,164.738299 239.616403,172.00396 C239.616403,180.324314 237.009007,186.857452 231.794137,191.603569 C226.579267,196.349687 220.456282,198.72271 213.424997,198.72271 L213.424997,198.72271 Z M321.850778,198.72271 C314.585116,198.72271 308.315648,196.378983 303.042184,191.69146 C297.76872,187.003937 295.132028,180.441502 295.132028,172.00396 C295.132028,164.855487 297.651534,158.703205 302.690622,153.546929 C307.729709,148.390653 313.940585,145.812554 321.323434,145.812554 C328.706283,145.812554 335.005049,148.361356 340.219918,153.459038 C345.434788,158.55672 348.042184,164.738299 348.042184,172.00396 C348.042184,180.324314 345.434788,186.857452 340.219918,191.603569 C335.005049,196.349687 328.882063,198.72271 321.850778,198.72271 L321.850778,198.72271 Z" id="path-5"></path>
        <filter x="-50%" y="-50%" width="200%" height="200%" filterUnits="objectBoundingBox" id="filter-6">
            <feOffset dx="5" dy="5" in="SourceAlpha" result="shadowOffsetOuter1"></feOffset>
            <feColorMatrix values="0 0 0 0 0   0 0 0 0 0   0 0 0 0 0  0 0 0 0.302819293 0" type="matrix" in="shadowOffsetOuter1"></feColorMatrix>
        </filter>
        <filter x="-50%" y="-50%" width="200%" height="200%" filterUnits="objectBoundingBox" id="filter-7">
            <feOffset dx="3" dy="8" in="SourceAlpha" result="shadowOffsetInner1"></feOffset>
            <feComposite in="shadowOffsetInner1" in2="SourceAlpha" operator="arithmetic" k2="-1" k3="1" result="shadowInnerInner1"></feComposite>
            <feColorMatrix values="0 0 0 0 0   0 0 0 0 0   0 0 0 0 0  0 0 0 0.0837862319 0" type="matrix" in="shadowInnerInner1"></feColorMatrix>
        </filter>
        <path d="M451.069977,227.674805 L444.351227,127.103516 C443.091455,107.507063 442.461578,93.4398213 442.461578,84.9013672 C442.461578,73.2834706 445.505982,64.2202474 451.594879,57.7114258 C457.683777,51.2026042 465.697206,47.9482422 475.635407,47.9482422 C487.673227,47.9482422 495.721649,52.1124258 499.780914,60.440918 C503.840179,68.7694101 505.869782,80.772057 505.869782,96.4492188 C505.869782,105.687546 505.379878,115.065708 504.400055,124.583984 L495.371735,228.094727 C494.391912,240.412496 492.292324,249.860644 489.072907,256.439453 C485.853489,263.018262 480.534532,266.307617 473.115875,266.307617 C465.557244,266.307617 460.308273,263.123241 457.368805,256.754395 C454.429337,250.385548 452.329749,240.692448 451.069977,227.674805 L451.069977,227.674805 Z M474.375641,365.829102 C465.837187,365.829102 458.383648,363.064644 452.014801,357.535645 C445.645954,352.006646 442.461578,344.273162 442.461578,334.334961 C442.461578,325.656532 445.505982,318.27298 451.594879,312.184082 C457.683777,306.095184 465.137316,303.050781 473.955719,303.050781 C482.774123,303.050781 490.297648,306.095184 496.52652,312.184082 C502.755392,318.27298 505.869782,325.656532 505.869782,334.334961 C505.869782,344.133187 502.720399,351.831678 496.421539,357.430664 C490.12268,363.02965 482.77412,365.829102 474.375641,365.829102 L474.375641,365.829102 Z" id="path-8"></path>
        <filter x="-50%" y="-50%" width="200%" height="200%" filterUnits="objectBoundingBox" id="filter-9">
            <feOffset dx="5" dy="5" in="SourceAlpha" result="shadowOffsetOuter1"></feOffset>
            <feColorMatrix values="0 0 0 0 0   0 0 0 0 0   0 0 0 0 0  0 0 0 0.0795969203 0" type="matrix" in="shadowOffsetOuter1"></feColorMatrix>
        </filter>
        <filter x="-50%" y="-50%" width="200%" height="200%" filterUnits="objectBoundingBox" id="filter-10">
            <feOffset dx="3" dy="8" in="SourceAlpha" result="shadowOffsetInner1"></feOffset>
            <feComposite in="shadowOffsetInner1" in2="SourceAlpha" operator="arithmetic" k2="-1" k3="1" result="shadowInnerInner1"></feComposite>
            <feColorMatrix values="0 0 0 0 0   0 0 0 0 0   0 0 0 0 0  0 0 0 0.0837862319 0" type="matrix" in="shadowInnerInner1"></feColorMatrix>
        </filter>
    </defs>
    <g id="Icônes" stroke="none" stroke-width="1" fill="none" fill-rule="evenodd">
        <g id="comhover">
            <mask id="mask-3" fill="white">
                <use xlink:href="#path-1"></use>
            </mask>
            <g id="Oval" stroke="#FF9300" mask="url(#mask-2)" stroke-width="84">
                <use mask="url(#mask-4)" xlink:href="#path-1"></use>
            </g>
            <g id="Group" mask="url(#mask-3)">
                <g transform="translate(114.000000, 220.000000)">
                    <g id="Group-Copy" stroke-width="1" fill="none" fill-rule="evenodd" transform="translate(0.000000, 202.897050)">
                        <path d="M159.584638,302.018881 C66.8079887,281.342158 -2.84217094e-14,223.355973 -2.84217094e-14,155.055503 C-2.84217094e-14,69.4207135 105.022292,0 234.573854,0 C364.125417,0 469.147709,69.4207135 469.147709,155.055503 C469.147709,240.690293 364.125417,310.111007 234.573854,310.111007 C226.435667,310.111007 218.394275,309.837064 210.469631,309.302369 L159.584639,361.065972 L159.584639,302.018886 Z" id="Combined-Shape" fill="#3C9BC7"></path>
                        <path d="M190.17416,307.337303 C81.8528066,293.620039 4.0075443e-15,230.656215 1.25055521e-12,155.055503 C1.60284061e-12,134.070217 105.022292,223.782653 234.573854,223.782653 C364.125417,223.782653 469.147709,141.828103 469.147709,155.055503 C469.147709,240.690293 364.125417,310.111007 234.573854,310.111007 C226.435667,310.111007 218.394275,309.837064 210.469632,309.302368 L159.584639,361.065972 L190.17416,307.337303 Z" id="Combined-Shape-Copy-3" fill="#348AB2"></path>
                        <g id="...">
                            <use fill="black" fill-opacity="1" filter="url(#filter-6)" xlink:href="#path-5"></use>
                            <use fill="#DAEEFF" fill-rule="evenodd" xlink:href="#path-5"></use>
                            <use fill="black" fill-opacity="1" filter="url(#filter-7)" xlink:href="#path-5"></use>
                        </g>
                        <path d="M405.952248,260.929987 C253.671232,244.170215 137.583839,156.677532 137.583839,51.2624661 C137.583839,37.9413665 139.437626,24.9064675 142.983978,12.2643386 C171.123565,4.36803704 202.077004,0 234.573854,0 C364.125417,0 469.147709,69.4207135 469.147709,155.055503 C469.147709,195.988513 445.152287,233.216942 405.952248,260.929987 Z M159.584639,300.880028 L159.584639,361.065972 L224.667421,294.859432 L159.584639,300.880028 Z" id="Combined-Shape" fill-opacity="0.18" fill="#000000"></path>
                    </g>
                    <path d="M366.272135,414.683925 C239.085927,386.338495 147.499792,306.846047 147.499792,213.213891 C147.499792,95.8183578 291.473379,0.650474881 469.0738,0.650474881 C646.674221,0.650474881 790.647809,95.8183578 790.647809,213.213891 C790.647809,330.609424 646.674221,425.777307 469.0738,425.777307 C457.917273,425.777307 446.893441,425.401763 436.029659,424.668756 L366.272136,495.630754 L366.272136,414.683932 Z" id="Combined-Shape-Copy-6" fill="#DAEEFF" fill-rule="evenodd" transform="translate(469.073800, 248.140615) scale(-1, 1) translate(-469.073800, -248.140615) "></path>
                    <path d="M366.353334,414.815665 C237.462418,386.582748 142.625856,306.978054 147.58099,213.213891 C148.828943,189.599336 293.334511,310.844609 470.934932,310.844609 C648.535353,310.844609 789.692441,186.80506 790.729007,213.213891 C795.336341,330.596019 646.755419,425.777307 469.154999,425.777307 C442.566547,425.777307 416.592744,423.643882 391.666291,419.621974 L366.353334,495.630754 L366.353334,414.815665 Z" id="Combined-Shape-Copy-5" fill-opacity="0.76" fill="#CEE2F2" fill-rule="evenodd" transform="translate(469.114399, 352.577816) scale(-1, 1) translate(-469.114399, -352.577816) "></path>
                    <g id="!" fill="none">
                        <use fill="black" fill-opacity="1" filter="url(#filter-9)" xlink:href="#path-8"></use>
                        <use fill="#3C9BC6" fill-rule="evenodd" xlink:href="#path-8"></use>
                        <use fill="black" fill-opacity="1" filter="url(#filter-10)" xlink:href="#path-8"></use>
                    </g>
                </g>
            </g>
        </g>
    </g>
</svg>