<?xml version="1.0" encoding="UTF-8"?>
<svg width="1024px" height="1024px" viewBox="0 0 1024 1024" version="1.1" xmlns="http://www.w3.org/2000/svg" xmlns:xlink="http://www.w3.org/1999/xlink">
    <!-- Generator: Sketch 40 (33762) - http://www.bohemiancoding.com/sketch -->
    <title>dynamic</title>
    <desc>Created with Sketch.</desc>
    <defs>
        <linearGradient x1="14.6446609%" y1="14.6446609%" x2="72.6932658%" y2="72.6932658%" id="linearGradient-1">
            <stop stop-color="#000000" offset="0%"></stop>
            <stop stop-color="#000000" stop-opacity="0" offset="100%"></stop>
        </linearGradient>
        <path d="M282.270562,308.260735 C282.270562,308.260735 269.301313,330.710444 261.011231,341.221864 C255.321348,348.436358 241.6588,358.498677 234.049686,366.329152 C232.904602,367.507548 238.403662,367.511175 237.263215,368.762766 C234.217633,372.105163 231.211023,375.736194 228.363219,379.80345 C219.114481,393.012569 207.815222,420.036741 202.335,424.592693 C193.874237,431.626502 182.659609,437.806736 175.935241,445.032174 C152.389237,470.332721 138.665659,490.344751 138.665659,490.344751 L142.872675,518.550419 C142.872675,518.550419 209.708966,461.953447 245.139175,433.380628 C255.838492,424.752125 270.284972,413.366409 285.080355,401.798156 C285.604521,401.38832 290.723264,404.806741 291.248155,404.396561 C300.119862,397.463695 305.050015,393.522917 313.156905,386.757403 C334.243891,369.159498 351.612691,350.211286 351.612691,350.211286 L282.270562,308.260735 Z" id="path-2"></path>
        <path d="M340.818881,169.038856 C340.230142,167.645326 342.393451,166.271821 342.393451,166.271821 L335.017054,152.096471 C335.017054,152.096471 282.002212,162.310744 238.116142,174.157773 C232.102464,175.781163 223.601798,183.595906 216.349248,188.382743 C211.388967,191.656634 206.25727,192.134127 204.478994,190.697899 C202.700717,189.26167 209.770529,188.60694 213.201442,185.520309 C214.990627,183.910664 214.162588,182.738989 213.857533,182.009914 C213.470929,181.085941 207.952373,182.137646 201.914919,184.137051 C194.053182,186.740597 187.442908,188.388763 186.996455,186.964365 C186.207145,184.446095 201.418035,179.928117 200.184606,178.49146 C199.691237,177.9168 196.212342,178.982848 191.224919,180.392883 C186.237495,181.802918 179.108621,183.910939 178.015298,182.009914 C176.903353,180.076511 185.066996,178.115564 192.075878,175.854458 C199.08476,173.593351 199.394663,172.597623 199.114333,171.923308 C198.82086,171.217379 196.956838,170.875676 192.075878,171.923308 C187.194918,172.970941 182.897989,175.104931 181.713715,173.150521 C180.52944,171.19611 185.989822,170.344908 190.668896,168.810307 C195.615244,167.188048 200.671824,165.693171 200.184606,165.041038 C199.832085,164.569195 197.408471,164.302045 193.991695,165.041038 C188.219021,166.289575 185.961165,166.447416 185.431329,165.041038 C184.815461,163.406298 186.597021,163.418045 193.991695,161.784823 C196.724108,161.18133 199.856967,160.284531 202.741093,159.857397 C217.508614,157.67035 235.805775,158.183494 236.496824,157.740429 C239.571701,155.768976 309.441127,121.349828 325.409138,114.086749 C330.231228,111.893413 335.217335,111.546749 339.626574,114.363181 C341.34035,115.457867 353.73947,126.137312 367.528627,136.36359 C368.001075,136.713966 368.489564,136.009872 368.966352,136.36359 C390.376658,152.247401 424.530242,178.49146 424.530242,178.49146 L432.019433,168.810307 L441.393468,192.605281 C441.393468,192.605281 449.54115,201.838896 458.718934,212.542555 C460.116388,214.172345 463.739199,210.872006 465.159291,212.542555 C469.113558,217.19422 487.241863,251.820132 487.691245,252.251497 C487.809757,252.365257 486.558023,254.183388 486.677715,254.297307 C498.569246,265.615295 517.734738,276.141069 517.734738,276.141069 L577.112215,212.961093 C577.112215,212.961093 575.762316,212.552585 573.977357,208.083853 C572.192397,203.61512 569.523227,199.158256 570.206666,193.911055 C570.8779,188.757551 573.30577,180.30733 575.726567,181.425297 C578.147364,182.543264 575.421338,186.857742 575.726567,191.73011 C575.907365,194.616178 577.156682,196.441375 578.147364,196.441375 C579.609412,196.441375 581.871386,187.027875 583.753598,178.49146 C585.299924,171.478392 586.405292,165.041038 588.181542,165.041038 C590.148894,165.041038 589.39433,171.768308 588.869151,176.537912 C588.343003,181.316306 588.04585,184.137051 589.599711,184.137051 C591.232361,184.137051 593.045107,177.054272 594.513913,170.329969 C595.838383,164.266443 596.773888,158.487759 598.963622,158.57322 C601.21438,158.661063 600.417237,164.267361 599.390081,170.329969 C598.309722,176.706598 596.960814,183.56637 598.048449,184.137051 C599.180804,184.731196 601.00598,178.738153 602.869212,173.150521 C604.497144,168.268528 606.086123,163.676019 608.15759,164.318607 C610.138374,164.933064 608.40261,169.766625 606.939169,175.108204 C605.120523,181.746287 603.278753,189.083674 604.310543,189.083674 C605.30552,189.083674 607.413007,185.317622 609.221385,182.009914 C610.797312,179.127382 612.013705,176.58887 613.76528,177.246346 C615.592205,177.932106 614.026903,181.38231 612.373488,184.947886 C610.622638,188.723577 608.721092,192.605281 608.721092,192.605281 L602.869212,210.423537 C602.869212,210.423537 600.937001,214.123332 600.35433,215.823338 C599.771658,217.523343 590.911325,223.707622 590.911325,223.707622 C590.911325,223.707622 543.023059,307.049544 538.478757,313.317059 C533.934456,319.584575 531.552131,320.256373 524.435742,317.5837 C520.131237,315.967074 486.126095,300.924472 459.940943,288.85559 C457.2128,287.598174 454.56983,286.365033 452.05426,285.180408 C451.493413,284.916296 450.141022,286.416285 449.593308,286.157264 C437.194607,280.293769 432.019433,269.417218 432.019433,269.417218 C432.019433,269.417218 393.103831,300.182376 386.780092,306.252166 C380.456354,312.321955 377.909108,322.237742 377.909108,322.237742 C377.909108,322.237742 389.066876,333.972866 404.366026,350.540115 C404.814248,351.025488 402.334842,351.135164 402.785203,351.6228 C420.365503,370.658204 437.2226,389.668472 438.97552,391.391419 C442.306095,394.665044 444.319583,398.942835 441.393468,402.603152 C439.451988,405.031775 432.039645,416.127234 429.364823,418.652301 C426.690002,421.177367 418.60821,422.510699 412.676986,423.481008 C406.363413,423.845523 285.671545,435.776465 285.671545,435.776465 L265.348363,435.776465 C265.348363,435.776465 270.105744,437.335797 268.48722,441.686527 C266.770223,446.301963 267.259191,460.951498 267.046987,468.290247 C266.796934,476.937953 273.104673,488.139214 272.034859,494.492748 C271.72325,496.343364 265.348363,496.925144 265.348363,496.925144 C253.063318,494.492748 246.740757,477.665221 246.740757,477.665221 C246.740757,477.665221 232.025945,436.273078 230.455695,428.040686 C228.885444,419.808294 230.851477,413.446584 234.299276,412.43795 C244.938549,409.325492 272.034859,406.379616 272.034859,406.379616 L341.338308,386.942367 L364.565872,386.028049 C364.565872,386.028049 358.542398,383.657094 348.010678,378.998703 C346.941064,378.525591 342.458695,382.013172 341.338308,381.520734 C327.171334,375.293988 310.968055,362.539997 300.32093,359.000541 C280.541003,352.42504 272.971748,339.797267 270.163877,325.387234 C267.046987,309.391318 287.833592,291.235978 287.833592,291.235978 C302.358489,268.779367 338.542303,239.019646 343.593706,232.742778 C348.645108,226.46591 355.71446,198.201055 352.912026,191.169053 C350.109592,184.137051 345.48943,180.093942 340.818881,169.038856 Z" id="path-4"></path>
    </defs>
    <g id="Icônes" stroke="none" stroke-width="1" fill="none" fill-rule="evenodd">
        <g id="dynamic">
            <circle id="Oval" fill="#FEDF21" cx="512.5" cy="512.5" r="439.5"></circle>
            <path d="M951.798271,499.055029 L806.461774,354.436926 L804.765292,355.85204 L797.410956,348.534057 L792.667499,361.2193 L786.488744,355.129476 L780.197675,378.085007 L773.6351,371.204587 L771.215175,374.720005 L711.50375,317.50375 L468,585.447831 C468,585.447831 368.955345,652.680813 341.900746,685.803481 C323.240357,708.649204 330.855035,753.353002 330.855035,753.353002 L528.84172,951.701812 C763.999688,943.106139 952,749.757982 952,512.5 C952,508.002243 951.932437,503.520266 951.798271,499.055029 Z" id="Combined-Shape" fill-opacity="0.22" fill="url(#linearGradient-1)"></path>
            <g id="runner" transform="translate(198.000000, 190.000000)">
                <path d="M312.93968,271.073188 L337.242884,241.563219 C337.242884,241.563219 328.777718,249.286439 306.731408,249.928204 C219.754455,252.46009 48.1691728,251.595102 48.1059278,256.318203 C48.0607164,259.694559 212.348912,259.873753 292.305896,262.561801 C309.059884,263.125048 312.93968,271.073188 312.93968,271.073188 Z" id="Path-22" fill="#3CB80E"></path>
                <path d="M271.714607,318.188081 L296.01781,288.678112 C296.01781,288.678112 287.552645,296.401333 265.506334,297.043098 C178.529381,299.574983 0.371958906,296.940012 0.308713875,301.663113 C0.263502531,305.039469 171.123839,306.988647 251.080823,309.676694 C267.83481,310.239941 271.714607,318.188081 271.714607,318.188081 Z" id="Path-22-Copy-2" fill="#505050"></path>
                <path d="M347.516476,227.310592 L363.744717,197.393006 C363.744717,197.393006 355.685327,205.116227 334.695799,205.757991 C251.888061,208.289877 131.589294,207.628698 131.529081,212.351799 C131.486036,215.728155 244.837501,215.70354 320.96177,218.391588 C336.912661,218.954835 347.516476,227.310592 347.516476,227.310592 Z" id="Path-22-Copy" fill="#3CB80E"></path>
                <path d="M425.087064,182.178557 L440.159493,155.912782 L454.941801,123.713201 L501.483452,125.620207 C501.483452,125.620207 507.772439,133.185689 507.179164,137.606664 C506.452758,143.019693 502.483326,150.093991 501.483452,156.749052 C499.967088,166.841816 502.628094,172.393333 501.483452,175.868446 C500.338809,179.343559 494.656137,177.476651 494.656137,177.476651 C494.656137,177.476651 482.205024,199.47525 477.898589,199.47525 C473.592154,199.47525 468.490915,194.390688 468.490915,194.390688 L462.013813,225.98843 L425.087064,182.178557 Z" id="Path-20" fill="#F69145"></path>
                <path d="M433.045474,167.967705 C433.045474,167.967705 440.650047,166.71952 444.707101,158.361754 C448.133448,151.30328 456.418181,144.966531 463.609546,140.87282 C467.47537,138.672186 487.985489,138.933768 498.9108,140.87282 C508.309199,142.540872 520.545944,128.555134 520.545944,128.555134 C520.545944,128.555134 506.940871,126.29528 501.584237,123.218514 C500.383923,122.529073 508.493099,121.45903 507.421903,120.704392 C500.653242,115.935993 489.830945,115.64253 486.535009,115.155764 C486.139912,115.097414 496.58088,110.994815 496.18022,110.937008 C489.721734,110.005178 479.05908,111.394278 472.135718,110.937008 C470.869384,110.85337 479.98324,105.684638 478.737891,105.629299 C467.503485,105.130073 452.87019,111.785718 447.95095,115.155764 C434.789509,124.172332 433.045474,167.967705 433.045474,167.967705 Z" id="Path-21" fill="#303030"></path>
                <mask id="mask-3" fill="white">
                    <use xlink:href="#path-2"></use>
                </mask>
                <use id="Path-18" fill="#DF7F36" xlink:href="#path-2"></use>
                <polygon id="Path-19" fill="#3D3D3D" mask="url(#mask-3)" points="230.688886 364.015902 291.434723 406.418919 339.520862 363.957642 269.179375 313.784371"></polygon>
                <path d="M150.238228,504.519155 C150.238228,504.519155 156.699506,506.031386 155.080983,510.382115 C153.363985,514.997551 156.889488,535.170803 156.677284,542.509552 C156.42723,551.157258 170.808306,561.948821 169.738492,568.302354 C169.426884,570.152971 161.932693,570.688853 161.932693,570.688853 C149.647648,568.256457 141.276156,561.175116 138.23664,551.233196 C135.197124,541.291276 119.187595,512.428363 116.65139,504.132717 C114.115184,495.83707 130.096637,481.635103 132.86118,480.789888 C135.625722,479.944673 131.931978,485.998384 137.143034,492.159669 C142.354089,498.320954 150.238228,504.519155 150.238228,504.519155 Z" id="Path-14-Copy" fill="#000000" transform="translate(143.087510, 525.699721) rotate(17.000000) translate(-143.087510, -525.699721) "></path>
                <mask id="mask-5" fill="white">
                    <use xlink:href="#path-4"></use>
                </mask>
                <use id="Path-14" fill="#F69145" xlink:href="#path-4"></use>
                <path d="M338.808199,168.885142 C338.808199,168.885142 352.563196,158.709463 356.878191,153.873152 C366.093143,143.544896 376.080106,119.624997 376.080106,119.624997 L428.392234,149.299336 L493.965767,237.91248 C493.965767,237.91248 490.397451,254.370554 474.164691,269.46744 C457.93193,284.564326 369.215006,333.118545 369.215006,333.118545 L279.099317,300.971714 L338.808199,168.885142 Z" id="Path-15" fill="#3BB90D" mask="url(#mask-5)"></path>
                <path d="M276.566761,291.668067 C276.566761,291.668067 328.180106,288.702703 344.629629,297.432504 C366.08772,308.820365 407.814084,349.45142 407.814084,349.45142 C407.814084,349.45142 379.326401,360.175181 368.335848,365.850099 C356.789879,371.811802 340.204518,384.361284 340.204518,384.361284 L254.484715,348.121393 L276.566761,291.668067 Z" id="Path-16" fill="#4F4F4F" mask="url(#mask-5)"></path>
                <path d="M220.827612,411.882859 L252.06682,407.818326 C252.06682,407.818326 260.92627,404.190992 258.824249,413.762488 C257.301017,420.698488 263.585564,435.087843 266.767042,436.390694 C269.948519,437.693546 273.69399,444.755714 276.288028,448.017735 C289.154811,464.197809 274.160702,501.189958 274.160702,501.189958 L249.903745,507.419009 L220.827612,411.882859 Z" id="Path-17" fill="#1D1D1D" mask="url(#mask-5)"></path>
            </g>
        </g>
    </g>
</svg>