<?xml version="1.0" encoding="UTF-8"?>
<svg width="1024px" height="1024px" viewBox="0 0 1024 1024" version="1.1" xmlns="http://www.w3.org/2000/svg" xmlns:xlink="http://www.w3.org/1999/xlink">
    <!-- Generator: Sketch 40 (33762) - http://www.bohemiancoding.com/sketch -->
    <title>web</title>
    <desc>Created with Sketch.</desc>
    <defs>
        <circle id="path-1" cx="512.5" cy="512.5" r="439.5"></circle>
        <linearGradient x1="14.6446609%" y1="14.6446609%" x2="85.3553391%" y2="85.3553391%" id="linearGradient-3">
            <stop stop-color="#000000" offset="0%"></stop>
            <stop stop-color="#000000" stop-opacity="0" offset="100%"></stop>
        </linearGradient>
        <ellipse id="path-4" cx="46.5151653" cy="125.604214" rx="2.9667987" ry="2.95291183"></ellipse>
        <mask id="mask-5" maskContentUnits="userSpaceOnUse" maskUnits="objectBoundingBox" x="0" y="0" width="5.93359739" height="5.90582366" fill="white">
            <use xlink:href="#path-4"></use>
        </mask>
        <rect id="path-6" x="0" y="0" width="81.3750499" height="107.992204" rx="0.2"></rect>
        <rect id="path-8" x="0" y="0" width="38.4328168" height="67.6584222" rx="0.2"></rect>
        <rect id="path-10" x="0" y="0" width="152.152204" height="95.575175" rx="0.2"></rect>
    </defs>
    <g id="Icônes" stroke="none" stroke-width="1" fill="none" fill-rule="evenodd">
        <g id="web">
            <mask id="mask-2" fill="white">
                <use xlink:href="#path-1"></use>
            </mask>
            <use id="Oval" fill="#2B83AF" xlink:href="#path-1"></use>
            <path d="M1019.99717,795.418266 L892.857737,922.557702 L917.153462,946.853426 L777.853426,1086.15346 L753.557702,1061.85774 L731.126984,1084.28846 L420,773.161472 L442.430718,750.730754 L285,593.300036 L367.75,510.550036 L257.694607,400.494643 L396.994643,261.194607 L664.480754,528.680718 L708.870189,484.291282 L681,456.421093 L780.421093,357 L1273.27452,849.853426 L1173.85343,949.27452 L1019.99717,795.418266 Z" id="Combined-Shape" fill-opacity="0.33" fill="url(#linearGradient-3)" mask="url(#mask-2)"></path>
            <g id="Group-3" mask="url(#mask-2)">
                <g transform="translate(235.000000, 167.000000)">
                    <path d="M384.568728,217.334411 C363.559999,182.386467 325.239817,159 281.449766,159 C225.419585,159 178.344494,197.287569 165.030089,249.091877 C161.342905,248.392763 157.537542,248.026923 153.646612,248.026923 C124.483834,248.026923 100.127843,268.578381 94.3099656,295.969216 C60.6874074,305.252027 36,336.022989 36,372.551923 C36,416.429884 71.620037,452 115.559579,452 C115.936365,452 116.312539,451.997384 116.688084,451.992171 L436.619159,452 L436.619159,451.95098 C437.555545,451.98357 438.496061,452 439.440421,452 C483.379963,452 519,416.429884 519,372.551923 C519,342.337921 502.110453,316.063155 477.245029,302.628803 C477.245228,302.552879 477.245327,302.476932 477.245327,302.400962 C477.245327,255.255492 438.972734,217.036538 391.761098,217.036538 C389.338789,217.036538 386.940012,217.137148 384.568728,217.334411 Z" id="Combined-Shape" stroke="#FF9300" stroke-width="10" fill="#F4F4F4"></path>
                    <path d="M62.3168624,219.752905 L165.518315,330.422914 L65,186.867882 L69.0957602,184 L190.020117,356.69788 L216.945681,385.572011 L96.4074447,176.793662 L100.737572,174.293662 L209.096476,361.97679 L115.329211,169.725407 L119.823181,167.533551 L236.280119,406.305658 L333.802546,510.885658 L330.145778,514.295649 L243.776932,421.676401 L244.935443,424.051702 L281.372721,487.162918 L311.145016,529.682163 L307.425064,532.286901 L311.737572,539.756383 L307.407445,542.256383 L277.151746,489.851976 L276.745198,489.271365 L304.815805,546.824638 L300.321835,549.016494 L287.381931,522.485759 L285.340797,524.023863 L58.4813838,222.971253 L42.34247,205.664387 L44.1614949,203.968119 L31.3748575,186.999678 L35.3680351,183.990603 L62.3168624,219.752905 Z M91.1039987,257.954725 L186.124899,359.852165 L258.412396,463.08941 L281.766487,510.972393 L91.1039987,257.954725 Z M228.059209,404.821208 L210.626701,386.127131 L244.40106,434.361915 L240.518015,426.400491 L228.059209,404.821208 Z" id="Combined-Shape" stroke="none" fill="#2B83AF" opacity="0.53662817" transform="translate(182.588702, 358.275022) rotate(3.000000) translate(-182.588702, -358.275022) "></path>
                    <path d="M246.159847,292.067011 L349.361299,402.73702 L248.842984,259.181989 L252.938744,256.314107 L373.863101,429.011986 L400.788665,457.886118 L280.250429,249.107769 L284.580556,246.607769 L392.93946,434.290896 L299.172195,242.039513 L303.666165,239.847657 L420.123104,478.619765 L517.645531,583.199764 L513.988762,586.609756 L427.619916,493.990508 L428.778428,496.365809 L465.215705,559.477025 L494.988,601.996269 L491.268049,604.601008 L495.580556,612.070489 L491.250429,614.570489 L460.99473,562.166082 L460.588182,561.585472 L488.658789,619.138745 L484.164819,621.330601 L471.224915,594.799866 L469.183781,596.33797 L242.324368,295.28536 L226.185454,277.978494 L228.004479,276.282226 L215.217842,259.313785 L219.211019,256.30471 L246.159847,292.067011 Z M274.946983,330.268832 L369.967883,432.166272 L442.25538,535.403516 L465.609471,583.286499 L274.946983,330.268832 Z M411.902193,477.135314 L394.469685,458.441238 L428.244045,506.676022 L424.360999,498.714598 L411.902193,477.135314 Z" id="Combined-Shape" stroke="none" fill="#2B83AF" opacity="0.53662817" transform="translate(366.431686, 430.589129) rotate(60.000000) translate(-366.431686, -430.589129) "></path>
                    <path d="M186.617464,97.0539661 L289.818917,207.723975 L189.300602,64.1689435 L193.396362,61.3010613 L314.320719,233.998941 L341.246282,262.873072 L220.708047,54.0947235 L225.038174,51.5947235 L333.397078,239.277851 L239.629813,47.0264678 L244.123783,44.8346121 L360.580721,283.60672 L458.103148,388.186719 L454.44638,391.596711 L368.077533,298.977462 L369.236045,301.352764 L405.673323,364.463979 L435.445618,406.983224 L431.725666,409.587962 L436.038174,417.057444 L431.708047,419.557444 L401.452348,367.153037 L401.0458,366.572426 L429.116407,424.1257 L424.622437,426.317555 L411.682533,399.78682 L409.641399,401.324925 L182.781986,100.272315 L166.643072,82.9654486 L168.462097,81.2691804 L155.675459,64.3007395 L159.668637,61.2916644 L186.617464,97.0539661 Z M215.404601,135.255786 L310.425501,237.153227 L382.712998,340.390471 L406.067089,388.273454 L215.404601,135.255786 Z M352.359811,282.122269 L334.927303,263.428193 L368.701662,311.662976 L364.818616,303.701552 L352.359811,282.122269 Z" id="Combined-Shape-Copy" stroke="none" fill="#2B83AF" opacity="0.53662817" transform="translate(306.889304, 235.576084) rotate(127.000000) translate(-306.889304, -235.576084) "></path>
                    <g id="iPad" stroke="none" stroke-width="1" fill="none" transform="translate(0.000000, 72.000000)">
                        <circle id="Oval-2" fill="#FF9300" cx="98.3161448" cy="98.3161448" r="98.3161448"></circle>
                        <g id="Body" transform="translate(51.800979, 34.886374)">
                            <rect id="Rectangle-2" stroke="#CCD2D5" stroke-width="0.6" fill="#EAF0F2" x="0" y="0" width="93.0303305" height="131.088193" rx="5.9"></rect>
                            <rect id="Rectangle-3" fill="#DEE3E6" x="5.6157261" y="11.3898028" width="81.7988783" height="108.414049" rx="0.2"></rect>
                            <use id="Oval-1" stroke="#CCD2D5" mask="url(#mask-5)" xlink:href="#path-4"></use>
                            <g id="Group" transform="translate(45.667508, 4.851212)">
                                <path d="M0.84765677,1.37099478 C0.555533056,1.37099478 0.317871289,1.13444545 0.317871289,0.843689094 C0.317871289,0.55293274 0.555533056,0.31638341 0.84765677,0.31638341 C1.13978048,0.31638341 1.37744225,0.55293274 1.37744225,0.843689094 C1.37744225,1.13444545 1.13978048,1.37099478 0.84765677,1.37099478" id="Fill-9" fill="#BAC1C4"></path>
                                <path d="M0.84765677,0 C0.380234608,0 0,0.378454822 0,0.843689094 C0,1.30892337 0.380234608,1.68737819 0.84765677,1.68737819 C1.31507893,1.68737819 1.69531354,1.30892337 1.69531354,0.843689094 C1.69531354,0.378454822 1.31507893,0 0.84765677,0 M0.84765677,0.482108054 C1.04830924,0.482108054 1.21093824,0.643975833 1.21093824,0.843689094 C1.21093824,1.04340236 1.04830924,1.20527013 0.84765677,1.20527013 C0.647004303,1.20527013 0.484375297,1.04340236 0.484375297,0.843689094 C0.484375297,0.643975833 0.647004303,0.482108054 0.84765677,0.482108054" id="Fill-11" fill="#D0D8DB"></path>
                            </g>
                        </g>
                        <g id="Screen" transform="translate(57.628620, 46.487099)">
                            <mask id="mask-7" fill="white">
                                <use xlink:href="#path-6"></use>
                            </mask>
                            <use id="Mask" fill="#343434" xlink:href="#path-6"></use>
                        </g>
                    </g>
                    <g id="Android" stroke="none" stroke-width="1" fill="none" transform="translate(426.000000, 170.000000)">
                        <g id="Body">
                            <circle id="Oval-4" fill="#FF9300" cx="70.3013293" cy="70.3013293" r="70.3013293"></circle>
                            <rect id="Rectangle-2" stroke="#CCD2D5" stroke-width="0.6" fill="#EAEFF1" x="48.629491" y="28.5433969" width="43.3436767" height="84.5730278" rx="1.6"></rect>
                            <g id="Group" transform="translate(77.454104, 32.772048)">
                                <path d="M0.854062596,1.3743117 C0.559731274,1.3743117 0.320273473,1.13719007 0.320273473,0.845730278 C0.320273473,0.554270481 0.559731274,0.317148854 0.854062596,0.317148854 C1.14839392,0.317148854 1.38785172,0.554270481 1.38785172,0.845730278 C1.38785172,1.13719007 1.14839392,1.3743117 0.854062596,1.3743117" id="Fill-9" fill="#BAC1C3"></path>
                                <path d="M0.854062596,0 C0.383108079,0 0,0.379370439 0,0.845730278 C0,1.31209012 0.383108079,1.69146056 0.854062596,1.69146056 C1.32501711,1.69146056 1.70812519,1.31209012 1.70812519,0.845730278 C1.70812519,0.379370439 1.32501711,0 0.854062596,0 M0.854062596,0.483274444 C1.05623141,0.483274444 1.22008942,0.645533839 1.22008942,0.845730278 C1.22008942,1.04592672 1.05623141,1.20818611 0.854062596,1.20818611 C0.651893778,1.20818611 0.488035769,1.04592672 0.488035769,0.845730278 C0.488035769,0.645533839 0.651893778,0.483274444 0.854062596,0.483274444" id="Fill-11" fill="#D0D8DB"></path>
                            </g>
                            <rect id="Rectangle-3" fill="#DEE3E6" x="50.8714053" y="36.7892671" width="38.8598481" height="68.0812873" rx="0.2"></rect>
                            <rect id="Rectangle-16" fill="#BAC1C3" x="66.5648055" y="31.0805877" width="7.47304771" height="0.845730278" rx="0.4"></rect>
                            <rect id="Rectangle-16" fill="#BAC1C3" x="61.4404299" y="32.8777645" width="3.20273473" height="1.48002799" rx="0.740013993"></rect>
                            <rect id="Rectangle-16" fill="#BAC1C3" x="66.5648055" y="109.733504" width="7.47304771" height="0.845730278" rx="0.4"></rect>
                        </g>
                        <g id="Screen" transform="translate(51.084921, 37.000700)">
                            <mask id="mask-9" fill="white">
                                <use xlink:href="#path-8"></use>
                            </mask>
                            <use id="Mask" fill="#343434" xlink:href="#path-8"></use>
                        </g>
                    </g>
                    <g id="Macbook" stroke="none" stroke-width="1" fill="none" transform="translate(155.000000, 385.000000)">
                        <g id="Body">
                            <circle id="Oval-3" fill="#FF9300" cx="135.316844" cy="135.316844" r="135.316844"></circle>
                            <rect id="Rectangle-2" stroke="#CCD2D5" stroke-width="0.6" fill="#EAF0F2" transform="translate(135.264014, 135.942053) rotate(-90.000000) translate(-135.264014, -135.942053) " x="78.946566" y="52.5261645" width="112.634895" height="166.831778" rx="5.9"></rect>
                            <g id="Group" transform="translate(134.418724, 83.428804)">
                                <path d="M0.950951275,1.38053031 C0.659643201,1.38053031 0.422645011,1.14233573 0.422645011,0.849557111 C0.422645011,0.556778492 0.659643201,0.318583917 0.950951275,0.318583917 C1.24225935,0.318583917 1.47925754,0.556778492 1.47925754,0.849557111 C1.47925754,1.14233573 1.24225935,1.38053031 0.950951275,1.38053031" id="Fill-9" fill="#BAC1C4"></path>
                                <path d="M0.845290022,0 C0.379172953,0 0,0.381087047 0,0.849557111 C0,1.31802718 0.379172953,1.69911422 0.845290022,1.69911422 C1.31140709,1.69911422 1.69058004,1.31802718 1.69058004,0.849557111 C1.69058004,0.381087047 1.31140709,0 0.845290022,0 M0.845290022,0.485461207 C1.04538225,0.485461207 1.20755717,0.648454807 1.20755717,0.849557111 C1.20755717,1.05065942 1.04538225,1.21365302 0.845290022,1.21365302 C0.645197798,1.21365302 0.48302287,1.05065942 0.48302287,0.849557111 C0.48302287,0.648454807 0.645197798,0.485461207 0.845290022,0.485461207" id="Fill-11" fill="#D0D8DB"></path>
                            </g>
                            <rect id="Rectangle-3" fill="#DEE3E6" x="59.0822505" y="88.3137578" width="152.574849" height="95.9999536" rx="0.2"></rect>
                            <g id="Group-2" transform="translate(33.829211, 192.809283)">
                                <path d="M0.312445623,-2.58718281e-06 C0.198241769,-5.73957505e-05 0.105661253,0.0913087616 0.105661253,0.193614217 L0.105661253,1.39308057 C0.105661253,1.39308057 5.70550128,3.44811277 25.5700232,3.71671054 C45.4879948,3.68435436 170.325939,3.71671054 170.325939,3.71671054 C170.325939,3.71671054 194.690145,3.85297983 202.824823,1.3080419 L202.824823,0.297134971 C202.824823,0.186706697 202.741958,0.0971471254 202.618039,0.0970876543 L0.312445623,-2.58718281e-06 Z" id="Path-37" stroke="#CBD2D4" stroke-width="1.2"></path>
                                <path d="M202.975267,1.27433567 C202.975267,1.27433567 200.884837,3.823007 157.4936,3.73198302 C143.18946,3.70197651 122.695042,3.70140386 101.646125,3.7141199 C80.3488165,3.70140202 59.8097205,3.70192628 45.4816415,3.73198302 C2.09042846,3.823007 0,1.27433567 0,1.27433567 L101.540464,1.27433567 L202.975267,1.27433567 Z" id="Combined-Shape" fill="#CCD2D5"></path>
                                <rect id="Rectangle-5" fill="#EAEFF1" x="0" y="0" width="202.975267" height="1.27433567" rx="0.2"></rect>
                                <path d="M82.3101159,0 L120.770812,0 L120.770812,1.27433567 C120.770812,1.27433567 115.926491,1.69911422 101.616408,1.69911422 C87.3063248,1.69911422 82.3101159,1.27433567 82.3101159,1.27433567 L82.3101159,0 Z" id="Rectangle-10" fill="#D9E0E3"></path>
                            </g>
                        </g>
                        <g id="Screen" transform="translate(59.293573, 88.526147)">
                            <mask id="mask-11" fill="white">
                                <use xlink:href="#path-10"></use>
                            </mask>
                            <use id="Mask" fill="#343434" xlink:href="#path-10"></use>
                        </g>
                    </g>
                </g>
            </g>
        </g>
    </g>
</svg>