<?xml version="1.0" encoding="UTF-8" standalone="no"?>
<svg width="723px" height="726px" viewBox="0 0 723 726" version="1.1" xmlns="http://www.w3.org/2000/svg" xmlns:xlink="http://www.w3.org/1999/xlink">
    <!-- Generator: Sketch 3.8.2 (29753) - http://www.bohemiancoding.com/sketch -->
    <title>logo</title>
    <desc>Created with Sketch.</desc>
    <defs></defs>
    <g id="Page-1" stroke="none" stroke-width="1" fill="none" fill-rule="evenodd">
        <g id="logo" fill="#FFFFFF">
            <g id="B">
                <path d="M200.833,323 C311.75,323 401.666,413.079 401.666,524.196 C401.666,635.313 311.75,725.392 200.833,725.392 C89.916,725.392 0,635.313 0,524.196 C0,413.079 89.916,323 200.833,323 Z M321,524.718 C321,591.389 267.05,645.435 200.5,645.435 C133.949,645.435 80,591.388 80,524.718 C80,458.048 133.95,404 200.5,404 C267.05,404 321,458.047 321,524.718 Z" id="Combined-Shape"></path>
                <path d="M80,526 C80,725.392029 201,725.392029 201,725.392029 C201,725.392029 0,725.392029 0,526 L0,0 L80,0 L80,526 Z" id="Shape"></path>
            </g>
            <g id="S" transform="translate(321.000000, 1.000000)">
                <path d="M81.0011028,523.196 L0,523.196 C0,634.313 89.916,724.392 200.833,724.392 C311.75,724.392 401.666,634.313 401.666,523.196 C401.666,412.079 311.75,322 200.833,322 L200.293889,403.005922 C200.695459,403.001977 201.097499,403 201.5,403 C268.05,403 322,457.047 322,523.718 C322,590.389 268.05,644.435 201.5,644.435 C134.95,644.435 81,590.388 81,523.718 C81,523.543914 81.0003678,523.369913 81.0011028,523.196 Z" id="Combined-Shape"></path>
                <path d="M321.999653,201.197 L401.666,201.197 C401.666,90.079 311.75,0.001 200.833,2.84217094e-14 C89.916,2.84217094e-14 0,90.079 0,201.196 C0,312.313 90.25,403.608 201,403 C201,397.439799 200.971302,361.811218 200.9377,321.998716 C134.646373,321.695847 81,267.862844 81,201.500499 C81,134.95062 134.95,81 201.5,81 C267.948806,81 321.835901,134.785678 321.999626,201.197 Z" id="Combined-Shape"></path>
            </g>
        </g>
    </g>
</svg>