<svg version="1" xmlns="http://www.w3.org/2000/svg" width="933.333" height="933.333" viewBox="0 0 700.000000 700.000000"><path d="M56.6 1.6C28 7.8 7.3 28.8 1.5 57.6.1 64.7 0 93.2.2 353.5c.3 274.1.4 288.3 2.1 294 7.5 25 26 43.3 50.7 50.2 6.2 1.7 19.3 1.8 297 1.8s290.8-.1 297-1.8c24.9-7 43.7-25.8 50.7-50.7 1.7-6.2 1.8-19.3 1.8-297s-.1-290.8-1.8-297c-6.9-24.7-25.2-43.2-50.2-50.7-5.7-1.7-19.8-1.8-295-2C99.5.2 62.6.3 56.6 1.6zm63.6 202.3l.3 141.9 7.5-5c12.9-8.5 33.1-17.3 48.7-21.3 18-4.5 43.2-5.7 61.5-3 20.1 3 34.2 7.6 51.8 16.6 40 20.6 69.7 57.9 80.5 100.9 3 12.2 4.5 22.2 4.5 30.5 0 5.8.3 6.8 2 7.2 1.6.4 2 1.4 2 5.2 0 12 6.2 31.5 14.2 44.8 4.3 7.3 17.6 21.3 25.2 26.8 9.5 6.7 22.1 12.6 33.2 15.4 2.2.6 8.4 1.5 13.8 2.1 24.5 2.5 49.6-4.9 69.3-20.4 24.9-19.8 37.9-50.2 35.1-82.2-3.7-42.1-35.5-76.3-78.3-84.3-2.7-.5-10.8-1.2-18-1.6-16.3-.7-26.4-2.1-38.5-5.1-49.9-12.3-91.4-49-110.1-97.2-12.5-32.3-13.4-71.7-2.5-104.4 8-23.9 19.7-43.2 36.9-60.7 31.3-31.9 70-48.1 115.2-48.1 43.5 0 82.7 16.1 113 46.5 26.1 26.1 41.6 58.7 45.5 95.7.5 5.1 1 10.5 1 12.1v2.7l-31.7-.2-31.8-.3-.6-7.6c-.9-10.4-2.5-16.8-6.7-26.9-14.2-34-45.7-56.2-83.3-58.7-40.8-2.6-81 23.3-94.8 61.3-20.6 56.6 14.7 116.2 74.6 126 4.8.8 12 1.4 15.8 1.4 31.2.1 65.2 11 91.2 29.3 11.4 8 27.7 23.9 35.7 34.7 46.9 63.2 40.6 148.9-15 204.4C557 612.8 517.7 629 474.2 629c-33.4 0-62.3-8.8-90.5-27.7-9.8-6.5-30-25.2-35.8-33.1l-2.4-3.3-7.5 8.7c-30.9 36.1-74.8 56.3-122.5 56.4-20.5 0-42.2-4.3-63.5-12.7-53.2-20.9-82.7-55.6-93.2-109.7l-2.2-11.1-.3-217.3L56 62h64l.2 141.9z"/><path d="M203.5 379.1c-34.1 4.4-64.8 27.7-76.9 58.6-5.2 13.2-6.1 18.8-6 35.8 0 14.4.3 16.9 2.7 24.8 9.9 32.1 33.3 55.5 65.4 65.4 8.2 2.5 10.1 2.7 26.8 2.7 16.7 0 18.6-.2 26.8-2.7 40-12.3 66.7-45.9 68.4-86.2.6-14.1-.6-23.7-4.7-35.3-12.1-34.6-42.4-58.6-80-63.2-9.5-1.1-12.6-1.1-22.5.1z"/></svg>